M48
; DRILL file {KiCad 5.1.10-1.fc33} date Sun Jun 13 17:02:23 2021
; FORMAT={-:-/ absolute / metric / decimal}
; #@! TF.CreationDate,2021-06-13T17:02:23+02:00
; #@! TF.GenerationSoftware,Kicad,Pcbnew,5.1.10-1.fc33
FMAT,2
METRIC
T1C0.800
T2C1.000
T3C1.100
T4C1.400
T5C3.200
T6C3.500
%
G90
G05
T1
X108.585Y-87.63
X108.585Y-90.17
X108.585Y-92.71
X108.585Y-95.25
X108.585Y-100.33
X108.585Y-102.87
X108.585Y-105.41
X108.585Y-107.95
X108.585Y-113.03
X108.585Y-115.57
X108.585Y-118.11
X108.585Y-120.65
X116.205Y-87.63
X116.205Y-90.17
X116.205Y-92.71
X116.205Y-95.25
X116.205Y-100.33
X116.205Y-102.87
X116.205Y-105.41
X116.205Y-107.95
X116.205Y-113.03
X116.205Y-115.57
X116.205Y-118.11
X116.205Y-120.65
X124.46Y-92.71
X124.46Y-95.25
X124.46Y-97.79
X124.46Y-100.33
X124.46Y-102.87
X124.46Y-105.41
X124.46Y-107.95
X132.08Y-92.71
X132.08Y-95.25
X132.08Y-97.79
X132.08Y-100.33
X132.08Y-102.87
X132.08Y-105.41
X132.08Y-107.95
T2
X99.06Y-97.79
X99.06Y-100.33
X99.06Y-102.87
X99.06Y-105.41
X99.06Y-107.95
X99.06Y-110.49
X127.0Y-120.65
X129.54Y-120.65
X137.16Y-90.17
X137.16Y-100.17
X143.51Y-99.06
X146.05Y-99.06
X146.05Y-107.95
X146.05Y-110.49
X146.05Y-113.03
X146.05Y-115.57
T3
X137.16Y-76.2
X137.16Y-78.74
X137.16Y-81.28
T4
X102.87Y-76.2
X102.87Y-81.28
T5
X100.33Y-88.9
X100.33Y-119.38
X138.43Y-119.38
X146.05Y-85.09
T6
X120.5Y-78.74
T0
M30
