%TF.GenerationSoftware,KiCad,Pcbnew,5.1.10-1.fc33*%
%TF.CreationDate,2021-06-13T17:02:16+02:00*%
%TF.ProjectId,power-driver,706f7765-722d-4647-9269-7665722e6b69,rev?*%
%TF.SameCoordinates,Original*%
%TF.FileFunction,Copper,L2,Bot*%
%TF.FilePolarity,Positive*%
%FSLAX46Y46*%
G04 Gerber Fmt 4.6, Leading zero omitted, Abs format (unit mm)*
G04 Created by KiCad (PCBNEW 5.1.10-1.fc33) date 2021-06-13 17:02:16*
%MOMM*%
%LPD*%
G01*
G04 APERTURE LIST*
%TA.AperFunction,ComponentPad*%
%ADD10C,6.400000*%
%TD*%
%TA.AperFunction,ComponentPad*%
%ADD11O,1.700000X1.700000*%
%TD*%
%TA.AperFunction,ComponentPad*%
%ADD12R,1.700000X1.700000*%
%TD*%
%TA.AperFunction,ComponentPad*%
%ADD13O,2.000000X1.905000*%
%TD*%
%TA.AperFunction,ComponentPad*%
%ADD14R,2.000000X1.905000*%
%TD*%
%TA.AperFunction,ComponentPad*%
%ADD15O,1.600000X1.600000*%
%TD*%
%TA.AperFunction,ComponentPad*%
%ADD16R,1.600000X1.600000*%
%TD*%
%TA.AperFunction,ComponentPad*%
%ADD17O,3.600000X2.080000*%
%TD*%
%TA.AperFunction,ComponentPad*%
%ADD18C,2.000000*%
%TD*%
%TA.AperFunction,Conductor*%
%ADD19C,0.800000*%
%TD*%
%TA.AperFunction,Conductor*%
%ADD20C,0.254000*%
%TD*%
%TA.AperFunction,Conductor*%
%ADD21C,0.100000*%
%TD*%
G04 APERTURE END LIST*
D10*
%TO.P,H4,1*%
%TO.N,N/C*%
X100330000Y-119380000D03*
%TD*%
%TO.P,C6,2*%
%TO.N,GND*%
%TA.AperFunction,SMDPad,CuDef*%
G36*
G01*
X118094999Y-120280000D02*
X119395001Y-120280000D01*
G75*
G02*
X119645000Y-120529999I0J-249999D01*
G01*
X119645000Y-121355001D01*
G75*
G02*
X119395001Y-121605000I-249999J0D01*
G01*
X118094999Y-121605000D01*
G75*
G02*
X117845000Y-121355001I0J249999D01*
G01*
X117845000Y-120529999D01*
G75*
G02*
X118094999Y-120280000I249999J0D01*
G01*
G37*
%TD.AperFunction*%
%TO.P,C6,1*%
%TO.N,+5V*%
%TA.AperFunction,SMDPad,CuDef*%
G36*
G01*
X118094999Y-117155000D02*
X119395001Y-117155000D01*
G75*
G02*
X119645000Y-117404999I0J-249999D01*
G01*
X119645000Y-118230001D01*
G75*
G02*
X119395001Y-118480000I-249999J0D01*
G01*
X118094999Y-118480000D01*
G75*
G02*
X117845000Y-118230001I0J249999D01*
G01*
X117845000Y-117404999D01*
G75*
G02*
X118094999Y-117155000I249999J0D01*
G01*
G37*
%TD.AperFunction*%
%TD*%
%TO.P,C5,2*%
%TO.N,GND*%
%TA.AperFunction,SMDPad,CuDef*%
G36*
G01*
X118094999Y-107580000D02*
X119395001Y-107580000D01*
G75*
G02*
X119645000Y-107829999I0J-249999D01*
G01*
X119645000Y-108655001D01*
G75*
G02*
X119395001Y-108905000I-249999J0D01*
G01*
X118094999Y-108905000D01*
G75*
G02*
X117845000Y-108655001I0J249999D01*
G01*
X117845000Y-107829999D01*
G75*
G02*
X118094999Y-107580000I249999J0D01*
G01*
G37*
%TD.AperFunction*%
%TO.P,C5,1*%
%TO.N,+5V*%
%TA.AperFunction,SMDPad,CuDef*%
G36*
G01*
X118094999Y-104455000D02*
X119395001Y-104455000D01*
G75*
G02*
X119645000Y-104704999I0J-249999D01*
G01*
X119645000Y-105530001D01*
G75*
G02*
X119395001Y-105780000I-249999J0D01*
G01*
X118094999Y-105780000D01*
G75*
G02*
X117845000Y-105530001I0J249999D01*
G01*
X117845000Y-104704999D01*
G75*
G02*
X118094999Y-104455000I249999J0D01*
G01*
G37*
%TD.AperFunction*%
%TD*%
%TO.P,C7,2*%
%TO.N,GND*%
%TA.AperFunction,SMDPad,CuDef*%
G36*
G01*
X118094999Y-94880000D02*
X119395001Y-94880000D01*
G75*
G02*
X119645000Y-95129999I0J-249999D01*
G01*
X119645000Y-95955001D01*
G75*
G02*
X119395001Y-96205000I-249999J0D01*
G01*
X118094999Y-96205000D01*
G75*
G02*
X117845000Y-95955001I0J249999D01*
G01*
X117845000Y-95129999D01*
G75*
G02*
X118094999Y-94880000I249999J0D01*
G01*
G37*
%TD.AperFunction*%
%TO.P,C7,1*%
%TO.N,+5V*%
%TA.AperFunction,SMDPad,CuDef*%
G36*
G01*
X118094999Y-91755000D02*
X119395001Y-91755000D01*
G75*
G02*
X119645000Y-92004999I0J-249999D01*
G01*
X119645000Y-92830001D01*
G75*
G02*
X119395001Y-93080000I-249999J0D01*
G01*
X118094999Y-93080000D01*
G75*
G02*
X117845000Y-92830001I0J249999D01*
G01*
X117845000Y-92004999D01*
G75*
G02*
X118094999Y-91755000I249999J0D01*
G01*
G37*
%TD.AperFunction*%
%TD*%
%TO.P,H3,1*%
%TO.N,N/C*%
X138430000Y-119380000D03*
%TD*%
%TO.P,H2,1*%
%TO.N,N/C*%
X146050000Y-85090000D03*
%TD*%
%TO.P,H1,1*%
%TO.N,N/C*%
X100330000Y-88900000D03*
%TD*%
D11*
%TO.P,JP2,2*%
%TO.N,Net-(D3-Pad2)*%
X129540000Y-120650000D03*
D12*
%TO.P,JP2,1*%
%TO.N,Net-(D3-Pad1)*%
X127000000Y-120650000D03*
%TD*%
D11*
%TO.P,JP1,2*%
%TO.N,Net-(D2-Pad2)*%
X146050000Y-99060000D03*
D12*
%TO.P,JP1,1*%
%TO.N,Net-(D2-Pad1)*%
X143510000Y-99060000D03*
%TD*%
D11*
%TO.P,J3,4*%
%TO.N,Net-(D3-Pad2)*%
X146050000Y-115570000D03*
%TO.P,J3,3*%
%TO.N,GND*%
X146050000Y-113030000D03*
%TO.P,J3,2*%
%TO.N,Net-(C10-Pad2)*%
X146050000Y-110490000D03*
D12*
%TO.P,J3,1*%
%TO.N,Net-(D2-Pad2)*%
X146050000Y-107950000D03*
%TD*%
D11*
%TO.P,J2,6*%
%TO.N,Net-(D6-Pad2)*%
X99060000Y-110490000D03*
%TO.P,J2,5*%
%TO.N,Net-(D6-Pad1)*%
X99060000Y-107950000D03*
%TO.P,J2,4*%
%TO.N,Net-(D5-Pad2)*%
X99060000Y-105410000D03*
%TO.P,J2,3*%
%TO.N,Net-(D5-Pad1)*%
X99060000Y-102870000D03*
%TO.P,J2,2*%
%TO.N,Net-(D4-Pad2)*%
X99060000Y-100330000D03*
D12*
%TO.P,J2,1*%
%TO.N,Net-(D4-Pad1)*%
X99060000Y-97790000D03*
%TD*%
D13*
%TO.P,U1,3*%
%TO.N,+5V*%
X137160000Y-76200000D03*
%TO.P,U1,2*%
%TO.N,GND*%
X137160000Y-78740000D03*
D14*
%TO.P,U1,1*%
%TO.N,+15V*%
X137160000Y-81280000D03*
%TD*%
D15*
%TO.P,U5,14*%
%TO.N,N/C*%
X124460000Y-107950000D03*
%TO.P,U5,7*%
%TO.N,Net-(D2-Pad1)*%
X132080000Y-92710000D03*
%TO.P,U5,13*%
%TO.N,GND*%
X124460000Y-105410000D03*
%TO.P,U5,6*%
%TO.N,Net-(C10-Pad1)*%
X132080000Y-95250000D03*
%TO.P,U5,12*%
%TO.N,Net-(R3-Pad2)*%
X124460000Y-102870000D03*
%TO.P,U5,5*%
%TO.N,Net-(C10-Pad2)*%
X132080000Y-97790000D03*
%TO.P,U5,11*%
%TO.N,Net-(R2-Pad2)*%
X124460000Y-100330000D03*
%TO.P,U5,4*%
%TO.N,N/C*%
X132080000Y-100330000D03*
%TO.P,U5,10*%
%TO.N,Net-(R1-Pad2)*%
X124460000Y-97790000D03*
%TO.P,U5,3*%
%TO.N,+15V*%
X132080000Y-102870000D03*
%TO.P,U5,9*%
%TO.N,+5V*%
X124460000Y-95250000D03*
%TO.P,U5,2*%
%TO.N,GND*%
X132080000Y-105410000D03*
%TO.P,U5,8*%
%TO.N,N/C*%
X124460000Y-92710000D03*
D16*
%TO.P,U5,1*%
%TO.N,Net-(D3-Pad1)*%
X132080000Y-107950000D03*
%TD*%
D15*
%TO.P,U4,8*%
%TO.N,+5V*%
X116205000Y-113030000D03*
%TO.P,U4,4*%
%TO.N,N/C*%
X108585000Y-120650000D03*
%TO.P,U4,7*%
%TO.N,+5V*%
X116205000Y-115570000D03*
%TO.P,U4,3*%
%TO.N,Net-(D6-Pad2)*%
X108585000Y-118110000D03*
%TO.P,U4,6*%
%TO.N,Net-(R3-Pad2)*%
X116205000Y-118110000D03*
%TO.P,U4,2*%
%TO.N,Net-(D6-Pad1)*%
X108585000Y-115570000D03*
%TO.P,U4,5*%
%TO.N,GND*%
X116205000Y-120650000D03*
D16*
%TO.P,U4,1*%
%TO.N,N/C*%
X108585000Y-113030000D03*
%TD*%
D15*
%TO.P,U3,8*%
%TO.N,+5V*%
X116205000Y-100330000D03*
%TO.P,U3,4*%
%TO.N,N/C*%
X108585000Y-107950000D03*
%TO.P,U3,7*%
%TO.N,+5V*%
X116205000Y-102870000D03*
%TO.P,U3,3*%
%TO.N,Net-(D5-Pad2)*%
X108585000Y-105410000D03*
%TO.P,U3,6*%
%TO.N,Net-(R2-Pad2)*%
X116205000Y-105410000D03*
%TO.P,U3,2*%
%TO.N,Net-(D5-Pad1)*%
X108585000Y-102870000D03*
%TO.P,U3,5*%
%TO.N,GND*%
X116205000Y-107950000D03*
D16*
%TO.P,U3,1*%
%TO.N,N/C*%
X108585000Y-100330000D03*
%TD*%
D15*
%TO.P,U2,8*%
%TO.N,+5V*%
X116205000Y-87630000D03*
%TO.P,U2,4*%
%TO.N,N/C*%
X108585000Y-95250000D03*
%TO.P,U2,7*%
%TO.N,+5V*%
X116205000Y-90170000D03*
%TO.P,U2,3*%
%TO.N,Net-(D4-Pad2)*%
X108585000Y-92710000D03*
%TO.P,U2,6*%
%TO.N,Net-(R1-Pad2)*%
X116205000Y-92710000D03*
%TO.P,U2,2*%
%TO.N,Net-(D4-Pad1)*%
X108585000Y-90170000D03*
%TO.P,U2,5*%
%TO.N,GND*%
X116205000Y-95250000D03*
D16*
%TO.P,U2,1*%
%TO.N,N/C*%
X108585000Y-87630000D03*
%TD*%
D17*
%TO.P,J1,2*%
%TO.N,GND*%
X102870000Y-76200000D03*
%TO.P,J1,1*%
%TO.N,+15V*%
%TA.AperFunction,ComponentPad*%
G36*
G01*
X104420001Y-82320000D02*
X101319999Y-82320000D01*
G75*
G02*
X101070000Y-82070001I0J249999D01*
G01*
X101070000Y-80489999D01*
G75*
G02*
X101319999Y-80240000I249999J0D01*
G01*
X104420001Y-80240000D01*
G75*
G02*
X104670000Y-80489999I0J-249999D01*
G01*
X104670000Y-82070001D01*
G75*
G02*
X104420001Y-82320000I-249999J0D01*
G01*
G37*
%TD.AperFunction*%
%TD*%
D18*
%TO.P,C10,2*%
%TO.N,Net-(C10-Pad2)*%
X137160000Y-100170000D03*
%TO.P,C10,1*%
%TO.N,Net-(C10-Pad1)*%
X137160000Y-90170000D03*
%TD*%
%TO.P,C9,2*%
%TO.N,GND*%
%TA.AperFunction,SMDPad,CuDef*%
G36*
G01*
X133969999Y-105332500D02*
X135270001Y-105332500D01*
G75*
G02*
X135520000Y-105582499I0J-249999D01*
G01*
X135520000Y-106407501D01*
G75*
G02*
X135270001Y-106657500I-249999J0D01*
G01*
X133969999Y-106657500D01*
G75*
G02*
X133720000Y-106407501I0J249999D01*
G01*
X133720000Y-105582499D01*
G75*
G02*
X133969999Y-105332500I249999J0D01*
G01*
G37*
%TD.AperFunction*%
%TO.P,C9,1*%
%TO.N,+15V*%
%TA.AperFunction,SMDPad,CuDef*%
G36*
G01*
X133969999Y-102207500D02*
X135270001Y-102207500D01*
G75*
G02*
X135520000Y-102457499I0J-249999D01*
G01*
X135520000Y-103282501D01*
G75*
G02*
X135270001Y-103532500I-249999J0D01*
G01*
X133969999Y-103532500D01*
G75*
G02*
X133720000Y-103282501I0J249999D01*
G01*
X133720000Y-102457499D01*
G75*
G02*
X133969999Y-102207500I249999J0D01*
G01*
G37*
%TD.AperFunction*%
%TD*%
%TO.P,C8,2*%
%TO.N,+5V*%
%TA.AperFunction,SMDPad,CuDef*%
G36*
G01*
X127650001Y-99430000D02*
X126349999Y-99430000D01*
G75*
G02*
X126100000Y-99180001I0J249999D01*
G01*
X126100000Y-98354999D01*
G75*
G02*
X126349999Y-98105000I249999J0D01*
G01*
X127650001Y-98105000D01*
G75*
G02*
X127900000Y-98354999I0J-249999D01*
G01*
X127900000Y-99180001D01*
G75*
G02*
X127650001Y-99430000I-249999J0D01*
G01*
G37*
%TD.AperFunction*%
%TO.P,C8,1*%
%TO.N,GND*%
%TA.AperFunction,SMDPad,CuDef*%
G36*
G01*
X127650001Y-102555000D02*
X126349999Y-102555000D01*
G75*
G02*
X126100000Y-102305001I0J249999D01*
G01*
X126100000Y-101479999D01*
G75*
G02*
X126349999Y-101230000I249999J0D01*
G01*
X127650001Y-101230000D01*
G75*
G02*
X127900000Y-101479999I0J-249999D01*
G01*
X127900000Y-102305001D01*
G75*
G02*
X127650001Y-102555000I-249999J0D01*
G01*
G37*
%TD.AperFunction*%
%TD*%
D19*
%TO.N,GND*%
X127000000Y-101892500D02*
X127000000Y-104140000D01*
X125730000Y-105410000D02*
X124460000Y-105410000D01*
X127000000Y-104140000D02*
X125730000Y-105410000D01*
X116497500Y-95542500D02*
X116205000Y-95250000D01*
X118745000Y-95542500D02*
X116497500Y-95542500D01*
X116497500Y-108242500D02*
X116205000Y-107950000D01*
X118745000Y-108242500D02*
X116497500Y-108242500D01*
X116497500Y-120942500D02*
X116205000Y-120650000D01*
X118745000Y-120942500D02*
X116497500Y-120942500D01*
X132665000Y-105995000D02*
X132080000Y-105410000D01*
X134620000Y-105995000D02*
X132665000Y-105995000D01*
%TO.N,+15V*%
X134620000Y-102870000D02*
X132080000Y-102870000D01*
%TO.N,+5V*%
X116205000Y-115570000D02*
X116205000Y-113030000D01*
X118745000Y-117817500D02*
X118745000Y-116205000D01*
X118110000Y-115570000D02*
X116205000Y-115570000D01*
X118745000Y-116205000D02*
X118110000Y-115570000D01*
X118745000Y-105117500D02*
X118745000Y-103505000D01*
X118110000Y-102870000D02*
X116205000Y-102870000D01*
X118745000Y-103505000D02*
X118110000Y-102870000D01*
X116205000Y-102870000D02*
X116205000Y-100330000D01*
X118745000Y-92417500D02*
X118745000Y-90805000D01*
X118110000Y-90170000D02*
X116205000Y-90170000D01*
X118745000Y-90805000D02*
X118110000Y-90170000D01*
X116205000Y-90170000D02*
X116205000Y-87630000D01*
X116205000Y-87630000D02*
X121920000Y-87630000D01*
X133350000Y-76200000D02*
X137160000Y-76200000D01*
X121920000Y-87630000D02*
X133350000Y-76200000D01*
X118745000Y-92417500D02*
X120357500Y-92417500D01*
X123190000Y-95250000D02*
X124460000Y-95250000D01*
X120357500Y-92417500D02*
X123190000Y-95250000D01*
X127000000Y-98767500D02*
X127000000Y-96520000D01*
X125730000Y-95250000D02*
X124460000Y-95250000D01*
X127000000Y-96520000D02*
X125730000Y-95250000D01*
X116205000Y-100330000D02*
X120650000Y-100330000D01*
X120650000Y-100330000D02*
X121920000Y-99060000D01*
X121920000Y-96520000D02*
X123190000Y-95250000D01*
X121920000Y-99060000D02*
X121920000Y-96520000D01*
X118745000Y-105117500D02*
X120357500Y-105117500D01*
X120357500Y-105117500D02*
X121920000Y-106680000D01*
X121920000Y-106680000D02*
X121920000Y-111760000D01*
X120650000Y-113030000D02*
X116205000Y-113030000D01*
X121920000Y-111760000D02*
X120650000Y-113030000D01*
%TO.N,Net-(C10-Pad2)*%
X134780000Y-97790000D02*
X137160000Y-100170000D01*
X132080000Y-97790000D02*
X134780000Y-97790000D01*
X137160000Y-102802081D02*
X137160000Y-100170000D01*
X144847919Y-110490000D02*
X137160000Y-102802081D01*
X146050000Y-110490000D02*
X144847919Y-110490000D01*
%TO.N,Net-(C10-Pad1)*%
X132080000Y-95250000D02*
X134620000Y-95250000D01*
X137160000Y-92710000D02*
X137160000Y-90170000D01*
X134620000Y-95250000D02*
X137160000Y-92710000D01*
%TD*%
D20*
%TO.N,GND*%
X148875965Y-73880486D02*
X149050183Y-74202695D01*
X149158502Y-74552614D01*
X149163235Y-74597644D01*
X149140130Y-82811889D01*
X149028839Y-82645330D01*
X148494670Y-82111161D01*
X147866554Y-81691467D01*
X147168628Y-81402377D01*
X146427715Y-81255000D01*
X145672285Y-81255000D01*
X144931372Y-81402377D01*
X144233446Y-81691467D01*
X143605330Y-82111161D01*
X143071161Y-82645330D01*
X142651467Y-83273446D01*
X142362377Y-83971372D01*
X142215000Y-84712285D01*
X142215000Y-85467715D01*
X142362377Y-86208628D01*
X142651467Y-86906554D01*
X143071161Y-87534670D01*
X143605330Y-88068839D01*
X144233446Y-88488533D01*
X144931372Y-88777623D01*
X145672285Y-88925000D01*
X146427715Y-88925000D01*
X147168628Y-88777623D01*
X147866554Y-88488533D01*
X148494670Y-88068839D01*
X149028839Y-87534670D01*
X149127260Y-87387372D01*
X149031563Y-121409698D01*
X148883257Y-121688623D01*
X148798129Y-121793000D01*
X141430000Y-121793000D01*
X141828533Y-121196554D01*
X142117623Y-120498628D01*
X142265000Y-119757715D01*
X142265000Y-119002285D01*
X142117623Y-118261372D01*
X141828533Y-117563446D01*
X141408839Y-116935330D01*
X140874670Y-116401161D01*
X140246554Y-115981467D01*
X139548628Y-115692377D01*
X138807715Y-115545000D01*
X138052285Y-115545000D01*
X137311372Y-115692377D01*
X136613446Y-115981467D01*
X135985330Y-116401161D01*
X135451161Y-116935330D01*
X135031467Y-117563446D01*
X134742377Y-118261372D01*
X134595000Y-119002285D01*
X134595000Y-119757715D01*
X134742377Y-120498628D01*
X135031467Y-121196554D01*
X135430000Y-121793000D01*
X130497107Y-121793000D01*
X130693475Y-121596632D01*
X130855990Y-121353411D01*
X130967932Y-121083158D01*
X131025000Y-120796260D01*
X131025000Y-120503740D01*
X130967932Y-120216842D01*
X130855990Y-119946589D01*
X130693475Y-119703368D01*
X130486632Y-119496525D01*
X130243411Y-119334010D01*
X129973158Y-119222068D01*
X129686260Y-119165000D01*
X129393740Y-119165000D01*
X129106842Y-119222068D01*
X128836589Y-119334010D01*
X128593368Y-119496525D01*
X128461513Y-119628380D01*
X128439502Y-119555820D01*
X128380537Y-119445506D01*
X128301185Y-119348815D01*
X128204494Y-119269463D01*
X128094180Y-119210498D01*
X127974482Y-119174188D01*
X127850000Y-119161928D01*
X126150000Y-119161928D01*
X126025518Y-119174188D01*
X125905820Y-119210498D01*
X125795506Y-119269463D01*
X125698815Y-119348815D01*
X125619463Y-119445506D01*
X125560498Y-119555820D01*
X125524188Y-119675518D01*
X125511928Y-119800000D01*
X125511928Y-121500000D01*
X125524188Y-121624482D01*
X125560498Y-121744180D01*
X125586593Y-121793000D01*
X120251544Y-121793000D01*
X120270812Y-121729482D01*
X120283072Y-121605000D01*
X120280000Y-121228250D01*
X120121250Y-121069500D01*
X118872000Y-121069500D01*
X118872000Y-121089500D01*
X118618000Y-121089500D01*
X118618000Y-121069500D01*
X118598000Y-121069500D01*
X118598000Y-120815500D01*
X118618000Y-120815500D01*
X118618000Y-119803750D01*
X118872000Y-119803750D01*
X118872000Y-120815500D01*
X120121250Y-120815500D01*
X120280000Y-120656750D01*
X120283072Y-120280000D01*
X120270812Y-120155518D01*
X120234502Y-120035820D01*
X120175537Y-119925506D01*
X120096185Y-119828815D01*
X119999494Y-119749463D01*
X119889180Y-119690498D01*
X119769482Y-119654188D01*
X119645000Y-119641928D01*
X119030750Y-119645000D01*
X118872000Y-119803750D01*
X118618000Y-119803750D01*
X118459250Y-119645000D01*
X117845000Y-119641928D01*
X117720518Y-119654188D01*
X117600820Y-119690498D01*
X117490506Y-119749463D01*
X117393815Y-119828815D01*
X117383375Y-119841536D01*
X117268519Y-119686586D01*
X117060131Y-119497615D01*
X116874135Y-119386067D01*
X116884727Y-119381680D01*
X117119759Y-119224637D01*
X117319637Y-119024759D01*
X117447221Y-118833815D01*
X117467038Y-118857962D01*
X117601613Y-118968405D01*
X117755149Y-119050472D01*
X117921745Y-119101008D01*
X118094999Y-119118072D01*
X119395001Y-119118072D01*
X119568255Y-119101008D01*
X119734851Y-119050472D01*
X119888387Y-118968405D01*
X120022962Y-118857962D01*
X120133405Y-118723387D01*
X120215472Y-118569851D01*
X120266008Y-118403255D01*
X120283072Y-118230001D01*
X120283072Y-117404999D01*
X120266008Y-117231745D01*
X120215472Y-117065149D01*
X120133405Y-116911613D01*
X120022962Y-116777038D01*
X119888387Y-116666595D01*
X119780000Y-116608661D01*
X119780000Y-116255835D01*
X119785007Y-116205000D01*
X119779373Y-116147797D01*
X119765024Y-116002105D01*
X119705841Y-115807007D01*
X119705841Y-115807006D01*
X119609734Y-115627202D01*
X119542272Y-115545000D01*
X119480396Y-115469604D01*
X119440903Y-115437193D01*
X119427450Y-115423740D01*
X144565000Y-115423740D01*
X144565000Y-115716260D01*
X144622068Y-116003158D01*
X144734010Y-116273411D01*
X144896525Y-116516632D01*
X145103368Y-116723475D01*
X145346589Y-116885990D01*
X145616842Y-116997932D01*
X145903740Y-117055000D01*
X146196260Y-117055000D01*
X146483158Y-116997932D01*
X146753411Y-116885990D01*
X146996632Y-116723475D01*
X147203475Y-116516632D01*
X147365990Y-116273411D01*
X147477932Y-116003158D01*
X147535000Y-115716260D01*
X147535000Y-115423740D01*
X147477932Y-115136842D01*
X147365990Y-114866589D01*
X147203475Y-114623368D01*
X146996632Y-114416525D01*
X146814466Y-114294805D01*
X146931355Y-114225178D01*
X147147588Y-114030269D01*
X147321641Y-113796920D01*
X147446825Y-113534099D01*
X147491476Y-113386890D01*
X147370155Y-113157000D01*
X146177000Y-113157000D01*
X146177000Y-113177000D01*
X145923000Y-113177000D01*
X145923000Y-113157000D01*
X144729845Y-113157000D01*
X144608524Y-113386890D01*
X144653175Y-113534099D01*
X144778359Y-113796920D01*
X144952412Y-114030269D01*
X145168645Y-114225178D01*
X145285534Y-114294805D01*
X145103368Y-114416525D01*
X144896525Y-114623368D01*
X144734010Y-114866589D01*
X144622068Y-115136842D01*
X144565000Y-115423740D01*
X119427450Y-115423740D01*
X118877807Y-114874097D01*
X118845396Y-114834604D01*
X118687797Y-114705266D01*
X118507993Y-114609159D01*
X118312895Y-114549976D01*
X118160838Y-114535000D01*
X118160828Y-114535000D01*
X118110000Y-114529994D01*
X118059172Y-114535000D01*
X117240000Y-114535000D01*
X117240000Y-114065000D01*
X120599172Y-114065000D01*
X120650000Y-114070006D01*
X120700828Y-114065000D01*
X120700838Y-114065000D01*
X120852895Y-114050024D01*
X121047993Y-113990841D01*
X121227797Y-113894734D01*
X121385396Y-113765396D01*
X121417807Y-113725903D01*
X122615908Y-112527803D01*
X122655396Y-112495396D01*
X122690844Y-112452203D01*
X122784734Y-112337798D01*
X122836104Y-112241691D01*
X122880841Y-112157993D01*
X122940024Y-111962895D01*
X122955000Y-111810838D01*
X122955000Y-111810829D01*
X122960006Y-111760001D01*
X122955000Y-111709173D01*
X122955000Y-107808665D01*
X123025000Y-107808665D01*
X123025000Y-108091335D01*
X123080147Y-108368574D01*
X123188320Y-108629727D01*
X123345363Y-108864759D01*
X123545241Y-109064637D01*
X123780273Y-109221680D01*
X124041426Y-109329853D01*
X124318665Y-109385000D01*
X124601335Y-109385000D01*
X124878574Y-109329853D01*
X125139727Y-109221680D01*
X125374759Y-109064637D01*
X125574637Y-108864759D01*
X125731680Y-108629727D01*
X125839853Y-108368574D01*
X125895000Y-108091335D01*
X125895000Y-107808665D01*
X125839853Y-107531426D01*
X125731680Y-107270273D01*
X125651317Y-107150000D01*
X130641928Y-107150000D01*
X130641928Y-108750000D01*
X130654188Y-108874482D01*
X130690498Y-108994180D01*
X130749463Y-109104494D01*
X130828815Y-109201185D01*
X130925506Y-109280537D01*
X131035820Y-109339502D01*
X131155518Y-109375812D01*
X131280000Y-109388072D01*
X132880000Y-109388072D01*
X133004482Y-109375812D01*
X133124180Y-109339502D01*
X133234494Y-109280537D01*
X133331185Y-109201185D01*
X133410537Y-109104494D01*
X133469502Y-108994180D01*
X133505812Y-108874482D01*
X133518072Y-108750000D01*
X133518072Y-107259819D01*
X133595518Y-107283312D01*
X133720000Y-107295572D01*
X134334250Y-107292500D01*
X134493000Y-107133750D01*
X134493000Y-106122000D01*
X134747000Y-106122000D01*
X134747000Y-107133750D01*
X134905750Y-107292500D01*
X135520000Y-107295572D01*
X135644482Y-107283312D01*
X135764180Y-107247002D01*
X135874494Y-107188037D01*
X135971185Y-107108685D01*
X136050537Y-107011994D01*
X136109502Y-106901680D01*
X136145812Y-106781982D01*
X136158072Y-106657500D01*
X136155000Y-106280750D01*
X135996250Y-106122000D01*
X134747000Y-106122000D01*
X134493000Y-106122000D01*
X134473000Y-106122000D01*
X134473000Y-105868000D01*
X134493000Y-105868000D01*
X134493000Y-104856250D01*
X134747000Y-104856250D01*
X134747000Y-105868000D01*
X135996250Y-105868000D01*
X136155000Y-105709250D01*
X136158072Y-105332500D01*
X136145812Y-105208018D01*
X136109502Y-105088320D01*
X136050537Y-104978006D01*
X135971185Y-104881315D01*
X135874494Y-104801963D01*
X135764180Y-104742998D01*
X135644482Y-104706688D01*
X135520000Y-104694428D01*
X134905750Y-104697500D01*
X134747000Y-104856250D01*
X134493000Y-104856250D01*
X134334250Y-104697500D01*
X133720000Y-104694428D01*
X133595518Y-104706688D01*
X133475820Y-104742998D01*
X133370841Y-104799111D01*
X133311037Y-104672580D01*
X133143519Y-104446586D01*
X132935131Y-104257615D01*
X132749135Y-104146067D01*
X132759727Y-104141680D01*
X132994759Y-103984637D01*
X133074396Y-103905000D01*
X133337555Y-103905000D01*
X133342038Y-103910462D01*
X133476613Y-104020905D01*
X133630149Y-104102972D01*
X133796745Y-104153508D01*
X133969999Y-104170572D01*
X135270001Y-104170572D01*
X135443255Y-104153508D01*
X135609851Y-104102972D01*
X135763387Y-104020905D01*
X135897962Y-103910462D01*
X136008405Y-103775887D01*
X136090472Y-103622351D01*
X136141008Y-103455755D01*
X136158072Y-103282501D01*
X136158072Y-103064629D01*
X136199159Y-103200073D01*
X136295266Y-103379878D01*
X136424604Y-103537477D01*
X136464097Y-103569888D01*
X144080116Y-111185908D01*
X144112523Y-111225396D01*
X144152011Y-111257803D01*
X144270121Y-111354734D01*
X144366228Y-111406104D01*
X144449926Y-111450841D01*
X144645024Y-111510024D01*
X144797081Y-111525000D01*
X144797090Y-111525000D01*
X144847918Y-111530006D01*
X144898746Y-111525000D01*
X144984893Y-111525000D01*
X145103368Y-111643475D01*
X145285534Y-111765195D01*
X145168645Y-111834822D01*
X144952412Y-112029731D01*
X144778359Y-112263080D01*
X144653175Y-112525901D01*
X144608524Y-112673110D01*
X144729845Y-112903000D01*
X145923000Y-112903000D01*
X145923000Y-112883000D01*
X146177000Y-112883000D01*
X146177000Y-112903000D01*
X147370155Y-112903000D01*
X147491476Y-112673110D01*
X147446825Y-112525901D01*
X147321641Y-112263080D01*
X147147588Y-112029731D01*
X146931355Y-111834822D01*
X146814466Y-111765195D01*
X146996632Y-111643475D01*
X147203475Y-111436632D01*
X147365990Y-111193411D01*
X147477932Y-110923158D01*
X147535000Y-110636260D01*
X147535000Y-110343740D01*
X147477932Y-110056842D01*
X147365990Y-109786589D01*
X147203475Y-109543368D01*
X147071620Y-109411513D01*
X147144180Y-109389502D01*
X147254494Y-109330537D01*
X147351185Y-109251185D01*
X147430537Y-109154494D01*
X147489502Y-109044180D01*
X147525812Y-108924482D01*
X147538072Y-108800000D01*
X147538072Y-107100000D01*
X147525812Y-106975518D01*
X147489502Y-106855820D01*
X147430537Y-106745506D01*
X147351185Y-106648815D01*
X147254494Y-106569463D01*
X147144180Y-106510498D01*
X147024482Y-106474188D01*
X146900000Y-106461928D01*
X145200000Y-106461928D01*
X145075518Y-106474188D01*
X144955820Y-106510498D01*
X144845506Y-106569463D01*
X144748815Y-106648815D01*
X144669463Y-106745506D01*
X144610498Y-106855820D01*
X144574188Y-106975518D01*
X144561928Y-107100000D01*
X144561928Y-108740298D01*
X138195000Y-102373371D01*
X138195000Y-101444833D01*
X138202252Y-101439987D01*
X138429987Y-101212252D01*
X138608918Y-100944463D01*
X138732168Y-100646912D01*
X138795000Y-100331033D01*
X138795000Y-100008967D01*
X138732168Y-99693088D01*
X138608918Y-99395537D01*
X138429987Y-99127748D01*
X138202252Y-98900013D01*
X137934463Y-98721082D01*
X137636912Y-98597832D01*
X137321033Y-98535000D01*
X136998967Y-98535000D01*
X136990412Y-98536702D01*
X136663710Y-98210000D01*
X142021928Y-98210000D01*
X142021928Y-99910000D01*
X142034188Y-100034482D01*
X142070498Y-100154180D01*
X142129463Y-100264494D01*
X142208815Y-100361185D01*
X142305506Y-100440537D01*
X142415820Y-100499502D01*
X142535518Y-100535812D01*
X142660000Y-100548072D01*
X144360000Y-100548072D01*
X144484482Y-100535812D01*
X144604180Y-100499502D01*
X144714494Y-100440537D01*
X144811185Y-100361185D01*
X144890537Y-100264494D01*
X144949502Y-100154180D01*
X144971513Y-100081620D01*
X145103368Y-100213475D01*
X145346589Y-100375990D01*
X145616842Y-100487932D01*
X145903740Y-100545000D01*
X146196260Y-100545000D01*
X146483158Y-100487932D01*
X146753411Y-100375990D01*
X146996632Y-100213475D01*
X147203475Y-100006632D01*
X147365990Y-99763411D01*
X147477932Y-99493158D01*
X147535000Y-99206260D01*
X147535000Y-98913740D01*
X147477932Y-98626842D01*
X147365990Y-98356589D01*
X147203475Y-98113368D01*
X146996632Y-97906525D01*
X146753411Y-97744010D01*
X146483158Y-97632068D01*
X146196260Y-97575000D01*
X145903740Y-97575000D01*
X145616842Y-97632068D01*
X145346589Y-97744010D01*
X145103368Y-97906525D01*
X144971513Y-98038380D01*
X144949502Y-97965820D01*
X144890537Y-97855506D01*
X144811185Y-97758815D01*
X144714494Y-97679463D01*
X144604180Y-97620498D01*
X144484482Y-97584188D01*
X144360000Y-97571928D01*
X142660000Y-97571928D01*
X142535518Y-97584188D01*
X142415820Y-97620498D01*
X142305506Y-97679463D01*
X142208815Y-97758815D01*
X142129463Y-97855506D01*
X142070498Y-97965820D01*
X142034188Y-98085518D01*
X142021928Y-98210000D01*
X136663710Y-98210000D01*
X135547807Y-97094097D01*
X135515396Y-97054604D01*
X135357797Y-96925266D01*
X135177993Y-96829159D01*
X134982895Y-96769976D01*
X134830838Y-96755000D01*
X134830828Y-96755000D01*
X134780000Y-96749994D01*
X134729172Y-96755000D01*
X133074396Y-96755000D01*
X132994759Y-96675363D01*
X132762241Y-96520000D01*
X132994759Y-96364637D01*
X133074396Y-96285000D01*
X134569172Y-96285000D01*
X134620000Y-96290006D01*
X134670828Y-96285000D01*
X134670838Y-96285000D01*
X134822895Y-96270024D01*
X135017993Y-96210841D01*
X135197797Y-96114734D01*
X135355396Y-95985396D01*
X135387807Y-95945903D01*
X137855908Y-93477803D01*
X137895396Y-93445396D01*
X137950427Y-93378341D01*
X138024734Y-93287798D01*
X138120840Y-93107994D01*
X138120841Y-93107993D01*
X138180024Y-92912895D01*
X138195000Y-92760838D01*
X138195000Y-92760829D01*
X138200006Y-92710001D01*
X138195000Y-92659173D01*
X138195000Y-91444833D01*
X138202252Y-91439987D01*
X138429987Y-91212252D01*
X138608918Y-90944463D01*
X138732168Y-90646912D01*
X138795000Y-90331033D01*
X138795000Y-90008967D01*
X138732168Y-89693088D01*
X138608918Y-89395537D01*
X138429987Y-89127748D01*
X138202252Y-88900013D01*
X137934463Y-88721082D01*
X137636912Y-88597832D01*
X137321033Y-88535000D01*
X136998967Y-88535000D01*
X136683088Y-88597832D01*
X136385537Y-88721082D01*
X136117748Y-88900013D01*
X135890013Y-89127748D01*
X135711082Y-89395537D01*
X135587832Y-89693088D01*
X135525000Y-90008967D01*
X135525000Y-90331033D01*
X135587832Y-90646912D01*
X135711082Y-90944463D01*
X135890013Y-91212252D01*
X136117748Y-91439987D01*
X136125000Y-91444833D01*
X136125000Y-92281289D01*
X134191290Y-94215000D01*
X133074396Y-94215000D01*
X132994759Y-94135363D01*
X132762241Y-93980000D01*
X132994759Y-93824637D01*
X133194637Y-93624759D01*
X133351680Y-93389727D01*
X133459853Y-93128574D01*
X133515000Y-92851335D01*
X133515000Y-92568665D01*
X133459853Y-92291426D01*
X133351680Y-92030273D01*
X133194637Y-91795241D01*
X132994759Y-91595363D01*
X132759727Y-91438320D01*
X132498574Y-91330147D01*
X132221335Y-91275000D01*
X131938665Y-91275000D01*
X131661426Y-91330147D01*
X131400273Y-91438320D01*
X131165241Y-91595363D01*
X130965363Y-91795241D01*
X130808320Y-92030273D01*
X130700147Y-92291426D01*
X130645000Y-92568665D01*
X130645000Y-92851335D01*
X130700147Y-93128574D01*
X130808320Y-93389727D01*
X130965363Y-93624759D01*
X131165241Y-93824637D01*
X131397759Y-93980000D01*
X131165241Y-94135363D01*
X130965363Y-94335241D01*
X130808320Y-94570273D01*
X130700147Y-94831426D01*
X130645000Y-95108665D01*
X130645000Y-95391335D01*
X130700147Y-95668574D01*
X130808320Y-95929727D01*
X130965363Y-96164759D01*
X131165241Y-96364637D01*
X131397759Y-96520000D01*
X131165241Y-96675363D01*
X130965363Y-96875241D01*
X130808320Y-97110273D01*
X130700147Y-97371426D01*
X130645000Y-97648665D01*
X130645000Y-97931335D01*
X130700147Y-98208574D01*
X130808320Y-98469727D01*
X130965363Y-98704759D01*
X131165241Y-98904637D01*
X131397759Y-99060000D01*
X131165241Y-99215363D01*
X130965363Y-99415241D01*
X130808320Y-99650273D01*
X130700147Y-99911426D01*
X130645000Y-100188665D01*
X130645000Y-100471335D01*
X130700147Y-100748574D01*
X130808320Y-101009727D01*
X130965363Y-101244759D01*
X131165241Y-101444637D01*
X131397759Y-101600000D01*
X131165241Y-101755363D01*
X130965363Y-101955241D01*
X130808320Y-102190273D01*
X130700147Y-102451426D01*
X130645000Y-102728665D01*
X130645000Y-103011335D01*
X130700147Y-103288574D01*
X130808320Y-103549727D01*
X130965363Y-103784759D01*
X131165241Y-103984637D01*
X131400273Y-104141680D01*
X131410865Y-104146067D01*
X131224869Y-104257615D01*
X131016481Y-104446586D01*
X130848963Y-104672580D01*
X130728754Y-104926913D01*
X130688096Y-105060961D01*
X130810085Y-105283000D01*
X131953000Y-105283000D01*
X131953000Y-105263000D01*
X132207000Y-105263000D01*
X132207000Y-105283000D01*
X132227000Y-105283000D01*
X132227000Y-105537000D01*
X132207000Y-105537000D01*
X132207000Y-105557000D01*
X131953000Y-105557000D01*
X131953000Y-105537000D01*
X130810085Y-105537000D01*
X130688096Y-105759039D01*
X130728754Y-105893087D01*
X130848963Y-106147420D01*
X131016481Y-106373414D01*
X131180080Y-106521769D01*
X131155518Y-106524188D01*
X131035820Y-106560498D01*
X130925506Y-106619463D01*
X130828815Y-106698815D01*
X130749463Y-106795506D01*
X130690498Y-106905820D01*
X130654188Y-107025518D01*
X130641928Y-107150000D01*
X125651317Y-107150000D01*
X125574637Y-107035241D01*
X125374759Y-106835363D01*
X125139727Y-106678320D01*
X125129135Y-106673933D01*
X125315131Y-106562385D01*
X125523519Y-106373414D01*
X125691037Y-106147420D01*
X125811246Y-105893087D01*
X125851904Y-105759039D01*
X125729915Y-105537000D01*
X124587000Y-105537000D01*
X124587000Y-105557000D01*
X124333000Y-105557000D01*
X124333000Y-105537000D01*
X123190085Y-105537000D01*
X123068096Y-105759039D01*
X123108754Y-105893087D01*
X123228963Y-106147420D01*
X123396481Y-106373414D01*
X123604869Y-106562385D01*
X123790865Y-106673933D01*
X123780273Y-106678320D01*
X123545241Y-106835363D01*
X123345363Y-107035241D01*
X123188320Y-107270273D01*
X123080147Y-107531426D01*
X123025000Y-107808665D01*
X122955000Y-107808665D01*
X122955000Y-106730835D01*
X122960007Y-106680000D01*
X122955000Y-106629162D01*
X122940024Y-106477105D01*
X122880841Y-106282007D01*
X122808903Y-106147420D01*
X122784734Y-106102202D01*
X122687803Y-105984092D01*
X122655396Y-105944604D01*
X122615908Y-105912197D01*
X121125307Y-104421597D01*
X121092896Y-104382104D01*
X120935297Y-104252766D01*
X120755493Y-104156659D01*
X120560395Y-104097476D01*
X120408338Y-104082500D01*
X120408328Y-104082500D01*
X120357500Y-104077494D01*
X120306672Y-104082500D01*
X120027445Y-104082500D01*
X120022962Y-104077038D01*
X119888387Y-103966595D01*
X119780000Y-103908661D01*
X119780000Y-103555835D01*
X119785007Y-103505000D01*
X119779373Y-103447797D01*
X119765024Y-103302105D01*
X119705841Y-103107007D01*
X119705841Y-103107006D01*
X119609734Y-102927202D01*
X119548770Y-102852918D01*
X119480396Y-102769604D01*
X119440903Y-102737193D01*
X118877807Y-102174097D01*
X118845396Y-102134604D01*
X118687797Y-102005266D01*
X118507993Y-101909159D01*
X118312895Y-101849976D01*
X118160838Y-101835000D01*
X118160828Y-101835000D01*
X118110000Y-101829994D01*
X118059172Y-101835000D01*
X117240000Y-101835000D01*
X117240000Y-101365000D01*
X120599172Y-101365000D01*
X120650000Y-101370006D01*
X120700828Y-101365000D01*
X120700838Y-101365000D01*
X120852895Y-101350024D01*
X121047993Y-101290841D01*
X121227797Y-101194734D01*
X121385396Y-101065396D01*
X121417807Y-101025903D01*
X122615908Y-99827803D01*
X122655396Y-99795396D01*
X122739358Y-99693088D01*
X122784734Y-99637798D01*
X122836104Y-99541691D01*
X122880841Y-99457993D01*
X122940024Y-99262895D01*
X122955000Y-99110838D01*
X122955000Y-99110829D01*
X122960006Y-99060001D01*
X122955000Y-99009173D01*
X122955000Y-96948710D01*
X123542157Y-96361553D01*
X123545241Y-96364637D01*
X123777759Y-96520000D01*
X123545241Y-96675363D01*
X123345363Y-96875241D01*
X123188320Y-97110273D01*
X123080147Y-97371426D01*
X123025000Y-97648665D01*
X123025000Y-97931335D01*
X123080147Y-98208574D01*
X123188320Y-98469727D01*
X123345363Y-98704759D01*
X123545241Y-98904637D01*
X123777759Y-99060000D01*
X123545241Y-99215363D01*
X123345363Y-99415241D01*
X123188320Y-99650273D01*
X123080147Y-99911426D01*
X123025000Y-100188665D01*
X123025000Y-100471335D01*
X123080147Y-100748574D01*
X123188320Y-101009727D01*
X123345363Y-101244759D01*
X123545241Y-101444637D01*
X123777759Y-101600000D01*
X123545241Y-101755363D01*
X123345363Y-101955241D01*
X123188320Y-102190273D01*
X123080147Y-102451426D01*
X123025000Y-102728665D01*
X123025000Y-103011335D01*
X123080147Y-103288574D01*
X123188320Y-103549727D01*
X123345363Y-103784759D01*
X123545241Y-103984637D01*
X123780273Y-104141680D01*
X123790865Y-104146067D01*
X123604869Y-104257615D01*
X123396481Y-104446586D01*
X123228963Y-104672580D01*
X123108754Y-104926913D01*
X123068096Y-105060961D01*
X123190085Y-105283000D01*
X124333000Y-105283000D01*
X124333000Y-105263000D01*
X124587000Y-105263000D01*
X124587000Y-105283000D01*
X125729915Y-105283000D01*
X125851904Y-105060961D01*
X125811246Y-104926913D01*
X125691037Y-104672580D01*
X125523519Y-104446586D01*
X125315131Y-104257615D01*
X125129135Y-104146067D01*
X125139727Y-104141680D01*
X125374759Y-103984637D01*
X125574637Y-103784759D01*
X125731680Y-103549727D01*
X125839853Y-103288574D01*
X125867789Y-103148133D01*
X125975518Y-103180812D01*
X126100000Y-103193072D01*
X126714250Y-103190000D01*
X126873000Y-103031250D01*
X126873000Y-102019500D01*
X127127000Y-102019500D01*
X127127000Y-103031250D01*
X127285750Y-103190000D01*
X127900000Y-103193072D01*
X128024482Y-103180812D01*
X128144180Y-103144502D01*
X128254494Y-103085537D01*
X128351185Y-103006185D01*
X128430537Y-102909494D01*
X128489502Y-102799180D01*
X128525812Y-102679482D01*
X128538072Y-102555000D01*
X128535000Y-102178250D01*
X128376250Y-102019500D01*
X127127000Y-102019500D01*
X126873000Y-102019500D01*
X126853000Y-102019500D01*
X126853000Y-101765500D01*
X126873000Y-101765500D01*
X126873000Y-100753750D01*
X127127000Y-100753750D01*
X127127000Y-101765500D01*
X128376250Y-101765500D01*
X128535000Y-101606750D01*
X128538072Y-101230000D01*
X128525812Y-101105518D01*
X128489502Y-100985820D01*
X128430537Y-100875506D01*
X128351185Y-100778815D01*
X128254494Y-100699463D01*
X128144180Y-100640498D01*
X128024482Y-100604188D01*
X127900000Y-100591928D01*
X127285750Y-100595000D01*
X127127000Y-100753750D01*
X126873000Y-100753750D01*
X126714250Y-100595000D01*
X126100000Y-100591928D01*
X125975518Y-100604188D01*
X125861706Y-100638712D01*
X125895000Y-100471335D01*
X125895000Y-100188665D01*
X125839853Y-99911426D01*
X125835601Y-99901161D01*
X125856613Y-99918405D01*
X126010149Y-100000472D01*
X126176745Y-100051008D01*
X126349999Y-100068072D01*
X127650001Y-100068072D01*
X127823255Y-100051008D01*
X127989851Y-100000472D01*
X128143387Y-99918405D01*
X128277962Y-99807962D01*
X128388405Y-99673387D01*
X128470472Y-99519851D01*
X128521008Y-99353255D01*
X128538072Y-99180001D01*
X128538072Y-98354999D01*
X128521008Y-98181745D01*
X128470472Y-98015149D01*
X128388405Y-97861613D01*
X128277962Y-97727038D01*
X128143387Y-97616595D01*
X128035000Y-97558661D01*
X128035000Y-96570827D01*
X128040006Y-96519999D01*
X128035000Y-96469171D01*
X128035000Y-96469162D01*
X128020024Y-96317105D01*
X127960841Y-96122007D01*
X127887821Y-95985396D01*
X127864734Y-95942202D01*
X127767803Y-95824092D01*
X127735396Y-95784604D01*
X127695908Y-95752197D01*
X126497807Y-94554097D01*
X126465396Y-94514604D01*
X126307797Y-94385266D01*
X126127993Y-94289159D01*
X125932895Y-94229976D01*
X125780838Y-94215000D01*
X125780828Y-94215000D01*
X125730000Y-94209994D01*
X125679172Y-94215000D01*
X125454396Y-94215000D01*
X125374759Y-94135363D01*
X125142241Y-93980000D01*
X125374759Y-93824637D01*
X125574637Y-93624759D01*
X125731680Y-93389727D01*
X125839853Y-93128574D01*
X125895000Y-92851335D01*
X125895000Y-92568665D01*
X125839853Y-92291426D01*
X125731680Y-92030273D01*
X125574637Y-91795241D01*
X125374759Y-91595363D01*
X125139727Y-91438320D01*
X124878574Y-91330147D01*
X124601335Y-91275000D01*
X124318665Y-91275000D01*
X124041426Y-91330147D01*
X123780273Y-91438320D01*
X123545241Y-91595363D01*
X123345363Y-91795241D01*
X123188320Y-92030273D01*
X123080147Y-92291426D01*
X123025000Y-92568665D01*
X123025000Y-92851335D01*
X123080147Y-93128574D01*
X123188320Y-93389727D01*
X123345363Y-93624759D01*
X123545241Y-93824637D01*
X123777759Y-93980000D01*
X123545241Y-94135363D01*
X123542157Y-94138447D01*
X121125307Y-91721597D01*
X121092896Y-91682104D01*
X120935297Y-91552766D01*
X120755493Y-91456659D01*
X120560395Y-91397476D01*
X120408338Y-91382500D01*
X120408328Y-91382500D01*
X120357500Y-91377494D01*
X120306672Y-91382500D01*
X120027445Y-91382500D01*
X120022962Y-91377038D01*
X119888387Y-91266595D01*
X119780000Y-91208661D01*
X119780000Y-90855835D01*
X119785007Y-90805000D01*
X119776296Y-90716554D01*
X119765024Y-90602105D01*
X119705841Y-90407007D01*
X119705841Y-90407006D01*
X119609734Y-90227202D01*
X119521067Y-90119162D01*
X119480396Y-90069604D01*
X119440903Y-90037193D01*
X118877807Y-89474097D01*
X118845396Y-89434604D01*
X118687797Y-89305266D01*
X118507993Y-89209159D01*
X118312895Y-89149976D01*
X118160838Y-89135000D01*
X118160828Y-89135000D01*
X118110000Y-89129994D01*
X118059172Y-89135000D01*
X117240000Y-89135000D01*
X117240000Y-88665000D01*
X121869172Y-88665000D01*
X121920000Y-88670006D01*
X121970828Y-88665000D01*
X121970838Y-88665000D01*
X122122895Y-88650024D01*
X122317993Y-88590841D01*
X122497797Y-88494734D01*
X122655396Y-88365396D01*
X122687807Y-88325903D01*
X130686210Y-80327500D01*
X135521928Y-80327500D01*
X135521928Y-82232500D01*
X135534188Y-82356982D01*
X135570498Y-82476680D01*
X135629463Y-82586994D01*
X135708815Y-82683685D01*
X135805506Y-82763037D01*
X135915820Y-82822002D01*
X136035518Y-82858312D01*
X136160000Y-82870572D01*
X138160000Y-82870572D01*
X138284482Y-82858312D01*
X138404180Y-82822002D01*
X138514494Y-82763037D01*
X138611185Y-82683685D01*
X138690537Y-82586994D01*
X138749502Y-82476680D01*
X138785812Y-82356982D01*
X138798072Y-82232500D01*
X138798072Y-80327500D01*
X138785812Y-80203018D01*
X138749502Y-80083320D01*
X138690537Y-79973006D01*
X138611185Y-79876315D01*
X138514494Y-79796963D01*
X138422781Y-79747941D01*
X138535969Y-79606923D01*
X138679571Y-79331094D01*
X138750563Y-79112980D01*
X138630594Y-78867000D01*
X137287000Y-78867000D01*
X137287000Y-78887000D01*
X137033000Y-78887000D01*
X137033000Y-78867000D01*
X135689406Y-78867000D01*
X135569437Y-79112980D01*
X135640429Y-79331094D01*
X135784031Y-79606923D01*
X135897219Y-79747941D01*
X135805506Y-79796963D01*
X135708815Y-79876315D01*
X135629463Y-79973006D01*
X135570498Y-80083320D01*
X135534188Y-80203018D01*
X135521928Y-80327500D01*
X130686210Y-80327500D01*
X133778711Y-77235000D01*
X135908244Y-77235000D01*
X135984537Y-77327963D01*
X136163899Y-77475163D01*
X135978685Y-77630563D01*
X135784031Y-77873077D01*
X135640429Y-78148906D01*
X135569437Y-78367020D01*
X135689406Y-78613000D01*
X137033000Y-78613000D01*
X137033000Y-78593000D01*
X137287000Y-78593000D01*
X137287000Y-78613000D01*
X138630594Y-78613000D01*
X138750563Y-78367020D01*
X138679571Y-78148906D01*
X138535969Y-77873077D01*
X138341315Y-77630563D01*
X138156101Y-77475163D01*
X138335463Y-77327963D01*
X138533845Y-77086235D01*
X138681255Y-76810449D01*
X138772030Y-76511204D01*
X138802681Y-76200000D01*
X138772030Y-75888796D01*
X138681255Y-75589551D01*
X138533845Y-75313765D01*
X138335463Y-75072037D01*
X138093735Y-74873655D01*
X137817949Y-74726245D01*
X137518704Y-74635470D01*
X137285486Y-74612500D01*
X137034514Y-74612500D01*
X136801296Y-74635470D01*
X136502051Y-74726245D01*
X136226265Y-74873655D01*
X135984537Y-75072037D01*
X135908244Y-75165000D01*
X133400827Y-75165000D01*
X133349999Y-75159994D01*
X133299171Y-75165000D01*
X133299162Y-75165000D01*
X133147105Y-75179976D01*
X132952007Y-75239159D01*
X132868309Y-75283896D01*
X132772202Y-75335266D01*
X132664408Y-75423731D01*
X132614604Y-75464604D01*
X132582197Y-75504092D01*
X121491290Y-86595000D01*
X117199396Y-86595000D01*
X117119759Y-86515363D01*
X116884727Y-86358320D01*
X116623574Y-86250147D01*
X116346335Y-86195000D01*
X116063665Y-86195000D01*
X115786426Y-86250147D01*
X115525273Y-86358320D01*
X115290241Y-86515363D01*
X115090363Y-86715241D01*
X114933320Y-86950273D01*
X114825147Y-87211426D01*
X114770000Y-87488665D01*
X114770000Y-87771335D01*
X114825147Y-88048574D01*
X114933320Y-88309727D01*
X115090363Y-88544759D01*
X115170001Y-88624397D01*
X115170000Y-89175604D01*
X115090363Y-89255241D01*
X114933320Y-89490273D01*
X114825147Y-89751426D01*
X114770000Y-90028665D01*
X114770000Y-90311335D01*
X114825147Y-90588574D01*
X114933320Y-90849727D01*
X115090363Y-91084759D01*
X115290241Y-91284637D01*
X115522759Y-91440000D01*
X115290241Y-91595363D01*
X115090363Y-91795241D01*
X114933320Y-92030273D01*
X114825147Y-92291426D01*
X114770000Y-92568665D01*
X114770000Y-92851335D01*
X114825147Y-93128574D01*
X114933320Y-93389727D01*
X115090363Y-93624759D01*
X115290241Y-93824637D01*
X115525273Y-93981680D01*
X115535865Y-93986067D01*
X115349869Y-94097615D01*
X115141481Y-94286586D01*
X114973963Y-94512580D01*
X114853754Y-94766913D01*
X114813096Y-94900961D01*
X114935085Y-95123000D01*
X116078000Y-95123000D01*
X116078000Y-95103000D01*
X116332000Y-95103000D01*
X116332000Y-95123000D01*
X116352000Y-95123000D01*
X116352000Y-95377000D01*
X116332000Y-95377000D01*
X116332000Y-96520624D01*
X116554040Y-96641909D01*
X116818881Y-96547070D01*
X117060131Y-96402385D01*
X117212739Y-96263997D01*
X117219188Y-96329482D01*
X117255498Y-96449180D01*
X117314463Y-96559494D01*
X117393815Y-96656185D01*
X117490506Y-96735537D01*
X117600820Y-96794502D01*
X117720518Y-96830812D01*
X117845000Y-96843072D01*
X118459250Y-96840000D01*
X118618000Y-96681250D01*
X118618000Y-95669500D01*
X118872000Y-95669500D01*
X118872000Y-96681250D01*
X119030750Y-96840000D01*
X119645000Y-96843072D01*
X119769482Y-96830812D01*
X119889180Y-96794502D01*
X119999494Y-96735537D01*
X120096185Y-96656185D01*
X120175537Y-96559494D01*
X120234502Y-96449180D01*
X120270812Y-96329482D01*
X120283072Y-96205000D01*
X120280000Y-95828250D01*
X120121250Y-95669500D01*
X118872000Y-95669500D01*
X118618000Y-95669500D01*
X118598000Y-95669500D01*
X118598000Y-95415500D01*
X118618000Y-95415500D01*
X118618000Y-94403750D01*
X118872000Y-94403750D01*
X118872000Y-95415500D01*
X120121250Y-95415500D01*
X120280000Y-95256750D01*
X120283072Y-94880000D01*
X120270812Y-94755518D01*
X120234502Y-94635820D01*
X120175537Y-94525506D01*
X120096185Y-94428815D01*
X119999494Y-94349463D01*
X119889180Y-94290498D01*
X119769482Y-94254188D01*
X119645000Y-94241928D01*
X119030750Y-94245000D01*
X118872000Y-94403750D01*
X118618000Y-94403750D01*
X118459250Y-94245000D01*
X117845000Y-94241928D01*
X117720518Y-94254188D01*
X117600820Y-94290498D01*
X117490506Y-94349463D01*
X117393815Y-94428815D01*
X117383375Y-94441536D01*
X117268519Y-94286586D01*
X117060131Y-94097615D01*
X116874135Y-93986067D01*
X116884727Y-93981680D01*
X117119759Y-93824637D01*
X117319637Y-93624759D01*
X117447221Y-93433815D01*
X117467038Y-93457962D01*
X117601613Y-93568405D01*
X117755149Y-93650472D01*
X117921745Y-93701008D01*
X118094999Y-93718072D01*
X119395001Y-93718072D01*
X119568255Y-93701008D01*
X119734851Y-93650472D01*
X119888387Y-93568405D01*
X119974238Y-93497949D01*
X121726289Y-95250000D01*
X121224092Y-95752198D01*
X121184605Y-95784604D01*
X121152198Y-95824092D01*
X121152197Y-95824093D01*
X121055266Y-95942203D01*
X120959160Y-96122007D01*
X120899977Y-96317105D01*
X120879994Y-96520000D01*
X120885001Y-96570838D01*
X120885000Y-98631289D01*
X120221290Y-99295000D01*
X117199396Y-99295000D01*
X117119759Y-99215363D01*
X116884727Y-99058320D01*
X116623574Y-98950147D01*
X116346335Y-98895000D01*
X116063665Y-98895000D01*
X115786426Y-98950147D01*
X115525273Y-99058320D01*
X115290241Y-99215363D01*
X115090363Y-99415241D01*
X114933320Y-99650273D01*
X114825147Y-99911426D01*
X114770000Y-100188665D01*
X114770000Y-100471335D01*
X114825147Y-100748574D01*
X114933320Y-101009727D01*
X115090363Y-101244759D01*
X115170001Y-101324397D01*
X115170000Y-101875604D01*
X115090363Y-101955241D01*
X114933320Y-102190273D01*
X114825147Y-102451426D01*
X114770000Y-102728665D01*
X114770000Y-103011335D01*
X114825147Y-103288574D01*
X114933320Y-103549727D01*
X115090363Y-103784759D01*
X115290241Y-103984637D01*
X115522759Y-104140000D01*
X115290241Y-104295363D01*
X115090363Y-104495241D01*
X114933320Y-104730273D01*
X114825147Y-104991426D01*
X114770000Y-105268665D01*
X114770000Y-105551335D01*
X114825147Y-105828574D01*
X114933320Y-106089727D01*
X115090363Y-106324759D01*
X115290241Y-106524637D01*
X115525273Y-106681680D01*
X115535865Y-106686067D01*
X115349869Y-106797615D01*
X115141481Y-106986586D01*
X114973963Y-107212580D01*
X114853754Y-107466913D01*
X114813096Y-107600961D01*
X114935085Y-107823000D01*
X116078000Y-107823000D01*
X116078000Y-107803000D01*
X116332000Y-107803000D01*
X116332000Y-107823000D01*
X116352000Y-107823000D01*
X116352000Y-108077000D01*
X116332000Y-108077000D01*
X116332000Y-109220624D01*
X116554040Y-109341909D01*
X116818881Y-109247070D01*
X117060131Y-109102385D01*
X117212739Y-108963997D01*
X117219188Y-109029482D01*
X117255498Y-109149180D01*
X117314463Y-109259494D01*
X117393815Y-109356185D01*
X117490506Y-109435537D01*
X117600820Y-109494502D01*
X117720518Y-109530812D01*
X117845000Y-109543072D01*
X118459250Y-109540000D01*
X118618000Y-109381250D01*
X118618000Y-108369500D01*
X118872000Y-108369500D01*
X118872000Y-109381250D01*
X119030750Y-109540000D01*
X119645000Y-109543072D01*
X119769482Y-109530812D01*
X119889180Y-109494502D01*
X119999494Y-109435537D01*
X120096185Y-109356185D01*
X120175537Y-109259494D01*
X120234502Y-109149180D01*
X120270812Y-109029482D01*
X120283072Y-108905000D01*
X120280000Y-108528250D01*
X120121250Y-108369500D01*
X118872000Y-108369500D01*
X118618000Y-108369500D01*
X118598000Y-108369500D01*
X118598000Y-108115500D01*
X118618000Y-108115500D01*
X118618000Y-107103750D01*
X118872000Y-107103750D01*
X118872000Y-108115500D01*
X120121250Y-108115500D01*
X120280000Y-107956750D01*
X120283072Y-107580000D01*
X120270812Y-107455518D01*
X120234502Y-107335820D01*
X120175537Y-107225506D01*
X120096185Y-107128815D01*
X119999494Y-107049463D01*
X119889180Y-106990498D01*
X119769482Y-106954188D01*
X119645000Y-106941928D01*
X119030750Y-106945000D01*
X118872000Y-107103750D01*
X118618000Y-107103750D01*
X118459250Y-106945000D01*
X117845000Y-106941928D01*
X117720518Y-106954188D01*
X117600820Y-106990498D01*
X117490506Y-107049463D01*
X117393815Y-107128815D01*
X117383375Y-107141536D01*
X117268519Y-106986586D01*
X117060131Y-106797615D01*
X116874135Y-106686067D01*
X116884727Y-106681680D01*
X117119759Y-106524637D01*
X117319637Y-106324759D01*
X117447221Y-106133815D01*
X117467038Y-106157962D01*
X117601613Y-106268405D01*
X117755149Y-106350472D01*
X117921745Y-106401008D01*
X118094999Y-106418072D01*
X119395001Y-106418072D01*
X119568255Y-106401008D01*
X119734851Y-106350472D01*
X119888387Y-106268405D01*
X119974238Y-106197949D01*
X120885000Y-107108711D01*
X120885001Y-111331288D01*
X120221290Y-111995000D01*
X117199396Y-111995000D01*
X117119759Y-111915363D01*
X116884727Y-111758320D01*
X116623574Y-111650147D01*
X116346335Y-111595000D01*
X116063665Y-111595000D01*
X115786426Y-111650147D01*
X115525273Y-111758320D01*
X115290241Y-111915363D01*
X115090363Y-112115241D01*
X114933320Y-112350273D01*
X114825147Y-112611426D01*
X114770000Y-112888665D01*
X114770000Y-113171335D01*
X114825147Y-113448574D01*
X114933320Y-113709727D01*
X115090363Y-113944759D01*
X115170001Y-114024397D01*
X115170000Y-114575604D01*
X115090363Y-114655241D01*
X114933320Y-114890273D01*
X114825147Y-115151426D01*
X114770000Y-115428665D01*
X114770000Y-115711335D01*
X114825147Y-115988574D01*
X114933320Y-116249727D01*
X115090363Y-116484759D01*
X115290241Y-116684637D01*
X115522759Y-116840000D01*
X115290241Y-116995363D01*
X115090363Y-117195241D01*
X114933320Y-117430273D01*
X114825147Y-117691426D01*
X114770000Y-117968665D01*
X114770000Y-118251335D01*
X114825147Y-118528574D01*
X114933320Y-118789727D01*
X115090363Y-119024759D01*
X115290241Y-119224637D01*
X115525273Y-119381680D01*
X115535865Y-119386067D01*
X115349869Y-119497615D01*
X115141481Y-119686586D01*
X114973963Y-119912580D01*
X114853754Y-120166913D01*
X114813096Y-120300961D01*
X114935085Y-120523000D01*
X116078000Y-120523000D01*
X116078000Y-120503000D01*
X116332000Y-120503000D01*
X116332000Y-120523000D01*
X116352000Y-120523000D01*
X116352000Y-120777000D01*
X116332000Y-120777000D01*
X116332000Y-120797000D01*
X116078000Y-120797000D01*
X116078000Y-120777000D01*
X114935085Y-120777000D01*
X114813096Y-120999039D01*
X114853754Y-121133087D01*
X114973963Y-121387420D01*
X115141481Y-121613414D01*
X115339520Y-121793000D01*
X114427000Y-121793000D01*
X114427000Y-108299039D01*
X114813096Y-108299039D01*
X114853754Y-108433087D01*
X114973963Y-108687420D01*
X115141481Y-108913414D01*
X115349869Y-109102385D01*
X115591119Y-109247070D01*
X115855960Y-109341909D01*
X116078000Y-109220624D01*
X116078000Y-108077000D01*
X114935085Y-108077000D01*
X114813096Y-108299039D01*
X114427000Y-108299039D01*
X114427000Y-95599039D01*
X114813096Y-95599039D01*
X114853754Y-95733087D01*
X114973963Y-95987420D01*
X115141481Y-96213414D01*
X115349869Y-96402385D01*
X115591119Y-96547070D01*
X115855960Y-96641909D01*
X116078000Y-96520624D01*
X116078000Y-95377000D01*
X114935085Y-95377000D01*
X114813096Y-95599039D01*
X114427000Y-95599039D01*
X114427000Y-83820000D01*
X114424560Y-83795224D01*
X114417333Y-83771399D01*
X114405597Y-83749443D01*
X114389803Y-83730197D01*
X114370557Y-83714403D01*
X114348601Y-83702667D01*
X114324776Y-83695440D01*
X114300000Y-83693000D01*
X97781256Y-83693000D01*
X97781256Y-80489999D01*
X100431928Y-80489999D01*
X100431928Y-82070001D01*
X100448992Y-82243255D01*
X100499528Y-82409851D01*
X100581595Y-82563387D01*
X100692038Y-82697962D01*
X100826613Y-82808405D01*
X100980149Y-82890472D01*
X101146745Y-82941008D01*
X101319999Y-82958072D01*
X104420001Y-82958072D01*
X104593255Y-82941008D01*
X104759851Y-82890472D01*
X104913387Y-82808405D01*
X105047962Y-82697962D01*
X105158405Y-82563387D01*
X105240472Y-82409851D01*
X105291008Y-82243255D01*
X105308072Y-82070001D01*
X105308072Y-80489999D01*
X105291008Y-80316745D01*
X105240472Y-80150149D01*
X105158405Y-79996613D01*
X105047962Y-79862038D01*
X104913387Y-79751595D01*
X104759851Y-79669528D01*
X104593255Y-79618992D01*
X104420001Y-79601928D01*
X101319999Y-79601928D01*
X101146745Y-79618992D01*
X100980149Y-79669528D01*
X100826613Y-79751595D01*
X100692038Y-79862038D01*
X100581595Y-79996613D01*
X100499528Y-80150149D01*
X100448992Y-80316745D01*
X100431928Y-80489999D01*
X97781256Y-80489999D01*
X97781256Y-78505098D01*
X118115000Y-78505098D01*
X118115000Y-78974902D01*
X118206654Y-79435679D01*
X118386440Y-79869721D01*
X118647450Y-80260349D01*
X118979651Y-80592550D01*
X119370279Y-80853560D01*
X119804321Y-81033346D01*
X120265098Y-81125000D01*
X120734902Y-81125000D01*
X121195679Y-81033346D01*
X121629721Y-80853560D01*
X122020349Y-80592550D01*
X122352550Y-80260349D01*
X122613560Y-79869721D01*
X122793346Y-79435679D01*
X122885000Y-78974902D01*
X122885000Y-78505098D01*
X122793346Y-78044321D01*
X122613560Y-77610279D01*
X122352550Y-77219651D01*
X122020349Y-76887450D01*
X121629721Y-76626440D01*
X121195679Y-76446654D01*
X120734902Y-76355000D01*
X120265098Y-76355000D01*
X119804321Y-76446654D01*
X119370279Y-76626440D01*
X118979651Y-76887450D01*
X118647450Y-77219651D01*
X118386440Y-77610279D01*
X118206654Y-78044321D01*
X118115000Y-78505098D01*
X97781256Y-78505098D01*
X97781256Y-76586710D01*
X100480252Y-76586710D01*
X100513901Y-76723663D01*
X100646731Y-77024984D01*
X100835794Y-77294602D01*
X101073824Y-77522155D01*
X101351673Y-77698898D01*
X101658664Y-77818039D01*
X101983000Y-77875000D01*
X102743000Y-77875000D01*
X102743000Y-76327000D01*
X102997000Y-76327000D01*
X102997000Y-77875000D01*
X103757000Y-77875000D01*
X104081336Y-77818039D01*
X104388327Y-77698898D01*
X104666176Y-77522155D01*
X104904206Y-77294602D01*
X105093269Y-77024984D01*
X105226099Y-76723663D01*
X105259748Y-76586710D01*
X105140922Y-76327000D01*
X102997000Y-76327000D01*
X102743000Y-76327000D01*
X100599078Y-76327000D01*
X100480252Y-76586710D01*
X97781256Y-76586710D01*
X97781256Y-75813290D01*
X100480252Y-75813290D01*
X100599078Y-76073000D01*
X102743000Y-76073000D01*
X102743000Y-74525000D01*
X102997000Y-74525000D01*
X102997000Y-76073000D01*
X105140922Y-76073000D01*
X105259748Y-75813290D01*
X105226099Y-75676337D01*
X105093269Y-75375016D01*
X104904206Y-75105398D01*
X104666176Y-74877845D01*
X104388327Y-74701102D01*
X104081336Y-74581961D01*
X103757000Y-74525000D01*
X102997000Y-74525000D01*
X102743000Y-74525000D01*
X101983000Y-74525000D01*
X101658664Y-74581961D01*
X101351673Y-74701102D01*
X101073824Y-74877845D01*
X100835794Y-75105398D01*
X100646731Y-75375016D01*
X100513901Y-75676337D01*
X100480252Y-75813290D01*
X97781256Y-75813290D01*
X97781256Y-73787000D01*
X148798627Y-73787000D01*
X148875965Y-73880486D01*
%TA.AperFunction,Conductor*%
D21*
G36*
X148875965Y-73880486D02*
G01*
X149050183Y-74202695D01*
X149158502Y-74552614D01*
X149163235Y-74597644D01*
X149140130Y-82811889D01*
X149028839Y-82645330D01*
X148494670Y-82111161D01*
X147866554Y-81691467D01*
X147168628Y-81402377D01*
X146427715Y-81255000D01*
X145672285Y-81255000D01*
X144931372Y-81402377D01*
X144233446Y-81691467D01*
X143605330Y-82111161D01*
X143071161Y-82645330D01*
X142651467Y-83273446D01*
X142362377Y-83971372D01*
X142215000Y-84712285D01*
X142215000Y-85467715D01*
X142362377Y-86208628D01*
X142651467Y-86906554D01*
X143071161Y-87534670D01*
X143605330Y-88068839D01*
X144233446Y-88488533D01*
X144931372Y-88777623D01*
X145672285Y-88925000D01*
X146427715Y-88925000D01*
X147168628Y-88777623D01*
X147866554Y-88488533D01*
X148494670Y-88068839D01*
X149028839Y-87534670D01*
X149127260Y-87387372D01*
X149031563Y-121409698D01*
X148883257Y-121688623D01*
X148798129Y-121793000D01*
X141430000Y-121793000D01*
X141828533Y-121196554D01*
X142117623Y-120498628D01*
X142265000Y-119757715D01*
X142265000Y-119002285D01*
X142117623Y-118261372D01*
X141828533Y-117563446D01*
X141408839Y-116935330D01*
X140874670Y-116401161D01*
X140246554Y-115981467D01*
X139548628Y-115692377D01*
X138807715Y-115545000D01*
X138052285Y-115545000D01*
X137311372Y-115692377D01*
X136613446Y-115981467D01*
X135985330Y-116401161D01*
X135451161Y-116935330D01*
X135031467Y-117563446D01*
X134742377Y-118261372D01*
X134595000Y-119002285D01*
X134595000Y-119757715D01*
X134742377Y-120498628D01*
X135031467Y-121196554D01*
X135430000Y-121793000D01*
X130497107Y-121793000D01*
X130693475Y-121596632D01*
X130855990Y-121353411D01*
X130967932Y-121083158D01*
X131025000Y-120796260D01*
X131025000Y-120503740D01*
X130967932Y-120216842D01*
X130855990Y-119946589D01*
X130693475Y-119703368D01*
X130486632Y-119496525D01*
X130243411Y-119334010D01*
X129973158Y-119222068D01*
X129686260Y-119165000D01*
X129393740Y-119165000D01*
X129106842Y-119222068D01*
X128836589Y-119334010D01*
X128593368Y-119496525D01*
X128461513Y-119628380D01*
X128439502Y-119555820D01*
X128380537Y-119445506D01*
X128301185Y-119348815D01*
X128204494Y-119269463D01*
X128094180Y-119210498D01*
X127974482Y-119174188D01*
X127850000Y-119161928D01*
X126150000Y-119161928D01*
X126025518Y-119174188D01*
X125905820Y-119210498D01*
X125795506Y-119269463D01*
X125698815Y-119348815D01*
X125619463Y-119445506D01*
X125560498Y-119555820D01*
X125524188Y-119675518D01*
X125511928Y-119800000D01*
X125511928Y-121500000D01*
X125524188Y-121624482D01*
X125560498Y-121744180D01*
X125586593Y-121793000D01*
X120251544Y-121793000D01*
X120270812Y-121729482D01*
X120283072Y-121605000D01*
X120280000Y-121228250D01*
X120121250Y-121069500D01*
X118872000Y-121069500D01*
X118872000Y-121089500D01*
X118618000Y-121089500D01*
X118618000Y-121069500D01*
X118598000Y-121069500D01*
X118598000Y-120815500D01*
X118618000Y-120815500D01*
X118618000Y-119803750D01*
X118872000Y-119803750D01*
X118872000Y-120815500D01*
X120121250Y-120815500D01*
X120280000Y-120656750D01*
X120283072Y-120280000D01*
X120270812Y-120155518D01*
X120234502Y-120035820D01*
X120175537Y-119925506D01*
X120096185Y-119828815D01*
X119999494Y-119749463D01*
X119889180Y-119690498D01*
X119769482Y-119654188D01*
X119645000Y-119641928D01*
X119030750Y-119645000D01*
X118872000Y-119803750D01*
X118618000Y-119803750D01*
X118459250Y-119645000D01*
X117845000Y-119641928D01*
X117720518Y-119654188D01*
X117600820Y-119690498D01*
X117490506Y-119749463D01*
X117393815Y-119828815D01*
X117383375Y-119841536D01*
X117268519Y-119686586D01*
X117060131Y-119497615D01*
X116874135Y-119386067D01*
X116884727Y-119381680D01*
X117119759Y-119224637D01*
X117319637Y-119024759D01*
X117447221Y-118833815D01*
X117467038Y-118857962D01*
X117601613Y-118968405D01*
X117755149Y-119050472D01*
X117921745Y-119101008D01*
X118094999Y-119118072D01*
X119395001Y-119118072D01*
X119568255Y-119101008D01*
X119734851Y-119050472D01*
X119888387Y-118968405D01*
X120022962Y-118857962D01*
X120133405Y-118723387D01*
X120215472Y-118569851D01*
X120266008Y-118403255D01*
X120283072Y-118230001D01*
X120283072Y-117404999D01*
X120266008Y-117231745D01*
X120215472Y-117065149D01*
X120133405Y-116911613D01*
X120022962Y-116777038D01*
X119888387Y-116666595D01*
X119780000Y-116608661D01*
X119780000Y-116255835D01*
X119785007Y-116205000D01*
X119779373Y-116147797D01*
X119765024Y-116002105D01*
X119705841Y-115807007D01*
X119705841Y-115807006D01*
X119609734Y-115627202D01*
X119542272Y-115545000D01*
X119480396Y-115469604D01*
X119440903Y-115437193D01*
X119427450Y-115423740D01*
X144565000Y-115423740D01*
X144565000Y-115716260D01*
X144622068Y-116003158D01*
X144734010Y-116273411D01*
X144896525Y-116516632D01*
X145103368Y-116723475D01*
X145346589Y-116885990D01*
X145616842Y-116997932D01*
X145903740Y-117055000D01*
X146196260Y-117055000D01*
X146483158Y-116997932D01*
X146753411Y-116885990D01*
X146996632Y-116723475D01*
X147203475Y-116516632D01*
X147365990Y-116273411D01*
X147477932Y-116003158D01*
X147535000Y-115716260D01*
X147535000Y-115423740D01*
X147477932Y-115136842D01*
X147365990Y-114866589D01*
X147203475Y-114623368D01*
X146996632Y-114416525D01*
X146814466Y-114294805D01*
X146931355Y-114225178D01*
X147147588Y-114030269D01*
X147321641Y-113796920D01*
X147446825Y-113534099D01*
X147491476Y-113386890D01*
X147370155Y-113157000D01*
X146177000Y-113157000D01*
X146177000Y-113177000D01*
X145923000Y-113177000D01*
X145923000Y-113157000D01*
X144729845Y-113157000D01*
X144608524Y-113386890D01*
X144653175Y-113534099D01*
X144778359Y-113796920D01*
X144952412Y-114030269D01*
X145168645Y-114225178D01*
X145285534Y-114294805D01*
X145103368Y-114416525D01*
X144896525Y-114623368D01*
X144734010Y-114866589D01*
X144622068Y-115136842D01*
X144565000Y-115423740D01*
X119427450Y-115423740D01*
X118877807Y-114874097D01*
X118845396Y-114834604D01*
X118687797Y-114705266D01*
X118507993Y-114609159D01*
X118312895Y-114549976D01*
X118160838Y-114535000D01*
X118160828Y-114535000D01*
X118110000Y-114529994D01*
X118059172Y-114535000D01*
X117240000Y-114535000D01*
X117240000Y-114065000D01*
X120599172Y-114065000D01*
X120650000Y-114070006D01*
X120700828Y-114065000D01*
X120700838Y-114065000D01*
X120852895Y-114050024D01*
X121047993Y-113990841D01*
X121227797Y-113894734D01*
X121385396Y-113765396D01*
X121417807Y-113725903D01*
X122615908Y-112527803D01*
X122655396Y-112495396D01*
X122690844Y-112452203D01*
X122784734Y-112337798D01*
X122836104Y-112241691D01*
X122880841Y-112157993D01*
X122940024Y-111962895D01*
X122955000Y-111810838D01*
X122955000Y-111810829D01*
X122960006Y-111760001D01*
X122955000Y-111709173D01*
X122955000Y-107808665D01*
X123025000Y-107808665D01*
X123025000Y-108091335D01*
X123080147Y-108368574D01*
X123188320Y-108629727D01*
X123345363Y-108864759D01*
X123545241Y-109064637D01*
X123780273Y-109221680D01*
X124041426Y-109329853D01*
X124318665Y-109385000D01*
X124601335Y-109385000D01*
X124878574Y-109329853D01*
X125139727Y-109221680D01*
X125374759Y-109064637D01*
X125574637Y-108864759D01*
X125731680Y-108629727D01*
X125839853Y-108368574D01*
X125895000Y-108091335D01*
X125895000Y-107808665D01*
X125839853Y-107531426D01*
X125731680Y-107270273D01*
X125651317Y-107150000D01*
X130641928Y-107150000D01*
X130641928Y-108750000D01*
X130654188Y-108874482D01*
X130690498Y-108994180D01*
X130749463Y-109104494D01*
X130828815Y-109201185D01*
X130925506Y-109280537D01*
X131035820Y-109339502D01*
X131155518Y-109375812D01*
X131280000Y-109388072D01*
X132880000Y-109388072D01*
X133004482Y-109375812D01*
X133124180Y-109339502D01*
X133234494Y-109280537D01*
X133331185Y-109201185D01*
X133410537Y-109104494D01*
X133469502Y-108994180D01*
X133505812Y-108874482D01*
X133518072Y-108750000D01*
X133518072Y-107259819D01*
X133595518Y-107283312D01*
X133720000Y-107295572D01*
X134334250Y-107292500D01*
X134493000Y-107133750D01*
X134493000Y-106122000D01*
X134747000Y-106122000D01*
X134747000Y-107133750D01*
X134905750Y-107292500D01*
X135520000Y-107295572D01*
X135644482Y-107283312D01*
X135764180Y-107247002D01*
X135874494Y-107188037D01*
X135971185Y-107108685D01*
X136050537Y-107011994D01*
X136109502Y-106901680D01*
X136145812Y-106781982D01*
X136158072Y-106657500D01*
X136155000Y-106280750D01*
X135996250Y-106122000D01*
X134747000Y-106122000D01*
X134493000Y-106122000D01*
X134473000Y-106122000D01*
X134473000Y-105868000D01*
X134493000Y-105868000D01*
X134493000Y-104856250D01*
X134747000Y-104856250D01*
X134747000Y-105868000D01*
X135996250Y-105868000D01*
X136155000Y-105709250D01*
X136158072Y-105332500D01*
X136145812Y-105208018D01*
X136109502Y-105088320D01*
X136050537Y-104978006D01*
X135971185Y-104881315D01*
X135874494Y-104801963D01*
X135764180Y-104742998D01*
X135644482Y-104706688D01*
X135520000Y-104694428D01*
X134905750Y-104697500D01*
X134747000Y-104856250D01*
X134493000Y-104856250D01*
X134334250Y-104697500D01*
X133720000Y-104694428D01*
X133595518Y-104706688D01*
X133475820Y-104742998D01*
X133370841Y-104799111D01*
X133311037Y-104672580D01*
X133143519Y-104446586D01*
X132935131Y-104257615D01*
X132749135Y-104146067D01*
X132759727Y-104141680D01*
X132994759Y-103984637D01*
X133074396Y-103905000D01*
X133337555Y-103905000D01*
X133342038Y-103910462D01*
X133476613Y-104020905D01*
X133630149Y-104102972D01*
X133796745Y-104153508D01*
X133969999Y-104170572D01*
X135270001Y-104170572D01*
X135443255Y-104153508D01*
X135609851Y-104102972D01*
X135763387Y-104020905D01*
X135897962Y-103910462D01*
X136008405Y-103775887D01*
X136090472Y-103622351D01*
X136141008Y-103455755D01*
X136158072Y-103282501D01*
X136158072Y-103064629D01*
X136199159Y-103200073D01*
X136295266Y-103379878D01*
X136424604Y-103537477D01*
X136464097Y-103569888D01*
X144080116Y-111185908D01*
X144112523Y-111225396D01*
X144152011Y-111257803D01*
X144270121Y-111354734D01*
X144366228Y-111406104D01*
X144449926Y-111450841D01*
X144645024Y-111510024D01*
X144797081Y-111525000D01*
X144797090Y-111525000D01*
X144847918Y-111530006D01*
X144898746Y-111525000D01*
X144984893Y-111525000D01*
X145103368Y-111643475D01*
X145285534Y-111765195D01*
X145168645Y-111834822D01*
X144952412Y-112029731D01*
X144778359Y-112263080D01*
X144653175Y-112525901D01*
X144608524Y-112673110D01*
X144729845Y-112903000D01*
X145923000Y-112903000D01*
X145923000Y-112883000D01*
X146177000Y-112883000D01*
X146177000Y-112903000D01*
X147370155Y-112903000D01*
X147491476Y-112673110D01*
X147446825Y-112525901D01*
X147321641Y-112263080D01*
X147147588Y-112029731D01*
X146931355Y-111834822D01*
X146814466Y-111765195D01*
X146996632Y-111643475D01*
X147203475Y-111436632D01*
X147365990Y-111193411D01*
X147477932Y-110923158D01*
X147535000Y-110636260D01*
X147535000Y-110343740D01*
X147477932Y-110056842D01*
X147365990Y-109786589D01*
X147203475Y-109543368D01*
X147071620Y-109411513D01*
X147144180Y-109389502D01*
X147254494Y-109330537D01*
X147351185Y-109251185D01*
X147430537Y-109154494D01*
X147489502Y-109044180D01*
X147525812Y-108924482D01*
X147538072Y-108800000D01*
X147538072Y-107100000D01*
X147525812Y-106975518D01*
X147489502Y-106855820D01*
X147430537Y-106745506D01*
X147351185Y-106648815D01*
X147254494Y-106569463D01*
X147144180Y-106510498D01*
X147024482Y-106474188D01*
X146900000Y-106461928D01*
X145200000Y-106461928D01*
X145075518Y-106474188D01*
X144955820Y-106510498D01*
X144845506Y-106569463D01*
X144748815Y-106648815D01*
X144669463Y-106745506D01*
X144610498Y-106855820D01*
X144574188Y-106975518D01*
X144561928Y-107100000D01*
X144561928Y-108740298D01*
X138195000Y-102373371D01*
X138195000Y-101444833D01*
X138202252Y-101439987D01*
X138429987Y-101212252D01*
X138608918Y-100944463D01*
X138732168Y-100646912D01*
X138795000Y-100331033D01*
X138795000Y-100008967D01*
X138732168Y-99693088D01*
X138608918Y-99395537D01*
X138429987Y-99127748D01*
X138202252Y-98900013D01*
X137934463Y-98721082D01*
X137636912Y-98597832D01*
X137321033Y-98535000D01*
X136998967Y-98535000D01*
X136990412Y-98536702D01*
X136663710Y-98210000D01*
X142021928Y-98210000D01*
X142021928Y-99910000D01*
X142034188Y-100034482D01*
X142070498Y-100154180D01*
X142129463Y-100264494D01*
X142208815Y-100361185D01*
X142305506Y-100440537D01*
X142415820Y-100499502D01*
X142535518Y-100535812D01*
X142660000Y-100548072D01*
X144360000Y-100548072D01*
X144484482Y-100535812D01*
X144604180Y-100499502D01*
X144714494Y-100440537D01*
X144811185Y-100361185D01*
X144890537Y-100264494D01*
X144949502Y-100154180D01*
X144971513Y-100081620D01*
X145103368Y-100213475D01*
X145346589Y-100375990D01*
X145616842Y-100487932D01*
X145903740Y-100545000D01*
X146196260Y-100545000D01*
X146483158Y-100487932D01*
X146753411Y-100375990D01*
X146996632Y-100213475D01*
X147203475Y-100006632D01*
X147365990Y-99763411D01*
X147477932Y-99493158D01*
X147535000Y-99206260D01*
X147535000Y-98913740D01*
X147477932Y-98626842D01*
X147365990Y-98356589D01*
X147203475Y-98113368D01*
X146996632Y-97906525D01*
X146753411Y-97744010D01*
X146483158Y-97632068D01*
X146196260Y-97575000D01*
X145903740Y-97575000D01*
X145616842Y-97632068D01*
X145346589Y-97744010D01*
X145103368Y-97906525D01*
X144971513Y-98038380D01*
X144949502Y-97965820D01*
X144890537Y-97855506D01*
X144811185Y-97758815D01*
X144714494Y-97679463D01*
X144604180Y-97620498D01*
X144484482Y-97584188D01*
X144360000Y-97571928D01*
X142660000Y-97571928D01*
X142535518Y-97584188D01*
X142415820Y-97620498D01*
X142305506Y-97679463D01*
X142208815Y-97758815D01*
X142129463Y-97855506D01*
X142070498Y-97965820D01*
X142034188Y-98085518D01*
X142021928Y-98210000D01*
X136663710Y-98210000D01*
X135547807Y-97094097D01*
X135515396Y-97054604D01*
X135357797Y-96925266D01*
X135177993Y-96829159D01*
X134982895Y-96769976D01*
X134830838Y-96755000D01*
X134830828Y-96755000D01*
X134780000Y-96749994D01*
X134729172Y-96755000D01*
X133074396Y-96755000D01*
X132994759Y-96675363D01*
X132762241Y-96520000D01*
X132994759Y-96364637D01*
X133074396Y-96285000D01*
X134569172Y-96285000D01*
X134620000Y-96290006D01*
X134670828Y-96285000D01*
X134670838Y-96285000D01*
X134822895Y-96270024D01*
X135017993Y-96210841D01*
X135197797Y-96114734D01*
X135355396Y-95985396D01*
X135387807Y-95945903D01*
X137855908Y-93477803D01*
X137895396Y-93445396D01*
X137950427Y-93378341D01*
X138024734Y-93287798D01*
X138120840Y-93107994D01*
X138120841Y-93107993D01*
X138180024Y-92912895D01*
X138195000Y-92760838D01*
X138195000Y-92760829D01*
X138200006Y-92710001D01*
X138195000Y-92659173D01*
X138195000Y-91444833D01*
X138202252Y-91439987D01*
X138429987Y-91212252D01*
X138608918Y-90944463D01*
X138732168Y-90646912D01*
X138795000Y-90331033D01*
X138795000Y-90008967D01*
X138732168Y-89693088D01*
X138608918Y-89395537D01*
X138429987Y-89127748D01*
X138202252Y-88900013D01*
X137934463Y-88721082D01*
X137636912Y-88597832D01*
X137321033Y-88535000D01*
X136998967Y-88535000D01*
X136683088Y-88597832D01*
X136385537Y-88721082D01*
X136117748Y-88900013D01*
X135890013Y-89127748D01*
X135711082Y-89395537D01*
X135587832Y-89693088D01*
X135525000Y-90008967D01*
X135525000Y-90331033D01*
X135587832Y-90646912D01*
X135711082Y-90944463D01*
X135890013Y-91212252D01*
X136117748Y-91439987D01*
X136125000Y-91444833D01*
X136125000Y-92281289D01*
X134191290Y-94215000D01*
X133074396Y-94215000D01*
X132994759Y-94135363D01*
X132762241Y-93980000D01*
X132994759Y-93824637D01*
X133194637Y-93624759D01*
X133351680Y-93389727D01*
X133459853Y-93128574D01*
X133515000Y-92851335D01*
X133515000Y-92568665D01*
X133459853Y-92291426D01*
X133351680Y-92030273D01*
X133194637Y-91795241D01*
X132994759Y-91595363D01*
X132759727Y-91438320D01*
X132498574Y-91330147D01*
X132221335Y-91275000D01*
X131938665Y-91275000D01*
X131661426Y-91330147D01*
X131400273Y-91438320D01*
X131165241Y-91595363D01*
X130965363Y-91795241D01*
X130808320Y-92030273D01*
X130700147Y-92291426D01*
X130645000Y-92568665D01*
X130645000Y-92851335D01*
X130700147Y-93128574D01*
X130808320Y-93389727D01*
X130965363Y-93624759D01*
X131165241Y-93824637D01*
X131397759Y-93980000D01*
X131165241Y-94135363D01*
X130965363Y-94335241D01*
X130808320Y-94570273D01*
X130700147Y-94831426D01*
X130645000Y-95108665D01*
X130645000Y-95391335D01*
X130700147Y-95668574D01*
X130808320Y-95929727D01*
X130965363Y-96164759D01*
X131165241Y-96364637D01*
X131397759Y-96520000D01*
X131165241Y-96675363D01*
X130965363Y-96875241D01*
X130808320Y-97110273D01*
X130700147Y-97371426D01*
X130645000Y-97648665D01*
X130645000Y-97931335D01*
X130700147Y-98208574D01*
X130808320Y-98469727D01*
X130965363Y-98704759D01*
X131165241Y-98904637D01*
X131397759Y-99060000D01*
X131165241Y-99215363D01*
X130965363Y-99415241D01*
X130808320Y-99650273D01*
X130700147Y-99911426D01*
X130645000Y-100188665D01*
X130645000Y-100471335D01*
X130700147Y-100748574D01*
X130808320Y-101009727D01*
X130965363Y-101244759D01*
X131165241Y-101444637D01*
X131397759Y-101600000D01*
X131165241Y-101755363D01*
X130965363Y-101955241D01*
X130808320Y-102190273D01*
X130700147Y-102451426D01*
X130645000Y-102728665D01*
X130645000Y-103011335D01*
X130700147Y-103288574D01*
X130808320Y-103549727D01*
X130965363Y-103784759D01*
X131165241Y-103984637D01*
X131400273Y-104141680D01*
X131410865Y-104146067D01*
X131224869Y-104257615D01*
X131016481Y-104446586D01*
X130848963Y-104672580D01*
X130728754Y-104926913D01*
X130688096Y-105060961D01*
X130810085Y-105283000D01*
X131953000Y-105283000D01*
X131953000Y-105263000D01*
X132207000Y-105263000D01*
X132207000Y-105283000D01*
X132227000Y-105283000D01*
X132227000Y-105537000D01*
X132207000Y-105537000D01*
X132207000Y-105557000D01*
X131953000Y-105557000D01*
X131953000Y-105537000D01*
X130810085Y-105537000D01*
X130688096Y-105759039D01*
X130728754Y-105893087D01*
X130848963Y-106147420D01*
X131016481Y-106373414D01*
X131180080Y-106521769D01*
X131155518Y-106524188D01*
X131035820Y-106560498D01*
X130925506Y-106619463D01*
X130828815Y-106698815D01*
X130749463Y-106795506D01*
X130690498Y-106905820D01*
X130654188Y-107025518D01*
X130641928Y-107150000D01*
X125651317Y-107150000D01*
X125574637Y-107035241D01*
X125374759Y-106835363D01*
X125139727Y-106678320D01*
X125129135Y-106673933D01*
X125315131Y-106562385D01*
X125523519Y-106373414D01*
X125691037Y-106147420D01*
X125811246Y-105893087D01*
X125851904Y-105759039D01*
X125729915Y-105537000D01*
X124587000Y-105537000D01*
X124587000Y-105557000D01*
X124333000Y-105557000D01*
X124333000Y-105537000D01*
X123190085Y-105537000D01*
X123068096Y-105759039D01*
X123108754Y-105893087D01*
X123228963Y-106147420D01*
X123396481Y-106373414D01*
X123604869Y-106562385D01*
X123790865Y-106673933D01*
X123780273Y-106678320D01*
X123545241Y-106835363D01*
X123345363Y-107035241D01*
X123188320Y-107270273D01*
X123080147Y-107531426D01*
X123025000Y-107808665D01*
X122955000Y-107808665D01*
X122955000Y-106730835D01*
X122960007Y-106680000D01*
X122955000Y-106629162D01*
X122940024Y-106477105D01*
X122880841Y-106282007D01*
X122808903Y-106147420D01*
X122784734Y-106102202D01*
X122687803Y-105984092D01*
X122655396Y-105944604D01*
X122615908Y-105912197D01*
X121125307Y-104421597D01*
X121092896Y-104382104D01*
X120935297Y-104252766D01*
X120755493Y-104156659D01*
X120560395Y-104097476D01*
X120408338Y-104082500D01*
X120408328Y-104082500D01*
X120357500Y-104077494D01*
X120306672Y-104082500D01*
X120027445Y-104082500D01*
X120022962Y-104077038D01*
X119888387Y-103966595D01*
X119780000Y-103908661D01*
X119780000Y-103555835D01*
X119785007Y-103505000D01*
X119779373Y-103447797D01*
X119765024Y-103302105D01*
X119705841Y-103107007D01*
X119705841Y-103107006D01*
X119609734Y-102927202D01*
X119548770Y-102852918D01*
X119480396Y-102769604D01*
X119440903Y-102737193D01*
X118877807Y-102174097D01*
X118845396Y-102134604D01*
X118687797Y-102005266D01*
X118507993Y-101909159D01*
X118312895Y-101849976D01*
X118160838Y-101835000D01*
X118160828Y-101835000D01*
X118110000Y-101829994D01*
X118059172Y-101835000D01*
X117240000Y-101835000D01*
X117240000Y-101365000D01*
X120599172Y-101365000D01*
X120650000Y-101370006D01*
X120700828Y-101365000D01*
X120700838Y-101365000D01*
X120852895Y-101350024D01*
X121047993Y-101290841D01*
X121227797Y-101194734D01*
X121385396Y-101065396D01*
X121417807Y-101025903D01*
X122615908Y-99827803D01*
X122655396Y-99795396D01*
X122739358Y-99693088D01*
X122784734Y-99637798D01*
X122836104Y-99541691D01*
X122880841Y-99457993D01*
X122940024Y-99262895D01*
X122955000Y-99110838D01*
X122955000Y-99110829D01*
X122960006Y-99060001D01*
X122955000Y-99009173D01*
X122955000Y-96948710D01*
X123542157Y-96361553D01*
X123545241Y-96364637D01*
X123777759Y-96520000D01*
X123545241Y-96675363D01*
X123345363Y-96875241D01*
X123188320Y-97110273D01*
X123080147Y-97371426D01*
X123025000Y-97648665D01*
X123025000Y-97931335D01*
X123080147Y-98208574D01*
X123188320Y-98469727D01*
X123345363Y-98704759D01*
X123545241Y-98904637D01*
X123777759Y-99060000D01*
X123545241Y-99215363D01*
X123345363Y-99415241D01*
X123188320Y-99650273D01*
X123080147Y-99911426D01*
X123025000Y-100188665D01*
X123025000Y-100471335D01*
X123080147Y-100748574D01*
X123188320Y-101009727D01*
X123345363Y-101244759D01*
X123545241Y-101444637D01*
X123777759Y-101600000D01*
X123545241Y-101755363D01*
X123345363Y-101955241D01*
X123188320Y-102190273D01*
X123080147Y-102451426D01*
X123025000Y-102728665D01*
X123025000Y-103011335D01*
X123080147Y-103288574D01*
X123188320Y-103549727D01*
X123345363Y-103784759D01*
X123545241Y-103984637D01*
X123780273Y-104141680D01*
X123790865Y-104146067D01*
X123604869Y-104257615D01*
X123396481Y-104446586D01*
X123228963Y-104672580D01*
X123108754Y-104926913D01*
X123068096Y-105060961D01*
X123190085Y-105283000D01*
X124333000Y-105283000D01*
X124333000Y-105263000D01*
X124587000Y-105263000D01*
X124587000Y-105283000D01*
X125729915Y-105283000D01*
X125851904Y-105060961D01*
X125811246Y-104926913D01*
X125691037Y-104672580D01*
X125523519Y-104446586D01*
X125315131Y-104257615D01*
X125129135Y-104146067D01*
X125139727Y-104141680D01*
X125374759Y-103984637D01*
X125574637Y-103784759D01*
X125731680Y-103549727D01*
X125839853Y-103288574D01*
X125867789Y-103148133D01*
X125975518Y-103180812D01*
X126100000Y-103193072D01*
X126714250Y-103190000D01*
X126873000Y-103031250D01*
X126873000Y-102019500D01*
X127127000Y-102019500D01*
X127127000Y-103031250D01*
X127285750Y-103190000D01*
X127900000Y-103193072D01*
X128024482Y-103180812D01*
X128144180Y-103144502D01*
X128254494Y-103085537D01*
X128351185Y-103006185D01*
X128430537Y-102909494D01*
X128489502Y-102799180D01*
X128525812Y-102679482D01*
X128538072Y-102555000D01*
X128535000Y-102178250D01*
X128376250Y-102019500D01*
X127127000Y-102019500D01*
X126873000Y-102019500D01*
X126853000Y-102019500D01*
X126853000Y-101765500D01*
X126873000Y-101765500D01*
X126873000Y-100753750D01*
X127127000Y-100753750D01*
X127127000Y-101765500D01*
X128376250Y-101765500D01*
X128535000Y-101606750D01*
X128538072Y-101230000D01*
X128525812Y-101105518D01*
X128489502Y-100985820D01*
X128430537Y-100875506D01*
X128351185Y-100778815D01*
X128254494Y-100699463D01*
X128144180Y-100640498D01*
X128024482Y-100604188D01*
X127900000Y-100591928D01*
X127285750Y-100595000D01*
X127127000Y-100753750D01*
X126873000Y-100753750D01*
X126714250Y-100595000D01*
X126100000Y-100591928D01*
X125975518Y-100604188D01*
X125861706Y-100638712D01*
X125895000Y-100471335D01*
X125895000Y-100188665D01*
X125839853Y-99911426D01*
X125835601Y-99901161D01*
X125856613Y-99918405D01*
X126010149Y-100000472D01*
X126176745Y-100051008D01*
X126349999Y-100068072D01*
X127650001Y-100068072D01*
X127823255Y-100051008D01*
X127989851Y-100000472D01*
X128143387Y-99918405D01*
X128277962Y-99807962D01*
X128388405Y-99673387D01*
X128470472Y-99519851D01*
X128521008Y-99353255D01*
X128538072Y-99180001D01*
X128538072Y-98354999D01*
X128521008Y-98181745D01*
X128470472Y-98015149D01*
X128388405Y-97861613D01*
X128277962Y-97727038D01*
X128143387Y-97616595D01*
X128035000Y-97558661D01*
X128035000Y-96570827D01*
X128040006Y-96519999D01*
X128035000Y-96469171D01*
X128035000Y-96469162D01*
X128020024Y-96317105D01*
X127960841Y-96122007D01*
X127887821Y-95985396D01*
X127864734Y-95942202D01*
X127767803Y-95824092D01*
X127735396Y-95784604D01*
X127695908Y-95752197D01*
X126497807Y-94554097D01*
X126465396Y-94514604D01*
X126307797Y-94385266D01*
X126127993Y-94289159D01*
X125932895Y-94229976D01*
X125780838Y-94215000D01*
X125780828Y-94215000D01*
X125730000Y-94209994D01*
X125679172Y-94215000D01*
X125454396Y-94215000D01*
X125374759Y-94135363D01*
X125142241Y-93980000D01*
X125374759Y-93824637D01*
X125574637Y-93624759D01*
X125731680Y-93389727D01*
X125839853Y-93128574D01*
X125895000Y-92851335D01*
X125895000Y-92568665D01*
X125839853Y-92291426D01*
X125731680Y-92030273D01*
X125574637Y-91795241D01*
X125374759Y-91595363D01*
X125139727Y-91438320D01*
X124878574Y-91330147D01*
X124601335Y-91275000D01*
X124318665Y-91275000D01*
X124041426Y-91330147D01*
X123780273Y-91438320D01*
X123545241Y-91595363D01*
X123345363Y-91795241D01*
X123188320Y-92030273D01*
X123080147Y-92291426D01*
X123025000Y-92568665D01*
X123025000Y-92851335D01*
X123080147Y-93128574D01*
X123188320Y-93389727D01*
X123345363Y-93624759D01*
X123545241Y-93824637D01*
X123777759Y-93980000D01*
X123545241Y-94135363D01*
X123542157Y-94138447D01*
X121125307Y-91721597D01*
X121092896Y-91682104D01*
X120935297Y-91552766D01*
X120755493Y-91456659D01*
X120560395Y-91397476D01*
X120408338Y-91382500D01*
X120408328Y-91382500D01*
X120357500Y-91377494D01*
X120306672Y-91382500D01*
X120027445Y-91382500D01*
X120022962Y-91377038D01*
X119888387Y-91266595D01*
X119780000Y-91208661D01*
X119780000Y-90855835D01*
X119785007Y-90805000D01*
X119776296Y-90716554D01*
X119765024Y-90602105D01*
X119705841Y-90407007D01*
X119705841Y-90407006D01*
X119609734Y-90227202D01*
X119521067Y-90119162D01*
X119480396Y-90069604D01*
X119440903Y-90037193D01*
X118877807Y-89474097D01*
X118845396Y-89434604D01*
X118687797Y-89305266D01*
X118507993Y-89209159D01*
X118312895Y-89149976D01*
X118160838Y-89135000D01*
X118160828Y-89135000D01*
X118110000Y-89129994D01*
X118059172Y-89135000D01*
X117240000Y-89135000D01*
X117240000Y-88665000D01*
X121869172Y-88665000D01*
X121920000Y-88670006D01*
X121970828Y-88665000D01*
X121970838Y-88665000D01*
X122122895Y-88650024D01*
X122317993Y-88590841D01*
X122497797Y-88494734D01*
X122655396Y-88365396D01*
X122687807Y-88325903D01*
X130686210Y-80327500D01*
X135521928Y-80327500D01*
X135521928Y-82232500D01*
X135534188Y-82356982D01*
X135570498Y-82476680D01*
X135629463Y-82586994D01*
X135708815Y-82683685D01*
X135805506Y-82763037D01*
X135915820Y-82822002D01*
X136035518Y-82858312D01*
X136160000Y-82870572D01*
X138160000Y-82870572D01*
X138284482Y-82858312D01*
X138404180Y-82822002D01*
X138514494Y-82763037D01*
X138611185Y-82683685D01*
X138690537Y-82586994D01*
X138749502Y-82476680D01*
X138785812Y-82356982D01*
X138798072Y-82232500D01*
X138798072Y-80327500D01*
X138785812Y-80203018D01*
X138749502Y-80083320D01*
X138690537Y-79973006D01*
X138611185Y-79876315D01*
X138514494Y-79796963D01*
X138422781Y-79747941D01*
X138535969Y-79606923D01*
X138679571Y-79331094D01*
X138750563Y-79112980D01*
X138630594Y-78867000D01*
X137287000Y-78867000D01*
X137287000Y-78887000D01*
X137033000Y-78887000D01*
X137033000Y-78867000D01*
X135689406Y-78867000D01*
X135569437Y-79112980D01*
X135640429Y-79331094D01*
X135784031Y-79606923D01*
X135897219Y-79747941D01*
X135805506Y-79796963D01*
X135708815Y-79876315D01*
X135629463Y-79973006D01*
X135570498Y-80083320D01*
X135534188Y-80203018D01*
X135521928Y-80327500D01*
X130686210Y-80327500D01*
X133778711Y-77235000D01*
X135908244Y-77235000D01*
X135984537Y-77327963D01*
X136163899Y-77475163D01*
X135978685Y-77630563D01*
X135784031Y-77873077D01*
X135640429Y-78148906D01*
X135569437Y-78367020D01*
X135689406Y-78613000D01*
X137033000Y-78613000D01*
X137033000Y-78593000D01*
X137287000Y-78593000D01*
X137287000Y-78613000D01*
X138630594Y-78613000D01*
X138750563Y-78367020D01*
X138679571Y-78148906D01*
X138535969Y-77873077D01*
X138341315Y-77630563D01*
X138156101Y-77475163D01*
X138335463Y-77327963D01*
X138533845Y-77086235D01*
X138681255Y-76810449D01*
X138772030Y-76511204D01*
X138802681Y-76200000D01*
X138772030Y-75888796D01*
X138681255Y-75589551D01*
X138533845Y-75313765D01*
X138335463Y-75072037D01*
X138093735Y-74873655D01*
X137817949Y-74726245D01*
X137518704Y-74635470D01*
X137285486Y-74612500D01*
X137034514Y-74612500D01*
X136801296Y-74635470D01*
X136502051Y-74726245D01*
X136226265Y-74873655D01*
X135984537Y-75072037D01*
X135908244Y-75165000D01*
X133400827Y-75165000D01*
X133349999Y-75159994D01*
X133299171Y-75165000D01*
X133299162Y-75165000D01*
X133147105Y-75179976D01*
X132952007Y-75239159D01*
X132868309Y-75283896D01*
X132772202Y-75335266D01*
X132664408Y-75423731D01*
X132614604Y-75464604D01*
X132582197Y-75504092D01*
X121491290Y-86595000D01*
X117199396Y-86595000D01*
X117119759Y-86515363D01*
X116884727Y-86358320D01*
X116623574Y-86250147D01*
X116346335Y-86195000D01*
X116063665Y-86195000D01*
X115786426Y-86250147D01*
X115525273Y-86358320D01*
X115290241Y-86515363D01*
X115090363Y-86715241D01*
X114933320Y-86950273D01*
X114825147Y-87211426D01*
X114770000Y-87488665D01*
X114770000Y-87771335D01*
X114825147Y-88048574D01*
X114933320Y-88309727D01*
X115090363Y-88544759D01*
X115170001Y-88624397D01*
X115170000Y-89175604D01*
X115090363Y-89255241D01*
X114933320Y-89490273D01*
X114825147Y-89751426D01*
X114770000Y-90028665D01*
X114770000Y-90311335D01*
X114825147Y-90588574D01*
X114933320Y-90849727D01*
X115090363Y-91084759D01*
X115290241Y-91284637D01*
X115522759Y-91440000D01*
X115290241Y-91595363D01*
X115090363Y-91795241D01*
X114933320Y-92030273D01*
X114825147Y-92291426D01*
X114770000Y-92568665D01*
X114770000Y-92851335D01*
X114825147Y-93128574D01*
X114933320Y-93389727D01*
X115090363Y-93624759D01*
X115290241Y-93824637D01*
X115525273Y-93981680D01*
X115535865Y-93986067D01*
X115349869Y-94097615D01*
X115141481Y-94286586D01*
X114973963Y-94512580D01*
X114853754Y-94766913D01*
X114813096Y-94900961D01*
X114935085Y-95123000D01*
X116078000Y-95123000D01*
X116078000Y-95103000D01*
X116332000Y-95103000D01*
X116332000Y-95123000D01*
X116352000Y-95123000D01*
X116352000Y-95377000D01*
X116332000Y-95377000D01*
X116332000Y-96520624D01*
X116554040Y-96641909D01*
X116818881Y-96547070D01*
X117060131Y-96402385D01*
X117212739Y-96263997D01*
X117219188Y-96329482D01*
X117255498Y-96449180D01*
X117314463Y-96559494D01*
X117393815Y-96656185D01*
X117490506Y-96735537D01*
X117600820Y-96794502D01*
X117720518Y-96830812D01*
X117845000Y-96843072D01*
X118459250Y-96840000D01*
X118618000Y-96681250D01*
X118618000Y-95669500D01*
X118872000Y-95669500D01*
X118872000Y-96681250D01*
X119030750Y-96840000D01*
X119645000Y-96843072D01*
X119769482Y-96830812D01*
X119889180Y-96794502D01*
X119999494Y-96735537D01*
X120096185Y-96656185D01*
X120175537Y-96559494D01*
X120234502Y-96449180D01*
X120270812Y-96329482D01*
X120283072Y-96205000D01*
X120280000Y-95828250D01*
X120121250Y-95669500D01*
X118872000Y-95669500D01*
X118618000Y-95669500D01*
X118598000Y-95669500D01*
X118598000Y-95415500D01*
X118618000Y-95415500D01*
X118618000Y-94403750D01*
X118872000Y-94403750D01*
X118872000Y-95415500D01*
X120121250Y-95415500D01*
X120280000Y-95256750D01*
X120283072Y-94880000D01*
X120270812Y-94755518D01*
X120234502Y-94635820D01*
X120175537Y-94525506D01*
X120096185Y-94428815D01*
X119999494Y-94349463D01*
X119889180Y-94290498D01*
X119769482Y-94254188D01*
X119645000Y-94241928D01*
X119030750Y-94245000D01*
X118872000Y-94403750D01*
X118618000Y-94403750D01*
X118459250Y-94245000D01*
X117845000Y-94241928D01*
X117720518Y-94254188D01*
X117600820Y-94290498D01*
X117490506Y-94349463D01*
X117393815Y-94428815D01*
X117383375Y-94441536D01*
X117268519Y-94286586D01*
X117060131Y-94097615D01*
X116874135Y-93986067D01*
X116884727Y-93981680D01*
X117119759Y-93824637D01*
X117319637Y-93624759D01*
X117447221Y-93433815D01*
X117467038Y-93457962D01*
X117601613Y-93568405D01*
X117755149Y-93650472D01*
X117921745Y-93701008D01*
X118094999Y-93718072D01*
X119395001Y-93718072D01*
X119568255Y-93701008D01*
X119734851Y-93650472D01*
X119888387Y-93568405D01*
X119974238Y-93497949D01*
X121726289Y-95250000D01*
X121224092Y-95752198D01*
X121184605Y-95784604D01*
X121152198Y-95824092D01*
X121152197Y-95824093D01*
X121055266Y-95942203D01*
X120959160Y-96122007D01*
X120899977Y-96317105D01*
X120879994Y-96520000D01*
X120885001Y-96570838D01*
X120885000Y-98631289D01*
X120221290Y-99295000D01*
X117199396Y-99295000D01*
X117119759Y-99215363D01*
X116884727Y-99058320D01*
X116623574Y-98950147D01*
X116346335Y-98895000D01*
X116063665Y-98895000D01*
X115786426Y-98950147D01*
X115525273Y-99058320D01*
X115290241Y-99215363D01*
X115090363Y-99415241D01*
X114933320Y-99650273D01*
X114825147Y-99911426D01*
X114770000Y-100188665D01*
X114770000Y-100471335D01*
X114825147Y-100748574D01*
X114933320Y-101009727D01*
X115090363Y-101244759D01*
X115170001Y-101324397D01*
X115170000Y-101875604D01*
X115090363Y-101955241D01*
X114933320Y-102190273D01*
X114825147Y-102451426D01*
X114770000Y-102728665D01*
X114770000Y-103011335D01*
X114825147Y-103288574D01*
X114933320Y-103549727D01*
X115090363Y-103784759D01*
X115290241Y-103984637D01*
X115522759Y-104140000D01*
X115290241Y-104295363D01*
X115090363Y-104495241D01*
X114933320Y-104730273D01*
X114825147Y-104991426D01*
X114770000Y-105268665D01*
X114770000Y-105551335D01*
X114825147Y-105828574D01*
X114933320Y-106089727D01*
X115090363Y-106324759D01*
X115290241Y-106524637D01*
X115525273Y-106681680D01*
X115535865Y-106686067D01*
X115349869Y-106797615D01*
X115141481Y-106986586D01*
X114973963Y-107212580D01*
X114853754Y-107466913D01*
X114813096Y-107600961D01*
X114935085Y-107823000D01*
X116078000Y-107823000D01*
X116078000Y-107803000D01*
X116332000Y-107803000D01*
X116332000Y-107823000D01*
X116352000Y-107823000D01*
X116352000Y-108077000D01*
X116332000Y-108077000D01*
X116332000Y-109220624D01*
X116554040Y-109341909D01*
X116818881Y-109247070D01*
X117060131Y-109102385D01*
X117212739Y-108963997D01*
X117219188Y-109029482D01*
X117255498Y-109149180D01*
X117314463Y-109259494D01*
X117393815Y-109356185D01*
X117490506Y-109435537D01*
X117600820Y-109494502D01*
X117720518Y-109530812D01*
X117845000Y-109543072D01*
X118459250Y-109540000D01*
X118618000Y-109381250D01*
X118618000Y-108369500D01*
X118872000Y-108369500D01*
X118872000Y-109381250D01*
X119030750Y-109540000D01*
X119645000Y-109543072D01*
X119769482Y-109530812D01*
X119889180Y-109494502D01*
X119999494Y-109435537D01*
X120096185Y-109356185D01*
X120175537Y-109259494D01*
X120234502Y-109149180D01*
X120270812Y-109029482D01*
X120283072Y-108905000D01*
X120280000Y-108528250D01*
X120121250Y-108369500D01*
X118872000Y-108369500D01*
X118618000Y-108369500D01*
X118598000Y-108369500D01*
X118598000Y-108115500D01*
X118618000Y-108115500D01*
X118618000Y-107103750D01*
X118872000Y-107103750D01*
X118872000Y-108115500D01*
X120121250Y-108115500D01*
X120280000Y-107956750D01*
X120283072Y-107580000D01*
X120270812Y-107455518D01*
X120234502Y-107335820D01*
X120175537Y-107225506D01*
X120096185Y-107128815D01*
X119999494Y-107049463D01*
X119889180Y-106990498D01*
X119769482Y-106954188D01*
X119645000Y-106941928D01*
X119030750Y-106945000D01*
X118872000Y-107103750D01*
X118618000Y-107103750D01*
X118459250Y-106945000D01*
X117845000Y-106941928D01*
X117720518Y-106954188D01*
X117600820Y-106990498D01*
X117490506Y-107049463D01*
X117393815Y-107128815D01*
X117383375Y-107141536D01*
X117268519Y-106986586D01*
X117060131Y-106797615D01*
X116874135Y-106686067D01*
X116884727Y-106681680D01*
X117119759Y-106524637D01*
X117319637Y-106324759D01*
X117447221Y-106133815D01*
X117467038Y-106157962D01*
X117601613Y-106268405D01*
X117755149Y-106350472D01*
X117921745Y-106401008D01*
X118094999Y-106418072D01*
X119395001Y-106418072D01*
X119568255Y-106401008D01*
X119734851Y-106350472D01*
X119888387Y-106268405D01*
X119974238Y-106197949D01*
X120885000Y-107108711D01*
X120885001Y-111331288D01*
X120221290Y-111995000D01*
X117199396Y-111995000D01*
X117119759Y-111915363D01*
X116884727Y-111758320D01*
X116623574Y-111650147D01*
X116346335Y-111595000D01*
X116063665Y-111595000D01*
X115786426Y-111650147D01*
X115525273Y-111758320D01*
X115290241Y-111915363D01*
X115090363Y-112115241D01*
X114933320Y-112350273D01*
X114825147Y-112611426D01*
X114770000Y-112888665D01*
X114770000Y-113171335D01*
X114825147Y-113448574D01*
X114933320Y-113709727D01*
X115090363Y-113944759D01*
X115170001Y-114024397D01*
X115170000Y-114575604D01*
X115090363Y-114655241D01*
X114933320Y-114890273D01*
X114825147Y-115151426D01*
X114770000Y-115428665D01*
X114770000Y-115711335D01*
X114825147Y-115988574D01*
X114933320Y-116249727D01*
X115090363Y-116484759D01*
X115290241Y-116684637D01*
X115522759Y-116840000D01*
X115290241Y-116995363D01*
X115090363Y-117195241D01*
X114933320Y-117430273D01*
X114825147Y-117691426D01*
X114770000Y-117968665D01*
X114770000Y-118251335D01*
X114825147Y-118528574D01*
X114933320Y-118789727D01*
X115090363Y-119024759D01*
X115290241Y-119224637D01*
X115525273Y-119381680D01*
X115535865Y-119386067D01*
X115349869Y-119497615D01*
X115141481Y-119686586D01*
X114973963Y-119912580D01*
X114853754Y-120166913D01*
X114813096Y-120300961D01*
X114935085Y-120523000D01*
X116078000Y-120523000D01*
X116078000Y-120503000D01*
X116332000Y-120503000D01*
X116332000Y-120523000D01*
X116352000Y-120523000D01*
X116352000Y-120777000D01*
X116332000Y-120777000D01*
X116332000Y-120797000D01*
X116078000Y-120797000D01*
X116078000Y-120777000D01*
X114935085Y-120777000D01*
X114813096Y-120999039D01*
X114853754Y-121133087D01*
X114973963Y-121387420D01*
X115141481Y-121613414D01*
X115339520Y-121793000D01*
X114427000Y-121793000D01*
X114427000Y-108299039D01*
X114813096Y-108299039D01*
X114853754Y-108433087D01*
X114973963Y-108687420D01*
X115141481Y-108913414D01*
X115349869Y-109102385D01*
X115591119Y-109247070D01*
X115855960Y-109341909D01*
X116078000Y-109220624D01*
X116078000Y-108077000D01*
X114935085Y-108077000D01*
X114813096Y-108299039D01*
X114427000Y-108299039D01*
X114427000Y-95599039D01*
X114813096Y-95599039D01*
X114853754Y-95733087D01*
X114973963Y-95987420D01*
X115141481Y-96213414D01*
X115349869Y-96402385D01*
X115591119Y-96547070D01*
X115855960Y-96641909D01*
X116078000Y-96520624D01*
X116078000Y-95377000D01*
X114935085Y-95377000D01*
X114813096Y-95599039D01*
X114427000Y-95599039D01*
X114427000Y-83820000D01*
X114424560Y-83795224D01*
X114417333Y-83771399D01*
X114405597Y-83749443D01*
X114389803Y-83730197D01*
X114370557Y-83714403D01*
X114348601Y-83702667D01*
X114324776Y-83695440D01*
X114300000Y-83693000D01*
X97781256Y-83693000D01*
X97781256Y-80489999D01*
X100431928Y-80489999D01*
X100431928Y-82070001D01*
X100448992Y-82243255D01*
X100499528Y-82409851D01*
X100581595Y-82563387D01*
X100692038Y-82697962D01*
X100826613Y-82808405D01*
X100980149Y-82890472D01*
X101146745Y-82941008D01*
X101319999Y-82958072D01*
X104420001Y-82958072D01*
X104593255Y-82941008D01*
X104759851Y-82890472D01*
X104913387Y-82808405D01*
X105047962Y-82697962D01*
X105158405Y-82563387D01*
X105240472Y-82409851D01*
X105291008Y-82243255D01*
X105308072Y-82070001D01*
X105308072Y-80489999D01*
X105291008Y-80316745D01*
X105240472Y-80150149D01*
X105158405Y-79996613D01*
X105047962Y-79862038D01*
X104913387Y-79751595D01*
X104759851Y-79669528D01*
X104593255Y-79618992D01*
X104420001Y-79601928D01*
X101319999Y-79601928D01*
X101146745Y-79618992D01*
X100980149Y-79669528D01*
X100826613Y-79751595D01*
X100692038Y-79862038D01*
X100581595Y-79996613D01*
X100499528Y-80150149D01*
X100448992Y-80316745D01*
X100431928Y-80489999D01*
X97781256Y-80489999D01*
X97781256Y-78505098D01*
X118115000Y-78505098D01*
X118115000Y-78974902D01*
X118206654Y-79435679D01*
X118386440Y-79869721D01*
X118647450Y-80260349D01*
X118979651Y-80592550D01*
X119370279Y-80853560D01*
X119804321Y-81033346D01*
X120265098Y-81125000D01*
X120734902Y-81125000D01*
X121195679Y-81033346D01*
X121629721Y-80853560D01*
X122020349Y-80592550D01*
X122352550Y-80260349D01*
X122613560Y-79869721D01*
X122793346Y-79435679D01*
X122885000Y-78974902D01*
X122885000Y-78505098D01*
X122793346Y-78044321D01*
X122613560Y-77610279D01*
X122352550Y-77219651D01*
X122020349Y-76887450D01*
X121629721Y-76626440D01*
X121195679Y-76446654D01*
X120734902Y-76355000D01*
X120265098Y-76355000D01*
X119804321Y-76446654D01*
X119370279Y-76626440D01*
X118979651Y-76887450D01*
X118647450Y-77219651D01*
X118386440Y-77610279D01*
X118206654Y-78044321D01*
X118115000Y-78505098D01*
X97781256Y-78505098D01*
X97781256Y-76586710D01*
X100480252Y-76586710D01*
X100513901Y-76723663D01*
X100646731Y-77024984D01*
X100835794Y-77294602D01*
X101073824Y-77522155D01*
X101351673Y-77698898D01*
X101658664Y-77818039D01*
X101983000Y-77875000D01*
X102743000Y-77875000D01*
X102743000Y-76327000D01*
X102997000Y-76327000D01*
X102997000Y-77875000D01*
X103757000Y-77875000D01*
X104081336Y-77818039D01*
X104388327Y-77698898D01*
X104666176Y-77522155D01*
X104904206Y-77294602D01*
X105093269Y-77024984D01*
X105226099Y-76723663D01*
X105259748Y-76586710D01*
X105140922Y-76327000D01*
X102997000Y-76327000D01*
X102743000Y-76327000D01*
X100599078Y-76327000D01*
X100480252Y-76586710D01*
X97781256Y-76586710D01*
X97781256Y-75813290D01*
X100480252Y-75813290D01*
X100599078Y-76073000D01*
X102743000Y-76073000D01*
X102743000Y-74525000D01*
X102997000Y-74525000D01*
X102997000Y-76073000D01*
X105140922Y-76073000D01*
X105259748Y-75813290D01*
X105226099Y-75676337D01*
X105093269Y-75375016D01*
X104904206Y-75105398D01*
X104666176Y-74877845D01*
X104388327Y-74701102D01*
X104081336Y-74581961D01*
X103757000Y-74525000D01*
X102997000Y-74525000D01*
X102743000Y-74525000D01*
X101983000Y-74525000D01*
X101658664Y-74581961D01*
X101351673Y-74701102D01*
X101073824Y-74877845D01*
X100835794Y-75105398D01*
X100646731Y-75375016D01*
X100513901Y-75676337D01*
X100480252Y-75813290D01*
X97781256Y-75813290D01*
X97781256Y-73787000D01*
X148798627Y-73787000D01*
X148875965Y-73880486D01*
G37*
%TD.AperFunction*%
%TD*%
M02*
