%TF.GenerationSoftware,KiCad,Pcbnew,5.1.10-1.fc33*%
%TF.CreationDate,2021-06-13T17:02:16+02:00*%
%TF.ProjectId,power-driver,706f7765-722d-4647-9269-7665722e6b69,rev?*%
%TF.SameCoordinates,Original*%
%TF.FileFunction,Legend,Top*%
%TF.FilePolarity,Positive*%
%FSLAX46Y46*%
G04 Gerber Fmt 4.6, Leading zero omitted, Abs format (unit mm)*
G04 Created by KiCad (PCBNEW 5.1.10-1.fc33) date 2021-06-13 17:02:16*
%MOMM*%
%LPD*%
G01*
G04 APERTURE LIST*
%ADD10C,0.150000*%
%ADD11C,0.010000*%
%ADD12C,0.120000*%
G04 APERTURE END LIST*
D10*
X101480952Y-108402380D02*
X101004761Y-108402380D01*
X101004761Y-107402380D01*
X101766666Y-108116666D02*
X102242857Y-108116666D01*
X101671428Y-108402380D02*
X102004761Y-107402380D01*
X102338095Y-108402380D01*
X100885714Y-103274761D02*
X101028571Y-103322380D01*
X101266666Y-103322380D01*
X101361904Y-103274761D01*
X101409523Y-103227142D01*
X101457142Y-103131904D01*
X101457142Y-103036666D01*
X101409523Y-102941428D01*
X101361904Y-102893809D01*
X101266666Y-102846190D01*
X101076190Y-102798571D01*
X100980952Y-102750952D01*
X100933333Y-102703333D01*
X100885714Y-102608095D01*
X100885714Y-102512857D01*
X100933333Y-102417619D01*
X100980952Y-102370000D01*
X101076190Y-102322380D01*
X101314285Y-102322380D01*
X101457142Y-102370000D01*
X101838095Y-103036666D02*
X102314285Y-103036666D01*
X101742857Y-103322380D02*
X102076190Y-102322380D01*
X102409523Y-103322380D01*
X101409523Y-110942380D02*
X100933333Y-110942380D01*
X100933333Y-109942380D01*
X101742857Y-110942380D02*
X101742857Y-109942380D01*
X102314285Y-110942380D02*
X101885714Y-110370952D01*
X102314285Y-109942380D02*
X101742857Y-110513809D01*
X100814285Y-105814761D02*
X100957142Y-105862380D01*
X101195238Y-105862380D01*
X101290476Y-105814761D01*
X101338095Y-105767142D01*
X101385714Y-105671904D01*
X101385714Y-105576666D01*
X101338095Y-105481428D01*
X101290476Y-105433809D01*
X101195238Y-105386190D01*
X101004761Y-105338571D01*
X100909523Y-105290952D01*
X100861904Y-105243333D01*
X100814285Y-105148095D01*
X100814285Y-105052857D01*
X100861904Y-104957619D01*
X100909523Y-104910000D01*
X101004761Y-104862380D01*
X101242857Y-104862380D01*
X101385714Y-104910000D01*
X101814285Y-105862380D02*
X101814285Y-104862380D01*
X102385714Y-105862380D02*
X101957142Y-105290952D01*
X102385714Y-104862380D02*
X101814285Y-105433809D01*
X100814285Y-100782380D02*
X100814285Y-99782380D01*
X100814285Y-100258571D02*
X101385714Y-100258571D01*
X101385714Y-100782380D02*
X101385714Y-99782380D01*
X101861904Y-100782380D02*
X101861904Y-99782380D01*
X102433333Y-100782380D02*
X102004761Y-100210952D01*
X102433333Y-99782380D02*
X101861904Y-100353809D01*
X100885714Y-98242380D02*
X100885714Y-97242380D01*
X100885714Y-97718571D02*
X101457142Y-97718571D01*
X101457142Y-98242380D02*
X101457142Y-97242380D01*
X101885714Y-97956666D02*
X102361904Y-97956666D01*
X101790476Y-98242380D02*
X102123809Y-97242380D01*
X102457142Y-98242380D01*
X148423333Y-111482142D02*
X148375714Y-111529761D01*
X148232857Y-111577380D01*
X148137619Y-111577380D01*
X147994761Y-111529761D01*
X147899523Y-111434523D01*
X147851904Y-111339285D01*
X147804285Y-111148809D01*
X147804285Y-111005952D01*
X147851904Y-110815476D01*
X147899523Y-110720238D01*
X147994761Y-110625000D01*
X148137619Y-110577380D01*
X148232857Y-110577380D01*
X148375714Y-110625000D01*
X148423333Y-110672619D01*
X148804285Y-110672619D02*
X148851904Y-110625000D01*
X148947142Y-110577380D01*
X149185238Y-110577380D01*
X149280476Y-110625000D01*
X149328095Y-110672619D01*
X149375714Y-110767857D01*
X149375714Y-110863095D01*
X149328095Y-111005952D01*
X148756666Y-111577380D01*
X149375714Y-111577380D01*
X147899523Y-109783571D02*
X148232857Y-109783571D01*
X148375714Y-110307380D02*
X147899523Y-110307380D01*
X147899523Y-109307380D01*
X148375714Y-109307380D01*
X149328095Y-110307380D02*
X148756666Y-110307380D01*
X149042380Y-110307380D02*
X149042380Y-109307380D01*
X148947142Y-109450238D01*
X148851904Y-109545476D01*
X148756666Y-109593095D01*
X147899523Y-115498571D02*
X148232857Y-115498571D01*
X148375714Y-116022380D02*
X147899523Y-116022380D01*
X147899523Y-115022380D01*
X148375714Y-115022380D01*
X148756666Y-115117619D02*
X148804285Y-115070000D01*
X148899523Y-115022380D01*
X149137619Y-115022380D01*
X149232857Y-115070000D01*
X149280476Y-115117619D01*
X149328095Y-115212857D01*
X149328095Y-115308095D01*
X149280476Y-115450952D01*
X148709047Y-116022380D01*
X149328095Y-116022380D01*
X148375714Y-112530000D02*
X148280476Y-112482380D01*
X148137619Y-112482380D01*
X147994761Y-112530000D01*
X147899523Y-112625238D01*
X147851904Y-112720476D01*
X147804285Y-112910952D01*
X147804285Y-113053809D01*
X147851904Y-113244285D01*
X147899523Y-113339523D01*
X147994761Y-113434761D01*
X148137619Y-113482380D01*
X148232857Y-113482380D01*
X148375714Y-113434761D01*
X148423333Y-113387142D01*
X148423333Y-113053809D01*
X148232857Y-113053809D01*
X148804285Y-112577619D02*
X148851904Y-112530000D01*
X148947142Y-112482380D01*
X149185238Y-112482380D01*
X149280476Y-112530000D01*
X149328095Y-112577619D01*
X149375714Y-112672857D01*
X149375714Y-112768095D01*
X149328095Y-112910952D01*
X148756666Y-113482380D01*
X149375714Y-113482380D01*
X148375714Y-107450000D02*
X148280476Y-107402380D01*
X148137619Y-107402380D01*
X147994761Y-107450000D01*
X147899523Y-107545238D01*
X147851904Y-107640476D01*
X147804285Y-107830952D01*
X147804285Y-107973809D01*
X147851904Y-108164285D01*
X147899523Y-108259523D01*
X147994761Y-108354761D01*
X148137619Y-108402380D01*
X148232857Y-108402380D01*
X148375714Y-108354761D01*
X148423333Y-108307142D01*
X148423333Y-107973809D01*
X148232857Y-107973809D01*
X149375714Y-108402380D02*
X148804285Y-108402380D01*
X149090000Y-108402380D02*
X149090000Y-107402380D01*
X148994761Y-107545238D01*
X148899523Y-107640476D01*
X148804285Y-107688095D01*
D11*
%TO.C,G\u002A\u002A\u002A*%
G36*
X138452503Y-114912743D02*
G01*
X138614910Y-114917899D01*
X138639550Y-114918841D01*
X138900394Y-114929232D01*
X139114754Y-114938468D01*
X139286923Y-114946896D01*
X139421194Y-114954864D01*
X139521861Y-114962715D01*
X139593218Y-114970798D01*
X139639557Y-114979458D01*
X139665172Y-114989042D01*
X139674356Y-114999895D01*
X139674600Y-115002311D01*
X139661916Y-115015895D01*
X139621559Y-115025545D01*
X139550070Y-115031276D01*
X139443990Y-115033105D01*
X139299862Y-115031048D01*
X139114225Y-115025124D01*
X138883622Y-115015348D01*
X138709400Y-115007007D01*
X138536541Y-114998155D01*
X138407942Y-114990476D01*
X138317108Y-114983009D01*
X138257542Y-114974794D01*
X138222750Y-114964872D01*
X138206236Y-114952281D01*
X138201504Y-114936063D01*
X138201400Y-114931914D01*
X138214554Y-114920849D01*
X138257404Y-114914067D01*
X138335028Y-114911415D01*
X138452503Y-114912743D01*
G37*
X138452503Y-114912743D02*
X138614910Y-114917899D01*
X138639550Y-114918841D01*
X138900394Y-114929232D01*
X139114754Y-114938468D01*
X139286923Y-114946896D01*
X139421194Y-114954864D01*
X139521861Y-114962715D01*
X139593218Y-114970798D01*
X139639557Y-114979458D01*
X139665172Y-114989042D01*
X139674356Y-114999895D01*
X139674600Y-115002311D01*
X139661916Y-115015895D01*
X139621559Y-115025545D01*
X139550070Y-115031276D01*
X139443990Y-115033105D01*
X139299862Y-115031048D01*
X139114225Y-115025124D01*
X138883622Y-115015348D01*
X138709400Y-115007007D01*
X138536541Y-114998155D01*
X138407942Y-114990476D01*
X138317108Y-114983009D01*
X138257542Y-114974794D01*
X138222750Y-114964872D01*
X138206236Y-114952281D01*
X138201504Y-114936063D01*
X138201400Y-114931914D01*
X138214554Y-114920849D01*
X138257404Y-114914067D01*
X138335028Y-114911415D01*
X138452503Y-114912743D01*
G36*
X137460218Y-110352375D02*
G01*
X137509903Y-110422239D01*
X137535391Y-110461974D01*
X137630091Y-110611748D01*
X137740546Y-110552669D01*
X137823403Y-110515861D01*
X137888813Y-110511634D01*
X137958779Y-110540569D01*
X137989303Y-110559204D01*
X138061475Y-110626082D01*
X138127768Y-110723316D01*
X138181072Y-110835285D01*
X138214278Y-110946370D01*
X138220279Y-111040952D01*
X138216922Y-111059299D01*
X138185300Y-111115407D01*
X138127817Y-111171367D01*
X138112305Y-111182250D01*
X138057307Y-111221762D01*
X138026368Y-111251526D01*
X138023914Y-111257198D01*
X138036742Y-111288547D01*
X138071658Y-111352639D01*
X138122687Y-111439872D01*
X138183857Y-111540644D01*
X138249193Y-111645352D01*
X138312723Y-111744393D01*
X138368471Y-111828165D01*
X138410465Y-111887065D01*
X138429646Y-111909407D01*
X138450551Y-111937696D01*
X138495252Y-112005922D01*
X138561487Y-112110411D01*
X138646993Y-112247495D01*
X138749510Y-112413500D01*
X138866773Y-112604757D01*
X138996521Y-112817593D01*
X139136493Y-113048337D01*
X139284425Y-113293318D01*
X139368849Y-113433608D01*
X139543712Y-113724711D01*
X139694031Y-113975478D01*
X139821550Y-114189039D01*
X139928013Y-114368528D01*
X140015165Y-114517076D01*
X140084750Y-114637815D01*
X140138513Y-114733877D01*
X140178198Y-114808394D01*
X140205550Y-114864498D01*
X140222312Y-114905322D01*
X140230231Y-114933996D01*
X140231048Y-114953654D01*
X140226511Y-114967427D01*
X140224750Y-114970308D01*
X140174410Y-115021379D01*
X140121789Y-115022995D01*
X140063936Y-114974909D01*
X140048580Y-114955456D01*
X140018240Y-114910449D01*
X139965631Y-114827579D01*
X139893460Y-114711372D01*
X139804434Y-114566351D01*
X139701259Y-114397041D01*
X139586643Y-114207969D01*
X139463291Y-114003658D01*
X139333911Y-113788634D01*
X139201210Y-113567421D01*
X139067893Y-113344544D01*
X138936669Y-113124528D01*
X138810243Y-112911899D01*
X138691323Y-112711180D01*
X138582615Y-112526897D01*
X138486826Y-112363575D01*
X138406663Y-112225739D01*
X138344832Y-112117913D01*
X138304040Y-112044623D01*
X138287160Y-112010881D01*
X138261996Y-111954880D01*
X138217071Y-111868602D01*
X138158967Y-111763400D01*
X138094264Y-111650624D01*
X138029545Y-111541626D01*
X137971391Y-111447758D01*
X137926384Y-111380371D01*
X137907962Y-111356861D01*
X137876659Y-111335407D01*
X137838553Y-111348675D01*
X137822915Y-111359139D01*
X137788175Y-111391424D01*
X137783949Y-111410282D01*
X137784136Y-111440370D01*
X137767063Y-111497481D01*
X137760388Y-111514267D01*
X137699416Y-111602867D01*
X137611137Y-111659759D01*
X137510004Y-111676744D01*
X137480490Y-111673065D01*
X137417005Y-111661056D01*
X137375900Y-111654026D01*
X137348902Y-111667083D01*
X137286457Y-111705652D01*
X137194508Y-111765797D01*
X137079001Y-111843578D01*
X136945878Y-111935060D01*
X136838380Y-112010063D01*
X136679073Y-112122212D01*
X136556475Y-112209734D01*
X136465569Y-112276979D01*
X136401339Y-112328295D01*
X136358766Y-112368032D01*
X136332834Y-112400538D01*
X136318526Y-112430162D01*
X136310824Y-112461252D01*
X136309565Y-112468442D01*
X136284385Y-112546737D01*
X136244330Y-112610157D01*
X136237485Y-112616913D01*
X136204858Y-112637776D01*
X136131414Y-112679516D01*
X136021524Y-112739798D01*
X135879559Y-112816288D01*
X135709890Y-112906652D01*
X135516888Y-113008556D01*
X135304923Y-113119667D01*
X135078367Y-113237650D01*
X134962900Y-113297497D01*
X134695281Y-113435839D01*
X134468765Y-113552483D01*
X134279431Y-113649262D01*
X134123361Y-113728012D01*
X133996636Y-113790567D01*
X133895336Y-113838762D01*
X133815544Y-113874431D01*
X133753339Y-113899408D01*
X133704803Y-113915527D01*
X133666018Y-113924624D01*
X133633063Y-113928533D01*
X133613474Y-113929157D01*
X133504272Y-113919171D01*
X133413045Y-113882283D01*
X133384823Y-113864750D01*
X133304841Y-113821959D01*
X133246472Y-113816091D01*
X133235648Y-113819422D01*
X133139034Y-113839785D01*
X133015488Y-113842140D01*
X132885002Y-113827938D01*
X132767569Y-113798634D01*
X132727700Y-113782526D01*
X132569496Y-113681315D01*
X132431098Y-113539766D01*
X132318384Y-113366395D01*
X132237231Y-113169718D01*
X132202065Y-113021026D01*
X132188229Y-112926590D01*
X132186015Y-112868021D01*
X132196225Y-112831553D01*
X132214430Y-112808483D01*
X132260560Y-112782884D01*
X132297493Y-112806236D01*
X132324421Y-112877386D01*
X132339931Y-112987344D01*
X132375441Y-113173247D01*
X132446956Y-113340198D01*
X132548581Y-113482864D01*
X132674420Y-113595909D01*
X132818574Y-113673998D01*
X132975149Y-113711798D01*
X133133145Y-113704954D01*
X133191265Y-113690173D01*
X133208637Y-113670108D01*
X133198512Y-113641305D01*
X133172956Y-113614593D01*
X133123674Y-113597690D01*
X133039278Y-113587398D01*
X132996492Y-113584604D01*
X132857578Y-113564167D01*
X132746484Y-113515911D01*
X132653676Y-113432972D01*
X132569621Y-113308485D01*
X132542495Y-113257737D01*
X132496417Y-113160228D01*
X132472303Y-113083273D01*
X132464789Y-113004601D01*
X132466295Y-112941380D01*
X132472520Y-112855842D01*
X132483542Y-112809612D01*
X132503741Y-112791197D01*
X132524500Y-112788700D01*
X132553577Y-112795581D01*
X132571714Y-112823733D01*
X132583684Y-112884413D01*
X132590111Y-112943374D01*
X132624751Y-113122442D01*
X132689679Y-113266501D01*
X132782592Y-113372560D01*
X132901186Y-113437627D01*
X132984863Y-113455879D01*
X133097687Y-113468596D01*
X133081313Y-113366203D01*
X133082740Y-113241753D01*
X133222651Y-113241753D01*
X133225341Y-113351912D01*
X133256968Y-113472094D01*
X133313692Y-113589707D01*
X133391671Y-113692160D01*
X133426900Y-113725191D01*
X133465646Y-113755857D01*
X133503437Y-113778330D01*
X133544758Y-113791109D01*
X133594094Y-113792696D01*
X133655930Y-113781591D01*
X133734752Y-113756295D01*
X133835046Y-113715308D01*
X133961297Y-113657132D01*
X134117991Y-113580266D01*
X134309613Y-113483211D01*
X134540647Y-113364468D01*
X134604332Y-113331609D01*
X134814385Y-113223103D01*
X135021888Y-113115750D01*
X135219790Y-113013211D01*
X135401040Y-112919146D01*
X135558587Y-112837214D01*
X135685379Y-112771075D01*
X135774364Y-112724388D01*
X135777210Y-112722885D01*
X136058120Y-112574552D01*
X135915480Y-112424652D01*
X135799613Y-112283118D01*
X135692159Y-112115972D01*
X135604858Y-111943176D01*
X135558254Y-111817150D01*
X135537238Y-111752190D01*
X135521269Y-111713716D01*
X135517365Y-111709200D01*
X135489664Y-111722528D01*
X135424286Y-111760428D01*
X135326136Y-111819768D01*
X135200122Y-111897418D01*
X135051148Y-111990249D01*
X134884120Y-112095128D01*
X134703945Y-112208927D01*
X134515528Y-112328515D01*
X134323774Y-112450762D01*
X134133591Y-112572537D01*
X133949882Y-112690710D01*
X133777556Y-112802150D01*
X133621516Y-112903728D01*
X133486670Y-112992314D01*
X133377922Y-113064775D01*
X133300179Y-113117984D01*
X133258347Y-113148808D01*
X133252739Y-113154212D01*
X133222651Y-113241753D01*
X133082740Y-113241753D01*
X133082914Y-113226581D01*
X133131573Y-113100475D01*
X133208012Y-113010015D01*
X133245240Y-112982700D01*
X133321272Y-112931375D01*
X133431760Y-112858834D01*
X133572356Y-112767869D01*
X133738710Y-112661274D01*
X133926473Y-112541843D01*
X134131298Y-112412369D01*
X134348836Y-112275646D01*
X134441666Y-112217533D01*
X134697159Y-112057950D01*
X134913522Y-111923418D01*
X135094598Y-111811896D01*
X135244230Y-111721343D01*
X135271785Y-111705170D01*
X135662391Y-111705170D01*
X135682486Y-111784539D01*
X135721558Y-111882994D01*
X135776099Y-111993108D01*
X135842604Y-112107457D01*
X135917567Y-112218614D01*
X135997483Y-112319154D01*
X136037178Y-112362079D01*
X136156700Y-112483900D01*
X136164719Y-112414236D01*
X136157552Y-112355158D01*
X136119269Y-112284315D01*
X136072759Y-112223736D01*
X135949735Y-112054491D01*
X135855475Y-111882218D01*
X135812937Y-111772700D01*
X135778117Y-111687282D01*
X135750958Y-111658400D01*
X135915904Y-111658400D01*
X135928471Y-111711497D01*
X135962098Y-111791000D01*
X136010647Y-111886552D01*
X136067983Y-111987798D01*
X136127968Y-112084381D01*
X136184468Y-112165945D01*
X136231345Y-112222134D01*
X136262063Y-112242600D01*
X136286158Y-112228623D01*
X136345819Y-112189388D01*
X136435110Y-112128934D01*
X136548099Y-112051301D01*
X136678849Y-111960529D01*
X136769196Y-111897346D01*
X136908374Y-111799267D01*
X137033376Y-111710271D01*
X137138258Y-111634664D01*
X137217076Y-111576753D01*
X137263886Y-111540842D01*
X137274267Y-111531453D01*
X137267593Y-111502169D01*
X137239329Y-111439978D01*
X137194486Y-111355247D01*
X137159789Y-111294639D01*
X137032556Y-111078465D01*
X136474235Y-111349382D01*
X136280584Y-111444919D01*
X136126090Y-111524514D01*
X136012597Y-111587144D01*
X135941952Y-111631790D01*
X135916000Y-111657428D01*
X135915904Y-111658400D01*
X135750958Y-111658400D01*
X135737276Y-111643850D01*
X135693150Y-111633388D01*
X135664777Y-111652311D01*
X135662391Y-111705170D01*
X135271785Y-111705170D01*
X135366260Y-111649720D01*
X135464531Y-111594984D01*
X135542888Y-111555096D01*
X135605171Y-111528014D01*
X135655226Y-111511699D01*
X135696893Y-111504109D01*
X135734017Y-111503204D01*
X135770440Y-111506943D01*
X135777768Y-111508036D01*
X135814490Y-111499500D01*
X135889832Y-111471201D01*
X135996975Y-111426086D01*
X136129098Y-111367101D01*
X136279382Y-111297195D01*
X136402663Y-111238032D01*
X136584866Y-111148780D01*
X136726153Y-111077778D01*
X136831738Y-111022004D01*
X136906837Y-110978438D01*
X136930745Y-110961942D01*
X137138987Y-110961942D01*
X137162788Y-111026462D01*
X137194359Y-111084668D01*
X137236560Y-111157890D01*
X137292977Y-111255641D01*
X137352387Y-111358479D01*
X137360579Y-111372650D01*
X137412876Y-111457045D01*
X137459236Y-111521086D01*
X137491861Y-111554351D01*
X137498368Y-111556800D01*
X137541411Y-111543185D01*
X137586148Y-111517259D01*
X137628395Y-111475059D01*
X137642600Y-111440469D01*
X137630551Y-111405134D01*
X137597676Y-111335752D01*
X137548877Y-111242074D01*
X137489057Y-111133854D01*
X137483850Y-111124698D01*
X137409139Y-110997781D01*
X137351021Y-110911935D01*
X137311427Y-110870575D01*
X137495090Y-110870575D01*
X137518566Y-110920588D01*
X137557812Y-110991948D01*
X137605367Y-111072497D01*
X137653767Y-111150077D01*
X137695553Y-111212531D01*
X137723261Y-111247701D01*
X137728831Y-111251412D01*
X137759772Y-111239149D01*
X137821679Y-111206072D01*
X137902659Y-111158636D01*
X137925681Y-111144556D01*
X138006963Y-111090612D01*
X138067981Y-111042904D01*
X138098256Y-111009857D01*
X138099800Y-111004579D01*
X138086189Y-110942638D01*
X138050993Y-110863738D01*
X138002664Y-110781104D01*
X137949656Y-110707961D01*
X137900421Y-110657532D01*
X137868292Y-110642400D01*
X137831585Y-110654538D01*
X137769112Y-110685987D01*
X137693061Y-110729294D01*
X137615618Y-110777009D01*
X137548971Y-110821680D01*
X137505307Y-110855856D01*
X137495090Y-110870575D01*
X137311427Y-110870575D01*
X137303781Y-110862588D01*
X137261703Y-110845169D01*
X137219072Y-110855110D01*
X137179050Y-110880957D01*
X137144714Y-110917513D01*
X137138987Y-110961942D01*
X136930745Y-110961942D01*
X136956665Y-110944058D01*
X136986436Y-110915843D01*
X137001163Y-110891306D01*
X137057531Y-110810948D01*
X137148882Y-110752687D01*
X137261574Y-110723901D01*
X137313335Y-110722429D01*
X137393079Y-110720371D01*
X137456050Y-110709540D01*
X137470422Y-110703763D01*
X137489845Y-110686501D01*
X137489974Y-110658942D01*
X137467776Y-110610311D01*
X137422541Y-110533630D01*
X137374806Y-110450719D01*
X137353495Y-110397743D01*
X137355068Y-110363612D01*
X137363814Y-110349559D01*
X137394672Y-110320947D01*
X137424307Y-110320248D01*
X137460218Y-110352375D01*
G37*
X137460218Y-110352375D02*
X137509903Y-110422239D01*
X137535391Y-110461974D01*
X137630091Y-110611748D01*
X137740546Y-110552669D01*
X137823403Y-110515861D01*
X137888813Y-110511634D01*
X137958779Y-110540569D01*
X137989303Y-110559204D01*
X138061475Y-110626082D01*
X138127768Y-110723316D01*
X138181072Y-110835285D01*
X138214278Y-110946370D01*
X138220279Y-111040952D01*
X138216922Y-111059299D01*
X138185300Y-111115407D01*
X138127817Y-111171367D01*
X138112305Y-111182250D01*
X138057307Y-111221762D01*
X138026368Y-111251526D01*
X138023914Y-111257198D01*
X138036742Y-111288547D01*
X138071658Y-111352639D01*
X138122687Y-111439872D01*
X138183857Y-111540644D01*
X138249193Y-111645352D01*
X138312723Y-111744393D01*
X138368471Y-111828165D01*
X138410465Y-111887065D01*
X138429646Y-111909407D01*
X138450551Y-111937696D01*
X138495252Y-112005922D01*
X138561487Y-112110411D01*
X138646993Y-112247495D01*
X138749510Y-112413500D01*
X138866773Y-112604757D01*
X138996521Y-112817593D01*
X139136493Y-113048337D01*
X139284425Y-113293318D01*
X139368849Y-113433608D01*
X139543712Y-113724711D01*
X139694031Y-113975478D01*
X139821550Y-114189039D01*
X139928013Y-114368528D01*
X140015165Y-114517076D01*
X140084750Y-114637815D01*
X140138513Y-114733877D01*
X140178198Y-114808394D01*
X140205550Y-114864498D01*
X140222312Y-114905322D01*
X140230231Y-114933996D01*
X140231048Y-114953654D01*
X140226511Y-114967427D01*
X140224750Y-114970308D01*
X140174410Y-115021379D01*
X140121789Y-115022995D01*
X140063936Y-114974909D01*
X140048580Y-114955456D01*
X140018240Y-114910449D01*
X139965631Y-114827579D01*
X139893460Y-114711372D01*
X139804434Y-114566351D01*
X139701259Y-114397041D01*
X139586643Y-114207969D01*
X139463291Y-114003658D01*
X139333911Y-113788634D01*
X139201210Y-113567421D01*
X139067893Y-113344544D01*
X138936669Y-113124528D01*
X138810243Y-112911899D01*
X138691323Y-112711180D01*
X138582615Y-112526897D01*
X138486826Y-112363575D01*
X138406663Y-112225739D01*
X138344832Y-112117913D01*
X138304040Y-112044623D01*
X138287160Y-112010881D01*
X138261996Y-111954880D01*
X138217071Y-111868602D01*
X138158967Y-111763400D01*
X138094264Y-111650624D01*
X138029545Y-111541626D01*
X137971391Y-111447758D01*
X137926384Y-111380371D01*
X137907962Y-111356861D01*
X137876659Y-111335407D01*
X137838553Y-111348675D01*
X137822915Y-111359139D01*
X137788175Y-111391424D01*
X137783949Y-111410282D01*
X137784136Y-111440370D01*
X137767063Y-111497481D01*
X137760388Y-111514267D01*
X137699416Y-111602867D01*
X137611137Y-111659759D01*
X137510004Y-111676744D01*
X137480490Y-111673065D01*
X137417005Y-111661056D01*
X137375900Y-111654026D01*
X137348902Y-111667083D01*
X137286457Y-111705652D01*
X137194508Y-111765797D01*
X137079001Y-111843578D01*
X136945878Y-111935060D01*
X136838380Y-112010063D01*
X136679073Y-112122212D01*
X136556475Y-112209734D01*
X136465569Y-112276979D01*
X136401339Y-112328295D01*
X136358766Y-112368032D01*
X136332834Y-112400538D01*
X136318526Y-112430162D01*
X136310824Y-112461252D01*
X136309565Y-112468442D01*
X136284385Y-112546737D01*
X136244330Y-112610157D01*
X136237485Y-112616913D01*
X136204858Y-112637776D01*
X136131414Y-112679516D01*
X136021524Y-112739798D01*
X135879559Y-112816288D01*
X135709890Y-112906652D01*
X135516888Y-113008556D01*
X135304923Y-113119667D01*
X135078367Y-113237650D01*
X134962900Y-113297497D01*
X134695281Y-113435839D01*
X134468765Y-113552483D01*
X134279431Y-113649262D01*
X134123361Y-113728012D01*
X133996636Y-113790567D01*
X133895336Y-113838762D01*
X133815544Y-113874431D01*
X133753339Y-113899408D01*
X133704803Y-113915527D01*
X133666018Y-113924624D01*
X133633063Y-113928533D01*
X133613474Y-113929157D01*
X133504272Y-113919171D01*
X133413045Y-113882283D01*
X133384823Y-113864750D01*
X133304841Y-113821959D01*
X133246472Y-113816091D01*
X133235648Y-113819422D01*
X133139034Y-113839785D01*
X133015488Y-113842140D01*
X132885002Y-113827938D01*
X132767569Y-113798634D01*
X132727700Y-113782526D01*
X132569496Y-113681315D01*
X132431098Y-113539766D01*
X132318384Y-113366395D01*
X132237231Y-113169718D01*
X132202065Y-113021026D01*
X132188229Y-112926590D01*
X132186015Y-112868021D01*
X132196225Y-112831553D01*
X132214430Y-112808483D01*
X132260560Y-112782884D01*
X132297493Y-112806236D01*
X132324421Y-112877386D01*
X132339931Y-112987344D01*
X132375441Y-113173247D01*
X132446956Y-113340198D01*
X132548581Y-113482864D01*
X132674420Y-113595909D01*
X132818574Y-113673998D01*
X132975149Y-113711798D01*
X133133145Y-113704954D01*
X133191265Y-113690173D01*
X133208637Y-113670108D01*
X133198512Y-113641305D01*
X133172956Y-113614593D01*
X133123674Y-113597690D01*
X133039278Y-113587398D01*
X132996492Y-113584604D01*
X132857578Y-113564167D01*
X132746484Y-113515911D01*
X132653676Y-113432972D01*
X132569621Y-113308485D01*
X132542495Y-113257737D01*
X132496417Y-113160228D01*
X132472303Y-113083273D01*
X132464789Y-113004601D01*
X132466295Y-112941380D01*
X132472520Y-112855842D01*
X132483542Y-112809612D01*
X132503741Y-112791197D01*
X132524500Y-112788700D01*
X132553577Y-112795581D01*
X132571714Y-112823733D01*
X132583684Y-112884413D01*
X132590111Y-112943374D01*
X132624751Y-113122442D01*
X132689679Y-113266501D01*
X132782592Y-113372560D01*
X132901186Y-113437627D01*
X132984863Y-113455879D01*
X133097687Y-113468596D01*
X133081313Y-113366203D01*
X133082740Y-113241753D01*
X133222651Y-113241753D01*
X133225341Y-113351912D01*
X133256968Y-113472094D01*
X133313692Y-113589707D01*
X133391671Y-113692160D01*
X133426900Y-113725191D01*
X133465646Y-113755857D01*
X133503437Y-113778330D01*
X133544758Y-113791109D01*
X133594094Y-113792696D01*
X133655930Y-113781591D01*
X133734752Y-113756295D01*
X133835046Y-113715308D01*
X133961297Y-113657132D01*
X134117991Y-113580266D01*
X134309613Y-113483211D01*
X134540647Y-113364468D01*
X134604332Y-113331609D01*
X134814385Y-113223103D01*
X135021888Y-113115750D01*
X135219790Y-113013211D01*
X135401040Y-112919146D01*
X135558587Y-112837214D01*
X135685379Y-112771075D01*
X135774364Y-112724388D01*
X135777210Y-112722885D01*
X136058120Y-112574552D01*
X135915480Y-112424652D01*
X135799613Y-112283118D01*
X135692159Y-112115972D01*
X135604858Y-111943176D01*
X135558254Y-111817150D01*
X135537238Y-111752190D01*
X135521269Y-111713716D01*
X135517365Y-111709200D01*
X135489664Y-111722528D01*
X135424286Y-111760428D01*
X135326136Y-111819768D01*
X135200122Y-111897418D01*
X135051148Y-111990249D01*
X134884120Y-112095128D01*
X134703945Y-112208927D01*
X134515528Y-112328515D01*
X134323774Y-112450762D01*
X134133591Y-112572537D01*
X133949882Y-112690710D01*
X133777556Y-112802150D01*
X133621516Y-112903728D01*
X133486670Y-112992314D01*
X133377922Y-113064775D01*
X133300179Y-113117984D01*
X133258347Y-113148808D01*
X133252739Y-113154212D01*
X133222651Y-113241753D01*
X133082740Y-113241753D01*
X133082914Y-113226581D01*
X133131573Y-113100475D01*
X133208012Y-113010015D01*
X133245240Y-112982700D01*
X133321272Y-112931375D01*
X133431760Y-112858834D01*
X133572356Y-112767869D01*
X133738710Y-112661274D01*
X133926473Y-112541843D01*
X134131298Y-112412369D01*
X134348836Y-112275646D01*
X134441666Y-112217533D01*
X134697159Y-112057950D01*
X134913522Y-111923418D01*
X135094598Y-111811896D01*
X135244230Y-111721343D01*
X135271785Y-111705170D01*
X135662391Y-111705170D01*
X135682486Y-111784539D01*
X135721558Y-111882994D01*
X135776099Y-111993108D01*
X135842604Y-112107457D01*
X135917567Y-112218614D01*
X135997483Y-112319154D01*
X136037178Y-112362079D01*
X136156700Y-112483900D01*
X136164719Y-112414236D01*
X136157552Y-112355158D01*
X136119269Y-112284315D01*
X136072759Y-112223736D01*
X135949735Y-112054491D01*
X135855475Y-111882218D01*
X135812937Y-111772700D01*
X135778117Y-111687282D01*
X135750958Y-111658400D01*
X135915904Y-111658400D01*
X135928471Y-111711497D01*
X135962098Y-111791000D01*
X136010647Y-111886552D01*
X136067983Y-111987798D01*
X136127968Y-112084381D01*
X136184468Y-112165945D01*
X136231345Y-112222134D01*
X136262063Y-112242600D01*
X136286158Y-112228623D01*
X136345819Y-112189388D01*
X136435110Y-112128934D01*
X136548099Y-112051301D01*
X136678849Y-111960529D01*
X136769196Y-111897346D01*
X136908374Y-111799267D01*
X137033376Y-111710271D01*
X137138258Y-111634664D01*
X137217076Y-111576753D01*
X137263886Y-111540842D01*
X137274267Y-111531453D01*
X137267593Y-111502169D01*
X137239329Y-111439978D01*
X137194486Y-111355247D01*
X137159789Y-111294639D01*
X137032556Y-111078465D01*
X136474235Y-111349382D01*
X136280584Y-111444919D01*
X136126090Y-111524514D01*
X136012597Y-111587144D01*
X135941952Y-111631790D01*
X135916000Y-111657428D01*
X135915904Y-111658400D01*
X135750958Y-111658400D01*
X135737276Y-111643850D01*
X135693150Y-111633388D01*
X135664777Y-111652311D01*
X135662391Y-111705170D01*
X135271785Y-111705170D01*
X135366260Y-111649720D01*
X135464531Y-111594984D01*
X135542888Y-111555096D01*
X135605171Y-111528014D01*
X135655226Y-111511699D01*
X135696893Y-111504109D01*
X135734017Y-111503204D01*
X135770440Y-111506943D01*
X135777768Y-111508036D01*
X135814490Y-111499500D01*
X135889832Y-111471201D01*
X135996975Y-111426086D01*
X136129098Y-111367101D01*
X136279382Y-111297195D01*
X136402663Y-111238032D01*
X136584866Y-111148780D01*
X136726153Y-111077778D01*
X136831738Y-111022004D01*
X136906837Y-110978438D01*
X136930745Y-110961942D01*
X137138987Y-110961942D01*
X137162788Y-111026462D01*
X137194359Y-111084668D01*
X137236560Y-111157890D01*
X137292977Y-111255641D01*
X137352387Y-111358479D01*
X137360579Y-111372650D01*
X137412876Y-111457045D01*
X137459236Y-111521086D01*
X137491861Y-111554351D01*
X137498368Y-111556800D01*
X137541411Y-111543185D01*
X137586148Y-111517259D01*
X137628395Y-111475059D01*
X137642600Y-111440469D01*
X137630551Y-111405134D01*
X137597676Y-111335752D01*
X137548877Y-111242074D01*
X137489057Y-111133854D01*
X137483850Y-111124698D01*
X137409139Y-110997781D01*
X137351021Y-110911935D01*
X137311427Y-110870575D01*
X137495090Y-110870575D01*
X137518566Y-110920588D01*
X137557812Y-110991948D01*
X137605367Y-111072497D01*
X137653767Y-111150077D01*
X137695553Y-111212531D01*
X137723261Y-111247701D01*
X137728831Y-111251412D01*
X137759772Y-111239149D01*
X137821679Y-111206072D01*
X137902659Y-111158636D01*
X137925681Y-111144556D01*
X138006963Y-111090612D01*
X138067981Y-111042904D01*
X138098256Y-111009857D01*
X138099800Y-111004579D01*
X138086189Y-110942638D01*
X138050993Y-110863738D01*
X138002664Y-110781104D01*
X137949656Y-110707961D01*
X137900421Y-110657532D01*
X137868292Y-110642400D01*
X137831585Y-110654538D01*
X137769112Y-110685987D01*
X137693061Y-110729294D01*
X137615618Y-110777009D01*
X137548971Y-110821680D01*
X137505307Y-110855856D01*
X137495090Y-110870575D01*
X137311427Y-110870575D01*
X137303781Y-110862588D01*
X137261703Y-110845169D01*
X137219072Y-110855110D01*
X137179050Y-110880957D01*
X137144714Y-110917513D01*
X137138987Y-110961942D01*
X136930745Y-110961942D01*
X136956665Y-110944058D01*
X136986436Y-110915843D01*
X137001163Y-110891306D01*
X137057531Y-110810948D01*
X137148882Y-110752687D01*
X137261574Y-110723901D01*
X137313335Y-110722429D01*
X137393079Y-110720371D01*
X137456050Y-110709540D01*
X137470422Y-110703763D01*
X137489845Y-110686501D01*
X137489974Y-110658942D01*
X137467776Y-110610311D01*
X137422541Y-110533630D01*
X137374806Y-110450719D01*
X137353495Y-110397743D01*
X137355068Y-110363612D01*
X137363814Y-110349559D01*
X137394672Y-110320947D01*
X137424307Y-110320248D01*
X137460218Y-110352375D01*
G36*
X141864914Y-114915732D02*
G01*
X141895758Y-114922443D01*
X141905394Y-114932836D01*
X141904658Y-114937993D01*
X141891350Y-114951781D01*
X141858347Y-114963853D01*
X141801368Y-114974591D01*
X141716134Y-114984375D01*
X141598365Y-114993588D01*
X141443780Y-115002610D01*
X141248101Y-115011823D01*
X141007046Y-115021606D01*
X140935014Y-115024343D01*
X140760301Y-115030432D01*
X140630411Y-115033612D01*
X140539440Y-115033687D01*
X140481485Y-115030467D01*
X140450641Y-115023756D01*
X140441005Y-115013363D01*
X140441741Y-115008206D01*
X140455049Y-114994418D01*
X140488052Y-114982346D01*
X140545031Y-114971608D01*
X140630265Y-114961824D01*
X140748034Y-114952611D01*
X140902619Y-114943589D01*
X141098298Y-114934376D01*
X141339353Y-114924593D01*
X141411385Y-114921856D01*
X141586098Y-114915767D01*
X141715988Y-114912587D01*
X141806959Y-114912512D01*
X141864914Y-114915732D01*
G37*
X141864914Y-114915732D02*
X141895758Y-114922443D01*
X141905394Y-114932836D01*
X141904658Y-114937993D01*
X141891350Y-114951781D01*
X141858347Y-114963853D01*
X141801368Y-114974591D01*
X141716134Y-114984375D01*
X141598365Y-114993588D01*
X141443780Y-115002610D01*
X141248101Y-115011823D01*
X141007046Y-115021606D01*
X140935014Y-115024343D01*
X140760301Y-115030432D01*
X140630411Y-115033612D01*
X140539440Y-115033687D01*
X140481485Y-115030467D01*
X140450641Y-115023756D01*
X140441005Y-115013363D01*
X140441741Y-115008206D01*
X140455049Y-114994418D01*
X140488052Y-114982346D01*
X140545031Y-114971608D01*
X140630265Y-114961824D01*
X140748034Y-114952611D01*
X140902619Y-114943589D01*
X141098298Y-114934376D01*
X141339353Y-114924593D01*
X141411385Y-114921856D01*
X141586098Y-114915767D01*
X141715988Y-114912587D01*
X141806959Y-114912512D01*
X141864914Y-114915732D01*
G36*
X138552018Y-114495752D02*
G01*
X138752715Y-114569798D01*
X138912357Y-114630150D01*
X139034439Y-114678216D01*
X139122454Y-114715405D01*
X139179896Y-114743126D01*
X139210258Y-114762786D01*
X139217400Y-114773785D01*
X139212506Y-114792706D01*
X139194053Y-114801440D01*
X139156381Y-114798561D01*
X139093829Y-114782645D01*
X139000739Y-114752266D01*
X138871451Y-114705999D01*
X138709599Y-114645901D01*
X138547314Y-114583754D01*
X138428397Y-114534818D01*
X138347865Y-114496715D01*
X138300739Y-114467067D01*
X138282036Y-114443496D01*
X138281573Y-114441575D01*
X138285962Y-114406666D01*
X138306773Y-114406602D01*
X138552018Y-114495752D01*
G37*
X138552018Y-114495752D02*
X138752715Y-114569798D01*
X138912357Y-114630150D01*
X139034439Y-114678216D01*
X139122454Y-114715405D01*
X139179896Y-114743126D01*
X139210258Y-114762786D01*
X139217400Y-114773785D01*
X139212506Y-114792706D01*
X139194053Y-114801440D01*
X139156381Y-114798561D01*
X139093829Y-114782645D01*
X139000739Y-114752266D01*
X138871451Y-114705999D01*
X138709599Y-114645901D01*
X138547314Y-114583754D01*
X138428397Y-114534818D01*
X138347865Y-114496715D01*
X138300739Y-114467067D01*
X138282036Y-114443496D01*
X138281573Y-114441575D01*
X138285962Y-114406666D01*
X138306773Y-114406602D01*
X138552018Y-114495752D01*
G36*
X141843332Y-114426572D02*
G01*
X141857032Y-114458142D01*
X141852859Y-114467007D01*
X141825333Y-114480231D01*
X141759234Y-114507265D01*
X141663770Y-114544662D01*
X141548146Y-114588977D01*
X141421570Y-114636764D01*
X141293248Y-114684577D01*
X141172387Y-114728968D01*
X141068194Y-114766494D01*
X140989875Y-114793707D01*
X140946637Y-114807161D01*
X140941831Y-114808000D01*
X140911575Y-114789827D01*
X140907287Y-114783874D01*
X140903433Y-114770321D01*
X140912632Y-114755612D01*
X140940401Y-114737201D01*
X140992255Y-114712544D01*
X141073710Y-114679095D01*
X141190280Y-114634311D01*
X141347482Y-114575645D01*
X141403447Y-114554937D01*
X141577651Y-114492558D01*
X141709353Y-114449835D01*
X141797343Y-114427122D01*
X141840410Y-114424771D01*
X141843332Y-114426572D01*
G37*
X141843332Y-114426572D02*
X141857032Y-114458142D01*
X141852859Y-114467007D01*
X141825333Y-114480231D01*
X141759234Y-114507265D01*
X141663770Y-114544662D01*
X141548146Y-114588977D01*
X141421570Y-114636764D01*
X141293248Y-114684577D01*
X141172387Y-114728968D01*
X141068194Y-114766494D01*
X140989875Y-114793707D01*
X140946637Y-114807161D01*
X140941831Y-114808000D01*
X140911575Y-114789827D01*
X140907287Y-114783874D01*
X140903433Y-114770321D01*
X140912632Y-114755612D01*
X140940401Y-114737201D01*
X140992255Y-114712544D01*
X141073710Y-114679095D01*
X141190280Y-114634311D01*
X141347482Y-114575645D01*
X141403447Y-114554937D01*
X141577651Y-114492558D01*
X141709353Y-114449835D01*
X141797343Y-114427122D01*
X141840410Y-114424771D01*
X141843332Y-114426572D01*
G36*
X137923521Y-113406375D02*
G01*
X137987804Y-113440815D01*
X138087047Y-113508593D01*
X138181507Y-113578959D01*
X138471111Y-113799918D01*
X138722676Y-113992144D01*
X138938619Y-114157626D01*
X139121357Y-114298354D01*
X139273307Y-114416319D01*
X139396886Y-114513511D01*
X139494512Y-114591920D01*
X139568600Y-114653535D01*
X139621570Y-114700348D01*
X139655836Y-114734347D01*
X139673817Y-114757523D01*
X139677930Y-114771866D01*
X139670591Y-114779366D01*
X139654218Y-114782013D01*
X139642850Y-114782131D01*
X139616183Y-114767036D01*
X139553964Y-114724234D01*
X139460803Y-114657124D01*
X139341311Y-114569106D01*
X139200096Y-114463578D01*
X139041769Y-114343942D01*
X138870941Y-114213595D01*
X138849100Y-114196841D01*
X138624126Y-114024113D01*
X138436276Y-113879619D01*
X138282344Y-113760701D01*
X138159125Y-113664704D01*
X138063413Y-113588972D01*
X137992002Y-113530847D01*
X137941688Y-113487673D01*
X137909263Y-113456795D01*
X137891523Y-113435555D01*
X137885263Y-113421298D01*
X137887275Y-113411367D01*
X137892931Y-113404508D01*
X137923521Y-113406375D01*
G37*
X137923521Y-113406375D02*
X137987804Y-113440815D01*
X138087047Y-113508593D01*
X138181507Y-113578959D01*
X138471111Y-113799918D01*
X138722676Y-113992144D01*
X138938619Y-114157626D01*
X139121357Y-114298354D01*
X139273307Y-114416319D01*
X139396886Y-114513511D01*
X139494512Y-114591920D01*
X139568600Y-114653535D01*
X139621570Y-114700348D01*
X139655836Y-114734347D01*
X139673817Y-114757523D01*
X139677930Y-114771866D01*
X139670591Y-114779366D01*
X139654218Y-114782013D01*
X139642850Y-114782131D01*
X139616183Y-114767036D01*
X139553964Y-114724234D01*
X139460803Y-114657124D01*
X139341311Y-114569106D01*
X139200096Y-114463578D01*
X139041769Y-114343942D01*
X138870941Y-114213595D01*
X138849100Y-114196841D01*
X138624126Y-114024113D01*
X138436276Y-113879619D01*
X138282344Y-113760701D01*
X138159125Y-113664704D01*
X138063413Y-113588972D01*
X137992002Y-113530847D01*
X137941688Y-113487673D01*
X137909263Y-113456795D01*
X137891523Y-113435555D01*
X137885263Y-113421298D01*
X137887275Y-113411367D01*
X137892931Y-113404508D01*
X137923521Y-113406375D01*
G36*
X142151256Y-113469949D02*
G01*
X142124448Y-113505121D01*
X142066668Y-113560696D01*
X141976069Y-113638278D01*
X141850807Y-113739471D01*
X141689035Y-113865879D01*
X141488908Y-114019107D01*
X141338993Y-114132632D01*
X141159861Y-114267642D01*
X140993553Y-114392623D01*
X140844383Y-114504361D01*
X140716666Y-114599641D01*
X140614714Y-114675247D01*
X140542844Y-114727965D01*
X140505368Y-114754579D01*
X140500931Y-114757200D01*
X140480006Y-114739293D01*
X140473332Y-114729586D01*
X140471446Y-114690441D01*
X140478183Y-114681056D01*
X140508574Y-114656123D01*
X140573257Y-114605873D01*
X140666923Y-114534276D01*
X140784261Y-114445299D01*
X140919961Y-114342913D01*
X141068715Y-114231085D01*
X141225211Y-114113785D01*
X141384140Y-113994980D01*
X141540193Y-113878640D01*
X141688059Y-113768734D01*
X141822429Y-113669230D01*
X141937994Y-113584098D01*
X142029442Y-113517304D01*
X142091465Y-113472820D01*
X142118752Y-113454613D01*
X142119336Y-113454396D01*
X142148936Y-113453575D01*
X142151256Y-113469949D01*
G37*
X142151256Y-113469949D02*
X142124448Y-113505121D01*
X142066668Y-113560696D01*
X141976069Y-113638278D01*
X141850807Y-113739471D01*
X141689035Y-113865879D01*
X141488908Y-114019107D01*
X141338993Y-114132632D01*
X141159861Y-114267642D01*
X140993553Y-114392623D01*
X140844383Y-114504361D01*
X140716666Y-114599641D01*
X140614714Y-114675247D01*
X140542844Y-114727965D01*
X140505368Y-114754579D01*
X140500931Y-114757200D01*
X140480006Y-114739293D01*
X140473332Y-114729586D01*
X140471446Y-114690441D01*
X140478183Y-114681056D01*
X140508574Y-114656123D01*
X140573257Y-114605873D01*
X140666923Y-114534276D01*
X140784261Y-114445299D01*
X140919961Y-114342913D01*
X141068715Y-114231085D01*
X141225211Y-114113785D01*
X141384140Y-113994980D01*
X141540193Y-113878640D01*
X141688059Y-113768734D01*
X141822429Y-113669230D01*
X141937994Y-113584098D01*
X142029442Y-113517304D01*
X142091465Y-113472820D01*
X142118752Y-113454613D01*
X142119336Y-113454396D01*
X142148936Y-113453575D01*
X142151256Y-113469949D01*
G36*
X137688858Y-114539840D02*
G01*
X137787436Y-114556648D01*
X137927453Y-114583460D01*
X137953892Y-114588653D01*
X138090235Y-114616111D01*
X138183484Y-114637143D01*
X138240543Y-114654317D01*
X138268316Y-114670200D01*
X138273706Y-114687360D01*
X138265944Y-114704710D01*
X138257135Y-114717420D01*
X138244031Y-114724922D01*
X138218752Y-114726353D01*
X138173418Y-114720851D01*
X138100150Y-114707555D01*
X137991068Y-114685601D01*
X137877550Y-114662222D01*
X137730713Y-114629606D01*
X137631803Y-114602023D01*
X137578282Y-114578667D01*
X137566400Y-114563323D01*
X137570490Y-114544777D01*
X137587512Y-114534370D01*
X137624593Y-114532569D01*
X137688858Y-114539840D01*
G37*
X137688858Y-114539840D02*
X137787436Y-114556648D01*
X137927453Y-114583460D01*
X137953892Y-114588653D01*
X138090235Y-114616111D01*
X138183484Y-114637143D01*
X138240543Y-114654317D01*
X138268316Y-114670200D01*
X138273706Y-114687360D01*
X138265944Y-114704710D01*
X138257135Y-114717420D01*
X138244031Y-114724922D01*
X138218752Y-114726353D01*
X138173418Y-114720851D01*
X138100150Y-114707555D01*
X137991068Y-114685601D01*
X137877550Y-114662222D01*
X137730713Y-114629606D01*
X137631803Y-114602023D01*
X137578282Y-114578667D01*
X137566400Y-114563323D01*
X137570490Y-114544777D01*
X137587512Y-114534370D01*
X137624593Y-114532569D01*
X137688858Y-114539840D01*
G36*
X142810230Y-114455533D02*
G01*
X142822279Y-114473903D01*
X142813151Y-114491679D01*
X142777652Y-114510738D01*
X142710583Y-114532952D01*
X142606749Y-114560197D01*
X142460954Y-114594347D01*
X142367000Y-114615419D01*
X142225167Y-114647121D01*
X142098691Y-114675740D01*
X141996774Y-114699166D01*
X141928618Y-114715291D01*
X141905587Y-114721204D01*
X141860674Y-114718284D01*
X141845894Y-114705743D01*
X141840628Y-114668632D01*
X141845741Y-114660260D01*
X141878459Y-114646200D01*
X141950489Y-114625316D01*
X142052355Y-114599620D01*
X142174578Y-114571124D01*
X142307682Y-114541839D01*
X142442189Y-114513778D01*
X142568621Y-114488951D01*
X142677500Y-114469371D01*
X142759350Y-114457049D01*
X142804693Y-114453998D01*
X142810230Y-114455533D01*
G37*
X142810230Y-114455533D02*
X142822279Y-114473903D01*
X142813151Y-114491679D01*
X142777652Y-114510738D01*
X142710583Y-114532952D01*
X142606749Y-114560197D01*
X142460954Y-114594347D01*
X142367000Y-114615419D01*
X142225167Y-114647121D01*
X142098691Y-114675740D01*
X141996774Y-114699166D01*
X141928618Y-114715291D01*
X141905587Y-114721204D01*
X141860674Y-114718284D01*
X141845894Y-114705743D01*
X141840628Y-114668632D01*
X141845741Y-114660260D01*
X141878459Y-114646200D01*
X141950489Y-114625316D01*
X142052355Y-114599620D01*
X142174578Y-114571124D01*
X142307682Y-114541839D01*
X142442189Y-114513778D01*
X142568621Y-114488951D01*
X142677500Y-114469371D01*
X142759350Y-114457049D01*
X142804693Y-114453998D01*
X142810230Y-114455533D01*
G36*
X141212886Y-112858808D02*
G01*
X141226964Y-112870404D01*
X141222668Y-112899165D01*
X141196638Y-112966169D01*
X141152054Y-113065389D01*
X141092092Y-113190795D01*
X141019932Y-113336357D01*
X140938751Y-113496048D01*
X140851726Y-113663838D01*
X140762036Y-113833698D01*
X140672859Y-113999599D01*
X140587373Y-114155513D01*
X140508755Y-114295409D01*
X140440183Y-114413260D01*
X140384836Y-114503036D01*
X140345891Y-114558708D01*
X140328650Y-114574645D01*
X140291262Y-114574968D01*
X140284200Y-114568347D01*
X140295613Y-114543901D01*
X140327743Y-114480618D01*
X140377422Y-114384500D01*
X140441482Y-114261545D01*
X140516756Y-114117753D01*
X140600077Y-113959123D01*
X140688279Y-113791656D01*
X140778192Y-113621350D01*
X140866651Y-113454207D01*
X140950488Y-113296224D01*
X141026536Y-113153402D01*
X141091627Y-113031741D01*
X141142594Y-112937239D01*
X141176271Y-112875898D01*
X141189272Y-112853893D01*
X141212886Y-112858808D01*
G37*
X141212886Y-112858808D02*
X141226964Y-112870404D01*
X141222668Y-112899165D01*
X141196638Y-112966169D01*
X141152054Y-113065389D01*
X141092092Y-113190795D01*
X141019932Y-113336357D01*
X140938751Y-113496048D01*
X140851726Y-113663838D01*
X140762036Y-113833698D01*
X140672859Y-113999599D01*
X140587373Y-114155513D01*
X140508755Y-114295409D01*
X140440183Y-114413260D01*
X140384836Y-114503036D01*
X140345891Y-114558708D01*
X140328650Y-114574645D01*
X140291262Y-114574968D01*
X140284200Y-114568347D01*
X140295613Y-114543901D01*
X140327743Y-114480618D01*
X140377422Y-114384500D01*
X140441482Y-114261545D01*
X140516756Y-114117753D01*
X140600077Y-113959123D01*
X140688279Y-113791656D01*
X140778192Y-113621350D01*
X140866651Y-113454207D01*
X140950488Y-113296224D01*
X141026536Y-113153402D01*
X141091627Y-113031741D01*
X141142594Y-112937239D01*
X141176271Y-112875898D01*
X141189272Y-112853893D01*
X141212886Y-112858808D01*
G36*
X137438484Y-114078751D02*
G01*
X137443051Y-114080555D01*
X137503312Y-114104279D01*
X137596149Y-114140294D01*
X137706656Y-114182832D01*
X137775950Y-114209358D01*
X137894363Y-114258006D01*
X137977376Y-114299439D01*
X138019459Y-114330739D01*
X138023600Y-114340071D01*
X138020560Y-114359550D01*
X138006951Y-114369090D01*
X137976035Y-114367086D01*
X137921076Y-114351934D01*
X137835336Y-114322029D01*
X137712079Y-114275768D01*
X137643602Y-114249579D01*
X137526050Y-114202885D01*
X137426927Y-114160445D01*
X137355316Y-114126377D01*
X137320302Y-114104801D01*
X137318411Y-114102135D01*
X137324010Y-114068244D01*
X137366575Y-114060009D01*
X137438484Y-114078751D01*
G37*
X137438484Y-114078751D02*
X137443051Y-114080555D01*
X137503312Y-114104279D01*
X137596149Y-114140294D01*
X137706656Y-114182832D01*
X137775950Y-114209358D01*
X137894363Y-114258006D01*
X137977376Y-114299439D01*
X138019459Y-114330739D01*
X138023600Y-114340071D01*
X138020560Y-114359550D01*
X138006951Y-114369090D01*
X137976035Y-114367086D01*
X137921076Y-114351934D01*
X137835336Y-114322029D01*
X137712079Y-114275768D01*
X137643602Y-114249579D01*
X137526050Y-114202885D01*
X137426927Y-114160445D01*
X137355316Y-114126377D01*
X137320302Y-114104801D01*
X137318411Y-114102135D01*
X137324010Y-114068244D01*
X137366575Y-114060009D01*
X137438484Y-114078751D01*
G36*
X142723808Y-114112260D02*
G01*
X142715014Y-114139390D01*
X142707920Y-114147039D01*
X142676157Y-114164532D01*
X142608388Y-114194367D01*
X142516507Y-114231965D01*
X142412407Y-114272747D01*
X142307981Y-114312136D01*
X142215122Y-114345552D01*
X142145725Y-114368417D01*
X142112656Y-114376200D01*
X142090127Y-114355754D01*
X142087600Y-114339924D01*
X142095243Y-114321602D01*
X142122126Y-114300744D01*
X142174177Y-114274696D01*
X142257326Y-114240807D01*
X142377502Y-114196425D01*
X142524243Y-114144611D01*
X142623318Y-114114803D01*
X142691541Y-114104041D01*
X142723808Y-114112260D01*
G37*
X142723808Y-114112260D02*
X142715014Y-114139390D01*
X142707920Y-114147039D01*
X142676157Y-114164532D01*
X142608388Y-114194367D01*
X142516507Y-114231965D01*
X142412407Y-114272747D01*
X142307981Y-114312136D01*
X142215122Y-114345552D01*
X142145725Y-114368417D01*
X142112656Y-114376200D01*
X142090127Y-114355754D01*
X142087600Y-114339924D01*
X142095243Y-114321602D01*
X142122126Y-114300744D01*
X142174177Y-114274696D01*
X142257326Y-114240807D01*
X142377502Y-114196425D01*
X142524243Y-114144611D01*
X142623318Y-114114803D01*
X142691541Y-114104041D01*
X142723808Y-114112260D01*
G36*
X137988835Y-113956057D02*
G01*
X138058136Y-113987371D01*
X138148616Y-114032850D01*
X138250345Y-114087005D01*
X138353398Y-114144347D01*
X138447846Y-114199384D01*
X138523762Y-114246629D01*
X138571219Y-114280590D01*
X138582193Y-114293650D01*
X138576792Y-114314400D01*
X138556230Y-114320718D01*
X138514498Y-114310549D01*
X138445588Y-114281839D01*
X138343492Y-114232535D01*
X138220450Y-114169978D01*
X138105942Y-114108466D01*
X138012887Y-114053400D01*
X137949089Y-114009735D01*
X137922348Y-113982426D01*
X137922000Y-113980428D01*
X137938186Y-113948006D01*
X137950638Y-113944400D01*
X137988835Y-113956057D01*
G37*
X137988835Y-113956057D02*
X138058136Y-113987371D01*
X138148616Y-114032850D01*
X138250345Y-114087005D01*
X138353398Y-114144347D01*
X138447846Y-114199384D01*
X138523762Y-114246629D01*
X138571219Y-114280590D01*
X138582193Y-114293650D01*
X138576792Y-114314400D01*
X138556230Y-114320718D01*
X138514498Y-114310549D01*
X138445588Y-114281839D01*
X138343492Y-114232535D01*
X138220450Y-114169978D01*
X138105942Y-114108466D01*
X138012887Y-114053400D01*
X137949089Y-114009735D01*
X137922348Y-113982426D01*
X137922000Y-113980428D01*
X137938186Y-113948006D01*
X137950638Y-113944400D01*
X137988835Y-113956057D01*
G36*
X142187581Y-113964603D02*
G01*
X142189200Y-113982304D01*
X142166796Y-114009431D01*
X142103191Y-114053378D01*
X142003793Y-114110759D01*
X141884790Y-114172804D01*
X141758107Y-114236259D01*
X141669537Y-114279887D01*
X141611693Y-114306454D01*
X141577188Y-114318726D01*
X141558636Y-114319471D01*
X141548650Y-114311455D01*
X141542189Y-114301115D01*
X141538928Y-114286996D01*
X141550150Y-114269718D01*
X141581750Y-114245463D01*
X141639627Y-114210412D01*
X141729675Y-114160745D01*
X141857792Y-114092644D01*
X141891375Y-114074965D01*
X142012084Y-114012318D01*
X142095192Y-113972095D01*
X142147566Y-113952160D01*
X142176073Y-113950374D01*
X142187581Y-113964603D01*
G37*
X142187581Y-113964603D02*
X142189200Y-113982304D01*
X142166796Y-114009431D01*
X142103191Y-114053378D01*
X142003793Y-114110759D01*
X141884790Y-114172804D01*
X141758107Y-114236259D01*
X141669537Y-114279887D01*
X141611693Y-114306454D01*
X141577188Y-114318726D01*
X141558636Y-114319471D01*
X141548650Y-114311455D01*
X141542189Y-114301115D01*
X141538928Y-114286996D01*
X141550150Y-114269718D01*
X141581750Y-114245463D01*
X141639627Y-114210412D01*
X141729675Y-114160745D01*
X141857792Y-114092644D01*
X141891375Y-114074965D01*
X142012084Y-114012318D01*
X142095192Y-113972095D01*
X142147566Y-113952160D01*
X142176073Y-113950374D01*
X142187581Y-113964603D01*
G36*
X140422021Y-113161424D02*
G01*
X140422047Y-113228190D01*
X140410074Y-113337370D01*
X140385938Y-113491147D01*
X140349477Y-113691703D01*
X140344028Y-113720258D01*
X140305492Y-113913866D01*
X140272842Y-114060332D01*
X140245031Y-114162842D01*
X140221012Y-114224577D01*
X140199736Y-114248721D01*
X140180156Y-114238459D01*
X140175739Y-114231490D01*
X140176327Y-114200217D01*
X140185906Y-114128338D01*
X140202719Y-114024895D01*
X140225007Y-113898933D01*
X140251013Y-113759495D01*
X140278981Y-113615624D01*
X140307151Y-113476364D01*
X140333768Y-113350759D01*
X140357072Y-113247851D01*
X140375308Y-113176685D01*
X140386615Y-113146402D01*
X140410156Y-113134889D01*
X140422021Y-113161424D01*
G37*
X140422021Y-113161424D02*
X140422047Y-113228190D01*
X140410074Y-113337370D01*
X140385938Y-113491147D01*
X140349477Y-113691703D01*
X140344028Y-113720258D01*
X140305492Y-113913866D01*
X140272842Y-114060332D01*
X140245031Y-114162842D01*
X140221012Y-114224577D01*
X140199736Y-114248721D01*
X140180156Y-114238459D01*
X140175739Y-114231490D01*
X140176327Y-114200217D01*
X140185906Y-114128338D01*
X140202719Y-114024895D01*
X140225007Y-113898933D01*
X140251013Y-113759495D01*
X140278981Y-113615624D01*
X140307151Y-113476364D01*
X140333768Y-113350759D01*
X140357072Y-113247851D01*
X140375308Y-113176685D01*
X140386615Y-113146402D01*
X140410156Y-113134889D01*
X140422021Y-113161424D01*
G36*
X138696426Y-113491491D02*
G01*
X138753936Y-113533658D01*
X138844058Y-113613893D01*
X138967022Y-113732392D01*
X139004709Y-113769801D01*
X139134271Y-113901184D01*
X139228023Y-114001504D01*
X139288087Y-114073485D01*
X139316591Y-114119851D01*
X139315659Y-114143324D01*
X139299568Y-114147600D01*
X139276162Y-114130463D01*
X139223288Y-114082928D01*
X139147103Y-114010810D01*
X139053767Y-113919922D01*
X138966159Y-113832866D01*
X138841048Y-113704597D01*
X138749034Y-113603963D01*
X138691648Y-113532760D01*
X138670421Y-113492783D01*
X138671300Y-113487199D01*
X138696426Y-113491491D01*
G37*
X138696426Y-113491491D02*
X138753936Y-113533658D01*
X138844058Y-113613893D01*
X138967022Y-113732392D01*
X139004709Y-113769801D01*
X139134271Y-113901184D01*
X139228023Y-114001504D01*
X139288087Y-114073485D01*
X139316591Y-114119851D01*
X139315659Y-114143324D01*
X139299568Y-114147600D01*
X139276162Y-114130463D01*
X139223288Y-114082928D01*
X139147103Y-114010810D01*
X139053767Y-113919922D01*
X138966159Y-113832866D01*
X138841048Y-113704597D01*
X138749034Y-113603963D01*
X138691648Y-113532760D01*
X138670421Y-113492783D01*
X138671300Y-113487199D01*
X138696426Y-113491491D01*
G36*
X139648111Y-112790802D02*
G01*
X139660594Y-112820120D01*
X139684437Y-112890364D01*
X139717289Y-112993549D01*
X139756797Y-113121687D01*
X139800607Y-113266791D01*
X139846368Y-113420874D01*
X139891727Y-113575950D01*
X139934331Y-113724031D01*
X139971828Y-113857131D01*
X140001866Y-113967262D01*
X140022091Y-114046438D01*
X140030151Y-114086671D01*
X140030200Y-114087992D01*
X140010277Y-114119133D01*
X139996280Y-114122200D01*
X139977200Y-114097538D01*
X139946482Y-114023757D01*
X139904229Y-113901159D01*
X139850546Y-113730050D01*
X139785538Y-113510733D01*
X139778265Y-113485630D01*
X139713715Y-113257664D01*
X139665418Y-113075956D01*
X139633045Y-112938748D01*
X139616266Y-112844282D01*
X139614752Y-112790798D01*
X139628174Y-112776539D01*
X139648111Y-112790802D01*
G37*
X139648111Y-112790802D02*
X139660594Y-112820120D01*
X139684437Y-112890364D01*
X139717289Y-112993549D01*
X139756797Y-113121687D01*
X139800607Y-113266791D01*
X139846368Y-113420874D01*
X139891727Y-113575950D01*
X139934331Y-113724031D01*
X139971828Y-113857131D01*
X140001866Y-113967262D01*
X140022091Y-114046438D01*
X140030151Y-114086671D01*
X140030200Y-114087992D01*
X140010277Y-114119133D01*
X139996280Y-114122200D01*
X139977200Y-114097538D01*
X139946482Y-114023757D01*
X139904229Y-113901159D01*
X139850546Y-113730050D01*
X139785538Y-113510733D01*
X139778265Y-113485630D01*
X139713715Y-113257664D01*
X139665418Y-113075956D01*
X139633045Y-112938748D01*
X139616266Y-112844282D01*
X139614752Y-112790798D01*
X139628174Y-112776539D01*
X139648111Y-112790802D01*
G36*
X141571577Y-113389329D02*
G01*
X141571060Y-113411324D01*
X141553822Y-113447485D01*
X141516301Y-113503481D01*
X141454936Y-113584982D01*
X141366163Y-113697659D01*
X141321959Y-113753006D01*
X141211630Y-113886986D01*
X141127797Y-113979798D01*
X141069025Y-114032711D01*
X141033881Y-114046989D01*
X141020931Y-114023900D01*
X141020800Y-114019009D01*
X141036076Y-113987917D01*
X141077513Y-113928513D01*
X141138519Y-113848672D01*
X141212503Y-113756273D01*
X141292875Y-113659193D01*
X141373043Y-113565310D01*
X141446416Y-113482500D01*
X141506403Y-113418642D01*
X141546414Y-113381612D01*
X141558938Y-113375828D01*
X141571577Y-113389329D01*
G37*
X141571577Y-113389329D02*
X141571060Y-113411324D01*
X141553822Y-113447485D01*
X141516301Y-113503481D01*
X141454936Y-113584982D01*
X141366163Y-113697659D01*
X141321959Y-113753006D01*
X141211630Y-113886986D01*
X141127797Y-113979798D01*
X141069025Y-114032711D01*
X141033881Y-114046989D01*
X141020931Y-114023900D01*
X141020800Y-114019009D01*
X141036076Y-113987917D01*
X141077513Y-113928513D01*
X141138519Y-113848672D01*
X141212503Y-113756273D01*
X141292875Y-113659193D01*
X141373043Y-113565310D01*
X141446416Y-113482500D01*
X141506403Y-113418642D01*
X141546414Y-113381612D01*
X141558938Y-113375828D01*
X141571577Y-113389329D01*
G36*
X141249906Y-103292853D02*
G01*
X141362858Y-103295816D01*
X141453569Y-103301569D01*
X141531558Y-103310971D01*
X141606344Y-103324882D01*
X141687447Y-103344160D01*
X141784387Y-103369665D01*
X141786003Y-103370097D01*
X142144043Y-103480502D01*
X142482259Y-103613645D01*
X142796067Y-103766581D01*
X143080883Y-103936367D01*
X143332122Y-104120059D01*
X143545200Y-104314713D01*
X143715532Y-104517387D01*
X143811240Y-104670566D01*
X143893978Y-104825800D01*
X144022029Y-104825799D01*
X144106968Y-104830816D01*
X144166203Y-104852367D01*
X144224374Y-104900205D01*
X144233967Y-104909687D01*
X144314995Y-105024722D01*
X144369648Y-105179091D01*
X144396426Y-105367832D01*
X144398999Y-105455221D01*
X144391298Y-105603689D01*
X144365491Y-105711784D01*
X144317521Y-105787952D01*
X144243334Y-105840638D01*
X144206182Y-105856734D01*
X144136481Y-105891293D01*
X144095494Y-105927490D01*
X144090323Y-105940500D01*
X144089679Y-105973441D01*
X144089327Y-106052079D01*
X144089256Y-106171312D01*
X144089457Y-106326039D01*
X144089920Y-106511158D01*
X144090633Y-106721567D01*
X144091588Y-106952164D01*
X144092774Y-107197847D01*
X144092855Y-107213400D01*
X144093884Y-107593521D01*
X144092481Y-107927824D01*
X144088228Y-108221252D01*
X144080704Y-108478745D01*
X144069489Y-108705246D01*
X144054165Y-108905697D01*
X144034311Y-109085040D01*
X144009508Y-109248217D01*
X143979336Y-109400170D01*
X143943375Y-109545841D01*
X143901207Y-109690172D01*
X143875889Y-109768743D01*
X143763184Y-110047981D01*
X143608914Y-110338444D01*
X143419046Y-110633438D01*
X143199549Y-110926266D01*
X142956390Y-111210233D01*
X142695538Y-111478643D01*
X142422960Y-111724800D01*
X142144626Y-111942009D01*
X141866503Y-112123574D01*
X141693900Y-112216733D01*
X141400304Y-112346294D01*
X141127913Y-112434034D01*
X140870761Y-112481059D01*
X140622883Y-112488472D01*
X140385749Y-112458877D01*
X140119457Y-112381054D01*
X139855121Y-112256352D01*
X139596301Y-112088666D01*
X139346561Y-111881890D01*
X139109461Y-111639921D01*
X138888565Y-111366654D01*
X138687434Y-111065984D01*
X138509630Y-110741806D01*
X138358715Y-110398016D01*
X138270248Y-110145452D01*
X138243909Y-110049048D01*
X138213207Y-109916664D01*
X138181183Y-109762578D01*
X138150879Y-109601066D01*
X138136934Y-109519636D01*
X138111106Y-109364674D01*
X138091049Y-109252404D01*
X138074427Y-109175372D01*
X138058906Y-109126122D01*
X138042151Y-109097197D01*
X138021826Y-109081141D01*
X137996357Y-109070763D01*
X137930395Y-109031879D01*
X137888616Y-108987026D01*
X137874622Y-108947798D01*
X137852944Y-108865320D01*
X137825079Y-108746305D01*
X137792525Y-108597466D01*
X137756777Y-108425516D01*
X137719334Y-108237169D01*
X137706129Y-108168737D01*
X137661364Y-107931277D01*
X137626700Y-107738535D01*
X137601413Y-107585595D01*
X137584780Y-107467541D01*
X137576076Y-107379458D01*
X137575816Y-107368504D01*
X137707453Y-107368504D01*
X137709076Y-107395242D01*
X137719054Y-107464409D01*
X137736022Y-107568576D01*
X137758614Y-107700312D01*
X137785463Y-107852185D01*
X137815205Y-108016764D01*
X137846472Y-108186620D01*
X137877899Y-108354321D01*
X137908121Y-108512435D01*
X137935770Y-108653533D01*
X137959481Y-108770183D01*
X137977889Y-108854955D01*
X137988270Y-108896150D01*
X137992042Y-108906974D01*
X137998724Y-108916176D01*
X138011839Y-108923728D01*
X138034912Y-108929602D01*
X138071468Y-108933769D01*
X138125032Y-108936201D01*
X138199127Y-108936870D01*
X138297279Y-108935748D01*
X138423013Y-108932806D01*
X138579851Y-108928018D01*
X138771320Y-108921354D01*
X139000944Y-108912787D01*
X139272247Y-108902287D01*
X139588755Y-108889828D01*
X139793142Y-108881744D01*
X140055243Y-108871067D01*
X140302034Y-108860422D01*
X140528863Y-108850049D01*
X140731077Y-108840191D01*
X140904022Y-108831087D01*
X141043048Y-108822979D01*
X141143500Y-108816107D01*
X141200725Y-108810714D01*
X141212458Y-108808216D01*
X141212154Y-108780840D01*
X141204979Y-108710466D01*
X141191983Y-108604278D01*
X141174221Y-108469457D01*
X141152744Y-108313183D01*
X141128604Y-108142640D01*
X141102853Y-107965008D01*
X141076545Y-107787469D01*
X141050731Y-107617204D01*
X141026463Y-107461396D01*
X141004794Y-107327226D01*
X140986777Y-107221875D01*
X140973462Y-107152526D01*
X140966034Y-107126444D01*
X140939073Y-107126350D01*
X140866662Y-107129858D01*
X140753996Y-107136584D01*
X140606270Y-107146140D01*
X140428675Y-107158142D01*
X140226408Y-107172204D01*
X140004662Y-107187939D01*
X139768631Y-107204962D01*
X139523508Y-107222886D01*
X139274488Y-107241327D01*
X139026766Y-107259899D01*
X138785534Y-107278215D01*
X138555987Y-107295889D01*
X138343319Y-107312537D01*
X138152723Y-107327771D01*
X137989395Y-107341207D01*
X137858528Y-107352458D01*
X137765315Y-107361139D01*
X137714952Y-107366863D01*
X137707453Y-107368504D01*
X137575816Y-107368504D01*
X137574578Y-107316429D01*
X137576710Y-107289542D01*
X137582608Y-107207133D01*
X137581521Y-107202501D01*
X137788870Y-107202501D01*
X137831502Y-107207680D01*
X137922000Y-107202263D01*
X137977763Y-107197613D01*
X138079036Y-107189820D01*
X138220649Y-107179257D01*
X138397434Y-107166299D01*
X138604222Y-107151322D01*
X138835844Y-107134701D01*
X139087132Y-107116809D01*
X139352916Y-107098023D01*
X139546823Y-107084401D01*
X139698373Y-107073700D01*
X141100162Y-107073700D01*
X141231931Y-107930939D01*
X141263481Y-108132799D01*
X141293388Y-108317737D01*
X141320645Y-108479993D01*
X141344241Y-108613810D01*
X141363167Y-108713428D01*
X141376414Y-108773092D01*
X141382187Y-108788189D01*
X141413163Y-108777783D01*
X141475041Y-108750724D01*
X141540965Y-108719395D01*
X141627134Y-108671034D01*
X141667200Y-108632354D01*
X141670112Y-108611445D01*
X141663760Y-108577817D01*
X141650771Y-108500046D01*
X141632109Y-108384218D01*
X141608738Y-108236418D01*
X141581621Y-108062732D01*
X141551722Y-107869244D01*
X141527123Y-107708700D01*
X141495640Y-107505061D01*
X141465880Y-107317446D01*
X141438837Y-107151757D01*
X141415507Y-107013901D01*
X141396885Y-106909782D01*
X141383965Y-106845305D01*
X141378420Y-106826252D01*
X141354005Y-106833763D01*
X141304993Y-106870919D01*
X141241273Y-106930060D01*
X141230863Y-106940552D01*
X141100162Y-107073700D01*
X139698373Y-107073700D01*
X139889890Y-107060177D01*
X140183940Y-107038993D01*
X140430656Y-107020691D01*
X140631721Y-107005118D01*
X140788819Y-106992116D01*
X140903632Y-106981531D01*
X140977843Y-106973206D01*
X141013135Y-106966987D01*
X141011191Y-106962717D01*
X140973694Y-106960240D01*
X140902326Y-106959401D01*
X140898033Y-106959400D01*
X140781850Y-106944185D01*
X140702812Y-106896501D01*
X140656639Y-106813284D01*
X140648531Y-106780806D01*
X140635055Y-106736230D01*
X140610210Y-106712980D01*
X140563910Y-106709455D01*
X140486067Y-106724059D01*
X140411200Y-106743201D01*
X140257467Y-106780483D01*
X140103979Y-106809332D01*
X139942447Y-106830369D01*
X139764584Y-106844211D01*
X139562101Y-106851479D01*
X139326710Y-106852790D01*
X139050125Y-106848764D01*
X139009696Y-106847857D01*
X138802545Y-106843174D01*
X138640482Y-106840043D01*
X138517813Y-106838729D01*
X138428842Y-106839497D01*
X138367873Y-106842610D01*
X138329212Y-106848333D01*
X138307164Y-106856930D01*
X138296032Y-106868666D01*
X138290931Y-106881211D01*
X138247626Y-106950261D01*
X138167621Y-107020923D01*
X138063799Y-107083756D01*
X137954677Y-107127645D01*
X137850681Y-107161975D01*
X137795337Y-107187097D01*
X137788870Y-107202501D01*
X137581521Y-107202501D01*
X137571068Y-107158000D01*
X137552441Y-107136155D01*
X137480022Y-107047542D01*
X137451223Y-106937065D01*
X137451808Y-106931719D01*
X137596317Y-106931719D01*
X137630414Y-107010625D01*
X137633836Y-107014549D01*
X137671428Y-107046334D01*
X137717062Y-107058281D01*
X137783618Y-107050798D01*
X137883976Y-107024290D01*
X137889596Y-107022626D01*
X138025887Y-106965139D01*
X138119931Y-106887425D01*
X138169071Y-106792155D01*
X138176000Y-106734962D01*
X138169717Y-106650432D01*
X138154288Y-106576184D01*
X138151228Y-106567353D01*
X138129657Y-106527309D01*
X138094277Y-106508080D01*
X138028778Y-106502396D01*
X138005178Y-106502239D01*
X137860109Y-106521664D01*
X137746422Y-106580549D01*
X137662225Y-106679968D01*
X137648950Y-106704431D01*
X137602581Y-106827903D01*
X137596317Y-106931719D01*
X137451808Y-106931719D01*
X137465907Y-106803047D01*
X137514066Y-106665724D01*
X137532213Y-106621178D01*
X137542969Y-106579868D01*
X137546242Y-106531099D01*
X137541942Y-106464173D01*
X137529978Y-106368393D01*
X137510386Y-106233924D01*
X137477440Y-105938230D01*
X137471497Y-105766701D01*
X137594592Y-105766701D01*
X137616547Y-106023634D01*
X137632323Y-106139481D01*
X137649298Y-106250911D01*
X137664068Y-106341842D01*
X137674860Y-106401723D01*
X137679508Y-106420268D01*
X137705492Y-106418006D01*
X137766384Y-106405120D01*
X137835835Y-106387798D01*
X137993537Y-106361611D01*
X138119158Y-106374727D01*
X138212928Y-106427247D01*
X138275077Y-106519272D01*
X138296964Y-106591941D01*
X138317823Y-106692700D01*
X138900961Y-106715534D01*
X139206390Y-106724143D01*
X139471919Y-106723801D01*
X139707761Y-106713882D01*
X139924129Y-106693760D01*
X140131238Y-106662807D01*
X140246900Y-106639813D01*
X140769217Y-106639813D01*
X140771021Y-106729429D01*
X140790618Y-106793905D01*
X140798550Y-106804195D01*
X140849137Y-106824652D01*
X140930498Y-106825134D01*
X141027714Y-106807867D01*
X141125864Y-106775072D01*
X141182183Y-106747021D01*
X141284419Y-106679882D01*
X141344918Y-106619197D01*
X141370273Y-106555770D01*
X141368277Y-106487388D01*
X141345971Y-106405083D01*
X141312681Y-106333233D01*
X141311389Y-106331230D01*
X141282566Y-106294469D01*
X141248346Y-106277959D01*
X141191979Y-106277182D01*
X141133383Y-106283226D01*
X141004718Y-106305751D01*
X140914669Y-106341842D01*
X140851574Y-106397817D01*
X140815562Y-106455393D01*
X140784349Y-106542616D01*
X140769217Y-106639813D01*
X140246900Y-106639813D01*
X140296900Y-106629873D01*
X140432007Y-106599927D01*
X140525602Y-106577362D01*
X140585858Y-106558980D01*
X140620948Y-106541584D01*
X140639047Y-106521978D01*
X140648327Y-106496965D01*
X140649625Y-106491909D01*
X140672724Y-106438182D01*
X140715053Y-106366566D01*
X140738591Y-106332307D01*
X140838949Y-106236395D01*
X140974865Y-106174321D01*
X141142714Y-106147590D01*
X141185672Y-106146600D01*
X141272132Y-106151589D01*
X141330096Y-106171711D01*
X141381324Y-106214693D01*
X141383361Y-106216809D01*
X141450837Y-106312440D01*
X141497446Y-106427684D01*
X141515638Y-106541148D01*
X141512880Y-106583837D01*
X141513840Y-106626987D01*
X141522147Y-106714311D01*
X141537014Y-106839838D01*
X141557653Y-106997597D01*
X141583276Y-107181619D01*
X141613097Y-107385931D01*
X141646327Y-107604563D01*
X141654029Y-107654063D01*
X141688112Y-107873436D01*
X141719583Y-108078353D01*
X141747589Y-108263095D01*
X141771282Y-108421943D01*
X141789808Y-108549179D01*
X141802319Y-108639082D01*
X141807962Y-108685935D01*
X141808200Y-108690208D01*
X141795890Y-108719959D01*
X141754661Y-108754637D01*
X141678064Y-108798628D01*
X141573250Y-108849950D01*
X141338300Y-108960312D01*
X139776200Y-109016781D01*
X139499507Y-109026890D01*
X139238217Y-109036645D01*
X138996690Y-109045868D01*
X138779287Y-109054384D01*
X138590370Y-109062016D01*
X138434300Y-109068587D01*
X138315437Y-109073920D01*
X138238143Y-109077840D01*
X138206778Y-109080170D01*
X138206320Y-109080321D01*
X138204160Y-109110721D01*
X138212188Y-109182047D01*
X138228670Y-109285846D01*
X138251873Y-109413662D01*
X138280063Y-109557039D01*
X138311508Y-109707524D01*
X138344473Y-109856662D01*
X138377225Y-109995997D01*
X138408031Y-110117075D01*
X138435157Y-110211441D01*
X138443256Y-110236000D01*
X138576086Y-110567119D01*
X138739350Y-110886571D01*
X138928316Y-111188415D01*
X139138255Y-111466712D01*
X139364438Y-111715522D01*
X139602134Y-111928903D01*
X139846613Y-112100917D01*
X139991381Y-112180235D01*
X140101133Y-112229494D01*
X140216056Y-112274194D01*
X140309600Y-112304167D01*
X140466982Y-112331566D01*
X140653275Y-112342179D01*
X140849534Y-112336262D01*
X141036814Y-112314071D01*
X141137386Y-112292952D01*
X141322979Y-112233149D01*
X141530888Y-112144959D01*
X141746949Y-112035343D01*
X141956994Y-111911261D01*
X142074900Y-111832299D01*
X142207738Y-111729829D01*
X142362852Y-111595759D01*
X142531561Y-111438770D01*
X142705183Y-111267542D01*
X142875037Y-111090753D01*
X143032443Y-110917083D01*
X143168719Y-110755212D01*
X143226908Y-110680500D01*
X143387951Y-110446569D01*
X143535026Y-110194147D01*
X143661035Y-109937198D01*
X143758879Y-109689687D01*
X143801464Y-109550200D01*
X143832571Y-109430088D01*
X143859171Y-109318763D01*
X143881598Y-109211175D01*
X143900189Y-109102272D01*
X143915278Y-108987002D01*
X143927199Y-108860315D01*
X143936287Y-108717158D01*
X143942878Y-108552480D01*
X143947305Y-108361231D01*
X143949905Y-108138358D01*
X143951011Y-107878810D01*
X143950959Y-107577536D01*
X143950313Y-107304637D01*
X143946126Y-105884575D01*
X143867059Y-105822695D01*
X143773546Y-105724067D01*
X143710430Y-105595614D01*
X143675176Y-105431264D01*
X143667798Y-105345286D01*
X143667014Y-105319887D01*
X143792142Y-105319887D01*
X143809721Y-105460491D01*
X143849246Y-105584295D01*
X143907264Y-105679669D01*
X143964189Y-105727421D01*
X144017479Y-105754899D01*
X144052274Y-105762554D01*
X144094896Y-105754480D01*
X144110825Y-105750224D01*
X144165551Y-105735543D01*
X144099815Y-105608840D01*
X144062992Y-105512480D01*
X144035970Y-105392673D01*
X144020196Y-105264855D01*
X144018433Y-105195839D01*
X144094588Y-105195839D01*
X144101888Y-105292942D01*
X144121461Y-105403354D01*
X144149054Y-105509859D01*
X144180412Y-105595243D01*
X144202833Y-105633854D01*
X144233010Y-105651270D01*
X144254545Y-105622897D01*
X144266370Y-105553179D01*
X144267418Y-105446560D01*
X144263581Y-105380994D01*
X144244234Y-105238532D01*
X144211578Y-105115741D01*
X144169473Y-105025776D01*
X144153088Y-105004335D01*
X144132561Y-105005576D01*
X144113640Y-105046148D01*
X144099818Y-105114617D01*
X144094588Y-105195839D01*
X144018433Y-105195839D01*
X144017120Y-105144468D01*
X144028188Y-105046949D01*
X144043094Y-105004170D01*
X144060136Y-104967390D01*
X144050583Y-104954232D01*
X144004613Y-104958764D01*
X143976225Y-104963769D01*
X143893733Y-104988778D01*
X143841912Y-105035087D01*
X143811143Y-105114172D01*
X143799961Y-105174110D01*
X143792142Y-105319887D01*
X143667014Y-105319887D01*
X143664246Y-105230219D01*
X143670486Y-105145340D01*
X143689302Y-105070522D01*
X143714835Y-105005427D01*
X143773102Y-104869982D01*
X143715207Y-104760849D01*
X143670211Y-104687449D01*
X143604847Y-104594375D01*
X143532219Y-104500161D01*
X143522359Y-104488106D01*
X143350810Y-104310568D01*
X143136228Y-104138080D01*
X142886367Y-103974564D01*
X142608979Y-103823940D01*
X142311821Y-103690129D01*
X142002644Y-103577049D01*
X141689204Y-103488623D01*
X141448515Y-103439581D01*
X141320289Y-103420903D01*
X141196864Y-103409841D01*
X141062753Y-103405738D01*
X140902473Y-103407939D01*
X140792859Y-103411787D01*
X140563451Y-103424623D01*
X140315733Y-103444798D01*
X140058473Y-103471101D01*
X139800438Y-103502315D01*
X139550395Y-103537228D01*
X139317110Y-103574627D01*
X139109351Y-103613296D01*
X138935885Y-103652022D01*
X138818862Y-103685087D01*
X138588654Y-103787243D01*
X138375525Y-103936088D01*
X138180985Y-104129957D01*
X138006548Y-104367185D01*
X137853723Y-104646104D01*
X137769442Y-104841915D01*
X137683239Y-105086909D01*
X137626393Y-105312958D01*
X137597359Y-105534682D01*
X137594592Y-105766701D01*
X137471497Y-105766701D01*
X137467678Y-105656501D01*
X137480795Y-105397440D01*
X137516490Y-105169747D01*
X137551834Y-105042161D01*
X137682123Y-104700287D01*
X137826205Y-104405270D01*
X137986123Y-104154542D01*
X138163915Y-103945539D01*
X138361622Y-103775696D01*
X138581283Y-103642446D01*
X138711084Y-103584270D01*
X138838974Y-103541799D01*
X139007294Y-103499219D01*
X139205741Y-103459012D01*
X139293600Y-103443762D01*
X139566243Y-103399716D01*
X139799843Y-103364835D01*
X140005129Y-103338116D01*
X140192830Y-103318556D01*
X140373676Y-103305153D01*
X140558395Y-103296904D01*
X140757716Y-103292806D01*
X140919200Y-103291859D01*
X141105193Y-103291820D01*
X141249906Y-103292853D01*
G37*
X141249906Y-103292853D02*
X141362858Y-103295816D01*
X141453569Y-103301569D01*
X141531558Y-103310971D01*
X141606344Y-103324882D01*
X141687447Y-103344160D01*
X141784387Y-103369665D01*
X141786003Y-103370097D01*
X142144043Y-103480502D01*
X142482259Y-103613645D01*
X142796067Y-103766581D01*
X143080883Y-103936367D01*
X143332122Y-104120059D01*
X143545200Y-104314713D01*
X143715532Y-104517387D01*
X143811240Y-104670566D01*
X143893978Y-104825800D01*
X144022029Y-104825799D01*
X144106968Y-104830816D01*
X144166203Y-104852367D01*
X144224374Y-104900205D01*
X144233967Y-104909687D01*
X144314995Y-105024722D01*
X144369648Y-105179091D01*
X144396426Y-105367832D01*
X144398999Y-105455221D01*
X144391298Y-105603689D01*
X144365491Y-105711784D01*
X144317521Y-105787952D01*
X144243334Y-105840638D01*
X144206182Y-105856734D01*
X144136481Y-105891293D01*
X144095494Y-105927490D01*
X144090323Y-105940500D01*
X144089679Y-105973441D01*
X144089327Y-106052079D01*
X144089256Y-106171312D01*
X144089457Y-106326039D01*
X144089920Y-106511158D01*
X144090633Y-106721567D01*
X144091588Y-106952164D01*
X144092774Y-107197847D01*
X144092855Y-107213400D01*
X144093884Y-107593521D01*
X144092481Y-107927824D01*
X144088228Y-108221252D01*
X144080704Y-108478745D01*
X144069489Y-108705246D01*
X144054165Y-108905697D01*
X144034311Y-109085040D01*
X144009508Y-109248217D01*
X143979336Y-109400170D01*
X143943375Y-109545841D01*
X143901207Y-109690172D01*
X143875889Y-109768743D01*
X143763184Y-110047981D01*
X143608914Y-110338444D01*
X143419046Y-110633438D01*
X143199549Y-110926266D01*
X142956390Y-111210233D01*
X142695538Y-111478643D01*
X142422960Y-111724800D01*
X142144626Y-111942009D01*
X141866503Y-112123574D01*
X141693900Y-112216733D01*
X141400304Y-112346294D01*
X141127913Y-112434034D01*
X140870761Y-112481059D01*
X140622883Y-112488472D01*
X140385749Y-112458877D01*
X140119457Y-112381054D01*
X139855121Y-112256352D01*
X139596301Y-112088666D01*
X139346561Y-111881890D01*
X139109461Y-111639921D01*
X138888565Y-111366654D01*
X138687434Y-111065984D01*
X138509630Y-110741806D01*
X138358715Y-110398016D01*
X138270248Y-110145452D01*
X138243909Y-110049048D01*
X138213207Y-109916664D01*
X138181183Y-109762578D01*
X138150879Y-109601066D01*
X138136934Y-109519636D01*
X138111106Y-109364674D01*
X138091049Y-109252404D01*
X138074427Y-109175372D01*
X138058906Y-109126122D01*
X138042151Y-109097197D01*
X138021826Y-109081141D01*
X137996357Y-109070763D01*
X137930395Y-109031879D01*
X137888616Y-108987026D01*
X137874622Y-108947798D01*
X137852944Y-108865320D01*
X137825079Y-108746305D01*
X137792525Y-108597466D01*
X137756777Y-108425516D01*
X137719334Y-108237169D01*
X137706129Y-108168737D01*
X137661364Y-107931277D01*
X137626700Y-107738535D01*
X137601413Y-107585595D01*
X137584780Y-107467541D01*
X137576076Y-107379458D01*
X137575816Y-107368504D01*
X137707453Y-107368504D01*
X137709076Y-107395242D01*
X137719054Y-107464409D01*
X137736022Y-107568576D01*
X137758614Y-107700312D01*
X137785463Y-107852185D01*
X137815205Y-108016764D01*
X137846472Y-108186620D01*
X137877899Y-108354321D01*
X137908121Y-108512435D01*
X137935770Y-108653533D01*
X137959481Y-108770183D01*
X137977889Y-108854955D01*
X137988270Y-108896150D01*
X137992042Y-108906974D01*
X137998724Y-108916176D01*
X138011839Y-108923728D01*
X138034912Y-108929602D01*
X138071468Y-108933769D01*
X138125032Y-108936201D01*
X138199127Y-108936870D01*
X138297279Y-108935748D01*
X138423013Y-108932806D01*
X138579851Y-108928018D01*
X138771320Y-108921354D01*
X139000944Y-108912787D01*
X139272247Y-108902287D01*
X139588755Y-108889828D01*
X139793142Y-108881744D01*
X140055243Y-108871067D01*
X140302034Y-108860422D01*
X140528863Y-108850049D01*
X140731077Y-108840191D01*
X140904022Y-108831087D01*
X141043048Y-108822979D01*
X141143500Y-108816107D01*
X141200725Y-108810714D01*
X141212458Y-108808216D01*
X141212154Y-108780840D01*
X141204979Y-108710466D01*
X141191983Y-108604278D01*
X141174221Y-108469457D01*
X141152744Y-108313183D01*
X141128604Y-108142640D01*
X141102853Y-107965008D01*
X141076545Y-107787469D01*
X141050731Y-107617204D01*
X141026463Y-107461396D01*
X141004794Y-107327226D01*
X140986777Y-107221875D01*
X140973462Y-107152526D01*
X140966034Y-107126444D01*
X140939073Y-107126350D01*
X140866662Y-107129858D01*
X140753996Y-107136584D01*
X140606270Y-107146140D01*
X140428675Y-107158142D01*
X140226408Y-107172204D01*
X140004662Y-107187939D01*
X139768631Y-107204962D01*
X139523508Y-107222886D01*
X139274488Y-107241327D01*
X139026766Y-107259899D01*
X138785534Y-107278215D01*
X138555987Y-107295889D01*
X138343319Y-107312537D01*
X138152723Y-107327771D01*
X137989395Y-107341207D01*
X137858528Y-107352458D01*
X137765315Y-107361139D01*
X137714952Y-107366863D01*
X137707453Y-107368504D01*
X137575816Y-107368504D01*
X137574578Y-107316429D01*
X137576710Y-107289542D01*
X137582608Y-107207133D01*
X137581521Y-107202501D01*
X137788870Y-107202501D01*
X137831502Y-107207680D01*
X137922000Y-107202263D01*
X137977763Y-107197613D01*
X138079036Y-107189820D01*
X138220649Y-107179257D01*
X138397434Y-107166299D01*
X138604222Y-107151322D01*
X138835844Y-107134701D01*
X139087132Y-107116809D01*
X139352916Y-107098023D01*
X139546823Y-107084401D01*
X139698373Y-107073700D01*
X141100162Y-107073700D01*
X141231931Y-107930939D01*
X141263481Y-108132799D01*
X141293388Y-108317737D01*
X141320645Y-108479993D01*
X141344241Y-108613810D01*
X141363167Y-108713428D01*
X141376414Y-108773092D01*
X141382187Y-108788189D01*
X141413163Y-108777783D01*
X141475041Y-108750724D01*
X141540965Y-108719395D01*
X141627134Y-108671034D01*
X141667200Y-108632354D01*
X141670112Y-108611445D01*
X141663760Y-108577817D01*
X141650771Y-108500046D01*
X141632109Y-108384218D01*
X141608738Y-108236418D01*
X141581621Y-108062732D01*
X141551722Y-107869244D01*
X141527123Y-107708700D01*
X141495640Y-107505061D01*
X141465880Y-107317446D01*
X141438837Y-107151757D01*
X141415507Y-107013901D01*
X141396885Y-106909782D01*
X141383965Y-106845305D01*
X141378420Y-106826252D01*
X141354005Y-106833763D01*
X141304993Y-106870919D01*
X141241273Y-106930060D01*
X141230863Y-106940552D01*
X141100162Y-107073700D01*
X139698373Y-107073700D01*
X139889890Y-107060177D01*
X140183940Y-107038993D01*
X140430656Y-107020691D01*
X140631721Y-107005118D01*
X140788819Y-106992116D01*
X140903632Y-106981531D01*
X140977843Y-106973206D01*
X141013135Y-106966987D01*
X141011191Y-106962717D01*
X140973694Y-106960240D01*
X140902326Y-106959401D01*
X140898033Y-106959400D01*
X140781850Y-106944185D01*
X140702812Y-106896501D01*
X140656639Y-106813284D01*
X140648531Y-106780806D01*
X140635055Y-106736230D01*
X140610210Y-106712980D01*
X140563910Y-106709455D01*
X140486067Y-106724059D01*
X140411200Y-106743201D01*
X140257467Y-106780483D01*
X140103979Y-106809332D01*
X139942447Y-106830369D01*
X139764584Y-106844211D01*
X139562101Y-106851479D01*
X139326710Y-106852790D01*
X139050125Y-106848764D01*
X139009696Y-106847857D01*
X138802545Y-106843174D01*
X138640482Y-106840043D01*
X138517813Y-106838729D01*
X138428842Y-106839497D01*
X138367873Y-106842610D01*
X138329212Y-106848333D01*
X138307164Y-106856930D01*
X138296032Y-106868666D01*
X138290931Y-106881211D01*
X138247626Y-106950261D01*
X138167621Y-107020923D01*
X138063799Y-107083756D01*
X137954677Y-107127645D01*
X137850681Y-107161975D01*
X137795337Y-107187097D01*
X137788870Y-107202501D01*
X137581521Y-107202501D01*
X137571068Y-107158000D01*
X137552441Y-107136155D01*
X137480022Y-107047542D01*
X137451223Y-106937065D01*
X137451808Y-106931719D01*
X137596317Y-106931719D01*
X137630414Y-107010625D01*
X137633836Y-107014549D01*
X137671428Y-107046334D01*
X137717062Y-107058281D01*
X137783618Y-107050798D01*
X137883976Y-107024290D01*
X137889596Y-107022626D01*
X138025887Y-106965139D01*
X138119931Y-106887425D01*
X138169071Y-106792155D01*
X138176000Y-106734962D01*
X138169717Y-106650432D01*
X138154288Y-106576184D01*
X138151228Y-106567353D01*
X138129657Y-106527309D01*
X138094277Y-106508080D01*
X138028778Y-106502396D01*
X138005178Y-106502239D01*
X137860109Y-106521664D01*
X137746422Y-106580549D01*
X137662225Y-106679968D01*
X137648950Y-106704431D01*
X137602581Y-106827903D01*
X137596317Y-106931719D01*
X137451808Y-106931719D01*
X137465907Y-106803047D01*
X137514066Y-106665724D01*
X137532213Y-106621178D01*
X137542969Y-106579868D01*
X137546242Y-106531099D01*
X137541942Y-106464173D01*
X137529978Y-106368393D01*
X137510386Y-106233924D01*
X137477440Y-105938230D01*
X137471497Y-105766701D01*
X137594592Y-105766701D01*
X137616547Y-106023634D01*
X137632323Y-106139481D01*
X137649298Y-106250911D01*
X137664068Y-106341842D01*
X137674860Y-106401723D01*
X137679508Y-106420268D01*
X137705492Y-106418006D01*
X137766384Y-106405120D01*
X137835835Y-106387798D01*
X137993537Y-106361611D01*
X138119158Y-106374727D01*
X138212928Y-106427247D01*
X138275077Y-106519272D01*
X138296964Y-106591941D01*
X138317823Y-106692700D01*
X138900961Y-106715534D01*
X139206390Y-106724143D01*
X139471919Y-106723801D01*
X139707761Y-106713882D01*
X139924129Y-106693760D01*
X140131238Y-106662807D01*
X140246900Y-106639813D01*
X140769217Y-106639813D01*
X140771021Y-106729429D01*
X140790618Y-106793905D01*
X140798550Y-106804195D01*
X140849137Y-106824652D01*
X140930498Y-106825134D01*
X141027714Y-106807867D01*
X141125864Y-106775072D01*
X141182183Y-106747021D01*
X141284419Y-106679882D01*
X141344918Y-106619197D01*
X141370273Y-106555770D01*
X141368277Y-106487388D01*
X141345971Y-106405083D01*
X141312681Y-106333233D01*
X141311389Y-106331230D01*
X141282566Y-106294469D01*
X141248346Y-106277959D01*
X141191979Y-106277182D01*
X141133383Y-106283226D01*
X141004718Y-106305751D01*
X140914669Y-106341842D01*
X140851574Y-106397817D01*
X140815562Y-106455393D01*
X140784349Y-106542616D01*
X140769217Y-106639813D01*
X140246900Y-106639813D01*
X140296900Y-106629873D01*
X140432007Y-106599927D01*
X140525602Y-106577362D01*
X140585858Y-106558980D01*
X140620948Y-106541584D01*
X140639047Y-106521978D01*
X140648327Y-106496965D01*
X140649625Y-106491909D01*
X140672724Y-106438182D01*
X140715053Y-106366566D01*
X140738591Y-106332307D01*
X140838949Y-106236395D01*
X140974865Y-106174321D01*
X141142714Y-106147590D01*
X141185672Y-106146600D01*
X141272132Y-106151589D01*
X141330096Y-106171711D01*
X141381324Y-106214693D01*
X141383361Y-106216809D01*
X141450837Y-106312440D01*
X141497446Y-106427684D01*
X141515638Y-106541148D01*
X141512880Y-106583837D01*
X141513840Y-106626987D01*
X141522147Y-106714311D01*
X141537014Y-106839838D01*
X141557653Y-106997597D01*
X141583276Y-107181619D01*
X141613097Y-107385931D01*
X141646327Y-107604563D01*
X141654029Y-107654063D01*
X141688112Y-107873436D01*
X141719583Y-108078353D01*
X141747589Y-108263095D01*
X141771282Y-108421943D01*
X141789808Y-108549179D01*
X141802319Y-108639082D01*
X141807962Y-108685935D01*
X141808200Y-108690208D01*
X141795890Y-108719959D01*
X141754661Y-108754637D01*
X141678064Y-108798628D01*
X141573250Y-108849950D01*
X141338300Y-108960312D01*
X139776200Y-109016781D01*
X139499507Y-109026890D01*
X139238217Y-109036645D01*
X138996690Y-109045868D01*
X138779287Y-109054384D01*
X138590370Y-109062016D01*
X138434300Y-109068587D01*
X138315437Y-109073920D01*
X138238143Y-109077840D01*
X138206778Y-109080170D01*
X138206320Y-109080321D01*
X138204160Y-109110721D01*
X138212188Y-109182047D01*
X138228670Y-109285846D01*
X138251873Y-109413662D01*
X138280063Y-109557039D01*
X138311508Y-109707524D01*
X138344473Y-109856662D01*
X138377225Y-109995997D01*
X138408031Y-110117075D01*
X138435157Y-110211441D01*
X138443256Y-110236000D01*
X138576086Y-110567119D01*
X138739350Y-110886571D01*
X138928316Y-111188415D01*
X139138255Y-111466712D01*
X139364438Y-111715522D01*
X139602134Y-111928903D01*
X139846613Y-112100917D01*
X139991381Y-112180235D01*
X140101133Y-112229494D01*
X140216056Y-112274194D01*
X140309600Y-112304167D01*
X140466982Y-112331566D01*
X140653275Y-112342179D01*
X140849534Y-112336262D01*
X141036814Y-112314071D01*
X141137386Y-112292952D01*
X141322979Y-112233149D01*
X141530888Y-112144959D01*
X141746949Y-112035343D01*
X141956994Y-111911261D01*
X142074900Y-111832299D01*
X142207738Y-111729829D01*
X142362852Y-111595759D01*
X142531561Y-111438770D01*
X142705183Y-111267542D01*
X142875037Y-111090753D01*
X143032443Y-110917083D01*
X143168719Y-110755212D01*
X143226908Y-110680500D01*
X143387951Y-110446569D01*
X143535026Y-110194147D01*
X143661035Y-109937198D01*
X143758879Y-109689687D01*
X143801464Y-109550200D01*
X143832571Y-109430088D01*
X143859171Y-109318763D01*
X143881598Y-109211175D01*
X143900189Y-109102272D01*
X143915278Y-108987002D01*
X143927199Y-108860315D01*
X143936287Y-108717158D01*
X143942878Y-108552480D01*
X143947305Y-108361231D01*
X143949905Y-108138358D01*
X143951011Y-107878810D01*
X143950959Y-107577536D01*
X143950313Y-107304637D01*
X143946126Y-105884575D01*
X143867059Y-105822695D01*
X143773546Y-105724067D01*
X143710430Y-105595614D01*
X143675176Y-105431264D01*
X143667798Y-105345286D01*
X143667014Y-105319887D01*
X143792142Y-105319887D01*
X143809721Y-105460491D01*
X143849246Y-105584295D01*
X143907264Y-105679669D01*
X143964189Y-105727421D01*
X144017479Y-105754899D01*
X144052274Y-105762554D01*
X144094896Y-105754480D01*
X144110825Y-105750224D01*
X144165551Y-105735543D01*
X144099815Y-105608840D01*
X144062992Y-105512480D01*
X144035970Y-105392673D01*
X144020196Y-105264855D01*
X144018433Y-105195839D01*
X144094588Y-105195839D01*
X144101888Y-105292942D01*
X144121461Y-105403354D01*
X144149054Y-105509859D01*
X144180412Y-105595243D01*
X144202833Y-105633854D01*
X144233010Y-105651270D01*
X144254545Y-105622897D01*
X144266370Y-105553179D01*
X144267418Y-105446560D01*
X144263581Y-105380994D01*
X144244234Y-105238532D01*
X144211578Y-105115741D01*
X144169473Y-105025776D01*
X144153088Y-105004335D01*
X144132561Y-105005576D01*
X144113640Y-105046148D01*
X144099818Y-105114617D01*
X144094588Y-105195839D01*
X144018433Y-105195839D01*
X144017120Y-105144468D01*
X144028188Y-105046949D01*
X144043094Y-105004170D01*
X144060136Y-104967390D01*
X144050583Y-104954232D01*
X144004613Y-104958764D01*
X143976225Y-104963769D01*
X143893733Y-104988778D01*
X143841912Y-105035087D01*
X143811143Y-105114172D01*
X143799961Y-105174110D01*
X143792142Y-105319887D01*
X143667014Y-105319887D01*
X143664246Y-105230219D01*
X143670486Y-105145340D01*
X143689302Y-105070522D01*
X143714835Y-105005427D01*
X143773102Y-104869982D01*
X143715207Y-104760849D01*
X143670211Y-104687449D01*
X143604847Y-104594375D01*
X143532219Y-104500161D01*
X143522359Y-104488106D01*
X143350810Y-104310568D01*
X143136228Y-104138080D01*
X142886367Y-103974564D01*
X142608979Y-103823940D01*
X142311821Y-103690129D01*
X142002644Y-103577049D01*
X141689204Y-103488623D01*
X141448515Y-103439581D01*
X141320289Y-103420903D01*
X141196864Y-103409841D01*
X141062753Y-103405738D01*
X140902473Y-103407939D01*
X140792859Y-103411787D01*
X140563451Y-103424623D01*
X140315733Y-103444798D01*
X140058473Y-103471101D01*
X139800438Y-103502315D01*
X139550395Y-103537228D01*
X139317110Y-103574627D01*
X139109351Y-103613296D01*
X138935885Y-103652022D01*
X138818862Y-103685087D01*
X138588654Y-103787243D01*
X138375525Y-103936088D01*
X138180985Y-104129957D01*
X138006548Y-104367185D01*
X137853723Y-104646104D01*
X137769442Y-104841915D01*
X137683239Y-105086909D01*
X137626393Y-105312958D01*
X137597359Y-105534682D01*
X137594592Y-105766701D01*
X137471497Y-105766701D01*
X137467678Y-105656501D01*
X137480795Y-105397440D01*
X137516490Y-105169747D01*
X137551834Y-105042161D01*
X137682123Y-104700287D01*
X137826205Y-104405270D01*
X137986123Y-104154542D01*
X138163915Y-103945539D01*
X138361622Y-103775696D01*
X138581283Y-103642446D01*
X138711084Y-103584270D01*
X138838974Y-103541799D01*
X139007294Y-103499219D01*
X139205741Y-103459012D01*
X139293600Y-103443762D01*
X139566243Y-103399716D01*
X139799843Y-103364835D01*
X140005129Y-103338116D01*
X140192830Y-103318556D01*
X140373676Y-103305153D01*
X140558395Y-103296904D01*
X140757716Y-103292806D01*
X140919200Y-103291859D01*
X141105193Y-103291820D01*
X141249906Y-103292853D01*
G36*
X135746301Y-112571341D02*
G01*
X135761666Y-112602629D01*
X135758065Y-112611600D01*
X135731919Y-112627243D01*
X135666396Y-112663040D01*
X135567057Y-112716107D01*
X135439463Y-112783558D01*
X135289177Y-112862507D01*
X135121760Y-112950070D01*
X134942773Y-113043361D01*
X134757778Y-113139495D01*
X134572338Y-113235587D01*
X134392012Y-113328751D01*
X134222364Y-113416101D01*
X134068954Y-113494753D01*
X133937344Y-113561821D01*
X133833097Y-113614420D01*
X133761772Y-113649664D01*
X133728933Y-113664669D01*
X133727587Y-113665000D01*
X133707690Y-113644564D01*
X133705600Y-113629499D01*
X133727368Y-113609337D01*
X133788991Y-113569670D01*
X133884943Y-113513364D01*
X134009700Y-113443281D01*
X134157737Y-113362289D01*
X134323531Y-113273250D01*
X134501556Y-113179030D01*
X134686288Y-113082493D01*
X134872202Y-112986504D01*
X135053774Y-112893927D01*
X135225480Y-112807627D01*
X135381794Y-112730469D01*
X135517192Y-112665317D01*
X135626151Y-112615036D01*
X135703144Y-112582491D01*
X135742648Y-112570545D01*
X135746301Y-112571341D01*
G37*
X135746301Y-112571341D02*
X135761666Y-112602629D01*
X135758065Y-112611600D01*
X135731919Y-112627243D01*
X135666396Y-112663040D01*
X135567057Y-112716107D01*
X135439463Y-112783558D01*
X135289177Y-112862507D01*
X135121760Y-112950070D01*
X134942773Y-113043361D01*
X134757778Y-113139495D01*
X134572338Y-113235587D01*
X134392012Y-113328751D01*
X134222364Y-113416101D01*
X134068954Y-113494753D01*
X133937344Y-113561821D01*
X133833097Y-113614420D01*
X133761772Y-113649664D01*
X133728933Y-113664669D01*
X133727587Y-113665000D01*
X133707690Y-113644564D01*
X133705600Y-113629499D01*
X133727368Y-113609337D01*
X133788991Y-113569670D01*
X133884943Y-113513364D01*
X134009700Y-113443281D01*
X134157737Y-113362289D01*
X134323531Y-113273250D01*
X134501556Y-113179030D01*
X134686288Y-113082493D01*
X134872202Y-112986504D01*
X135053774Y-112893927D01*
X135225480Y-112807627D01*
X135381794Y-112730469D01*
X135517192Y-112665317D01*
X135626151Y-112615036D01*
X135703144Y-112582491D01*
X135742648Y-112570545D01*
X135746301Y-112571341D01*
G36*
X143782199Y-108224722D02*
G01*
X143792703Y-108254715D01*
X143796693Y-108315571D01*
X143795355Y-108416181D01*
X143794438Y-108445300D01*
X143761659Y-108873129D01*
X143693420Y-109274713D01*
X143590645Y-109646567D01*
X143454257Y-109985210D01*
X143320595Y-110231447D01*
X143236586Y-110361284D01*
X143142812Y-110495476D01*
X143044030Y-110628350D01*
X142944995Y-110754233D01*
X142850465Y-110867454D01*
X142765195Y-110962339D01*
X142693942Y-111033216D01*
X142641462Y-111074412D01*
X142612511Y-111080255D01*
X142610707Y-111078095D01*
X142603129Y-111062157D01*
X142604439Y-111043592D01*
X142619328Y-111015513D01*
X142652489Y-110971031D01*
X142708613Y-110903258D01*
X142792391Y-110805305D01*
X142812214Y-110782260D01*
X143048208Y-110488040D01*
X143242506Y-110199350D01*
X143398488Y-109907647D01*
X143519538Y-109604390D01*
X143609037Y-109281035D01*
X143670368Y-108929041D01*
X143706912Y-108539865D01*
X143708140Y-108519441D01*
X143717060Y-108387181D01*
X143726383Y-108298283D01*
X143737479Y-108245315D01*
X143751720Y-108220848D01*
X143764000Y-108216700D01*
X143782199Y-108224722D01*
G37*
X143782199Y-108224722D02*
X143792703Y-108254715D01*
X143796693Y-108315571D01*
X143795355Y-108416181D01*
X143794438Y-108445300D01*
X143761659Y-108873129D01*
X143693420Y-109274713D01*
X143590645Y-109646567D01*
X143454257Y-109985210D01*
X143320595Y-110231447D01*
X143236586Y-110361284D01*
X143142812Y-110495476D01*
X143044030Y-110628350D01*
X142944995Y-110754233D01*
X142850465Y-110867454D01*
X142765195Y-110962339D01*
X142693942Y-111033216D01*
X142641462Y-111074412D01*
X142612511Y-111080255D01*
X142610707Y-111078095D01*
X142603129Y-111062157D01*
X142604439Y-111043592D01*
X142619328Y-111015513D01*
X142652489Y-110971031D01*
X142708613Y-110903258D01*
X142792391Y-110805305D01*
X142812214Y-110782260D01*
X143048208Y-110488040D01*
X143242506Y-110199350D01*
X143398488Y-109907647D01*
X143519538Y-109604390D01*
X143609037Y-109281035D01*
X143670368Y-108929041D01*
X143706912Y-108539865D01*
X143708140Y-108519441D01*
X143717060Y-108387181D01*
X143726383Y-108298283D01*
X143737479Y-108245315D01*
X143751720Y-108220848D01*
X143764000Y-108216700D01*
X143782199Y-108224722D01*
G36*
X140053150Y-105940470D02*
G01*
X140105486Y-105958453D01*
X140139506Y-105987810D01*
X140161666Y-106029874D01*
X140178418Y-106085977D01*
X140179282Y-106089382D01*
X140211909Y-106239227D01*
X140223177Y-106350074D01*
X140213260Y-106428935D01*
X140188918Y-106475304D01*
X140170631Y-106494620D01*
X140146376Y-106509775D01*
X140109191Y-106521873D01*
X140052114Y-106532018D01*
X139968181Y-106541316D01*
X139850429Y-106550871D01*
X139691897Y-106561787D01*
X139610111Y-106567133D01*
X139402821Y-106580438D01*
X139240201Y-106590331D01*
X139116238Y-106596851D01*
X139024919Y-106600038D01*
X138960232Y-106599930D01*
X138916164Y-106596566D01*
X138886703Y-106589986D01*
X138865835Y-106580229D01*
X138853824Y-106572050D01*
X138824761Y-106527545D01*
X138795483Y-106440982D01*
X138772440Y-106339494D01*
X138754083Y-106236223D01*
X138746987Y-106169087D01*
X138748676Y-106151000D01*
X138881239Y-106151000D01*
X138897835Y-106276109D01*
X138912367Y-106376057D01*
X138930447Y-106435234D01*
X138962946Y-106463135D01*
X139020737Y-106469258D01*
X139112139Y-106463302D01*
X139199324Y-106456896D01*
X139322808Y-106448480D01*
X139468176Y-106439004D01*
X139621013Y-106429422D01*
X139671406Y-106426352D01*
X139806850Y-106417459D01*
X139923522Y-106408456D01*
X140012404Y-106400145D01*
X140064477Y-106393327D01*
X140074130Y-106390535D01*
X140077869Y-106360806D01*
X140075270Y-106295843D01*
X140068480Y-106224358D01*
X140050612Y-106070400D01*
X139927489Y-106070400D01*
X139850704Y-106072637D01*
X139735611Y-106078757D01*
X139594479Y-106087872D01*
X139439575Y-106099094D01*
X139283166Y-106111536D01*
X139137522Y-106124310D01*
X139017569Y-106136239D01*
X138881239Y-106151000D01*
X138748676Y-106151000D01*
X138751134Y-106124688D01*
X138766506Y-106089628D01*
X138772089Y-106080772D01*
X138786781Y-106060411D01*
X138805125Y-106043926D01*
X138832986Y-106030350D01*
X138876229Y-106018717D01*
X138940719Y-106008061D01*
X139032322Y-105997414D01*
X139156902Y-105985812D01*
X139320325Y-105972287D01*
X139528456Y-105955872D01*
X139531598Y-105955626D01*
X139721725Y-105941440D01*
X139867723Y-105933296D01*
X139976047Y-105932529D01*
X140053150Y-105940470D01*
G37*
X140053150Y-105940470D02*
X140105486Y-105958453D01*
X140139506Y-105987810D01*
X140161666Y-106029874D01*
X140178418Y-106085977D01*
X140179282Y-106089382D01*
X140211909Y-106239227D01*
X140223177Y-106350074D01*
X140213260Y-106428935D01*
X140188918Y-106475304D01*
X140170631Y-106494620D01*
X140146376Y-106509775D01*
X140109191Y-106521873D01*
X140052114Y-106532018D01*
X139968181Y-106541316D01*
X139850429Y-106550871D01*
X139691897Y-106561787D01*
X139610111Y-106567133D01*
X139402821Y-106580438D01*
X139240201Y-106590331D01*
X139116238Y-106596851D01*
X139024919Y-106600038D01*
X138960232Y-106599930D01*
X138916164Y-106596566D01*
X138886703Y-106589986D01*
X138865835Y-106580229D01*
X138853824Y-106572050D01*
X138824761Y-106527545D01*
X138795483Y-106440982D01*
X138772440Y-106339494D01*
X138754083Y-106236223D01*
X138746987Y-106169087D01*
X138748676Y-106151000D01*
X138881239Y-106151000D01*
X138897835Y-106276109D01*
X138912367Y-106376057D01*
X138930447Y-106435234D01*
X138962946Y-106463135D01*
X139020737Y-106469258D01*
X139112139Y-106463302D01*
X139199324Y-106456896D01*
X139322808Y-106448480D01*
X139468176Y-106439004D01*
X139621013Y-106429422D01*
X139671406Y-106426352D01*
X139806850Y-106417459D01*
X139923522Y-106408456D01*
X140012404Y-106400145D01*
X140064477Y-106393327D01*
X140074130Y-106390535D01*
X140077869Y-106360806D01*
X140075270Y-106295843D01*
X140068480Y-106224358D01*
X140050612Y-106070400D01*
X139927489Y-106070400D01*
X139850704Y-106072637D01*
X139735611Y-106078757D01*
X139594479Y-106087872D01*
X139439575Y-106099094D01*
X139283166Y-106111536D01*
X139137522Y-106124310D01*
X139017569Y-106136239D01*
X138881239Y-106151000D01*
X138748676Y-106151000D01*
X138751134Y-106124688D01*
X138766506Y-106089628D01*
X138772089Y-106080772D01*
X138786781Y-106060411D01*
X138805125Y-106043926D01*
X138832986Y-106030350D01*
X138876229Y-106018717D01*
X138940719Y-106008061D01*
X139032322Y-105997414D01*
X139156902Y-105985812D01*
X139320325Y-105972287D01*
X139528456Y-105955872D01*
X139531598Y-105955626D01*
X139721725Y-105941440D01*
X139867723Y-105933296D01*
X139976047Y-105932529D01*
X140053150Y-105940470D01*
G36*
X140813425Y-107277446D02*
G01*
X140819437Y-107303647D01*
X140832106Y-107373523D01*
X140850340Y-107480543D01*
X140873048Y-107618177D01*
X140899138Y-107779895D01*
X140927518Y-107959165D01*
X140929424Y-107971320D01*
X141036897Y-108657156D01*
X140806598Y-108671879D01*
X140728667Y-108676194D01*
X140607229Y-108682059D01*
X140449544Y-108689161D01*
X140262873Y-108697189D01*
X140054475Y-108705831D01*
X139831610Y-108714776D01*
X139601537Y-108723711D01*
X139585700Y-108724315D01*
X139354476Y-108733266D01*
X139129167Y-108742268D01*
X138917182Y-108751003D01*
X138725930Y-108759155D01*
X138562818Y-108766409D01*
X138435255Y-108772448D01*
X138350650Y-108776956D01*
X138347450Y-108777149D01*
X138242361Y-108782768D01*
X138159356Y-108785687D01*
X138109301Y-108785611D01*
X138099575Y-108783885D01*
X138095040Y-108757697D01*
X138082381Y-108688219D01*
X138062823Y-108582094D01*
X138037596Y-108445965D01*
X138007926Y-108286474D01*
X137977133Y-108121450D01*
X137944518Y-107946476D01*
X137915318Y-107788991D01*
X137890738Y-107655556D01*
X137871981Y-107552730D01*
X137860250Y-107487074D01*
X137856708Y-107465108D01*
X137882085Y-107462426D01*
X137952731Y-107456992D01*
X138063207Y-107449152D01*
X138208075Y-107439250D01*
X138381899Y-107427632D01*
X138579239Y-107414643D01*
X138794659Y-107400627D01*
X139022722Y-107385931D01*
X139257988Y-107370899D01*
X139495021Y-107355876D01*
X139728383Y-107341207D01*
X139952637Y-107327238D01*
X140162344Y-107314314D01*
X140352067Y-107302780D01*
X140516369Y-107292980D01*
X140649811Y-107285261D01*
X140746957Y-107279966D01*
X140802368Y-107277442D01*
X140813425Y-107277446D01*
G37*
X140813425Y-107277446D02*
X140819437Y-107303647D01*
X140832106Y-107373523D01*
X140850340Y-107480543D01*
X140873048Y-107618177D01*
X140899138Y-107779895D01*
X140927518Y-107959165D01*
X140929424Y-107971320D01*
X141036897Y-108657156D01*
X140806598Y-108671879D01*
X140728667Y-108676194D01*
X140607229Y-108682059D01*
X140449544Y-108689161D01*
X140262873Y-108697189D01*
X140054475Y-108705831D01*
X139831610Y-108714776D01*
X139601537Y-108723711D01*
X139585700Y-108724315D01*
X139354476Y-108733266D01*
X139129167Y-108742268D01*
X138917182Y-108751003D01*
X138725930Y-108759155D01*
X138562818Y-108766409D01*
X138435255Y-108772448D01*
X138350650Y-108776956D01*
X138347450Y-108777149D01*
X138242361Y-108782768D01*
X138159356Y-108785687D01*
X138109301Y-108785611D01*
X138099575Y-108783885D01*
X138095040Y-108757697D01*
X138082381Y-108688219D01*
X138062823Y-108582094D01*
X138037596Y-108445965D01*
X138007926Y-108286474D01*
X137977133Y-108121450D01*
X137944518Y-107946476D01*
X137915318Y-107788991D01*
X137890738Y-107655556D01*
X137871981Y-107552730D01*
X137860250Y-107487074D01*
X137856708Y-107465108D01*
X137882085Y-107462426D01*
X137952731Y-107456992D01*
X138063207Y-107449152D01*
X138208075Y-107439250D01*
X138381899Y-107427632D01*
X138579239Y-107414643D01*
X138794659Y-107400627D01*
X139022722Y-107385931D01*
X139257988Y-107370899D01*
X139495021Y-107355876D01*
X139728383Y-107341207D01*
X139952637Y-107327238D01*
X140162344Y-107314314D01*
X140352067Y-107302780D01*
X140516369Y-107292980D01*
X140649811Y-107285261D01*
X140746957Y-107279966D01*
X140802368Y-107277442D01*
X140813425Y-107277446D01*
G36*
X138046040Y-106566966D02*
G01*
X138036999Y-106608273D01*
X137986561Y-106676030D01*
X137925004Y-106740540D01*
X137851986Y-106806256D01*
X137802859Y-106836921D01*
X137783437Y-106834240D01*
X137789450Y-106801541D01*
X137822026Y-106746420D01*
X137870898Y-106681442D01*
X137925799Y-106619172D01*
X137976459Y-106572174D01*
X138012611Y-106553013D01*
X138013265Y-106553000D01*
X138046040Y-106566966D01*
G37*
X138046040Y-106566966D02*
X138036999Y-106608273D01*
X137986561Y-106676030D01*
X137925004Y-106740540D01*
X137851986Y-106806256D01*
X137802859Y-106836921D01*
X137783437Y-106834240D01*
X137789450Y-106801541D01*
X137822026Y-106746420D01*
X137870898Y-106681442D01*
X137925799Y-106619172D01*
X137976459Y-106572174D01*
X138012611Y-106553013D01*
X138013265Y-106553000D01*
X138046040Y-106566966D01*
G36*
X141221351Y-106338488D02*
G01*
X141211991Y-106379858D01*
X141161927Y-106447163D01*
X141102477Y-106509504D01*
X141030422Y-106578655D01*
X140984726Y-106615734D01*
X140956782Y-106625522D01*
X140937981Y-106612798D01*
X140932091Y-106604109D01*
X140940199Y-106574356D01*
X140975901Y-106522592D01*
X141028617Y-106460321D01*
X141087764Y-106399045D01*
X141142761Y-106350269D01*
X141183028Y-106325495D01*
X141189375Y-106324400D01*
X141221351Y-106338488D01*
G37*
X141221351Y-106338488D02*
X141211991Y-106379858D01*
X141161927Y-106447163D01*
X141102477Y-106509504D01*
X141030422Y-106578655D01*
X140984726Y-106615734D01*
X140956782Y-106625522D01*
X140937981Y-106612798D01*
X140932091Y-106604109D01*
X140940199Y-106574356D01*
X140975901Y-106522592D01*
X141028617Y-106460321D01*
X141087764Y-106399045D01*
X141142761Y-106350269D01*
X141183028Y-106325495D01*
X141189375Y-106324400D01*
X141221351Y-106338488D01*
D12*
%TO.C,D6*%
X106410000Y-114590000D02*
X104410000Y-114590000D01*
X104410000Y-114590000D02*
X104410000Y-118490000D01*
X106410000Y-114590000D02*
X106410000Y-118490000D01*
%TO.C,D5*%
X106410000Y-101890000D02*
X104410000Y-101890000D01*
X104410000Y-101890000D02*
X104410000Y-105790000D01*
X106410000Y-101890000D02*
X106410000Y-105790000D01*
%TO.C,D4*%
X106410000Y-89190000D02*
X104410000Y-89190000D01*
X104410000Y-89190000D02*
X104410000Y-93090000D01*
X106410000Y-89190000D02*
X106410000Y-93090000D01*
%TO.C,JP2*%
X130870000Y-121980000D02*
X130870000Y-119320000D01*
X128270000Y-121980000D02*
X130870000Y-121980000D01*
X128270000Y-119320000D02*
X130870000Y-119320000D01*
X128270000Y-121980000D02*
X128270000Y-119320000D01*
X127000000Y-121980000D02*
X125670000Y-121980000D01*
X125670000Y-121980000D02*
X125670000Y-120650000D01*
%TO.C,JP1*%
X147380000Y-100390000D02*
X147380000Y-97730000D01*
X144780000Y-100390000D02*
X147380000Y-100390000D01*
X144780000Y-97730000D02*
X147380000Y-97730000D01*
X144780000Y-100390000D02*
X144780000Y-97730000D01*
X143510000Y-100390000D02*
X142180000Y-100390000D01*
X142180000Y-100390000D02*
X142180000Y-99060000D01*
%TO.C,J3*%
X144720000Y-116900000D02*
X147380000Y-116900000D01*
X144720000Y-109220000D02*
X144720000Y-116900000D01*
X147380000Y-109220000D02*
X147380000Y-116900000D01*
X144720000Y-109220000D02*
X147380000Y-109220000D01*
X144720000Y-107950000D02*
X144720000Y-106620000D01*
X144720000Y-106620000D02*
X146050000Y-106620000D01*
%TO.C,J2*%
X97730000Y-111820000D02*
X100390000Y-111820000D01*
X97730000Y-99060000D02*
X97730000Y-111820000D01*
X100390000Y-99060000D02*
X100390000Y-111820000D01*
X97730000Y-99060000D02*
X100390000Y-99060000D01*
X97730000Y-97790000D02*
X97730000Y-96460000D01*
X97730000Y-96460000D02*
X99060000Y-96460000D01*
%TO.C,U1*%
X133470000Y-83860000D02*
X133470000Y-73620000D01*
X117580000Y-83860000D02*
X117580000Y-73620000D01*
X117580000Y-83860000D02*
X133470000Y-83860000D01*
X117580000Y-73620000D02*
X133470000Y-73620000D01*
X133470000Y-81280000D02*
X136010000Y-81280000D01*
X133470000Y-78740000D02*
X136010000Y-78740000D01*
X133470000Y-76200000D02*
X136010000Y-76200000D01*
%TO.C,U5*%
X129270000Y-109280000D02*
X130920000Y-109280000D01*
X130920000Y-109280000D02*
X130920000Y-91380000D01*
X130920000Y-91380000D02*
X125620000Y-91380000D01*
X125620000Y-91380000D02*
X125620000Y-109280000D01*
X125620000Y-109280000D02*
X127270000Y-109280000D01*
X127270000Y-109280000D02*
G75*
G02*
X129270000Y-109280000I1000000J0D01*
G01*
%TO.C,U4*%
X111395000Y-111700000D02*
X109745000Y-111700000D01*
X109745000Y-111700000D02*
X109745000Y-121980000D01*
X109745000Y-121980000D02*
X115045000Y-121980000D01*
X115045000Y-121980000D02*
X115045000Y-111700000D01*
X115045000Y-111700000D02*
X113395000Y-111700000D01*
X113395000Y-111700000D02*
G75*
G02*
X111395000Y-111700000I-1000000J0D01*
G01*
%TO.C,U3*%
X111395000Y-99000000D02*
X109745000Y-99000000D01*
X109745000Y-99000000D02*
X109745000Y-109280000D01*
X109745000Y-109280000D02*
X115045000Y-109280000D01*
X115045000Y-109280000D02*
X115045000Y-99000000D01*
X115045000Y-99000000D02*
X113395000Y-99000000D01*
X113395000Y-99000000D02*
G75*
G02*
X111395000Y-99000000I-1000000J0D01*
G01*
%TO.C,U2*%
X111395000Y-86300000D02*
X109745000Y-86300000D01*
X109745000Y-86300000D02*
X109745000Y-96580000D01*
X109745000Y-96580000D02*
X115045000Y-96580000D01*
X115045000Y-96580000D02*
X115045000Y-86300000D01*
X115045000Y-86300000D02*
X113395000Y-86300000D01*
X113395000Y-86300000D02*
G75*
G02*
X111395000Y-86300000I-1000000J0D01*
G01*
%TO.C,R8*%
X127542936Y-115930000D02*
X128997064Y-115930000D01*
X127542936Y-117750000D02*
X128997064Y-117750000D01*
%TO.C,R7*%
X144052936Y-94340000D02*
X145507064Y-94340000D01*
X144052936Y-96160000D02*
X145507064Y-96160000D01*
%TO.C,R3*%
X120925000Y-113572936D02*
X120925000Y-115027064D01*
X119105000Y-113572936D02*
X119105000Y-115027064D01*
%TO.C,R2*%
X120925000Y-101152936D02*
X120925000Y-102607064D01*
X119105000Y-101152936D02*
X119105000Y-102607064D01*
%TO.C,R1*%
X120925000Y-88172936D02*
X120925000Y-89627064D01*
X119105000Y-88172936D02*
X119105000Y-89627064D01*
%TO.C,J1*%
X97960000Y-84930000D02*
X106780000Y-84930000D01*
X106780000Y-84930000D02*
X106780000Y-72550000D01*
X106780000Y-72550000D02*
X97960000Y-72550000D01*
X97960000Y-72550000D02*
X97960000Y-84930000D01*
X98770000Y-84930000D02*
X98770000Y-82390000D01*
X98770000Y-72550000D02*
X98770000Y-75090000D01*
X98770000Y-80280000D02*
X98770000Y-77200000D01*
X99770000Y-82280000D02*
X97960000Y-82280000D01*
X97960000Y-82280000D02*
X97960000Y-80280000D01*
X97960000Y-80280000D02*
X99770000Y-80280000D01*
X99770000Y-80280000D02*
X99770000Y-82280000D01*
X99770000Y-77200000D02*
X97960000Y-77200000D01*
X97960000Y-77200000D02*
X97960000Y-75200000D01*
X97960000Y-75200000D02*
X99770000Y-75200000D01*
X99770000Y-75200000D02*
X99770000Y-77200000D01*
X105070000Y-79280000D02*
X105070000Y-78200000D01*
X105070000Y-83280000D02*
X105070000Y-84020000D01*
X105070000Y-84020000D02*
X99770000Y-84020000D01*
X99770000Y-84020000D02*
X99770000Y-73460000D01*
X99770000Y-73460000D02*
X105070000Y-73460000D01*
X105070000Y-73460000D02*
X105070000Y-74200000D01*
X97160000Y-80980000D02*
X97760000Y-81280000D01*
X97760000Y-81280000D02*
X97160000Y-81580000D01*
X97160000Y-81580000D02*
X97160000Y-80980000D01*
X105085821Y-74213159D02*
G75*
G02*
X105070000Y-78200000I-1665821J-1986841D01*
G01*
X105085821Y-79293159D02*
G75*
G02*
X105070000Y-83280000I-1665821J-1986841D01*
G01*
%TO.C,D3*%
X124720000Y-110880000D02*
X124720000Y-115180000D01*
X124720000Y-115180000D02*
X130420000Y-115180000D01*
X124720000Y-110880000D02*
X130420000Y-110880000D01*
%TO.C,D2*%
X141230000Y-89290000D02*
X141230000Y-93590000D01*
X141230000Y-93590000D02*
X146930000Y-93590000D01*
X141230000Y-89290000D02*
X146930000Y-89290000D01*
%TO.C,D1*%
X131820000Y-89780000D02*
X131820000Y-85480000D01*
X131820000Y-85480000D02*
X126120000Y-85480000D01*
X131820000Y-89780000D02*
X126120000Y-89780000D01*
%TO.C,C10*%
X140280000Y-88550000D02*
X140280000Y-101790000D01*
X134040000Y-88550000D02*
X134040000Y-101790000D01*
X140280000Y-88550000D02*
X134040000Y-88550000D01*
X140280000Y-101790000D02*
X134040000Y-101790000D01*
%TO.C,C4*%
X142020000Y-80230000D02*
X143720000Y-80230000D01*
X147540000Y-80230000D02*
X145840000Y-80230000D01*
X147540000Y-75774437D02*
X147540000Y-80230000D01*
X142020000Y-75774437D02*
X142020000Y-80230000D01*
X143084437Y-74710000D02*
X143720000Y-74710000D01*
X146475563Y-74710000D02*
X145840000Y-74710000D01*
X146475563Y-74710000D02*
X147540000Y-75774437D01*
X143084437Y-74710000D02*
X142020000Y-75774437D01*
X146465000Y-73845000D02*
X146465000Y-74470000D01*
X146777500Y-74157500D02*
X146152500Y-74157500D01*
%TO.C,C3*%
X141245000Y-75196248D02*
X141245000Y-76618752D01*
X139425000Y-75196248D02*
X139425000Y-76618752D01*
%TO.C,C2*%
X139425000Y-82968752D02*
X139425000Y-81546248D01*
X141245000Y-82968752D02*
X141245000Y-81546248D01*
%TO.C,C1*%
X115170000Y-75330000D02*
X112820000Y-75330000D01*
X108350000Y-75330000D02*
X110700000Y-75330000D01*
X108350000Y-81085563D02*
X108350000Y-75330000D01*
X115170000Y-81085563D02*
X115170000Y-75330000D01*
X114105563Y-82150000D02*
X112820000Y-82150000D01*
X109414437Y-82150000D02*
X110700000Y-82150000D01*
X109414437Y-82150000D02*
X108350000Y-81085563D01*
X114105563Y-82150000D02*
X115170000Y-81085563D01*
X109912500Y-83177500D02*
X109912500Y-82390000D01*
X109518750Y-82783750D02*
X110306250Y-82783750D01*
%TO.C,D6*%
D10*
X104671904Y-114117380D02*
X104671904Y-113117380D01*
X104910000Y-113117380D01*
X105052857Y-113165000D01*
X105148095Y-113260238D01*
X105195714Y-113355476D01*
X105243333Y-113545952D01*
X105243333Y-113688809D01*
X105195714Y-113879285D01*
X105148095Y-113974523D01*
X105052857Y-114069761D01*
X104910000Y-114117380D01*
X104671904Y-114117380D01*
X106100476Y-113117380D02*
X105910000Y-113117380D01*
X105814761Y-113165000D01*
X105767142Y-113212619D01*
X105671904Y-113355476D01*
X105624285Y-113545952D01*
X105624285Y-113926904D01*
X105671904Y-114022142D01*
X105719523Y-114069761D01*
X105814761Y-114117380D01*
X106005238Y-114117380D01*
X106100476Y-114069761D01*
X106148095Y-114022142D01*
X106195714Y-113926904D01*
X106195714Y-113688809D01*
X106148095Y-113593571D01*
X106100476Y-113545952D01*
X106005238Y-113498333D01*
X105814761Y-113498333D01*
X105719523Y-113545952D01*
X105671904Y-113593571D01*
X105624285Y-113688809D01*
%TO.C,D5*%
X104671904Y-101417380D02*
X104671904Y-100417380D01*
X104910000Y-100417380D01*
X105052857Y-100465000D01*
X105148095Y-100560238D01*
X105195714Y-100655476D01*
X105243333Y-100845952D01*
X105243333Y-100988809D01*
X105195714Y-101179285D01*
X105148095Y-101274523D01*
X105052857Y-101369761D01*
X104910000Y-101417380D01*
X104671904Y-101417380D01*
X106148095Y-100417380D02*
X105671904Y-100417380D01*
X105624285Y-100893571D01*
X105671904Y-100845952D01*
X105767142Y-100798333D01*
X106005238Y-100798333D01*
X106100476Y-100845952D01*
X106148095Y-100893571D01*
X106195714Y-100988809D01*
X106195714Y-101226904D01*
X106148095Y-101322142D01*
X106100476Y-101369761D01*
X106005238Y-101417380D01*
X105767142Y-101417380D01*
X105671904Y-101369761D01*
X105624285Y-101322142D01*
%TO.C,D4*%
X104671904Y-88717380D02*
X104671904Y-87717380D01*
X104910000Y-87717380D01*
X105052857Y-87765000D01*
X105148095Y-87860238D01*
X105195714Y-87955476D01*
X105243333Y-88145952D01*
X105243333Y-88288809D01*
X105195714Y-88479285D01*
X105148095Y-88574523D01*
X105052857Y-88669761D01*
X104910000Y-88717380D01*
X104671904Y-88717380D01*
X106100476Y-88050714D02*
X106100476Y-88717380D01*
X105862380Y-87669761D02*
X105624285Y-88384047D01*
X106243333Y-88384047D01*
%TO.C,JP2*%
X123912380Y-121483333D02*
X124626666Y-121483333D01*
X124769523Y-121530952D01*
X124864761Y-121626190D01*
X124912380Y-121769047D01*
X124912380Y-121864285D01*
X124912380Y-121007142D02*
X123912380Y-121007142D01*
X123912380Y-120626190D01*
X123960000Y-120530952D01*
X124007619Y-120483333D01*
X124102857Y-120435714D01*
X124245714Y-120435714D01*
X124340952Y-120483333D01*
X124388571Y-120530952D01*
X124436190Y-120626190D01*
X124436190Y-121007142D01*
X124007619Y-120054761D02*
X123960000Y-120007142D01*
X123912380Y-119911904D01*
X123912380Y-119673809D01*
X123960000Y-119578571D01*
X124007619Y-119530952D01*
X124102857Y-119483333D01*
X124198095Y-119483333D01*
X124340952Y-119530952D01*
X124912380Y-120102380D01*
X124912380Y-119483333D01*
%TO.C,JP1*%
X142041666Y-101052380D02*
X142041666Y-101766666D01*
X141994047Y-101909523D01*
X141898809Y-102004761D01*
X141755952Y-102052380D01*
X141660714Y-102052380D01*
X142517857Y-102052380D02*
X142517857Y-101052380D01*
X142898809Y-101052380D01*
X142994047Y-101100000D01*
X143041666Y-101147619D01*
X143089285Y-101242857D01*
X143089285Y-101385714D01*
X143041666Y-101480952D01*
X142994047Y-101528571D01*
X142898809Y-101576190D01*
X142517857Y-101576190D01*
X144041666Y-102052380D02*
X143470238Y-102052380D01*
X143755952Y-102052380D02*
X143755952Y-101052380D01*
X143660714Y-101195238D01*
X143565476Y-101290476D01*
X143470238Y-101338095D01*
%TO.C,J3*%
X145716666Y-105072380D02*
X145716666Y-105786666D01*
X145669047Y-105929523D01*
X145573809Y-106024761D01*
X145430952Y-106072380D01*
X145335714Y-106072380D01*
X146097619Y-105072380D02*
X146716666Y-105072380D01*
X146383333Y-105453333D01*
X146526190Y-105453333D01*
X146621428Y-105500952D01*
X146669047Y-105548571D01*
X146716666Y-105643809D01*
X146716666Y-105881904D01*
X146669047Y-105977142D01*
X146621428Y-106024761D01*
X146526190Y-106072380D01*
X146240476Y-106072380D01*
X146145238Y-106024761D01*
X146097619Y-105977142D01*
%TO.C,J2*%
X98726666Y-94912380D02*
X98726666Y-95626666D01*
X98679047Y-95769523D01*
X98583809Y-95864761D01*
X98440952Y-95912380D01*
X98345714Y-95912380D01*
X99155238Y-95007619D02*
X99202857Y-94960000D01*
X99298095Y-94912380D01*
X99536190Y-94912380D01*
X99631428Y-94960000D01*
X99679047Y-95007619D01*
X99726666Y-95102857D01*
X99726666Y-95198095D01*
X99679047Y-95340952D01*
X99107619Y-95912380D01*
X99726666Y-95912380D01*
%TO.C,U1*%
X116032380Y-79501904D02*
X116841904Y-79501904D01*
X116937142Y-79454285D01*
X116984761Y-79406666D01*
X117032380Y-79311428D01*
X117032380Y-79120952D01*
X116984761Y-79025714D01*
X116937142Y-78978095D01*
X116841904Y-78930476D01*
X116032380Y-78930476D01*
X117032380Y-77930476D02*
X117032380Y-78501904D01*
X117032380Y-78216190D02*
X116032380Y-78216190D01*
X116175238Y-78311428D01*
X116270476Y-78406666D01*
X116318095Y-78501904D01*
%TO.C,U5*%
X122428095Y-109307380D02*
X122428095Y-110116904D01*
X122475714Y-110212142D01*
X122523333Y-110259761D01*
X122618571Y-110307380D01*
X122809047Y-110307380D01*
X122904285Y-110259761D01*
X122951904Y-110212142D01*
X122999523Y-110116904D01*
X122999523Y-109307380D01*
X123951904Y-109307380D02*
X123475714Y-109307380D01*
X123428095Y-109783571D01*
X123475714Y-109735952D01*
X123570952Y-109688333D01*
X123809047Y-109688333D01*
X123904285Y-109735952D01*
X123951904Y-109783571D01*
X123999523Y-109878809D01*
X123999523Y-110116904D01*
X123951904Y-110212142D01*
X123904285Y-110259761D01*
X123809047Y-110307380D01*
X123570952Y-110307380D01*
X123475714Y-110259761D01*
X123428095Y-110212142D01*
%TO.C,U4*%
X111633095Y-110152380D02*
X111633095Y-110961904D01*
X111680714Y-111057142D01*
X111728333Y-111104761D01*
X111823571Y-111152380D01*
X112014047Y-111152380D01*
X112109285Y-111104761D01*
X112156904Y-111057142D01*
X112204523Y-110961904D01*
X112204523Y-110152380D01*
X113109285Y-110485714D02*
X113109285Y-111152380D01*
X112871190Y-110104761D02*
X112633095Y-110819047D01*
X113252142Y-110819047D01*
%TO.C,U3*%
X111633095Y-97452380D02*
X111633095Y-98261904D01*
X111680714Y-98357142D01*
X111728333Y-98404761D01*
X111823571Y-98452380D01*
X112014047Y-98452380D01*
X112109285Y-98404761D01*
X112156904Y-98357142D01*
X112204523Y-98261904D01*
X112204523Y-97452380D01*
X112585476Y-97452380D02*
X113204523Y-97452380D01*
X112871190Y-97833333D01*
X113014047Y-97833333D01*
X113109285Y-97880952D01*
X113156904Y-97928571D01*
X113204523Y-98023809D01*
X113204523Y-98261904D01*
X113156904Y-98357142D01*
X113109285Y-98404761D01*
X113014047Y-98452380D01*
X112728333Y-98452380D01*
X112633095Y-98404761D01*
X112585476Y-98357142D01*
%TO.C,U2*%
X111633095Y-84752380D02*
X111633095Y-85561904D01*
X111680714Y-85657142D01*
X111728333Y-85704761D01*
X111823571Y-85752380D01*
X112014047Y-85752380D01*
X112109285Y-85704761D01*
X112156904Y-85657142D01*
X112204523Y-85561904D01*
X112204523Y-84752380D01*
X112633095Y-84847619D02*
X112680714Y-84800000D01*
X112775952Y-84752380D01*
X113014047Y-84752380D01*
X113109285Y-84800000D01*
X113156904Y-84847619D01*
X113204523Y-84942857D01*
X113204523Y-85038095D01*
X113156904Y-85180952D01*
X112585476Y-85752380D01*
X113204523Y-85752380D01*
%TO.C,R8*%
X125452380Y-117006666D02*
X124976190Y-117340000D01*
X125452380Y-117578095D02*
X124452380Y-117578095D01*
X124452380Y-117197142D01*
X124500000Y-117101904D01*
X124547619Y-117054285D01*
X124642857Y-117006666D01*
X124785714Y-117006666D01*
X124880952Y-117054285D01*
X124928571Y-117101904D01*
X124976190Y-117197142D01*
X124976190Y-117578095D01*
X124880952Y-116435238D02*
X124833333Y-116530476D01*
X124785714Y-116578095D01*
X124690476Y-116625714D01*
X124642857Y-116625714D01*
X124547619Y-116578095D01*
X124500000Y-116530476D01*
X124452380Y-116435238D01*
X124452380Y-116244761D01*
X124500000Y-116149523D01*
X124547619Y-116101904D01*
X124642857Y-116054285D01*
X124690476Y-116054285D01*
X124785714Y-116101904D01*
X124833333Y-116149523D01*
X124880952Y-116244761D01*
X124880952Y-116435238D01*
X124928571Y-116530476D01*
X124976190Y-116578095D01*
X125071428Y-116625714D01*
X125261904Y-116625714D01*
X125357142Y-116578095D01*
X125404761Y-116530476D01*
X125452380Y-116435238D01*
X125452380Y-116244761D01*
X125404761Y-116149523D01*
X125357142Y-116101904D01*
X125261904Y-116054285D01*
X125071428Y-116054285D01*
X124976190Y-116101904D01*
X124928571Y-116149523D01*
X124880952Y-116244761D01*
%TO.C,R7*%
X148333333Y-95952380D02*
X148000000Y-95476190D01*
X147761904Y-95952380D02*
X147761904Y-94952380D01*
X148142857Y-94952380D01*
X148238095Y-95000000D01*
X148285714Y-95047619D01*
X148333333Y-95142857D01*
X148333333Y-95285714D01*
X148285714Y-95380952D01*
X148238095Y-95428571D01*
X148142857Y-95476190D01*
X147761904Y-95476190D01*
X148666666Y-94952380D02*
X149333333Y-94952380D01*
X148904761Y-95952380D01*
%TO.C,R3*%
X122287380Y-114466666D02*
X121811190Y-114800000D01*
X122287380Y-115038095D02*
X121287380Y-115038095D01*
X121287380Y-114657142D01*
X121335000Y-114561904D01*
X121382619Y-114514285D01*
X121477857Y-114466666D01*
X121620714Y-114466666D01*
X121715952Y-114514285D01*
X121763571Y-114561904D01*
X121811190Y-114657142D01*
X121811190Y-115038095D01*
X121287380Y-114133333D02*
X121287380Y-113514285D01*
X121668333Y-113847619D01*
X121668333Y-113704761D01*
X121715952Y-113609523D01*
X121763571Y-113561904D01*
X121858809Y-113514285D01*
X122096904Y-113514285D01*
X122192142Y-113561904D01*
X122239761Y-113609523D01*
X122287380Y-113704761D01*
X122287380Y-113990476D01*
X122239761Y-114085714D01*
X122192142Y-114133333D01*
%TO.C,R2*%
X122287380Y-102046666D02*
X121811190Y-102380000D01*
X122287380Y-102618095D02*
X121287380Y-102618095D01*
X121287380Y-102237142D01*
X121335000Y-102141904D01*
X121382619Y-102094285D01*
X121477857Y-102046666D01*
X121620714Y-102046666D01*
X121715952Y-102094285D01*
X121763571Y-102141904D01*
X121811190Y-102237142D01*
X121811190Y-102618095D01*
X121382619Y-101665714D02*
X121335000Y-101618095D01*
X121287380Y-101522857D01*
X121287380Y-101284761D01*
X121335000Y-101189523D01*
X121382619Y-101141904D01*
X121477857Y-101094285D01*
X121573095Y-101094285D01*
X121715952Y-101141904D01*
X122287380Y-101713333D01*
X122287380Y-101094285D01*
%TO.C,R1*%
X122287380Y-89066666D02*
X121811190Y-89400000D01*
X122287380Y-89638095D02*
X121287380Y-89638095D01*
X121287380Y-89257142D01*
X121335000Y-89161904D01*
X121382619Y-89114285D01*
X121477857Y-89066666D01*
X121620714Y-89066666D01*
X121715952Y-89114285D01*
X121763571Y-89161904D01*
X121811190Y-89257142D01*
X121811190Y-89638095D01*
X122287380Y-88114285D02*
X122287380Y-88685714D01*
X122287380Y-88400000D02*
X121287380Y-88400000D01*
X121430238Y-88495238D01*
X121525476Y-88590476D01*
X121573095Y-88685714D01*
%TO.C,J1*%
X96322380Y-79073333D02*
X97036666Y-79073333D01*
X97179523Y-79120952D01*
X97274761Y-79216190D01*
X97322380Y-79359047D01*
X97322380Y-79454285D01*
X97322380Y-78073333D02*
X97322380Y-78644761D01*
X97322380Y-78359047D02*
X96322380Y-78359047D01*
X96465238Y-78454285D01*
X96560476Y-78549523D01*
X96608095Y-78644761D01*
%TO.C,D3*%
X124452380Y-113738095D02*
X123452380Y-113738095D01*
X123452380Y-113500000D01*
X123500000Y-113357142D01*
X123595238Y-113261904D01*
X123690476Y-113214285D01*
X123880952Y-113166666D01*
X124023809Y-113166666D01*
X124214285Y-113214285D01*
X124309523Y-113261904D01*
X124404761Y-113357142D01*
X124452380Y-113500000D01*
X124452380Y-113738095D01*
X123452380Y-112833333D02*
X123452380Y-112214285D01*
X123833333Y-112547619D01*
X123833333Y-112404761D01*
X123880952Y-112309523D01*
X123928571Y-112261904D01*
X124023809Y-112214285D01*
X124261904Y-112214285D01*
X124357142Y-112261904D01*
X124404761Y-112309523D01*
X124452380Y-112404761D01*
X124452380Y-112690476D01*
X124404761Y-112785714D01*
X124357142Y-112833333D01*
%TO.C,D2*%
X141261904Y-88952380D02*
X141261904Y-87952380D01*
X141500000Y-87952380D01*
X141642857Y-88000000D01*
X141738095Y-88095238D01*
X141785714Y-88190476D01*
X141833333Y-88380952D01*
X141833333Y-88523809D01*
X141785714Y-88714285D01*
X141738095Y-88809523D01*
X141642857Y-88904761D01*
X141500000Y-88952380D01*
X141261904Y-88952380D01*
X142214285Y-88047619D02*
X142261904Y-88000000D01*
X142357142Y-87952380D01*
X142595238Y-87952380D01*
X142690476Y-88000000D01*
X142738095Y-88047619D01*
X142785714Y-88142857D01*
X142785714Y-88238095D01*
X142738095Y-88380952D01*
X142166666Y-88952380D01*
X142785714Y-88952380D01*
%TO.C,D1*%
X124452380Y-88238095D02*
X123452380Y-88238095D01*
X123452380Y-88000000D01*
X123500000Y-87857142D01*
X123595238Y-87761904D01*
X123690476Y-87714285D01*
X123880952Y-87666666D01*
X124023809Y-87666666D01*
X124214285Y-87714285D01*
X124309523Y-87761904D01*
X124404761Y-87857142D01*
X124452380Y-88000000D01*
X124452380Y-88238095D01*
X124452380Y-86714285D02*
X124452380Y-87285714D01*
X124452380Y-87000000D02*
X123452380Y-87000000D01*
X123595238Y-87095238D01*
X123690476Y-87190476D01*
X123738095Y-87285714D01*
%TO.C,C10*%
X134357142Y-87857142D02*
X134309523Y-87904761D01*
X134166666Y-87952380D01*
X134071428Y-87952380D01*
X133928571Y-87904761D01*
X133833333Y-87809523D01*
X133785714Y-87714285D01*
X133738095Y-87523809D01*
X133738095Y-87380952D01*
X133785714Y-87190476D01*
X133833333Y-87095238D01*
X133928571Y-87000000D01*
X134071428Y-86952380D01*
X134166666Y-86952380D01*
X134309523Y-87000000D01*
X134357142Y-87047619D01*
X135309523Y-87952380D02*
X134738095Y-87952380D01*
X135023809Y-87952380D02*
X135023809Y-86952380D01*
X134928571Y-87095238D01*
X134833333Y-87190476D01*
X134738095Y-87238095D01*
X135928571Y-86952380D02*
X136023809Y-86952380D01*
X136119047Y-87000000D01*
X136166666Y-87047619D01*
X136214285Y-87142857D01*
X136261904Y-87333333D01*
X136261904Y-87571428D01*
X136214285Y-87761904D01*
X136166666Y-87857142D01*
X136119047Y-87904761D01*
X136023809Y-87952380D01*
X135928571Y-87952380D01*
X135833333Y-87904761D01*
X135785714Y-87857142D01*
X135738095Y-87761904D01*
X135690476Y-87571428D01*
X135690476Y-87333333D01*
X135738095Y-87142857D01*
X135785714Y-87047619D01*
X135833333Y-87000000D01*
X135928571Y-86952380D01*
%TO.C,C4*%
X148837142Y-77636666D02*
X148884761Y-77684285D01*
X148932380Y-77827142D01*
X148932380Y-77922380D01*
X148884761Y-78065238D01*
X148789523Y-78160476D01*
X148694285Y-78208095D01*
X148503809Y-78255714D01*
X148360952Y-78255714D01*
X148170476Y-78208095D01*
X148075238Y-78160476D01*
X147980000Y-78065238D01*
X147932380Y-77922380D01*
X147932380Y-77827142D01*
X147980000Y-77684285D01*
X148027619Y-77636666D01*
X148265714Y-76779523D02*
X148932380Y-76779523D01*
X147884761Y-77017619D02*
X148599047Y-77255714D01*
X148599047Y-76636666D01*
%TO.C,C3*%
X142708333Y-74017142D02*
X142660714Y-74064761D01*
X142517857Y-74112380D01*
X142422619Y-74112380D01*
X142279761Y-74064761D01*
X142184523Y-73969523D01*
X142136904Y-73874285D01*
X142089285Y-73683809D01*
X142089285Y-73540952D01*
X142136904Y-73350476D01*
X142184523Y-73255238D01*
X142279761Y-73160000D01*
X142422619Y-73112380D01*
X142517857Y-73112380D01*
X142660714Y-73160000D01*
X142708333Y-73207619D01*
X143041666Y-73112380D02*
X143660714Y-73112380D01*
X143327380Y-73493333D01*
X143470238Y-73493333D01*
X143565476Y-73540952D01*
X143613095Y-73588571D01*
X143660714Y-73683809D01*
X143660714Y-73921904D01*
X143613095Y-74017142D01*
X143565476Y-74064761D01*
X143470238Y-74112380D01*
X143184523Y-74112380D01*
X143089285Y-74064761D01*
X143041666Y-74017142D01*
%TO.C,C2*%
X142597142Y-82424166D02*
X142644761Y-82471785D01*
X142692380Y-82614642D01*
X142692380Y-82709880D01*
X142644761Y-82852738D01*
X142549523Y-82947976D01*
X142454285Y-82995595D01*
X142263809Y-83043214D01*
X142120952Y-83043214D01*
X141930476Y-82995595D01*
X141835238Y-82947976D01*
X141740000Y-82852738D01*
X141692380Y-82709880D01*
X141692380Y-82614642D01*
X141740000Y-82471785D01*
X141787619Y-82424166D01*
X141787619Y-82043214D02*
X141740000Y-81995595D01*
X141692380Y-81900357D01*
X141692380Y-81662261D01*
X141740000Y-81567023D01*
X141787619Y-81519404D01*
X141882857Y-81471785D01*
X141978095Y-81471785D01*
X142120952Y-81519404D01*
X142692380Y-82090833D01*
X142692380Y-81471785D01*
%TO.C,C1*%
X114133333Y-74652142D02*
X114085714Y-74699761D01*
X113942857Y-74747380D01*
X113847619Y-74747380D01*
X113704761Y-74699761D01*
X113609523Y-74604523D01*
X113561904Y-74509285D01*
X113514285Y-74318809D01*
X113514285Y-74175952D01*
X113561904Y-73985476D01*
X113609523Y-73890238D01*
X113704761Y-73795000D01*
X113847619Y-73747380D01*
X113942857Y-73747380D01*
X114085714Y-73795000D01*
X114133333Y-73842619D01*
X115085714Y-74747380D02*
X114514285Y-74747380D01*
X114800000Y-74747380D02*
X114800000Y-73747380D01*
X114704761Y-73890238D01*
X114609523Y-73985476D01*
X114514285Y-74033095D01*
%TD*%
M02*
