%TF.GenerationSoftware,KiCad,Pcbnew,5.1.10-1.fc33*%
%TF.CreationDate,2021-06-13T17:02:16+02:00*%
%TF.ProjectId,power-driver,706f7765-722d-4647-9269-7665722e6b69,rev?*%
%TF.SameCoordinates,Original*%
%TF.FileFunction,Copper,L1,Top*%
%TF.FilePolarity,Positive*%
%FSLAX46Y46*%
G04 Gerber Fmt 4.6, Leading zero omitted, Abs format (unit mm)*
G04 Created by KiCad (PCBNEW 5.1.10-1.fc33) date 2021-06-13 17:02:16*
%MOMM*%
%LPD*%
G01*
G04 APERTURE LIST*
%TA.AperFunction,ComponentPad*%
%ADD10C,6.400000*%
%TD*%
%TA.AperFunction,SMDPad,CuDef*%
%ADD11R,1.200000X0.900000*%
%TD*%
%TA.AperFunction,ComponentPad*%
%ADD12O,1.700000X1.700000*%
%TD*%
%TA.AperFunction,ComponentPad*%
%ADD13R,1.700000X1.700000*%
%TD*%
%TA.AperFunction,ComponentPad*%
%ADD14O,2.000000X1.905000*%
%TD*%
%TA.AperFunction,ComponentPad*%
%ADD15R,2.000000X1.905000*%
%TD*%
%TA.AperFunction,ComponentPad*%
%ADD16O,1.600000X1.600000*%
%TD*%
%TA.AperFunction,ComponentPad*%
%ADD17R,1.600000X1.600000*%
%TD*%
%TA.AperFunction,ComponentPad*%
%ADD18O,3.600000X2.080000*%
%TD*%
%TA.AperFunction,SMDPad,CuDef*%
%ADD19R,2.500000X2.300000*%
%TD*%
%TA.AperFunction,ComponentPad*%
%ADD20C,2.000000*%
%TD*%
%TA.AperFunction,Conductor*%
%ADD21C,0.800000*%
%TD*%
%TA.AperFunction,Conductor*%
%ADD22C,0.254000*%
%TD*%
%TA.AperFunction,Conductor*%
%ADD23C,0.100000*%
%TD*%
G04 APERTURE END LIST*
D10*
%TO.P,H4,1*%
%TO.N,N/C*%
X100330000Y-119380000D03*
%TD*%
D11*
%TO.P,D6,2*%
%TO.N,Net-(D6-Pad2)*%
X105410000Y-118490000D03*
%TO.P,D6,1*%
%TO.N,Net-(D6-Pad1)*%
X105410000Y-115190000D03*
%TD*%
%TO.P,D5,2*%
%TO.N,Net-(D5-Pad2)*%
X105410000Y-105790000D03*
%TO.P,D5,1*%
%TO.N,Net-(D5-Pad1)*%
X105410000Y-102490000D03*
%TD*%
%TO.P,D4,2*%
%TO.N,Net-(D4-Pad2)*%
X105410000Y-93090000D03*
%TO.P,D4,1*%
%TO.N,Net-(D4-Pad1)*%
X105410000Y-89790000D03*
%TD*%
D10*
%TO.P,H3,1*%
%TO.N,N/C*%
X138430000Y-119380000D03*
%TD*%
%TO.P,H2,1*%
%TO.N,N/C*%
X146050000Y-85090000D03*
%TD*%
%TO.P,H1,1*%
%TO.N,N/C*%
X100330000Y-88900000D03*
%TD*%
D12*
%TO.P,JP2,2*%
%TO.N,Net-(D3-Pad2)*%
X129540000Y-120650000D03*
D13*
%TO.P,JP2,1*%
%TO.N,Net-(D3-Pad1)*%
X127000000Y-120650000D03*
%TD*%
D12*
%TO.P,JP1,2*%
%TO.N,Net-(D2-Pad2)*%
X146050000Y-99060000D03*
D13*
%TO.P,JP1,1*%
%TO.N,Net-(D2-Pad1)*%
X143510000Y-99060000D03*
%TD*%
D12*
%TO.P,J3,4*%
%TO.N,Net-(D3-Pad2)*%
X146050000Y-115570000D03*
%TO.P,J3,3*%
%TO.N,GND*%
X146050000Y-113030000D03*
%TO.P,J3,2*%
%TO.N,Net-(C10-Pad2)*%
X146050000Y-110490000D03*
D13*
%TO.P,J3,1*%
%TO.N,Net-(D2-Pad2)*%
X146050000Y-107950000D03*
%TD*%
D12*
%TO.P,J2,6*%
%TO.N,Net-(D6-Pad2)*%
X99060000Y-110490000D03*
%TO.P,J2,5*%
%TO.N,Net-(D6-Pad1)*%
X99060000Y-107950000D03*
%TO.P,J2,4*%
%TO.N,Net-(D5-Pad2)*%
X99060000Y-105410000D03*
%TO.P,J2,3*%
%TO.N,Net-(D5-Pad1)*%
X99060000Y-102870000D03*
%TO.P,J2,2*%
%TO.N,Net-(D4-Pad2)*%
X99060000Y-100330000D03*
D13*
%TO.P,J2,1*%
%TO.N,Net-(D4-Pad1)*%
X99060000Y-97790000D03*
%TD*%
D14*
%TO.P,U1,3*%
%TO.N,+5V*%
X137160000Y-76200000D03*
%TO.P,U1,2*%
%TO.N,GND*%
X137160000Y-78740000D03*
D15*
%TO.P,U1,1*%
%TO.N,+15V*%
X137160000Y-81280000D03*
%TD*%
D16*
%TO.P,U5,14*%
%TO.N,N/C*%
X124460000Y-107950000D03*
%TO.P,U5,7*%
%TO.N,Net-(D2-Pad1)*%
X132080000Y-92710000D03*
%TO.P,U5,13*%
%TO.N,GND*%
X124460000Y-105410000D03*
%TO.P,U5,6*%
%TO.N,Net-(C10-Pad1)*%
X132080000Y-95250000D03*
%TO.P,U5,12*%
%TO.N,Net-(R3-Pad2)*%
X124460000Y-102870000D03*
%TO.P,U5,5*%
%TO.N,Net-(C10-Pad2)*%
X132080000Y-97790000D03*
%TO.P,U5,11*%
%TO.N,Net-(R2-Pad2)*%
X124460000Y-100330000D03*
%TO.P,U5,4*%
%TO.N,N/C*%
X132080000Y-100330000D03*
%TO.P,U5,10*%
%TO.N,Net-(R1-Pad2)*%
X124460000Y-97790000D03*
%TO.P,U5,3*%
%TO.N,+15V*%
X132080000Y-102870000D03*
%TO.P,U5,9*%
%TO.N,+5V*%
X124460000Y-95250000D03*
%TO.P,U5,2*%
%TO.N,GND*%
X132080000Y-105410000D03*
%TO.P,U5,8*%
%TO.N,N/C*%
X124460000Y-92710000D03*
D17*
%TO.P,U5,1*%
%TO.N,Net-(D3-Pad1)*%
X132080000Y-107950000D03*
%TD*%
D16*
%TO.P,U4,8*%
%TO.N,+5V*%
X116205000Y-113030000D03*
%TO.P,U4,4*%
%TO.N,N/C*%
X108585000Y-120650000D03*
%TO.P,U4,7*%
%TO.N,+5V*%
X116205000Y-115570000D03*
%TO.P,U4,3*%
%TO.N,Net-(D6-Pad2)*%
X108585000Y-118110000D03*
%TO.P,U4,6*%
%TO.N,Net-(R3-Pad2)*%
X116205000Y-118110000D03*
%TO.P,U4,2*%
%TO.N,Net-(D6-Pad1)*%
X108585000Y-115570000D03*
%TO.P,U4,5*%
%TO.N,GND*%
X116205000Y-120650000D03*
D17*
%TO.P,U4,1*%
%TO.N,N/C*%
X108585000Y-113030000D03*
%TD*%
D16*
%TO.P,U3,8*%
%TO.N,+5V*%
X116205000Y-100330000D03*
%TO.P,U3,4*%
%TO.N,N/C*%
X108585000Y-107950000D03*
%TO.P,U3,7*%
%TO.N,+5V*%
X116205000Y-102870000D03*
%TO.P,U3,3*%
%TO.N,Net-(D5-Pad2)*%
X108585000Y-105410000D03*
%TO.P,U3,6*%
%TO.N,Net-(R2-Pad2)*%
X116205000Y-105410000D03*
%TO.P,U3,2*%
%TO.N,Net-(D5-Pad1)*%
X108585000Y-102870000D03*
%TO.P,U3,5*%
%TO.N,GND*%
X116205000Y-107950000D03*
D17*
%TO.P,U3,1*%
%TO.N,N/C*%
X108585000Y-100330000D03*
%TD*%
D16*
%TO.P,U2,8*%
%TO.N,+5V*%
X116205000Y-87630000D03*
%TO.P,U2,4*%
%TO.N,N/C*%
X108585000Y-95250000D03*
%TO.P,U2,7*%
%TO.N,+5V*%
X116205000Y-90170000D03*
%TO.P,U2,3*%
%TO.N,Net-(D4-Pad2)*%
X108585000Y-92710000D03*
%TO.P,U2,6*%
%TO.N,Net-(R1-Pad2)*%
X116205000Y-92710000D03*
%TO.P,U2,2*%
%TO.N,Net-(D4-Pad1)*%
X108585000Y-90170000D03*
%TO.P,U2,5*%
%TO.N,GND*%
X116205000Y-95250000D03*
D17*
%TO.P,U2,1*%
%TO.N,N/C*%
X108585000Y-87630000D03*
%TD*%
%TO.P,R8,2*%
%TO.N,Net-(D3-Pad2)*%
%TA.AperFunction,SMDPad,CuDef*%
G36*
G01*
X129170000Y-117465000D02*
X129170000Y-116215000D01*
G75*
G02*
X129420000Y-115965000I250000J0D01*
G01*
X130220000Y-115965000D01*
G75*
G02*
X130470000Y-116215000I0J-250000D01*
G01*
X130470000Y-117465000D01*
G75*
G02*
X130220000Y-117715000I-250000J0D01*
G01*
X129420000Y-117715000D01*
G75*
G02*
X129170000Y-117465000I0J250000D01*
G01*
G37*
%TD.AperFunction*%
%TO.P,R8,1*%
%TO.N,Net-(D3-Pad1)*%
%TA.AperFunction,SMDPad,CuDef*%
G36*
G01*
X126070000Y-117465000D02*
X126070000Y-116215000D01*
G75*
G02*
X126320000Y-115965000I250000J0D01*
G01*
X127120000Y-115965000D01*
G75*
G02*
X127370000Y-116215000I0J-250000D01*
G01*
X127370000Y-117465000D01*
G75*
G02*
X127120000Y-117715000I-250000J0D01*
G01*
X126320000Y-117715000D01*
G75*
G02*
X126070000Y-117465000I0J250000D01*
G01*
G37*
%TD.AperFunction*%
%TD*%
%TO.P,R7,2*%
%TO.N,Net-(D2-Pad2)*%
%TA.AperFunction,SMDPad,CuDef*%
G36*
G01*
X145680000Y-95875000D02*
X145680000Y-94625000D01*
G75*
G02*
X145930000Y-94375000I250000J0D01*
G01*
X146730000Y-94375000D01*
G75*
G02*
X146980000Y-94625000I0J-250000D01*
G01*
X146980000Y-95875000D01*
G75*
G02*
X146730000Y-96125000I-250000J0D01*
G01*
X145930000Y-96125000D01*
G75*
G02*
X145680000Y-95875000I0J250000D01*
G01*
G37*
%TD.AperFunction*%
%TO.P,R7,1*%
%TO.N,Net-(D2-Pad1)*%
%TA.AperFunction,SMDPad,CuDef*%
G36*
G01*
X142580000Y-95875000D02*
X142580000Y-94625000D01*
G75*
G02*
X142830000Y-94375000I250000J0D01*
G01*
X143630000Y-94375000D01*
G75*
G02*
X143880000Y-94625000I0J-250000D01*
G01*
X143880000Y-95875000D01*
G75*
G02*
X143630000Y-96125000I-250000J0D01*
G01*
X142830000Y-96125000D01*
G75*
G02*
X142580000Y-95875000I0J250000D01*
G01*
G37*
%TD.AperFunction*%
%TD*%
%TO.P,R3,2*%
%TO.N,Net-(R3-Pad2)*%
%TA.AperFunction,SMDPad,CuDef*%
G36*
G01*
X119390000Y-115200000D02*
X120640000Y-115200000D01*
G75*
G02*
X120890000Y-115450000I0J-250000D01*
G01*
X120890000Y-116250000D01*
G75*
G02*
X120640000Y-116500000I-250000J0D01*
G01*
X119390000Y-116500000D01*
G75*
G02*
X119140000Y-116250000I0J250000D01*
G01*
X119140000Y-115450000D01*
G75*
G02*
X119390000Y-115200000I250000J0D01*
G01*
G37*
%TD.AperFunction*%
%TO.P,R3,1*%
%TO.N,+5V*%
%TA.AperFunction,SMDPad,CuDef*%
G36*
G01*
X119390000Y-112100000D02*
X120640000Y-112100000D01*
G75*
G02*
X120890000Y-112350000I0J-250000D01*
G01*
X120890000Y-113150000D01*
G75*
G02*
X120640000Y-113400000I-250000J0D01*
G01*
X119390000Y-113400000D01*
G75*
G02*
X119140000Y-113150000I0J250000D01*
G01*
X119140000Y-112350000D01*
G75*
G02*
X119390000Y-112100000I250000J0D01*
G01*
G37*
%TD.AperFunction*%
%TD*%
%TO.P,R2,2*%
%TO.N,Net-(R2-Pad2)*%
%TA.AperFunction,SMDPad,CuDef*%
G36*
G01*
X119390000Y-102780000D02*
X120640000Y-102780000D01*
G75*
G02*
X120890000Y-103030000I0J-250000D01*
G01*
X120890000Y-103830000D01*
G75*
G02*
X120640000Y-104080000I-250000J0D01*
G01*
X119390000Y-104080000D01*
G75*
G02*
X119140000Y-103830000I0J250000D01*
G01*
X119140000Y-103030000D01*
G75*
G02*
X119390000Y-102780000I250000J0D01*
G01*
G37*
%TD.AperFunction*%
%TO.P,R2,1*%
%TO.N,+5V*%
%TA.AperFunction,SMDPad,CuDef*%
G36*
G01*
X119390000Y-99680000D02*
X120640000Y-99680000D01*
G75*
G02*
X120890000Y-99930000I0J-250000D01*
G01*
X120890000Y-100730000D01*
G75*
G02*
X120640000Y-100980000I-250000J0D01*
G01*
X119390000Y-100980000D01*
G75*
G02*
X119140000Y-100730000I0J250000D01*
G01*
X119140000Y-99930000D01*
G75*
G02*
X119390000Y-99680000I250000J0D01*
G01*
G37*
%TD.AperFunction*%
%TD*%
%TO.P,R1,2*%
%TO.N,Net-(R1-Pad2)*%
%TA.AperFunction,SMDPad,CuDef*%
G36*
G01*
X119390000Y-89800000D02*
X120640000Y-89800000D01*
G75*
G02*
X120890000Y-90050000I0J-250000D01*
G01*
X120890000Y-90850000D01*
G75*
G02*
X120640000Y-91100000I-250000J0D01*
G01*
X119390000Y-91100000D01*
G75*
G02*
X119140000Y-90850000I0J250000D01*
G01*
X119140000Y-90050000D01*
G75*
G02*
X119390000Y-89800000I250000J0D01*
G01*
G37*
%TD.AperFunction*%
%TO.P,R1,1*%
%TO.N,+5V*%
%TA.AperFunction,SMDPad,CuDef*%
G36*
G01*
X119390000Y-86700000D02*
X120640000Y-86700000D01*
G75*
G02*
X120890000Y-86950000I0J-250000D01*
G01*
X120890000Y-87750000D01*
G75*
G02*
X120640000Y-88000000I-250000J0D01*
G01*
X119390000Y-88000000D01*
G75*
G02*
X119140000Y-87750000I0J250000D01*
G01*
X119140000Y-86950000D01*
G75*
G02*
X119390000Y-86700000I250000J0D01*
G01*
G37*
%TD.AperFunction*%
%TD*%
D18*
%TO.P,J1,2*%
%TO.N,GND*%
X102870000Y-76200000D03*
%TO.P,J1,1*%
%TO.N,+15V*%
%TA.AperFunction,ComponentPad*%
G36*
G01*
X104420001Y-82320000D02*
X101319999Y-82320000D01*
G75*
G02*
X101070000Y-82070001I0J249999D01*
G01*
X101070000Y-80489999D01*
G75*
G02*
X101319999Y-80240000I249999J0D01*
G01*
X104420001Y-80240000D01*
G75*
G02*
X104670000Y-80489999I0J-249999D01*
G01*
X104670000Y-82070001D01*
G75*
G02*
X104420001Y-82320000I-249999J0D01*
G01*
G37*
%TD.AperFunction*%
%TD*%
D19*
%TO.P,D3,2*%
%TO.N,Net-(D3-Pad2)*%
X130420000Y-113030000D03*
%TO.P,D3,1*%
%TO.N,Net-(D3-Pad1)*%
X126120000Y-113030000D03*
%TD*%
%TO.P,D2,2*%
%TO.N,Net-(D2-Pad2)*%
X146930000Y-91440000D03*
%TO.P,D2,1*%
%TO.N,Net-(D2-Pad1)*%
X142630000Y-91440000D03*
%TD*%
%TO.P,D1,2*%
%TO.N,+15V*%
X126120000Y-87630000D03*
%TO.P,D1,1*%
%TO.N,Net-(C10-Pad1)*%
X130420000Y-87630000D03*
%TD*%
D20*
%TO.P,C10,2*%
%TO.N,Net-(C10-Pad2)*%
X137160000Y-100170000D03*
%TO.P,C10,1*%
%TO.N,Net-(C10-Pad1)*%
X137160000Y-90170000D03*
%TD*%
%TO.P,C4,2*%
%TO.N,GND*%
%TA.AperFunction,SMDPad,CuDef*%
G36*
G01*
X144230000Y-78170000D02*
X145330000Y-78170000D01*
G75*
G02*
X145580000Y-78420000I0J-250000D01*
G01*
X145580000Y-80920000D01*
G75*
G02*
X145330000Y-81170000I-250000J0D01*
G01*
X144230000Y-81170000D01*
G75*
G02*
X143980000Y-80920000I0J250000D01*
G01*
X143980000Y-78420000D01*
G75*
G02*
X144230000Y-78170000I250000J0D01*
G01*
G37*
%TD.AperFunction*%
%TO.P,C4,1*%
%TO.N,+5V*%
%TA.AperFunction,SMDPad,CuDef*%
G36*
G01*
X144230000Y-73770000D02*
X145330000Y-73770000D01*
G75*
G02*
X145580000Y-74020000I0J-250000D01*
G01*
X145580000Y-76520000D01*
G75*
G02*
X145330000Y-76770000I-250000J0D01*
G01*
X144230000Y-76770000D01*
G75*
G02*
X143980000Y-76520000I0J250000D01*
G01*
X143980000Y-74020000D01*
G75*
G02*
X144230000Y-73770000I250000J0D01*
G01*
G37*
%TD.AperFunction*%
%TD*%
%TO.P,C3,2*%
%TO.N,GND*%
%TA.AperFunction,SMDPad,CuDef*%
G36*
G01*
X139684999Y-76807500D02*
X140985001Y-76807500D01*
G75*
G02*
X141235000Y-77057499I0J-249999D01*
G01*
X141235000Y-77882501D01*
G75*
G02*
X140985001Y-78132500I-249999J0D01*
G01*
X139684999Y-78132500D01*
G75*
G02*
X139435000Y-77882501I0J249999D01*
G01*
X139435000Y-77057499D01*
G75*
G02*
X139684999Y-76807500I249999J0D01*
G01*
G37*
%TD.AperFunction*%
%TO.P,C3,1*%
%TO.N,+5V*%
%TA.AperFunction,SMDPad,CuDef*%
G36*
G01*
X139684999Y-73682500D02*
X140985001Y-73682500D01*
G75*
G02*
X141235000Y-73932499I0J-249999D01*
G01*
X141235000Y-74757501D01*
G75*
G02*
X140985001Y-75007500I-249999J0D01*
G01*
X139684999Y-75007500D01*
G75*
G02*
X139435000Y-74757501I0J249999D01*
G01*
X139435000Y-73932499D01*
G75*
G02*
X139684999Y-73682500I249999J0D01*
G01*
G37*
%TD.AperFunction*%
%TD*%
%TO.P,C2,2*%
%TO.N,GND*%
%TA.AperFunction,SMDPad,CuDef*%
G36*
G01*
X140985001Y-81357500D02*
X139684999Y-81357500D01*
G75*
G02*
X139435000Y-81107501I0J249999D01*
G01*
X139435000Y-80282499D01*
G75*
G02*
X139684999Y-80032500I249999J0D01*
G01*
X140985001Y-80032500D01*
G75*
G02*
X141235000Y-80282499I0J-249999D01*
G01*
X141235000Y-81107501D01*
G75*
G02*
X140985001Y-81357500I-249999J0D01*
G01*
G37*
%TD.AperFunction*%
%TO.P,C2,1*%
%TO.N,+15V*%
%TA.AperFunction,SMDPad,CuDef*%
G36*
G01*
X140985001Y-84482500D02*
X139684999Y-84482500D01*
G75*
G02*
X139435000Y-84232501I0J249999D01*
G01*
X139435000Y-83407499D01*
G75*
G02*
X139684999Y-83157500I249999J0D01*
G01*
X140985001Y-83157500D01*
G75*
G02*
X141235000Y-83407499I0J-249999D01*
G01*
X141235000Y-84232501D01*
G75*
G02*
X140985001Y-84482500I-249999J0D01*
G01*
G37*
%TD.AperFunction*%
%TD*%
%TO.P,C1,2*%
%TO.N,GND*%
%TA.AperFunction,SMDPad,CuDef*%
G36*
G01*
X112310000Y-77790000D02*
X111210000Y-77790000D01*
G75*
G02*
X110960000Y-77540000I0J250000D01*
G01*
X110960000Y-74540000D01*
G75*
G02*
X111210000Y-74290000I250000J0D01*
G01*
X112310000Y-74290000D01*
G75*
G02*
X112560000Y-74540000I0J-250000D01*
G01*
X112560000Y-77540000D01*
G75*
G02*
X112310000Y-77790000I-250000J0D01*
G01*
G37*
%TD.AperFunction*%
%TO.P,C1,1*%
%TO.N,+15V*%
%TA.AperFunction,SMDPad,CuDef*%
G36*
G01*
X112310000Y-83190000D02*
X111210000Y-83190000D01*
G75*
G02*
X110960000Y-82940000I0J250000D01*
G01*
X110960000Y-79940000D01*
G75*
G02*
X111210000Y-79690000I250000J0D01*
G01*
X112310000Y-79690000D01*
G75*
G02*
X112560000Y-79940000I0J-250000D01*
G01*
X112560000Y-82940000D01*
G75*
G02*
X112310000Y-83190000I-250000J0D01*
G01*
G37*
%TD.AperFunction*%
%TD*%
D21*
%TO.N,GND*%
X103030000Y-76040000D02*
X102870000Y-76200000D01*
X111760000Y-76040000D02*
X103030000Y-76040000D01*
X140630000Y-79670000D02*
X140335000Y-79375000D01*
X144780000Y-79670000D02*
X140630000Y-79670000D01*
X140335000Y-79375000D02*
X140335000Y-80695000D01*
X139700000Y-78740000D02*
X140335000Y-78105000D01*
X140335000Y-78105000D02*
X140335000Y-79375000D01*
X140335000Y-77470000D02*
X140335000Y-78105000D01*
X139700000Y-78740000D02*
X140335000Y-79375000D01*
X137160000Y-78740000D02*
X139700000Y-78740000D01*
%TO.N,+15V*%
X140335000Y-83820000D02*
X139700000Y-83820000D01*
X137160000Y-81280000D02*
X137160000Y-82550000D01*
X137160000Y-82550000D02*
X134620000Y-85090000D01*
X134620000Y-85090000D02*
X127000000Y-85090000D01*
X126120000Y-85970000D02*
X126120000Y-87630000D01*
X127000000Y-85090000D02*
X126120000Y-85970000D01*
X111760000Y-81440000D02*
X114460000Y-81440000D01*
X114460000Y-81440000D02*
X115570000Y-82550000D01*
X115570000Y-82550000D02*
X115570000Y-83820000D01*
X115570000Y-83820000D02*
X116840000Y-85090000D01*
X125240000Y-85090000D02*
X126120000Y-85970000D01*
X116840000Y-85090000D02*
X125240000Y-85090000D01*
X103030000Y-81440000D02*
X102870000Y-81280000D01*
X111760000Y-81440000D02*
X103030000Y-81440000D01*
X126120000Y-87630000D02*
X126120000Y-88020000D01*
X126120000Y-88020000D02*
X129540000Y-91440000D01*
X129540000Y-91440000D02*
X129540000Y-101600000D01*
X130810000Y-102870000D02*
X132080000Y-102870000D01*
X129540000Y-101600000D02*
X130810000Y-102870000D01*
X138430000Y-83820000D02*
X137160000Y-82550000D01*
X140335000Y-83820000D02*
X138430000Y-83820000D01*
%TO.N,+5V*%
X116485000Y-87350000D02*
X116205000Y-87630000D01*
X120015000Y-87350000D02*
X116485000Y-87350000D01*
X116485000Y-112750000D02*
X116205000Y-113030000D01*
X120015000Y-112750000D02*
X116485000Y-112750000D01*
X120015000Y-100330000D02*
X116205000Y-100330000D01*
X139015000Y-74345000D02*
X137160000Y-76200000D01*
X140335000Y-74345000D02*
X139015000Y-74345000D01*
X143855000Y-74345000D02*
X144780000Y-75270000D01*
X140335000Y-74345000D02*
X143855000Y-74345000D01*
%TO.N,Net-(C10-Pad1)*%
X134620000Y-87630000D02*
X137160000Y-90170000D01*
X130420000Y-87630000D02*
X134620000Y-87630000D01*
%TO.N,Net-(D2-Pad2)*%
X146930000Y-94650000D02*
X146330000Y-95250000D01*
X146930000Y-91440000D02*
X146930000Y-94650000D01*
X146330000Y-98780000D02*
X146050000Y-99060000D01*
X146330000Y-95250000D02*
X146330000Y-98780000D01*
X146050000Y-99060000D02*
X146050000Y-107950000D01*
%TO.N,Net-(D2-Pad1)*%
X142630000Y-94650000D02*
X143230000Y-95250000D01*
X142630000Y-91440000D02*
X142630000Y-94650000D01*
X143230000Y-98780000D02*
X143510000Y-99060000D01*
X143230000Y-95250000D02*
X143230000Y-98780000D01*
X141360000Y-92710000D02*
X142630000Y-91440000D01*
X132080000Y-92710000D02*
X141360000Y-92710000D01*
%TO.N,Net-(D3-Pad2)*%
X130420000Y-116240000D02*
X129820000Y-116840000D01*
X130420000Y-113030000D02*
X130420000Y-116240000D01*
X129820000Y-120370000D02*
X129540000Y-120650000D01*
X129820000Y-116840000D02*
X129820000Y-120370000D01*
X146050000Y-115570000D02*
X142240000Y-115570000D01*
X139700000Y-113030000D02*
X130420000Y-113030000D01*
X142240000Y-115570000D02*
X139700000Y-113030000D01*
%TO.N,Net-(D3-Pad1)*%
X126120000Y-116240000D02*
X126720000Y-116840000D01*
X126120000Y-113030000D02*
X126120000Y-116240000D01*
X126720000Y-120370000D02*
X127000000Y-120650000D01*
X126720000Y-116840000D02*
X126720000Y-120370000D01*
X126120000Y-113030000D02*
X126120000Y-110100000D01*
X128270000Y-107950000D02*
X132080000Y-107950000D01*
X126120000Y-110100000D02*
X128270000Y-107950000D01*
%TO.N,Net-(D4-Pad2)*%
X108205000Y-93090000D02*
X108585000Y-92710000D01*
X105410000Y-93090000D02*
X108205000Y-93090000D01*
X105410000Y-95182081D02*
X105410000Y-93090000D01*
X100262081Y-100330000D02*
X105410000Y-95182081D01*
X99060000Y-100330000D02*
X100262081Y-100330000D01*
%TO.N,Net-(D4-Pad1)*%
X108205000Y-89790000D02*
X108585000Y-90170000D01*
X105410000Y-89790000D02*
X108205000Y-89790000D01*
X99060000Y-97790000D02*
X99060000Y-96520000D01*
X105410000Y-90170000D02*
X105410000Y-89790000D01*
X99060000Y-96520000D02*
X105410000Y-90170000D01*
%TO.N,Net-(D5-Pad2)*%
X108205000Y-105790000D02*
X108585000Y-105410000D01*
X105410000Y-105790000D02*
X108205000Y-105790000D01*
X99440000Y-105790000D02*
X99060000Y-105410000D01*
X105410000Y-105790000D02*
X99440000Y-105790000D01*
%TO.N,Net-(D5-Pad1)*%
X108205000Y-102490000D02*
X108585000Y-102870000D01*
X105410000Y-102490000D02*
X108205000Y-102490000D01*
X99440000Y-102490000D02*
X99060000Y-102870000D01*
X105410000Y-102490000D02*
X99440000Y-102490000D01*
%TO.N,Net-(D6-Pad2)*%
X108205000Y-118490000D02*
X108585000Y-118110000D01*
X105410000Y-118490000D02*
X108205000Y-118490000D01*
X105410000Y-118110000D02*
X99060000Y-111760000D01*
X105410000Y-118490000D02*
X105410000Y-118110000D01*
X99060000Y-111760000D02*
X99060000Y-110490000D01*
%TO.N,Net-(D6-Pad1)*%
X108205000Y-115190000D02*
X108585000Y-115570000D01*
X105410000Y-115190000D02*
X108205000Y-115190000D01*
X105410000Y-115190000D02*
X105410000Y-111760000D01*
X101600000Y-107950000D02*
X99060000Y-107950000D01*
X105410000Y-111760000D02*
X101600000Y-107950000D01*
%TO.N,Net-(R1-Pad2)*%
X117755000Y-92710000D02*
X120015000Y-90450000D01*
X116205000Y-92710000D02*
X117755000Y-92710000D01*
X123190000Y-97790000D02*
X124460000Y-97790000D01*
X118110000Y-92710000D02*
X123190000Y-97790000D01*
X117755000Y-92710000D02*
X118110000Y-92710000D01*
%TO.N,Net-(R2-Pad2)*%
X118035000Y-105410000D02*
X120015000Y-103430000D01*
X116205000Y-105410000D02*
X118035000Y-105410000D01*
X123190000Y-100330000D02*
X124460000Y-100330000D01*
X121920000Y-101600000D02*
X123190000Y-100330000D01*
X120015000Y-103430000D02*
X121920000Y-101600000D01*
%TO.N,Net-(R3-Pad2)*%
X117755000Y-118110000D02*
X120015000Y-115850000D01*
X116205000Y-118110000D02*
X117755000Y-118110000D01*
X121920000Y-109220000D02*
X121920000Y-104140000D01*
X123190000Y-110490000D02*
X121920000Y-109220000D01*
X123190000Y-114300000D02*
X123190000Y-110490000D01*
X121640000Y-115850000D02*
X123190000Y-114300000D01*
X120015000Y-115850000D02*
X121640000Y-115850000D01*
X121920000Y-104140000D02*
X123190000Y-102870000D01*
X123190000Y-102870000D02*
X124460000Y-102870000D01*
%TD*%
D22*
%TO.N,GND*%
X110508815Y-73838815D02*
X110429463Y-73935506D01*
X110370498Y-74045820D01*
X110334188Y-74165518D01*
X110321928Y-74290000D01*
X110325000Y-75754250D01*
X110483750Y-75913000D01*
X111633000Y-75913000D01*
X111633000Y-75893000D01*
X111887000Y-75893000D01*
X111887000Y-75913000D01*
X113036250Y-75913000D01*
X113195000Y-75754250D01*
X113198072Y-74290000D01*
X113185812Y-74165518D01*
X113149502Y-74045820D01*
X113090537Y-73935506D01*
X113011185Y-73838815D01*
X112948048Y-73787000D01*
X138109289Y-73787000D01*
X137283790Y-74612500D01*
X137034514Y-74612500D01*
X136801296Y-74635470D01*
X136502051Y-74726245D01*
X136226265Y-74873655D01*
X135984537Y-75072037D01*
X135786155Y-75313765D01*
X135638745Y-75589551D01*
X135547970Y-75888796D01*
X135517319Y-76200000D01*
X135547970Y-76511204D01*
X135638745Y-76810449D01*
X135786155Y-77086235D01*
X135984537Y-77327963D01*
X136163899Y-77475163D01*
X135978685Y-77630563D01*
X135784031Y-77873077D01*
X135640429Y-78148906D01*
X135569437Y-78367020D01*
X135689406Y-78613000D01*
X137033000Y-78613000D01*
X137033000Y-78593000D01*
X137287000Y-78593000D01*
X137287000Y-78613000D01*
X138630594Y-78613000D01*
X138750563Y-78367020D01*
X138679571Y-78148906D01*
X138671030Y-78132500D01*
X138796928Y-78132500D01*
X138809188Y-78256982D01*
X138845498Y-78376680D01*
X138904463Y-78486994D01*
X138983815Y-78583685D01*
X139080506Y-78663037D01*
X139190820Y-78722002D01*
X139310518Y-78758312D01*
X139435000Y-78770572D01*
X140049250Y-78767500D01*
X140208000Y-78608750D01*
X140208000Y-77597000D01*
X140462000Y-77597000D01*
X140462000Y-78608750D01*
X140620750Y-78767500D01*
X141235000Y-78770572D01*
X141359482Y-78758312D01*
X141479180Y-78722002D01*
X141589494Y-78663037D01*
X141686185Y-78583685D01*
X141765537Y-78486994D01*
X141824502Y-78376680D01*
X141860812Y-78256982D01*
X141869378Y-78170000D01*
X143341928Y-78170000D01*
X143345000Y-79384250D01*
X143503750Y-79543000D01*
X144653000Y-79543000D01*
X144653000Y-77693750D01*
X144907000Y-77693750D01*
X144907000Y-79543000D01*
X146056250Y-79543000D01*
X146215000Y-79384250D01*
X146218072Y-78170000D01*
X146205812Y-78045518D01*
X146169502Y-77925820D01*
X146110537Y-77815506D01*
X146031185Y-77718815D01*
X145934494Y-77639463D01*
X145824180Y-77580498D01*
X145704482Y-77544188D01*
X145580000Y-77531928D01*
X145065750Y-77535000D01*
X144907000Y-77693750D01*
X144653000Y-77693750D01*
X144494250Y-77535000D01*
X143980000Y-77531928D01*
X143855518Y-77544188D01*
X143735820Y-77580498D01*
X143625506Y-77639463D01*
X143528815Y-77718815D01*
X143449463Y-77815506D01*
X143390498Y-77925820D01*
X143354188Y-78045518D01*
X143341928Y-78170000D01*
X141869378Y-78170000D01*
X141873072Y-78132500D01*
X141870000Y-77755750D01*
X141711250Y-77597000D01*
X140462000Y-77597000D01*
X140208000Y-77597000D01*
X138958750Y-77597000D01*
X138800000Y-77755750D01*
X138796928Y-78132500D01*
X138671030Y-78132500D01*
X138535969Y-77873077D01*
X138341315Y-77630563D01*
X138156101Y-77475163D01*
X138335463Y-77327963D01*
X138533845Y-77086235D01*
X138681255Y-76810449D01*
X138682149Y-76807500D01*
X138796928Y-76807500D01*
X138800000Y-77184250D01*
X138958750Y-77343000D01*
X140208000Y-77343000D01*
X140208000Y-76331250D01*
X140462000Y-76331250D01*
X140462000Y-77343000D01*
X141711250Y-77343000D01*
X141870000Y-77184250D01*
X141873072Y-76807500D01*
X141860812Y-76683018D01*
X141824502Y-76563320D01*
X141765537Y-76453006D01*
X141686185Y-76356315D01*
X141589494Y-76276963D01*
X141479180Y-76217998D01*
X141359482Y-76181688D01*
X141235000Y-76169428D01*
X140620750Y-76172500D01*
X140462000Y-76331250D01*
X140208000Y-76331250D01*
X140049250Y-76172500D01*
X139435000Y-76169428D01*
X139310518Y-76181688D01*
X139190820Y-76217998D01*
X139080506Y-76276963D01*
X138983815Y-76356315D01*
X138904463Y-76453006D01*
X138845498Y-76563320D01*
X138809188Y-76683018D01*
X138796928Y-76807500D01*
X138682149Y-76807500D01*
X138772030Y-76511204D01*
X138802681Y-76200000D01*
X138786634Y-76037076D01*
X139280366Y-75543345D01*
X139345149Y-75577972D01*
X139511745Y-75628508D01*
X139684999Y-75645572D01*
X140985001Y-75645572D01*
X141158255Y-75628508D01*
X141324851Y-75577972D01*
X141478387Y-75495905D01*
X141612962Y-75385462D01*
X141617445Y-75380000D01*
X143341928Y-75380000D01*
X143341928Y-76520000D01*
X143358992Y-76693254D01*
X143409528Y-76859850D01*
X143491595Y-77013386D01*
X143602038Y-77147962D01*
X143736614Y-77258405D01*
X143890150Y-77340472D01*
X144056746Y-77391008D01*
X144230000Y-77408072D01*
X145330000Y-77408072D01*
X145503254Y-77391008D01*
X145669850Y-77340472D01*
X145823386Y-77258405D01*
X145957962Y-77147962D01*
X146068405Y-77013386D01*
X146150472Y-76859850D01*
X146201008Y-76693254D01*
X146218072Y-76520000D01*
X146218072Y-74020000D01*
X146201008Y-73846746D01*
X146182884Y-73787000D01*
X148798627Y-73787000D01*
X148875965Y-73880486D01*
X149050183Y-74202695D01*
X149098000Y-74357165D01*
X149098000Y-82748837D01*
X149028839Y-82645330D01*
X148494670Y-82111161D01*
X147866554Y-81691467D01*
X147168628Y-81402377D01*
X146427715Y-81255000D01*
X146209701Y-81255000D01*
X146218072Y-81170000D01*
X146215000Y-79955750D01*
X146056250Y-79797000D01*
X144907000Y-79797000D01*
X144907000Y-79817000D01*
X144653000Y-79817000D01*
X144653000Y-79797000D01*
X143503750Y-79797000D01*
X143345000Y-79955750D01*
X143341928Y-81170000D01*
X143354188Y-81294482D01*
X143390498Y-81414180D01*
X143449463Y-81524494D01*
X143528815Y-81621185D01*
X143625506Y-81700537D01*
X143735820Y-81759502D01*
X143855518Y-81795812D01*
X143980000Y-81808072D01*
X144059646Y-81807596D01*
X143605330Y-82111161D01*
X143071161Y-82645330D01*
X142651467Y-83273446D01*
X142362377Y-83971372D01*
X142215000Y-84712285D01*
X142215000Y-85467715D01*
X142362377Y-86208628D01*
X142651467Y-86906554D01*
X143071161Y-87534670D01*
X143605330Y-88068839D01*
X144233446Y-88488533D01*
X144931372Y-88777623D01*
X145672285Y-88925000D01*
X146427715Y-88925000D01*
X147168628Y-88777623D01*
X147866554Y-88488533D01*
X148494670Y-88068839D01*
X149028839Y-87534670D01*
X149098000Y-87431163D01*
X149098000Y-121223512D01*
X149055220Y-121365206D01*
X148883257Y-121688623D01*
X148798129Y-121793000D01*
X141430000Y-121793000D01*
X141828533Y-121196554D01*
X142117623Y-120498628D01*
X142265000Y-119757715D01*
X142265000Y-119002285D01*
X142117623Y-118261372D01*
X141828533Y-117563446D01*
X141408839Y-116935330D01*
X140874670Y-116401161D01*
X140246554Y-115981467D01*
X139548628Y-115692377D01*
X138807715Y-115545000D01*
X138052285Y-115545000D01*
X137311372Y-115692377D01*
X136613446Y-115981467D01*
X135985330Y-116401161D01*
X135451161Y-116935330D01*
X135031467Y-117563446D01*
X134742377Y-118261372D01*
X134595000Y-119002285D01*
X134595000Y-119757715D01*
X134742377Y-120498628D01*
X135031467Y-121196554D01*
X135430000Y-121793000D01*
X130497107Y-121793000D01*
X130693475Y-121596632D01*
X130855990Y-121353411D01*
X130967932Y-121083158D01*
X131025000Y-120796260D01*
X131025000Y-120503740D01*
X130967932Y-120216842D01*
X130855990Y-119946589D01*
X130855000Y-119945107D01*
X130855000Y-118084386D01*
X130958405Y-117958386D01*
X131040472Y-117804850D01*
X131091008Y-117638254D01*
X131108072Y-117465000D01*
X131108072Y-117015638D01*
X131115903Y-117007807D01*
X131155396Y-116975396D01*
X131235358Y-116877962D01*
X131284734Y-116817798D01*
X131380840Y-116637994D01*
X131380841Y-116637993D01*
X131440024Y-116442895D01*
X131455000Y-116290838D01*
X131455000Y-116290829D01*
X131460006Y-116240001D01*
X131455000Y-116189173D01*
X131455000Y-114818072D01*
X131670000Y-114818072D01*
X131794482Y-114805812D01*
X131914180Y-114769502D01*
X132024494Y-114710537D01*
X132121185Y-114631185D01*
X132200537Y-114534494D01*
X132259502Y-114424180D01*
X132295812Y-114304482D01*
X132308072Y-114180000D01*
X132308072Y-114065000D01*
X139271290Y-114065000D01*
X141472197Y-116265908D01*
X141504604Y-116305396D01*
X141544092Y-116337803D01*
X141662202Y-116434734D01*
X141755793Y-116484759D01*
X141842007Y-116530841D01*
X142037105Y-116590024D01*
X142189162Y-116605000D01*
X142189171Y-116605000D01*
X142239999Y-116610006D01*
X142290827Y-116605000D01*
X144984893Y-116605000D01*
X145103368Y-116723475D01*
X145346589Y-116885990D01*
X145616842Y-116997932D01*
X145903740Y-117055000D01*
X146196260Y-117055000D01*
X146483158Y-116997932D01*
X146753411Y-116885990D01*
X146996632Y-116723475D01*
X147203475Y-116516632D01*
X147365990Y-116273411D01*
X147477932Y-116003158D01*
X147535000Y-115716260D01*
X147535000Y-115423740D01*
X147477932Y-115136842D01*
X147365990Y-114866589D01*
X147203475Y-114623368D01*
X146996632Y-114416525D01*
X146814466Y-114294805D01*
X146931355Y-114225178D01*
X147147588Y-114030269D01*
X147321641Y-113796920D01*
X147446825Y-113534099D01*
X147491476Y-113386890D01*
X147370155Y-113157000D01*
X146177000Y-113157000D01*
X146177000Y-113177000D01*
X145923000Y-113177000D01*
X145923000Y-113157000D01*
X144729845Y-113157000D01*
X144608524Y-113386890D01*
X144653175Y-113534099D01*
X144778359Y-113796920D01*
X144952412Y-114030269D01*
X145168645Y-114225178D01*
X145285534Y-114294805D01*
X145103368Y-114416525D01*
X144984893Y-114535000D01*
X142668711Y-114535000D01*
X140467807Y-112334097D01*
X140435396Y-112294604D01*
X140277797Y-112165266D01*
X140097993Y-112069159D01*
X139902895Y-112009976D01*
X139750838Y-111995000D01*
X139750828Y-111995000D01*
X139700000Y-111989994D01*
X139649172Y-111995000D01*
X132308072Y-111995000D01*
X132308072Y-111880000D01*
X132295812Y-111755518D01*
X132259502Y-111635820D01*
X132200537Y-111525506D01*
X132121185Y-111428815D01*
X132024494Y-111349463D01*
X131914180Y-111290498D01*
X131794482Y-111254188D01*
X131670000Y-111241928D01*
X129170000Y-111241928D01*
X129045518Y-111254188D01*
X128925820Y-111290498D01*
X128815506Y-111349463D01*
X128718815Y-111428815D01*
X128639463Y-111525506D01*
X128580498Y-111635820D01*
X128544188Y-111755518D01*
X128531928Y-111880000D01*
X128531928Y-114180000D01*
X128544188Y-114304482D01*
X128580498Y-114424180D01*
X128639463Y-114534494D01*
X128718815Y-114631185D01*
X128815506Y-114710537D01*
X128925820Y-114769502D01*
X129045518Y-114805812D01*
X129170000Y-114818072D01*
X129385001Y-114818072D01*
X129385001Y-115330375D01*
X129246746Y-115343992D01*
X129080150Y-115394528D01*
X128926614Y-115476595D01*
X128792038Y-115587038D01*
X128681595Y-115721614D01*
X128599528Y-115875150D01*
X128548992Y-116041746D01*
X128531928Y-116215000D01*
X128531928Y-117465000D01*
X128548992Y-117638254D01*
X128599528Y-117804850D01*
X128681595Y-117958386D01*
X128785000Y-118084387D01*
X128785001Y-119368480D01*
X128593368Y-119496525D01*
X128461513Y-119628380D01*
X128439502Y-119555820D01*
X128380537Y-119445506D01*
X128301185Y-119348815D01*
X128204494Y-119269463D01*
X128094180Y-119210498D01*
X127974482Y-119174188D01*
X127850000Y-119161928D01*
X127755000Y-119161928D01*
X127755000Y-118084386D01*
X127858405Y-117958386D01*
X127940472Y-117804850D01*
X127991008Y-117638254D01*
X128008072Y-117465000D01*
X128008072Y-116215000D01*
X127991008Y-116041746D01*
X127940472Y-115875150D01*
X127858405Y-115721614D01*
X127747962Y-115587038D01*
X127613386Y-115476595D01*
X127459850Y-115394528D01*
X127293254Y-115343992D01*
X127155000Y-115330375D01*
X127155000Y-114818072D01*
X127370000Y-114818072D01*
X127494482Y-114805812D01*
X127614180Y-114769502D01*
X127724494Y-114710537D01*
X127821185Y-114631185D01*
X127900537Y-114534494D01*
X127959502Y-114424180D01*
X127995812Y-114304482D01*
X128008072Y-114180000D01*
X128008072Y-111880000D01*
X127995812Y-111755518D01*
X127959502Y-111635820D01*
X127900537Y-111525506D01*
X127821185Y-111428815D01*
X127724494Y-111349463D01*
X127614180Y-111290498D01*
X127494482Y-111254188D01*
X127370000Y-111241928D01*
X127155000Y-111241928D01*
X127155000Y-110528710D01*
X128698711Y-108985000D01*
X130687713Y-108985000D01*
X130690498Y-108994180D01*
X130749463Y-109104494D01*
X130828815Y-109201185D01*
X130925506Y-109280537D01*
X131035820Y-109339502D01*
X131155518Y-109375812D01*
X131280000Y-109388072D01*
X132880000Y-109388072D01*
X133004482Y-109375812D01*
X133124180Y-109339502D01*
X133234494Y-109280537D01*
X133331185Y-109201185D01*
X133410537Y-109104494D01*
X133469502Y-108994180D01*
X133505812Y-108874482D01*
X133518072Y-108750000D01*
X133518072Y-107150000D01*
X133505812Y-107025518D01*
X133469502Y-106905820D01*
X133410537Y-106795506D01*
X133331185Y-106698815D01*
X133234494Y-106619463D01*
X133124180Y-106560498D01*
X133004482Y-106524188D01*
X132979920Y-106521769D01*
X133143519Y-106373414D01*
X133311037Y-106147420D01*
X133431246Y-105893087D01*
X133471904Y-105759039D01*
X133349915Y-105537000D01*
X132207000Y-105537000D01*
X132207000Y-105557000D01*
X131953000Y-105557000D01*
X131953000Y-105537000D01*
X130810085Y-105537000D01*
X130688096Y-105759039D01*
X130728754Y-105893087D01*
X130848963Y-106147420D01*
X131016481Y-106373414D01*
X131180080Y-106521769D01*
X131155518Y-106524188D01*
X131035820Y-106560498D01*
X130925506Y-106619463D01*
X130828815Y-106698815D01*
X130749463Y-106795506D01*
X130690498Y-106905820D01*
X130687713Y-106915000D01*
X128320827Y-106915000D01*
X128269999Y-106909994D01*
X128219171Y-106915000D01*
X128219162Y-106915000D01*
X128067105Y-106929976D01*
X127872007Y-106989159D01*
X127845424Y-107003368D01*
X127692202Y-107085266D01*
X127613324Y-107150000D01*
X127534604Y-107214604D01*
X127502197Y-107254092D01*
X125424092Y-109332198D01*
X125384605Y-109364604D01*
X125352198Y-109404092D01*
X125352197Y-109404093D01*
X125255266Y-109522203D01*
X125159160Y-109702007D01*
X125099977Y-109897105D01*
X125079994Y-110100000D01*
X125085001Y-110150838D01*
X125085001Y-111241928D01*
X124870000Y-111241928D01*
X124745518Y-111254188D01*
X124625820Y-111290498D01*
X124515506Y-111349463D01*
X124418815Y-111428815D01*
X124339463Y-111525506D01*
X124280498Y-111635820D01*
X124244188Y-111755518D01*
X124231928Y-111880000D01*
X124231928Y-114180000D01*
X124244188Y-114304482D01*
X124280498Y-114424180D01*
X124339463Y-114534494D01*
X124418815Y-114631185D01*
X124515506Y-114710537D01*
X124625820Y-114769502D01*
X124745518Y-114805812D01*
X124870000Y-114818072D01*
X125085001Y-114818072D01*
X125085001Y-116189162D01*
X125079994Y-116240000D01*
X125099977Y-116442895D01*
X125159160Y-116637993D01*
X125255266Y-116817797D01*
X125352197Y-116935907D01*
X125384605Y-116975396D01*
X125424093Y-117007803D01*
X125431928Y-117015638D01*
X125431928Y-117465000D01*
X125448992Y-117638254D01*
X125499528Y-117804850D01*
X125581595Y-117958386D01*
X125685000Y-118084387D01*
X125685001Y-119365648D01*
X125619463Y-119445506D01*
X125560498Y-119555820D01*
X125524188Y-119675518D01*
X125511928Y-119800000D01*
X125511928Y-121500000D01*
X125524188Y-121624482D01*
X125560498Y-121744180D01*
X125586593Y-121793000D01*
X117070480Y-121793000D01*
X117268519Y-121613414D01*
X117436037Y-121387420D01*
X117556246Y-121133087D01*
X117596904Y-120999039D01*
X117474915Y-120777000D01*
X116332000Y-120777000D01*
X116332000Y-120797000D01*
X116078000Y-120797000D01*
X116078000Y-120777000D01*
X114935085Y-120777000D01*
X114813096Y-120999039D01*
X114853754Y-121133087D01*
X114973963Y-121387420D01*
X115141481Y-121613414D01*
X115339520Y-121793000D01*
X114427000Y-121793000D01*
X114427000Y-108299039D01*
X114813096Y-108299039D01*
X114853754Y-108433087D01*
X114973963Y-108687420D01*
X115141481Y-108913414D01*
X115349869Y-109102385D01*
X115591119Y-109247070D01*
X115855960Y-109341909D01*
X116078000Y-109220624D01*
X116078000Y-108077000D01*
X116332000Y-108077000D01*
X116332000Y-109220624D01*
X116554040Y-109341909D01*
X116818881Y-109247070D01*
X117060131Y-109102385D01*
X117268519Y-108913414D01*
X117436037Y-108687420D01*
X117556246Y-108433087D01*
X117596904Y-108299039D01*
X117474915Y-108077000D01*
X116332000Y-108077000D01*
X116078000Y-108077000D01*
X114935085Y-108077000D01*
X114813096Y-108299039D01*
X114427000Y-108299039D01*
X114427000Y-95599039D01*
X114813096Y-95599039D01*
X114853754Y-95733087D01*
X114973963Y-95987420D01*
X115141481Y-96213414D01*
X115349869Y-96402385D01*
X115591119Y-96547070D01*
X115855960Y-96641909D01*
X116078000Y-96520624D01*
X116078000Y-95377000D01*
X116332000Y-95377000D01*
X116332000Y-96520624D01*
X116554040Y-96641909D01*
X116818881Y-96547070D01*
X117060131Y-96402385D01*
X117268519Y-96213414D01*
X117436037Y-95987420D01*
X117556246Y-95733087D01*
X117596904Y-95599039D01*
X117474915Y-95377000D01*
X116332000Y-95377000D01*
X116078000Y-95377000D01*
X114935085Y-95377000D01*
X114813096Y-95599039D01*
X114427000Y-95599039D01*
X114427000Y-83820000D01*
X114424560Y-83795224D01*
X114417333Y-83771399D01*
X114405597Y-83749443D01*
X114389803Y-83730197D01*
X114370557Y-83714403D01*
X114348601Y-83702667D01*
X114324776Y-83695440D01*
X114300000Y-83693000D01*
X112776081Y-83693000D01*
X112803386Y-83678405D01*
X112937962Y-83567962D01*
X113048405Y-83433386D01*
X113130472Y-83279850D01*
X113181008Y-83113254D01*
X113198072Y-82940000D01*
X113198072Y-82475000D01*
X114031290Y-82475000D01*
X114535000Y-82978711D01*
X114535001Y-83769163D01*
X114529994Y-83820000D01*
X114549977Y-84022895D01*
X114609160Y-84217993D01*
X114705266Y-84397797D01*
X114799157Y-84512203D01*
X114834605Y-84555396D01*
X114874092Y-84587802D01*
X116072196Y-85785907D01*
X116104604Y-85825396D01*
X116144092Y-85857803D01*
X116262202Y-85954734D01*
X116358309Y-86006104D01*
X116442007Y-86050841D01*
X116637105Y-86110024D01*
X116789162Y-86125000D01*
X116789171Y-86125000D01*
X116839999Y-86130006D01*
X116890827Y-86125000D01*
X119065077Y-86125000D01*
X119050150Y-86129528D01*
X118896614Y-86211595D01*
X118770614Y-86315000D01*
X116780143Y-86315000D01*
X116623574Y-86250147D01*
X116346335Y-86195000D01*
X116063665Y-86195000D01*
X115786426Y-86250147D01*
X115525273Y-86358320D01*
X115290241Y-86515363D01*
X115090363Y-86715241D01*
X114933320Y-86950273D01*
X114825147Y-87211426D01*
X114770000Y-87488665D01*
X114770000Y-87771335D01*
X114825147Y-88048574D01*
X114933320Y-88309727D01*
X115090363Y-88544759D01*
X115290241Y-88744637D01*
X115522759Y-88900000D01*
X115290241Y-89055363D01*
X115090363Y-89255241D01*
X114933320Y-89490273D01*
X114825147Y-89751426D01*
X114770000Y-90028665D01*
X114770000Y-90311335D01*
X114825147Y-90588574D01*
X114933320Y-90849727D01*
X115090363Y-91084759D01*
X115290241Y-91284637D01*
X115522759Y-91440000D01*
X115290241Y-91595363D01*
X115090363Y-91795241D01*
X114933320Y-92030273D01*
X114825147Y-92291426D01*
X114770000Y-92568665D01*
X114770000Y-92851335D01*
X114825147Y-93128574D01*
X114933320Y-93389727D01*
X115090363Y-93624759D01*
X115290241Y-93824637D01*
X115525273Y-93981680D01*
X115535865Y-93986067D01*
X115349869Y-94097615D01*
X115141481Y-94286586D01*
X114973963Y-94512580D01*
X114853754Y-94766913D01*
X114813096Y-94900961D01*
X114935085Y-95123000D01*
X116078000Y-95123000D01*
X116078000Y-95103000D01*
X116332000Y-95103000D01*
X116332000Y-95123000D01*
X117474915Y-95123000D01*
X117596904Y-94900961D01*
X117556246Y-94766913D01*
X117436037Y-94512580D01*
X117268519Y-94286586D01*
X117060131Y-94097615D01*
X116874135Y-93986067D01*
X116884727Y-93981680D01*
X117119759Y-93824637D01*
X117199396Y-93745000D01*
X117681290Y-93745000D01*
X122422197Y-98485908D01*
X122454604Y-98525396D01*
X122494092Y-98557803D01*
X122612202Y-98654734D01*
X122705793Y-98704759D01*
X122792007Y-98750841D01*
X122987105Y-98810024D01*
X123139162Y-98825000D01*
X123139164Y-98825000D01*
X123190000Y-98830007D01*
X123240835Y-98825000D01*
X123465604Y-98825000D01*
X123545241Y-98904637D01*
X123777759Y-99060000D01*
X123545241Y-99215363D01*
X123465604Y-99295000D01*
X123240827Y-99295000D01*
X123189999Y-99289994D01*
X123139171Y-99295000D01*
X123139162Y-99295000D01*
X122987105Y-99309976D01*
X122792007Y-99369159D01*
X122765424Y-99383368D01*
X122612202Y-99465266D01*
X122578216Y-99493158D01*
X122454604Y-99594604D01*
X122422197Y-99634092D01*
X121528072Y-100528218D01*
X121528072Y-99930000D01*
X121511008Y-99756746D01*
X121460472Y-99590150D01*
X121378405Y-99436614D01*
X121267962Y-99302038D01*
X121133386Y-99191595D01*
X120979850Y-99109528D01*
X120813254Y-99058992D01*
X120640000Y-99041928D01*
X119390000Y-99041928D01*
X119216746Y-99058992D01*
X119050150Y-99109528D01*
X118896614Y-99191595D01*
X118770614Y-99295000D01*
X117199396Y-99295000D01*
X117119759Y-99215363D01*
X116884727Y-99058320D01*
X116623574Y-98950147D01*
X116346335Y-98895000D01*
X116063665Y-98895000D01*
X115786426Y-98950147D01*
X115525273Y-99058320D01*
X115290241Y-99215363D01*
X115090363Y-99415241D01*
X114933320Y-99650273D01*
X114825147Y-99911426D01*
X114770000Y-100188665D01*
X114770000Y-100471335D01*
X114825147Y-100748574D01*
X114933320Y-101009727D01*
X115090363Y-101244759D01*
X115290241Y-101444637D01*
X115522759Y-101600000D01*
X115290241Y-101755363D01*
X115090363Y-101955241D01*
X114933320Y-102190273D01*
X114825147Y-102451426D01*
X114770000Y-102728665D01*
X114770000Y-103011335D01*
X114825147Y-103288574D01*
X114933320Y-103549727D01*
X115090363Y-103784759D01*
X115290241Y-103984637D01*
X115522759Y-104140000D01*
X115290241Y-104295363D01*
X115090363Y-104495241D01*
X114933320Y-104730273D01*
X114825147Y-104991426D01*
X114770000Y-105268665D01*
X114770000Y-105551335D01*
X114825147Y-105828574D01*
X114933320Y-106089727D01*
X115090363Y-106324759D01*
X115290241Y-106524637D01*
X115525273Y-106681680D01*
X115535865Y-106686067D01*
X115349869Y-106797615D01*
X115141481Y-106986586D01*
X114973963Y-107212580D01*
X114853754Y-107466913D01*
X114813096Y-107600961D01*
X114935085Y-107823000D01*
X116078000Y-107823000D01*
X116078000Y-107803000D01*
X116332000Y-107803000D01*
X116332000Y-107823000D01*
X117474915Y-107823000D01*
X117596904Y-107600961D01*
X117556246Y-107466913D01*
X117436037Y-107212580D01*
X117268519Y-106986586D01*
X117060131Y-106797615D01*
X116874135Y-106686067D01*
X116884727Y-106681680D01*
X117119759Y-106524637D01*
X117199396Y-106445000D01*
X117984172Y-106445000D01*
X118035000Y-106450006D01*
X118085828Y-106445000D01*
X118085838Y-106445000D01*
X118237895Y-106430024D01*
X118432993Y-106370841D01*
X118612797Y-106274734D01*
X118770396Y-106145396D01*
X118802807Y-106105903D01*
X120190639Y-104718072D01*
X120640000Y-104718072D01*
X120813254Y-104701008D01*
X120885001Y-104679244D01*
X120885000Y-109169172D01*
X120879994Y-109220000D01*
X120885000Y-109270828D01*
X120885000Y-109270837D01*
X120899976Y-109422894D01*
X120959159Y-109617992D01*
X121055266Y-109797797D01*
X121184604Y-109955396D01*
X121224097Y-109987807D01*
X122155001Y-110918712D01*
X122155000Y-113871289D01*
X121232969Y-114793320D01*
X121133386Y-114711595D01*
X120979850Y-114629528D01*
X120813254Y-114578992D01*
X120640000Y-114561928D01*
X119390000Y-114561928D01*
X119216746Y-114578992D01*
X119050150Y-114629528D01*
X118896614Y-114711595D01*
X118762038Y-114822038D01*
X118651595Y-114956614D01*
X118569528Y-115110150D01*
X118518992Y-115276746D01*
X118501928Y-115450000D01*
X118501928Y-115899361D01*
X117326290Y-117075000D01*
X117199396Y-117075000D01*
X117119759Y-116995363D01*
X116887241Y-116840000D01*
X117119759Y-116684637D01*
X117319637Y-116484759D01*
X117476680Y-116249727D01*
X117584853Y-115988574D01*
X117640000Y-115711335D01*
X117640000Y-115428665D01*
X117584853Y-115151426D01*
X117476680Y-114890273D01*
X117319637Y-114655241D01*
X117119759Y-114455363D01*
X116887241Y-114300000D01*
X117119759Y-114144637D01*
X117319637Y-113944759D01*
X117426384Y-113785000D01*
X118770614Y-113785000D01*
X118896614Y-113888405D01*
X119050150Y-113970472D01*
X119216746Y-114021008D01*
X119390000Y-114038072D01*
X120640000Y-114038072D01*
X120813254Y-114021008D01*
X120979850Y-113970472D01*
X121133386Y-113888405D01*
X121267962Y-113777962D01*
X121378405Y-113643386D01*
X121460472Y-113489850D01*
X121511008Y-113323254D01*
X121528072Y-113150000D01*
X121528072Y-112350000D01*
X121511008Y-112176746D01*
X121460472Y-112010150D01*
X121378405Y-111856614D01*
X121267962Y-111722038D01*
X121133386Y-111611595D01*
X120979850Y-111529528D01*
X120813254Y-111478992D01*
X120640000Y-111461928D01*
X119390000Y-111461928D01*
X119216746Y-111478992D01*
X119050150Y-111529528D01*
X118896614Y-111611595D01*
X118770614Y-111715000D01*
X116780143Y-111715000D01*
X116623574Y-111650147D01*
X116346335Y-111595000D01*
X116063665Y-111595000D01*
X115786426Y-111650147D01*
X115525273Y-111758320D01*
X115290241Y-111915363D01*
X115090363Y-112115241D01*
X114933320Y-112350273D01*
X114825147Y-112611426D01*
X114770000Y-112888665D01*
X114770000Y-113171335D01*
X114825147Y-113448574D01*
X114933320Y-113709727D01*
X115090363Y-113944759D01*
X115290241Y-114144637D01*
X115522759Y-114300000D01*
X115290241Y-114455363D01*
X115090363Y-114655241D01*
X114933320Y-114890273D01*
X114825147Y-115151426D01*
X114770000Y-115428665D01*
X114770000Y-115711335D01*
X114825147Y-115988574D01*
X114933320Y-116249727D01*
X115090363Y-116484759D01*
X115290241Y-116684637D01*
X115522759Y-116840000D01*
X115290241Y-116995363D01*
X115090363Y-117195241D01*
X114933320Y-117430273D01*
X114825147Y-117691426D01*
X114770000Y-117968665D01*
X114770000Y-118251335D01*
X114825147Y-118528574D01*
X114933320Y-118789727D01*
X115090363Y-119024759D01*
X115290241Y-119224637D01*
X115525273Y-119381680D01*
X115535865Y-119386067D01*
X115349869Y-119497615D01*
X115141481Y-119686586D01*
X114973963Y-119912580D01*
X114853754Y-120166913D01*
X114813096Y-120300961D01*
X114935085Y-120523000D01*
X116078000Y-120523000D01*
X116078000Y-120503000D01*
X116332000Y-120503000D01*
X116332000Y-120523000D01*
X117474915Y-120523000D01*
X117596904Y-120300961D01*
X117556246Y-120166913D01*
X117436037Y-119912580D01*
X117268519Y-119686586D01*
X117060131Y-119497615D01*
X116874135Y-119386067D01*
X116884727Y-119381680D01*
X117119759Y-119224637D01*
X117199396Y-119145000D01*
X117704172Y-119145000D01*
X117755000Y-119150006D01*
X117805828Y-119145000D01*
X117805838Y-119145000D01*
X117957895Y-119130024D01*
X118152993Y-119070841D01*
X118332797Y-118974734D01*
X118490396Y-118845396D01*
X118522807Y-118805903D01*
X120190639Y-117138072D01*
X120640000Y-117138072D01*
X120813254Y-117121008D01*
X120979850Y-117070472D01*
X121133386Y-116988405D01*
X121259386Y-116885000D01*
X121589172Y-116885000D01*
X121640000Y-116890006D01*
X121690828Y-116885000D01*
X121690838Y-116885000D01*
X121842895Y-116870024D01*
X122037993Y-116810841D01*
X122217797Y-116714734D01*
X122375396Y-116585396D01*
X122407807Y-116545903D01*
X123885908Y-115067803D01*
X123925396Y-115035396D01*
X123990051Y-114956614D01*
X124054734Y-114877798D01*
X124128388Y-114740000D01*
X124150841Y-114697993D01*
X124210024Y-114502895D01*
X124225000Y-114350838D01*
X124225000Y-114350829D01*
X124230006Y-114300001D01*
X124225000Y-114249173D01*
X124225000Y-110540827D01*
X124230006Y-110489999D01*
X124225000Y-110439171D01*
X124225000Y-110439162D01*
X124210024Y-110287105D01*
X124150841Y-110092007D01*
X124056714Y-109915907D01*
X124054734Y-109912202D01*
X123957803Y-109794092D01*
X123925396Y-109754604D01*
X123885908Y-109722197D01*
X122955000Y-108791290D01*
X122955000Y-107808665D01*
X123025000Y-107808665D01*
X123025000Y-108091335D01*
X123080147Y-108368574D01*
X123188320Y-108629727D01*
X123345363Y-108864759D01*
X123545241Y-109064637D01*
X123780273Y-109221680D01*
X124041426Y-109329853D01*
X124318665Y-109385000D01*
X124601335Y-109385000D01*
X124878574Y-109329853D01*
X125139727Y-109221680D01*
X125374759Y-109064637D01*
X125574637Y-108864759D01*
X125731680Y-108629727D01*
X125839853Y-108368574D01*
X125895000Y-108091335D01*
X125895000Y-107808665D01*
X125839853Y-107531426D01*
X125731680Y-107270273D01*
X125574637Y-107035241D01*
X125374759Y-106835363D01*
X125139727Y-106678320D01*
X125129135Y-106673933D01*
X125315131Y-106562385D01*
X125523519Y-106373414D01*
X125691037Y-106147420D01*
X125811246Y-105893087D01*
X125851904Y-105759039D01*
X125729915Y-105537000D01*
X124587000Y-105537000D01*
X124587000Y-105557000D01*
X124333000Y-105557000D01*
X124333000Y-105537000D01*
X123190085Y-105537000D01*
X123068096Y-105759039D01*
X123108754Y-105893087D01*
X123228963Y-106147420D01*
X123396481Y-106373414D01*
X123604869Y-106562385D01*
X123790865Y-106673933D01*
X123780273Y-106678320D01*
X123545241Y-106835363D01*
X123345363Y-107035241D01*
X123188320Y-107270273D01*
X123080147Y-107531426D01*
X123025000Y-107808665D01*
X122955000Y-107808665D01*
X122955000Y-104568710D01*
X123542157Y-103981553D01*
X123545241Y-103984637D01*
X123780273Y-104141680D01*
X123790865Y-104146067D01*
X123604869Y-104257615D01*
X123396481Y-104446586D01*
X123228963Y-104672580D01*
X123108754Y-104926913D01*
X123068096Y-105060961D01*
X123190085Y-105283000D01*
X124333000Y-105283000D01*
X124333000Y-105263000D01*
X124587000Y-105263000D01*
X124587000Y-105283000D01*
X125729915Y-105283000D01*
X125851904Y-105060961D01*
X125811246Y-104926913D01*
X125691037Y-104672580D01*
X125523519Y-104446586D01*
X125315131Y-104257615D01*
X125129135Y-104146067D01*
X125139727Y-104141680D01*
X125374759Y-103984637D01*
X125574637Y-103784759D01*
X125731680Y-103549727D01*
X125839853Y-103288574D01*
X125895000Y-103011335D01*
X125895000Y-102728665D01*
X125839853Y-102451426D01*
X125731680Y-102190273D01*
X125574637Y-101955241D01*
X125374759Y-101755363D01*
X125142241Y-101600000D01*
X125374759Y-101444637D01*
X125574637Y-101244759D01*
X125731680Y-101009727D01*
X125839853Y-100748574D01*
X125895000Y-100471335D01*
X125895000Y-100188665D01*
X125839853Y-99911426D01*
X125731680Y-99650273D01*
X125574637Y-99415241D01*
X125374759Y-99215363D01*
X125142241Y-99060000D01*
X125374759Y-98904637D01*
X125574637Y-98704759D01*
X125731680Y-98469727D01*
X125839853Y-98208574D01*
X125895000Y-97931335D01*
X125895000Y-97648665D01*
X125839853Y-97371426D01*
X125731680Y-97110273D01*
X125574637Y-96875241D01*
X125374759Y-96675363D01*
X125142241Y-96520000D01*
X125374759Y-96364637D01*
X125574637Y-96164759D01*
X125731680Y-95929727D01*
X125839853Y-95668574D01*
X125895000Y-95391335D01*
X125895000Y-95108665D01*
X125839853Y-94831426D01*
X125731680Y-94570273D01*
X125574637Y-94335241D01*
X125374759Y-94135363D01*
X125142241Y-93980000D01*
X125374759Y-93824637D01*
X125574637Y-93624759D01*
X125731680Y-93389727D01*
X125839853Y-93128574D01*
X125895000Y-92851335D01*
X125895000Y-92568665D01*
X125839853Y-92291426D01*
X125731680Y-92030273D01*
X125574637Y-91795241D01*
X125374759Y-91595363D01*
X125139727Y-91438320D01*
X124878574Y-91330147D01*
X124601335Y-91275000D01*
X124318665Y-91275000D01*
X124041426Y-91330147D01*
X123780273Y-91438320D01*
X123545241Y-91595363D01*
X123345363Y-91795241D01*
X123188320Y-92030273D01*
X123080147Y-92291426D01*
X123025000Y-92568665D01*
X123025000Y-92851335D01*
X123080147Y-93128574D01*
X123188320Y-93389727D01*
X123345363Y-93624759D01*
X123545241Y-93824637D01*
X123777759Y-93980000D01*
X123545241Y-94135363D01*
X123345363Y-94335241D01*
X123188320Y-94570273D01*
X123080147Y-94831426D01*
X123025000Y-95108665D01*
X123025000Y-95391335D01*
X123080147Y-95668574D01*
X123188320Y-95929727D01*
X123345363Y-96164759D01*
X123545241Y-96364637D01*
X123777759Y-96520000D01*
X123545241Y-96675363D01*
X123542157Y-96678447D01*
X119396210Y-92532500D01*
X120190639Y-91738072D01*
X120640000Y-91738072D01*
X120813254Y-91721008D01*
X120979850Y-91670472D01*
X121133386Y-91588405D01*
X121267962Y-91477962D01*
X121378405Y-91343386D01*
X121460472Y-91189850D01*
X121511008Y-91023254D01*
X121528072Y-90850000D01*
X121528072Y-90050000D01*
X121511008Y-89876746D01*
X121460472Y-89710150D01*
X121378405Y-89556614D01*
X121267962Y-89422038D01*
X121133386Y-89311595D01*
X120979850Y-89229528D01*
X120813254Y-89178992D01*
X120640000Y-89161928D01*
X119390000Y-89161928D01*
X119216746Y-89178992D01*
X119050150Y-89229528D01*
X118896614Y-89311595D01*
X118762038Y-89422038D01*
X118651595Y-89556614D01*
X118569528Y-89710150D01*
X118518992Y-89876746D01*
X118501928Y-90050000D01*
X118501928Y-90499361D01*
X117326290Y-91675000D01*
X117199396Y-91675000D01*
X117119759Y-91595363D01*
X116887241Y-91440000D01*
X117119759Y-91284637D01*
X117319637Y-91084759D01*
X117476680Y-90849727D01*
X117584853Y-90588574D01*
X117640000Y-90311335D01*
X117640000Y-90028665D01*
X117584853Y-89751426D01*
X117476680Y-89490273D01*
X117319637Y-89255241D01*
X117119759Y-89055363D01*
X116887241Y-88900000D01*
X117119759Y-88744637D01*
X117319637Y-88544759D01*
X117426384Y-88385000D01*
X118770614Y-88385000D01*
X118896614Y-88488405D01*
X119050150Y-88570472D01*
X119216746Y-88621008D01*
X119390000Y-88638072D01*
X120640000Y-88638072D01*
X120813254Y-88621008D01*
X120979850Y-88570472D01*
X121133386Y-88488405D01*
X121267962Y-88377962D01*
X121378405Y-88243386D01*
X121460472Y-88089850D01*
X121511008Y-87923254D01*
X121528072Y-87750000D01*
X121528072Y-86950000D01*
X121511008Y-86776746D01*
X121460472Y-86610150D01*
X121378405Y-86456614D01*
X121267962Y-86322038D01*
X121133386Y-86211595D01*
X120979850Y-86129528D01*
X120964923Y-86125000D01*
X124339878Y-86125000D01*
X124339463Y-86125506D01*
X124280498Y-86235820D01*
X124244188Y-86355518D01*
X124231928Y-86480000D01*
X124231928Y-88780000D01*
X124244188Y-88904482D01*
X124280498Y-89024180D01*
X124339463Y-89134494D01*
X124418815Y-89231185D01*
X124515506Y-89310537D01*
X124625820Y-89369502D01*
X124745518Y-89405812D01*
X124870000Y-89418072D01*
X126054362Y-89418072D01*
X128505000Y-91868711D01*
X128505001Y-101549162D01*
X128499994Y-101600000D01*
X128519977Y-101802895D01*
X128579160Y-101997993D01*
X128675266Y-102177797D01*
X128769157Y-102292203D01*
X128804605Y-102335396D01*
X128844092Y-102367802D01*
X130042197Y-103565908D01*
X130074604Y-103605396D01*
X130114092Y-103637803D01*
X130232202Y-103734734D01*
X130325793Y-103784759D01*
X130412007Y-103830841D01*
X130607105Y-103890024D01*
X130759162Y-103905000D01*
X130759171Y-103905000D01*
X130809999Y-103910006D01*
X130860827Y-103905000D01*
X131085604Y-103905000D01*
X131165241Y-103984637D01*
X131400273Y-104141680D01*
X131410865Y-104146067D01*
X131224869Y-104257615D01*
X131016481Y-104446586D01*
X130848963Y-104672580D01*
X130728754Y-104926913D01*
X130688096Y-105060961D01*
X130810085Y-105283000D01*
X131953000Y-105283000D01*
X131953000Y-105263000D01*
X132207000Y-105263000D01*
X132207000Y-105283000D01*
X133349915Y-105283000D01*
X133471904Y-105060961D01*
X133431246Y-104926913D01*
X133311037Y-104672580D01*
X133143519Y-104446586D01*
X132935131Y-104257615D01*
X132749135Y-104146067D01*
X132759727Y-104141680D01*
X132994759Y-103984637D01*
X133194637Y-103784759D01*
X133351680Y-103549727D01*
X133459853Y-103288574D01*
X133515000Y-103011335D01*
X133515000Y-102728665D01*
X133459853Y-102451426D01*
X133351680Y-102190273D01*
X133194637Y-101955241D01*
X132994759Y-101755363D01*
X132762241Y-101600000D01*
X132994759Y-101444637D01*
X133194637Y-101244759D01*
X133351680Y-101009727D01*
X133459853Y-100748574D01*
X133515000Y-100471335D01*
X133515000Y-100188665D01*
X133479256Y-100008967D01*
X135525000Y-100008967D01*
X135525000Y-100331033D01*
X135587832Y-100646912D01*
X135711082Y-100944463D01*
X135890013Y-101212252D01*
X136117748Y-101439987D01*
X136385537Y-101618918D01*
X136683088Y-101742168D01*
X136998967Y-101805000D01*
X137321033Y-101805000D01*
X137636912Y-101742168D01*
X137934463Y-101618918D01*
X138202252Y-101439987D01*
X138429987Y-101212252D01*
X138608918Y-100944463D01*
X138732168Y-100646912D01*
X138795000Y-100331033D01*
X138795000Y-100008967D01*
X138732168Y-99693088D01*
X138608918Y-99395537D01*
X138429987Y-99127748D01*
X138202252Y-98900013D01*
X137934463Y-98721082D01*
X137636912Y-98597832D01*
X137321033Y-98535000D01*
X136998967Y-98535000D01*
X136683088Y-98597832D01*
X136385537Y-98721082D01*
X136117748Y-98900013D01*
X135890013Y-99127748D01*
X135711082Y-99395537D01*
X135587832Y-99693088D01*
X135525000Y-100008967D01*
X133479256Y-100008967D01*
X133459853Y-99911426D01*
X133351680Y-99650273D01*
X133194637Y-99415241D01*
X132994759Y-99215363D01*
X132762241Y-99060000D01*
X132994759Y-98904637D01*
X133194637Y-98704759D01*
X133351680Y-98469727D01*
X133459853Y-98208574D01*
X133515000Y-97931335D01*
X133515000Y-97648665D01*
X133459853Y-97371426D01*
X133351680Y-97110273D01*
X133194637Y-96875241D01*
X132994759Y-96675363D01*
X132762241Y-96520000D01*
X132994759Y-96364637D01*
X133194637Y-96164759D01*
X133351680Y-95929727D01*
X133459853Y-95668574D01*
X133515000Y-95391335D01*
X133515000Y-95108665D01*
X133459853Y-94831426D01*
X133351680Y-94570273D01*
X133194637Y-94335241D01*
X132994759Y-94135363D01*
X132762241Y-93980000D01*
X132994759Y-93824637D01*
X133074396Y-93745000D01*
X141309172Y-93745000D01*
X141360000Y-93750006D01*
X141410828Y-93745000D01*
X141410838Y-93745000D01*
X141562895Y-93730024D01*
X141595001Y-93720285D01*
X141595001Y-94599162D01*
X141589994Y-94650000D01*
X141609977Y-94852895D01*
X141669160Y-95047993D01*
X141765266Y-95227797D01*
X141862197Y-95345907D01*
X141894605Y-95385396D01*
X141934093Y-95417803D01*
X141941928Y-95425638D01*
X141941928Y-95875000D01*
X141958992Y-96048254D01*
X142009528Y-96214850D01*
X142091595Y-96368386D01*
X142195000Y-96494387D01*
X142195001Y-97775648D01*
X142129463Y-97855506D01*
X142070498Y-97965820D01*
X142034188Y-98085518D01*
X142021928Y-98210000D01*
X142021928Y-99910000D01*
X142034188Y-100034482D01*
X142070498Y-100154180D01*
X142129463Y-100264494D01*
X142208815Y-100361185D01*
X142305506Y-100440537D01*
X142415820Y-100499502D01*
X142535518Y-100535812D01*
X142660000Y-100548072D01*
X144360000Y-100548072D01*
X144484482Y-100535812D01*
X144604180Y-100499502D01*
X144714494Y-100440537D01*
X144811185Y-100361185D01*
X144890537Y-100264494D01*
X144949502Y-100154180D01*
X144971513Y-100081620D01*
X145015000Y-100125107D01*
X145015001Y-106492546D01*
X144955820Y-106510498D01*
X144845506Y-106569463D01*
X144748815Y-106648815D01*
X144669463Y-106745506D01*
X144610498Y-106855820D01*
X144574188Y-106975518D01*
X144561928Y-107100000D01*
X144561928Y-108800000D01*
X144574188Y-108924482D01*
X144610498Y-109044180D01*
X144669463Y-109154494D01*
X144748815Y-109251185D01*
X144845506Y-109330537D01*
X144955820Y-109389502D01*
X145028380Y-109411513D01*
X144896525Y-109543368D01*
X144734010Y-109786589D01*
X144622068Y-110056842D01*
X144565000Y-110343740D01*
X144565000Y-110636260D01*
X144622068Y-110923158D01*
X144734010Y-111193411D01*
X144896525Y-111436632D01*
X145103368Y-111643475D01*
X145285534Y-111765195D01*
X145168645Y-111834822D01*
X144952412Y-112029731D01*
X144778359Y-112263080D01*
X144653175Y-112525901D01*
X144608524Y-112673110D01*
X144729845Y-112903000D01*
X145923000Y-112903000D01*
X145923000Y-112883000D01*
X146177000Y-112883000D01*
X146177000Y-112903000D01*
X147370155Y-112903000D01*
X147491476Y-112673110D01*
X147446825Y-112525901D01*
X147321641Y-112263080D01*
X147147588Y-112029731D01*
X146931355Y-111834822D01*
X146814466Y-111765195D01*
X146996632Y-111643475D01*
X147203475Y-111436632D01*
X147365990Y-111193411D01*
X147477932Y-110923158D01*
X147535000Y-110636260D01*
X147535000Y-110343740D01*
X147477932Y-110056842D01*
X147365990Y-109786589D01*
X147203475Y-109543368D01*
X147071620Y-109411513D01*
X147144180Y-109389502D01*
X147254494Y-109330537D01*
X147351185Y-109251185D01*
X147430537Y-109154494D01*
X147489502Y-109044180D01*
X147525812Y-108924482D01*
X147538072Y-108800000D01*
X147538072Y-107100000D01*
X147525812Y-106975518D01*
X147489502Y-106855820D01*
X147430537Y-106745506D01*
X147351185Y-106648815D01*
X147254494Y-106569463D01*
X147144180Y-106510498D01*
X147085000Y-106492546D01*
X147085000Y-100125107D01*
X147203475Y-100006632D01*
X147365990Y-99763411D01*
X147477932Y-99493158D01*
X147535000Y-99206260D01*
X147535000Y-98913740D01*
X147477932Y-98626842D01*
X147365990Y-98356589D01*
X147365000Y-98355107D01*
X147365000Y-96494386D01*
X147468405Y-96368386D01*
X147550472Y-96214850D01*
X147601008Y-96048254D01*
X147618072Y-95875000D01*
X147618072Y-95425638D01*
X147625903Y-95417807D01*
X147665396Y-95385396D01*
X147743942Y-95289687D01*
X147794734Y-95227798D01*
X147890840Y-95047994D01*
X147890841Y-95047993D01*
X147950024Y-94852895D01*
X147965000Y-94700838D01*
X147965000Y-94700829D01*
X147970006Y-94650001D01*
X147965000Y-94599173D01*
X147965000Y-93228072D01*
X148180000Y-93228072D01*
X148304482Y-93215812D01*
X148424180Y-93179502D01*
X148534494Y-93120537D01*
X148631185Y-93041185D01*
X148710537Y-92944494D01*
X148769502Y-92834180D01*
X148805812Y-92714482D01*
X148818072Y-92590000D01*
X148818072Y-90290000D01*
X148805812Y-90165518D01*
X148769502Y-90045820D01*
X148710537Y-89935506D01*
X148631185Y-89838815D01*
X148534494Y-89759463D01*
X148424180Y-89700498D01*
X148304482Y-89664188D01*
X148180000Y-89651928D01*
X145680000Y-89651928D01*
X145555518Y-89664188D01*
X145435820Y-89700498D01*
X145325506Y-89759463D01*
X145228815Y-89838815D01*
X145149463Y-89935506D01*
X145090498Y-90045820D01*
X145054188Y-90165518D01*
X145041928Y-90290000D01*
X145041928Y-92590000D01*
X145054188Y-92714482D01*
X145090498Y-92834180D01*
X145149463Y-92944494D01*
X145228815Y-93041185D01*
X145325506Y-93120537D01*
X145435820Y-93179502D01*
X145555518Y-93215812D01*
X145680000Y-93228072D01*
X145895001Y-93228072D01*
X145895001Y-93740375D01*
X145756746Y-93753992D01*
X145590150Y-93804528D01*
X145436614Y-93886595D01*
X145302038Y-93997038D01*
X145191595Y-94131614D01*
X145109528Y-94285150D01*
X145058992Y-94451746D01*
X145041928Y-94625000D01*
X145041928Y-95875000D01*
X145058992Y-96048254D01*
X145109528Y-96214850D01*
X145191595Y-96368386D01*
X145295000Y-96494387D01*
X145295001Y-97778480D01*
X145103368Y-97906525D01*
X144971513Y-98038380D01*
X144949502Y-97965820D01*
X144890537Y-97855506D01*
X144811185Y-97758815D01*
X144714494Y-97679463D01*
X144604180Y-97620498D01*
X144484482Y-97584188D01*
X144360000Y-97571928D01*
X144265000Y-97571928D01*
X144265000Y-96494386D01*
X144368405Y-96368386D01*
X144450472Y-96214850D01*
X144501008Y-96048254D01*
X144518072Y-95875000D01*
X144518072Y-94625000D01*
X144501008Y-94451746D01*
X144450472Y-94285150D01*
X144368405Y-94131614D01*
X144257962Y-93997038D01*
X144123386Y-93886595D01*
X143969850Y-93804528D01*
X143803254Y-93753992D01*
X143665000Y-93740375D01*
X143665000Y-93228072D01*
X143880000Y-93228072D01*
X144004482Y-93215812D01*
X144124180Y-93179502D01*
X144234494Y-93120537D01*
X144331185Y-93041185D01*
X144410537Y-92944494D01*
X144469502Y-92834180D01*
X144505812Y-92714482D01*
X144518072Y-92590000D01*
X144518072Y-90290000D01*
X144505812Y-90165518D01*
X144469502Y-90045820D01*
X144410537Y-89935506D01*
X144331185Y-89838815D01*
X144234494Y-89759463D01*
X144124180Y-89700498D01*
X144004482Y-89664188D01*
X143880000Y-89651928D01*
X141380000Y-89651928D01*
X141255518Y-89664188D01*
X141135820Y-89700498D01*
X141025506Y-89759463D01*
X140928815Y-89838815D01*
X140849463Y-89935506D01*
X140790498Y-90045820D01*
X140754188Y-90165518D01*
X140741928Y-90290000D01*
X140741928Y-91675000D01*
X137799069Y-91675000D01*
X137934463Y-91618918D01*
X138202252Y-91439987D01*
X138429987Y-91212252D01*
X138608918Y-90944463D01*
X138732168Y-90646912D01*
X138795000Y-90331033D01*
X138795000Y-90008967D01*
X138732168Y-89693088D01*
X138608918Y-89395537D01*
X138429987Y-89127748D01*
X138202252Y-88900013D01*
X137934463Y-88721082D01*
X137636912Y-88597832D01*
X137321033Y-88535000D01*
X136998967Y-88535000D01*
X136990412Y-88536702D01*
X135387807Y-86934097D01*
X135355396Y-86894604D01*
X135197797Y-86765266D01*
X135017993Y-86669159D01*
X134822895Y-86609976D01*
X134670838Y-86595000D01*
X134670828Y-86595000D01*
X134620000Y-86589994D01*
X134569172Y-86595000D01*
X132308072Y-86595000D01*
X132308072Y-86480000D01*
X132295812Y-86355518D01*
X132259502Y-86235820D01*
X132200537Y-86125506D01*
X132200122Y-86125000D01*
X134569172Y-86125000D01*
X134620000Y-86130006D01*
X134670828Y-86125000D01*
X134670838Y-86125000D01*
X134822895Y-86110024D01*
X135017993Y-86050841D01*
X135197797Y-85954734D01*
X135355396Y-85825396D01*
X135387807Y-85785903D01*
X137160000Y-84013711D01*
X137662196Y-84515907D01*
X137694604Y-84555396D01*
X137734092Y-84587803D01*
X137852202Y-84684734D01*
X137903747Y-84712285D01*
X138032007Y-84780841D01*
X138227105Y-84840024D01*
X138379162Y-84855000D01*
X138379171Y-84855000D01*
X138429999Y-84860006D01*
X138480827Y-84855000D01*
X139052555Y-84855000D01*
X139057038Y-84860462D01*
X139191613Y-84970905D01*
X139345149Y-85052972D01*
X139511745Y-85103508D01*
X139684999Y-85120572D01*
X140985001Y-85120572D01*
X141158255Y-85103508D01*
X141324851Y-85052972D01*
X141478387Y-84970905D01*
X141612962Y-84860462D01*
X141723405Y-84725887D01*
X141805472Y-84572351D01*
X141856008Y-84405755D01*
X141873072Y-84232501D01*
X141873072Y-83407499D01*
X141856008Y-83234245D01*
X141805472Y-83067649D01*
X141723405Y-82914113D01*
X141612962Y-82779538D01*
X141478387Y-82669095D01*
X141324851Y-82587028D01*
X141158255Y-82536492D01*
X140985001Y-82519428D01*
X139684999Y-82519428D01*
X139511745Y-82536492D01*
X139345149Y-82587028D01*
X139191613Y-82669095D01*
X139057038Y-82779538D01*
X139052555Y-82785000D01*
X138858711Y-82785000D01*
X138677090Y-82603379D01*
X138690537Y-82586994D01*
X138749502Y-82476680D01*
X138785812Y-82356982D01*
X138798072Y-82232500D01*
X138798072Y-81369116D01*
X138809188Y-81481982D01*
X138845498Y-81601680D01*
X138904463Y-81711994D01*
X138983815Y-81808685D01*
X139080506Y-81888037D01*
X139190820Y-81947002D01*
X139310518Y-81983312D01*
X139435000Y-81995572D01*
X140049250Y-81992500D01*
X140208000Y-81833750D01*
X140208000Y-80822000D01*
X140462000Y-80822000D01*
X140462000Y-81833750D01*
X140620750Y-81992500D01*
X141235000Y-81995572D01*
X141359482Y-81983312D01*
X141479180Y-81947002D01*
X141589494Y-81888037D01*
X141686185Y-81808685D01*
X141765537Y-81711994D01*
X141824502Y-81601680D01*
X141860812Y-81481982D01*
X141873072Y-81357500D01*
X141870000Y-80980750D01*
X141711250Y-80822000D01*
X140462000Y-80822000D01*
X140208000Y-80822000D01*
X138958750Y-80822000D01*
X138800000Y-80980750D01*
X138798072Y-81217200D01*
X138798072Y-80327500D01*
X138785812Y-80203018D01*
X138749502Y-80083320D01*
X138722338Y-80032500D01*
X138796928Y-80032500D01*
X138800000Y-80409250D01*
X138958750Y-80568000D01*
X140208000Y-80568000D01*
X140208000Y-79556250D01*
X140462000Y-79556250D01*
X140462000Y-80568000D01*
X141711250Y-80568000D01*
X141870000Y-80409250D01*
X141873072Y-80032500D01*
X141860812Y-79908018D01*
X141824502Y-79788320D01*
X141765537Y-79678006D01*
X141686185Y-79581315D01*
X141589494Y-79501963D01*
X141479180Y-79442998D01*
X141359482Y-79406688D01*
X141235000Y-79394428D01*
X140620750Y-79397500D01*
X140462000Y-79556250D01*
X140208000Y-79556250D01*
X140049250Y-79397500D01*
X139435000Y-79394428D01*
X139310518Y-79406688D01*
X139190820Y-79442998D01*
X139080506Y-79501963D01*
X138983815Y-79581315D01*
X138904463Y-79678006D01*
X138845498Y-79788320D01*
X138809188Y-79908018D01*
X138796928Y-80032500D01*
X138722338Y-80032500D01*
X138690537Y-79973006D01*
X138611185Y-79876315D01*
X138514494Y-79796963D01*
X138422781Y-79747941D01*
X138535969Y-79606923D01*
X138679571Y-79331094D01*
X138750563Y-79112980D01*
X138630594Y-78867000D01*
X137287000Y-78867000D01*
X137287000Y-78887000D01*
X137033000Y-78887000D01*
X137033000Y-78867000D01*
X135689406Y-78867000D01*
X135569437Y-79112980D01*
X135640429Y-79331094D01*
X135784031Y-79606923D01*
X135897219Y-79747941D01*
X135805506Y-79796963D01*
X135708815Y-79876315D01*
X135629463Y-79973006D01*
X135570498Y-80083320D01*
X135534188Y-80203018D01*
X135521928Y-80327500D01*
X135521928Y-82232500D01*
X135534188Y-82356982D01*
X135570498Y-82476680D01*
X135629463Y-82586994D01*
X135642910Y-82603379D01*
X134191290Y-84055000D01*
X127050835Y-84055000D01*
X127000000Y-84049993D01*
X126949164Y-84055000D01*
X126949162Y-84055000D01*
X126797105Y-84069976D01*
X126602007Y-84129159D01*
X126518309Y-84173896D01*
X126422202Y-84225266D01*
X126304092Y-84322197D01*
X126264604Y-84354604D01*
X126232197Y-84394092D01*
X126120000Y-84506289D01*
X126007807Y-84394097D01*
X125975396Y-84354604D01*
X125817797Y-84225266D01*
X125637993Y-84129159D01*
X125442895Y-84069976D01*
X125290838Y-84055000D01*
X125290828Y-84055000D01*
X125240000Y-84049994D01*
X125189172Y-84055000D01*
X117268711Y-84055000D01*
X116605000Y-83391290D01*
X116605000Y-82600827D01*
X116610006Y-82549999D01*
X116605000Y-82499171D01*
X116605000Y-82499162D01*
X116590024Y-82347105D01*
X116530841Y-82152007D01*
X116486104Y-82068309D01*
X116434734Y-81972202D01*
X116337803Y-81854092D01*
X116305396Y-81814604D01*
X116265908Y-81782197D01*
X115227807Y-80744097D01*
X115195396Y-80704604D01*
X115037797Y-80575266D01*
X114857993Y-80479159D01*
X114662895Y-80419976D01*
X114510838Y-80405000D01*
X114510828Y-80405000D01*
X114460000Y-80399994D01*
X114409172Y-80405000D01*
X113198072Y-80405000D01*
X113198072Y-79940000D01*
X113181008Y-79766746D01*
X113130472Y-79600150D01*
X113048405Y-79446614D01*
X112937962Y-79312038D01*
X112803386Y-79201595D01*
X112649850Y-79119528D01*
X112483254Y-79068992D01*
X112310000Y-79051928D01*
X111210000Y-79051928D01*
X111036746Y-79068992D01*
X110870150Y-79119528D01*
X110716614Y-79201595D01*
X110582038Y-79312038D01*
X110471595Y-79446614D01*
X110389528Y-79600150D01*
X110338992Y-79766746D01*
X110321928Y-79940000D01*
X110321928Y-80405000D01*
X105299700Y-80405000D01*
X105291008Y-80316745D01*
X105240472Y-80150149D01*
X105158405Y-79996613D01*
X105047962Y-79862038D01*
X104913387Y-79751595D01*
X104759851Y-79669528D01*
X104593255Y-79618992D01*
X104420001Y-79601928D01*
X101319999Y-79601928D01*
X101146745Y-79618992D01*
X100980149Y-79669528D01*
X100826613Y-79751595D01*
X100692038Y-79862038D01*
X100581595Y-79996613D01*
X100499528Y-80150149D01*
X100448992Y-80316745D01*
X100431928Y-80489999D01*
X100431928Y-82070001D01*
X100448992Y-82243255D01*
X100499528Y-82409851D01*
X100581595Y-82563387D01*
X100692038Y-82697962D01*
X100826613Y-82808405D01*
X100980149Y-82890472D01*
X101146745Y-82941008D01*
X101319999Y-82958072D01*
X104420001Y-82958072D01*
X104593255Y-82941008D01*
X104759851Y-82890472D01*
X104913387Y-82808405D01*
X105047962Y-82697962D01*
X105158405Y-82563387D01*
X105205649Y-82475000D01*
X110321928Y-82475000D01*
X110321928Y-82940000D01*
X110338992Y-83113254D01*
X110389528Y-83279850D01*
X110471595Y-83433386D01*
X110582038Y-83567962D01*
X110716614Y-83678405D01*
X110743919Y-83693000D01*
X97917000Y-83693000D01*
X97917000Y-78505098D01*
X118115000Y-78505098D01*
X118115000Y-78974902D01*
X118206654Y-79435679D01*
X118386440Y-79869721D01*
X118647450Y-80260349D01*
X118979651Y-80592550D01*
X119370279Y-80853560D01*
X119804321Y-81033346D01*
X120265098Y-81125000D01*
X120734902Y-81125000D01*
X121195679Y-81033346D01*
X121629721Y-80853560D01*
X122020349Y-80592550D01*
X122352550Y-80260349D01*
X122613560Y-79869721D01*
X122793346Y-79435679D01*
X122885000Y-78974902D01*
X122885000Y-78505098D01*
X122793346Y-78044321D01*
X122613560Y-77610279D01*
X122352550Y-77219651D01*
X122020349Y-76887450D01*
X121629721Y-76626440D01*
X121195679Y-76446654D01*
X120734902Y-76355000D01*
X120265098Y-76355000D01*
X119804321Y-76446654D01*
X119370279Y-76626440D01*
X118979651Y-76887450D01*
X118647450Y-77219651D01*
X118386440Y-77610279D01*
X118206654Y-78044321D01*
X118115000Y-78505098D01*
X97917000Y-78505098D01*
X97917000Y-76586710D01*
X100480252Y-76586710D01*
X100513901Y-76723663D01*
X100646731Y-77024984D01*
X100835794Y-77294602D01*
X101073824Y-77522155D01*
X101351673Y-77698898D01*
X101658664Y-77818039D01*
X101983000Y-77875000D01*
X102743000Y-77875000D01*
X102743000Y-76327000D01*
X102997000Y-76327000D01*
X102997000Y-77875000D01*
X103757000Y-77875000D01*
X104081336Y-77818039D01*
X104153584Y-77790000D01*
X110321928Y-77790000D01*
X110334188Y-77914482D01*
X110370498Y-78034180D01*
X110429463Y-78144494D01*
X110508815Y-78241185D01*
X110605506Y-78320537D01*
X110715820Y-78379502D01*
X110835518Y-78415812D01*
X110960000Y-78428072D01*
X111474250Y-78425000D01*
X111633000Y-78266250D01*
X111633000Y-76167000D01*
X111887000Y-76167000D01*
X111887000Y-78266250D01*
X112045750Y-78425000D01*
X112560000Y-78428072D01*
X112684482Y-78415812D01*
X112804180Y-78379502D01*
X112914494Y-78320537D01*
X113011185Y-78241185D01*
X113090537Y-78144494D01*
X113149502Y-78034180D01*
X113185812Y-77914482D01*
X113198072Y-77790000D01*
X113195000Y-76325750D01*
X113036250Y-76167000D01*
X111887000Y-76167000D01*
X111633000Y-76167000D01*
X110483750Y-76167000D01*
X110325000Y-76325750D01*
X110321928Y-77790000D01*
X104153584Y-77790000D01*
X104388327Y-77698898D01*
X104666176Y-77522155D01*
X104904206Y-77294602D01*
X105093269Y-77024984D01*
X105226099Y-76723663D01*
X105259748Y-76586710D01*
X105140922Y-76327000D01*
X102997000Y-76327000D01*
X102743000Y-76327000D01*
X100599078Y-76327000D01*
X100480252Y-76586710D01*
X97917000Y-76586710D01*
X97917000Y-75813290D01*
X100480252Y-75813290D01*
X100599078Y-76073000D01*
X102743000Y-76073000D01*
X102743000Y-74525000D01*
X102997000Y-74525000D01*
X102997000Y-76073000D01*
X105140922Y-76073000D01*
X105259748Y-75813290D01*
X105226099Y-75676337D01*
X105093269Y-75375016D01*
X104904206Y-75105398D01*
X104666176Y-74877845D01*
X104388327Y-74701102D01*
X104081336Y-74581961D01*
X103757000Y-74525000D01*
X102997000Y-74525000D01*
X102743000Y-74525000D01*
X101983000Y-74525000D01*
X101658664Y-74581961D01*
X101351673Y-74701102D01*
X101073824Y-74877845D01*
X100835794Y-75105398D01*
X100646731Y-75375016D01*
X100513901Y-75676337D01*
X100480252Y-75813290D01*
X97917000Y-75813290D01*
X97917000Y-73787000D01*
X110571952Y-73787000D01*
X110508815Y-73838815D01*
%TA.AperFunction,Conductor*%
D23*
G36*
X110508815Y-73838815D02*
G01*
X110429463Y-73935506D01*
X110370498Y-74045820D01*
X110334188Y-74165518D01*
X110321928Y-74290000D01*
X110325000Y-75754250D01*
X110483750Y-75913000D01*
X111633000Y-75913000D01*
X111633000Y-75893000D01*
X111887000Y-75893000D01*
X111887000Y-75913000D01*
X113036250Y-75913000D01*
X113195000Y-75754250D01*
X113198072Y-74290000D01*
X113185812Y-74165518D01*
X113149502Y-74045820D01*
X113090537Y-73935506D01*
X113011185Y-73838815D01*
X112948048Y-73787000D01*
X138109289Y-73787000D01*
X137283790Y-74612500D01*
X137034514Y-74612500D01*
X136801296Y-74635470D01*
X136502051Y-74726245D01*
X136226265Y-74873655D01*
X135984537Y-75072037D01*
X135786155Y-75313765D01*
X135638745Y-75589551D01*
X135547970Y-75888796D01*
X135517319Y-76200000D01*
X135547970Y-76511204D01*
X135638745Y-76810449D01*
X135786155Y-77086235D01*
X135984537Y-77327963D01*
X136163899Y-77475163D01*
X135978685Y-77630563D01*
X135784031Y-77873077D01*
X135640429Y-78148906D01*
X135569437Y-78367020D01*
X135689406Y-78613000D01*
X137033000Y-78613000D01*
X137033000Y-78593000D01*
X137287000Y-78593000D01*
X137287000Y-78613000D01*
X138630594Y-78613000D01*
X138750563Y-78367020D01*
X138679571Y-78148906D01*
X138671030Y-78132500D01*
X138796928Y-78132500D01*
X138809188Y-78256982D01*
X138845498Y-78376680D01*
X138904463Y-78486994D01*
X138983815Y-78583685D01*
X139080506Y-78663037D01*
X139190820Y-78722002D01*
X139310518Y-78758312D01*
X139435000Y-78770572D01*
X140049250Y-78767500D01*
X140208000Y-78608750D01*
X140208000Y-77597000D01*
X140462000Y-77597000D01*
X140462000Y-78608750D01*
X140620750Y-78767500D01*
X141235000Y-78770572D01*
X141359482Y-78758312D01*
X141479180Y-78722002D01*
X141589494Y-78663037D01*
X141686185Y-78583685D01*
X141765537Y-78486994D01*
X141824502Y-78376680D01*
X141860812Y-78256982D01*
X141869378Y-78170000D01*
X143341928Y-78170000D01*
X143345000Y-79384250D01*
X143503750Y-79543000D01*
X144653000Y-79543000D01*
X144653000Y-77693750D01*
X144907000Y-77693750D01*
X144907000Y-79543000D01*
X146056250Y-79543000D01*
X146215000Y-79384250D01*
X146218072Y-78170000D01*
X146205812Y-78045518D01*
X146169502Y-77925820D01*
X146110537Y-77815506D01*
X146031185Y-77718815D01*
X145934494Y-77639463D01*
X145824180Y-77580498D01*
X145704482Y-77544188D01*
X145580000Y-77531928D01*
X145065750Y-77535000D01*
X144907000Y-77693750D01*
X144653000Y-77693750D01*
X144494250Y-77535000D01*
X143980000Y-77531928D01*
X143855518Y-77544188D01*
X143735820Y-77580498D01*
X143625506Y-77639463D01*
X143528815Y-77718815D01*
X143449463Y-77815506D01*
X143390498Y-77925820D01*
X143354188Y-78045518D01*
X143341928Y-78170000D01*
X141869378Y-78170000D01*
X141873072Y-78132500D01*
X141870000Y-77755750D01*
X141711250Y-77597000D01*
X140462000Y-77597000D01*
X140208000Y-77597000D01*
X138958750Y-77597000D01*
X138800000Y-77755750D01*
X138796928Y-78132500D01*
X138671030Y-78132500D01*
X138535969Y-77873077D01*
X138341315Y-77630563D01*
X138156101Y-77475163D01*
X138335463Y-77327963D01*
X138533845Y-77086235D01*
X138681255Y-76810449D01*
X138682149Y-76807500D01*
X138796928Y-76807500D01*
X138800000Y-77184250D01*
X138958750Y-77343000D01*
X140208000Y-77343000D01*
X140208000Y-76331250D01*
X140462000Y-76331250D01*
X140462000Y-77343000D01*
X141711250Y-77343000D01*
X141870000Y-77184250D01*
X141873072Y-76807500D01*
X141860812Y-76683018D01*
X141824502Y-76563320D01*
X141765537Y-76453006D01*
X141686185Y-76356315D01*
X141589494Y-76276963D01*
X141479180Y-76217998D01*
X141359482Y-76181688D01*
X141235000Y-76169428D01*
X140620750Y-76172500D01*
X140462000Y-76331250D01*
X140208000Y-76331250D01*
X140049250Y-76172500D01*
X139435000Y-76169428D01*
X139310518Y-76181688D01*
X139190820Y-76217998D01*
X139080506Y-76276963D01*
X138983815Y-76356315D01*
X138904463Y-76453006D01*
X138845498Y-76563320D01*
X138809188Y-76683018D01*
X138796928Y-76807500D01*
X138682149Y-76807500D01*
X138772030Y-76511204D01*
X138802681Y-76200000D01*
X138786634Y-76037076D01*
X139280366Y-75543345D01*
X139345149Y-75577972D01*
X139511745Y-75628508D01*
X139684999Y-75645572D01*
X140985001Y-75645572D01*
X141158255Y-75628508D01*
X141324851Y-75577972D01*
X141478387Y-75495905D01*
X141612962Y-75385462D01*
X141617445Y-75380000D01*
X143341928Y-75380000D01*
X143341928Y-76520000D01*
X143358992Y-76693254D01*
X143409528Y-76859850D01*
X143491595Y-77013386D01*
X143602038Y-77147962D01*
X143736614Y-77258405D01*
X143890150Y-77340472D01*
X144056746Y-77391008D01*
X144230000Y-77408072D01*
X145330000Y-77408072D01*
X145503254Y-77391008D01*
X145669850Y-77340472D01*
X145823386Y-77258405D01*
X145957962Y-77147962D01*
X146068405Y-77013386D01*
X146150472Y-76859850D01*
X146201008Y-76693254D01*
X146218072Y-76520000D01*
X146218072Y-74020000D01*
X146201008Y-73846746D01*
X146182884Y-73787000D01*
X148798627Y-73787000D01*
X148875965Y-73880486D01*
X149050183Y-74202695D01*
X149098000Y-74357165D01*
X149098000Y-82748837D01*
X149028839Y-82645330D01*
X148494670Y-82111161D01*
X147866554Y-81691467D01*
X147168628Y-81402377D01*
X146427715Y-81255000D01*
X146209701Y-81255000D01*
X146218072Y-81170000D01*
X146215000Y-79955750D01*
X146056250Y-79797000D01*
X144907000Y-79797000D01*
X144907000Y-79817000D01*
X144653000Y-79817000D01*
X144653000Y-79797000D01*
X143503750Y-79797000D01*
X143345000Y-79955750D01*
X143341928Y-81170000D01*
X143354188Y-81294482D01*
X143390498Y-81414180D01*
X143449463Y-81524494D01*
X143528815Y-81621185D01*
X143625506Y-81700537D01*
X143735820Y-81759502D01*
X143855518Y-81795812D01*
X143980000Y-81808072D01*
X144059646Y-81807596D01*
X143605330Y-82111161D01*
X143071161Y-82645330D01*
X142651467Y-83273446D01*
X142362377Y-83971372D01*
X142215000Y-84712285D01*
X142215000Y-85467715D01*
X142362377Y-86208628D01*
X142651467Y-86906554D01*
X143071161Y-87534670D01*
X143605330Y-88068839D01*
X144233446Y-88488533D01*
X144931372Y-88777623D01*
X145672285Y-88925000D01*
X146427715Y-88925000D01*
X147168628Y-88777623D01*
X147866554Y-88488533D01*
X148494670Y-88068839D01*
X149028839Y-87534670D01*
X149098000Y-87431163D01*
X149098000Y-121223512D01*
X149055220Y-121365206D01*
X148883257Y-121688623D01*
X148798129Y-121793000D01*
X141430000Y-121793000D01*
X141828533Y-121196554D01*
X142117623Y-120498628D01*
X142265000Y-119757715D01*
X142265000Y-119002285D01*
X142117623Y-118261372D01*
X141828533Y-117563446D01*
X141408839Y-116935330D01*
X140874670Y-116401161D01*
X140246554Y-115981467D01*
X139548628Y-115692377D01*
X138807715Y-115545000D01*
X138052285Y-115545000D01*
X137311372Y-115692377D01*
X136613446Y-115981467D01*
X135985330Y-116401161D01*
X135451161Y-116935330D01*
X135031467Y-117563446D01*
X134742377Y-118261372D01*
X134595000Y-119002285D01*
X134595000Y-119757715D01*
X134742377Y-120498628D01*
X135031467Y-121196554D01*
X135430000Y-121793000D01*
X130497107Y-121793000D01*
X130693475Y-121596632D01*
X130855990Y-121353411D01*
X130967932Y-121083158D01*
X131025000Y-120796260D01*
X131025000Y-120503740D01*
X130967932Y-120216842D01*
X130855990Y-119946589D01*
X130855000Y-119945107D01*
X130855000Y-118084386D01*
X130958405Y-117958386D01*
X131040472Y-117804850D01*
X131091008Y-117638254D01*
X131108072Y-117465000D01*
X131108072Y-117015638D01*
X131115903Y-117007807D01*
X131155396Y-116975396D01*
X131235358Y-116877962D01*
X131284734Y-116817798D01*
X131380840Y-116637994D01*
X131380841Y-116637993D01*
X131440024Y-116442895D01*
X131455000Y-116290838D01*
X131455000Y-116290829D01*
X131460006Y-116240001D01*
X131455000Y-116189173D01*
X131455000Y-114818072D01*
X131670000Y-114818072D01*
X131794482Y-114805812D01*
X131914180Y-114769502D01*
X132024494Y-114710537D01*
X132121185Y-114631185D01*
X132200537Y-114534494D01*
X132259502Y-114424180D01*
X132295812Y-114304482D01*
X132308072Y-114180000D01*
X132308072Y-114065000D01*
X139271290Y-114065000D01*
X141472197Y-116265908D01*
X141504604Y-116305396D01*
X141544092Y-116337803D01*
X141662202Y-116434734D01*
X141755793Y-116484759D01*
X141842007Y-116530841D01*
X142037105Y-116590024D01*
X142189162Y-116605000D01*
X142189171Y-116605000D01*
X142239999Y-116610006D01*
X142290827Y-116605000D01*
X144984893Y-116605000D01*
X145103368Y-116723475D01*
X145346589Y-116885990D01*
X145616842Y-116997932D01*
X145903740Y-117055000D01*
X146196260Y-117055000D01*
X146483158Y-116997932D01*
X146753411Y-116885990D01*
X146996632Y-116723475D01*
X147203475Y-116516632D01*
X147365990Y-116273411D01*
X147477932Y-116003158D01*
X147535000Y-115716260D01*
X147535000Y-115423740D01*
X147477932Y-115136842D01*
X147365990Y-114866589D01*
X147203475Y-114623368D01*
X146996632Y-114416525D01*
X146814466Y-114294805D01*
X146931355Y-114225178D01*
X147147588Y-114030269D01*
X147321641Y-113796920D01*
X147446825Y-113534099D01*
X147491476Y-113386890D01*
X147370155Y-113157000D01*
X146177000Y-113157000D01*
X146177000Y-113177000D01*
X145923000Y-113177000D01*
X145923000Y-113157000D01*
X144729845Y-113157000D01*
X144608524Y-113386890D01*
X144653175Y-113534099D01*
X144778359Y-113796920D01*
X144952412Y-114030269D01*
X145168645Y-114225178D01*
X145285534Y-114294805D01*
X145103368Y-114416525D01*
X144984893Y-114535000D01*
X142668711Y-114535000D01*
X140467807Y-112334097D01*
X140435396Y-112294604D01*
X140277797Y-112165266D01*
X140097993Y-112069159D01*
X139902895Y-112009976D01*
X139750838Y-111995000D01*
X139750828Y-111995000D01*
X139700000Y-111989994D01*
X139649172Y-111995000D01*
X132308072Y-111995000D01*
X132308072Y-111880000D01*
X132295812Y-111755518D01*
X132259502Y-111635820D01*
X132200537Y-111525506D01*
X132121185Y-111428815D01*
X132024494Y-111349463D01*
X131914180Y-111290498D01*
X131794482Y-111254188D01*
X131670000Y-111241928D01*
X129170000Y-111241928D01*
X129045518Y-111254188D01*
X128925820Y-111290498D01*
X128815506Y-111349463D01*
X128718815Y-111428815D01*
X128639463Y-111525506D01*
X128580498Y-111635820D01*
X128544188Y-111755518D01*
X128531928Y-111880000D01*
X128531928Y-114180000D01*
X128544188Y-114304482D01*
X128580498Y-114424180D01*
X128639463Y-114534494D01*
X128718815Y-114631185D01*
X128815506Y-114710537D01*
X128925820Y-114769502D01*
X129045518Y-114805812D01*
X129170000Y-114818072D01*
X129385001Y-114818072D01*
X129385001Y-115330375D01*
X129246746Y-115343992D01*
X129080150Y-115394528D01*
X128926614Y-115476595D01*
X128792038Y-115587038D01*
X128681595Y-115721614D01*
X128599528Y-115875150D01*
X128548992Y-116041746D01*
X128531928Y-116215000D01*
X128531928Y-117465000D01*
X128548992Y-117638254D01*
X128599528Y-117804850D01*
X128681595Y-117958386D01*
X128785000Y-118084387D01*
X128785001Y-119368480D01*
X128593368Y-119496525D01*
X128461513Y-119628380D01*
X128439502Y-119555820D01*
X128380537Y-119445506D01*
X128301185Y-119348815D01*
X128204494Y-119269463D01*
X128094180Y-119210498D01*
X127974482Y-119174188D01*
X127850000Y-119161928D01*
X127755000Y-119161928D01*
X127755000Y-118084386D01*
X127858405Y-117958386D01*
X127940472Y-117804850D01*
X127991008Y-117638254D01*
X128008072Y-117465000D01*
X128008072Y-116215000D01*
X127991008Y-116041746D01*
X127940472Y-115875150D01*
X127858405Y-115721614D01*
X127747962Y-115587038D01*
X127613386Y-115476595D01*
X127459850Y-115394528D01*
X127293254Y-115343992D01*
X127155000Y-115330375D01*
X127155000Y-114818072D01*
X127370000Y-114818072D01*
X127494482Y-114805812D01*
X127614180Y-114769502D01*
X127724494Y-114710537D01*
X127821185Y-114631185D01*
X127900537Y-114534494D01*
X127959502Y-114424180D01*
X127995812Y-114304482D01*
X128008072Y-114180000D01*
X128008072Y-111880000D01*
X127995812Y-111755518D01*
X127959502Y-111635820D01*
X127900537Y-111525506D01*
X127821185Y-111428815D01*
X127724494Y-111349463D01*
X127614180Y-111290498D01*
X127494482Y-111254188D01*
X127370000Y-111241928D01*
X127155000Y-111241928D01*
X127155000Y-110528710D01*
X128698711Y-108985000D01*
X130687713Y-108985000D01*
X130690498Y-108994180D01*
X130749463Y-109104494D01*
X130828815Y-109201185D01*
X130925506Y-109280537D01*
X131035820Y-109339502D01*
X131155518Y-109375812D01*
X131280000Y-109388072D01*
X132880000Y-109388072D01*
X133004482Y-109375812D01*
X133124180Y-109339502D01*
X133234494Y-109280537D01*
X133331185Y-109201185D01*
X133410537Y-109104494D01*
X133469502Y-108994180D01*
X133505812Y-108874482D01*
X133518072Y-108750000D01*
X133518072Y-107150000D01*
X133505812Y-107025518D01*
X133469502Y-106905820D01*
X133410537Y-106795506D01*
X133331185Y-106698815D01*
X133234494Y-106619463D01*
X133124180Y-106560498D01*
X133004482Y-106524188D01*
X132979920Y-106521769D01*
X133143519Y-106373414D01*
X133311037Y-106147420D01*
X133431246Y-105893087D01*
X133471904Y-105759039D01*
X133349915Y-105537000D01*
X132207000Y-105537000D01*
X132207000Y-105557000D01*
X131953000Y-105557000D01*
X131953000Y-105537000D01*
X130810085Y-105537000D01*
X130688096Y-105759039D01*
X130728754Y-105893087D01*
X130848963Y-106147420D01*
X131016481Y-106373414D01*
X131180080Y-106521769D01*
X131155518Y-106524188D01*
X131035820Y-106560498D01*
X130925506Y-106619463D01*
X130828815Y-106698815D01*
X130749463Y-106795506D01*
X130690498Y-106905820D01*
X130687713Y-106915000D01*
X128320827Y-106915000D01*
X128269999Y-106909994D01*
X128219171Y-106915000D01*
X128219162Y-106915000D01*
X128067105Y-106929976D01*
X127872007Y-106989159D01*
X127845424Y-107003368D01*
X127692202Y-107085266D01*
X127613324Y-107150000D01*
X127534604Y-107214604D01*
X127502197Y-107254092D01*
X125424092Y-109332198D01*
X125384605Y-109364604D01*
X125352198Y-109404092D01*
X125352197Y-109404093D01*
X125255266Y-109522203D01*
X125159160Y-109702007D01*
X125099977Y-109897105D01*
X125079994Y-110100000D01*
X125085001Y-110150838D01*
X125085001Y-111241928D01*
X124870000Y-111241928D01*
X124745518Y-111254188D01*
X124625820Y-111290498D01*
X124515506Y-111349463D01*
X124418815Y-111428815D01*
X124339463Y-111525506D01*
X124280498Y-111635820D01*
X124244188Y-111755518D01*
X124231928Y-111880000D01*
X124231928Y-114180000D01*
X124244188Y-114304482D01*
X124280498Y-114424180D01*
X124339463Y-114534494D01*
X124418815Y-114631185D01*
X124515506Y-114710537D01*
X124625820Y-114769502D01*
X124745518Y-114805812D01*
X124870000Y-114818072D01*
X125085001Y-114818072D01*
X125085001Y-116189162D01*
X125079994Y-116240000D01*
X125099977Y-116442895D01*
X125159160Y-116637993D01*
X125255266Y-116817797D01*
X125352197Y-116935907D01*
X125384605Y-116975396D01*
X125424093Y-117007803D01*
X125431928Y-117015638D01*
X125431928Y-117465000D01*
X125448992Y-117638254D01*
X125499528Y-117804850D01*
X125581595Y-117958386D01*
X125685000Y-118084387D01*
X125685001Y-119365648D01*
X125619463Y-119445506D01*
X125560498Y-119555820D01*
X125524188Y-119675518D01*
X125511928Y-119800000D01*
X125511928Y-121500000D01*
X125524188Y-121624482D01*
X125560498Y-121744180D01*
X125586593Y-121793000D01*
X117070480Y-121793000D01*
X117268519Y-121613414D01*
X117436037Y-121387420D01*
X117556246Y-121133087D01*
X117596904Y-120999039D01*
X117474915Y-120777000D01*
X116332000Y-120777000D01*
X116332000Y-120797000D01*
X116078000Y-120797000D01*
X116078000Y-120777000D01*
X114935085Y-120777000D01*
X114813096Y-120999039D01*
X114853754Y-121133087D01*
X114973963Y-121387420D01*
X115141481Y-121613414D01*
X115339520Y-121793000D01*
X114427000Y-121793000D01*
X114427000Y-108299039D01*
X114813096Y-108299039D01*
X114853754Y-108433087D01*
X114973963Y-108687420D01*
X115141481Y-108913414D01*
X115349869Y-109102385D01*
X115591119Y-109247070D01*
X115855960Y-109341909D01*
X116078000Y-109220624D01*
X116078000Y-108077000D01*
X116332000Y-108077000D01*
X116332000Y-109220624D01*
X116554040Y-109341909D01*
X116818881Y-109247070D01*
X117060131Y-109102385D01*
X117268519Y-108913414D01*
X117436037Y-108687420D01*
X117556246Y-108433087D01*
X117596904Y-108299039D01*
X117474915Y-108077000D01*
X116332000Y-108077000D01*
X116078000Y-108077000D01*
X114935085Y-108077000D01*
X114813096Y-108299039D01*
X114427000Y-108299039D01*
X114427000Y-95599039D01*
X114813096Y-95599039D01*
X114853754Y-95733087D01*
X114973963Y-95987420D01*
X115141481Y-96213414D01*
X115349869Y-96402385D01*
X115591119Y-96547070D01*
X115855960Y-96641909D01*
X116078000Y-96520624D01*
X116078000Y-95377000D01*
X116332000Y-95377000D01*
X116332000Y-96520624D01*
X116554040Y-96641909D01*
X116818881Y-96547070D01*
X117060131Y-96402385D01*
X117268519Y-96213414D01*
X117436037Y-95987420D01*
X117556246Y-95733087D01*
X117596904Y-95599039D01*
X117474915Y-95377000D01*
X116332000Y-95377000D01*
X116078000Y-95377000D01*
X114935085Y-95377000D01*
X114813096Y-95599039D01*
X114427000Y-95599039D01*
X114427000Y-83820000D01*
X114424560Y-83795224D01*
X114417333Y-83771399D01*
X114405597Y-83749443D01*
X114389803Y-83730197D01*
X114370557Y-83714403D01*
X114348601Y-83702667D01*
X114324776Y-83695440D01*
X114300000Y-83693000D01*
X112776081Y-83693000D01*
X112803386Y-83678405D01*
X112937962Y-83567962D01*
X113048405Y-83433386D01*
X113130472Y-83279850D01*
X113181008Y-83113254D01*
X113198072Y-82940000D01*
X113198072Y-82475000D01*
X114031290Y-82475000D01*
X114535000Y-82978711D01*
X114535001Y-83769163D01*
X114529994Y-83820000D01*
X114549977Y-84022895D01*
X114609160Y-84217993D01*
X114705266Y-84397797D01*
X114799157Y-84512203D01*
X114834605Y-84555396D01*
X114874092Y-84587802D01*
X116072196Y-85785907D01*
X116104604Y-85825396D01*
X116144092Y-85857803D01*
X116262202Y-85954734D01*
X116358309Y-86006104D01*
X116442007Y-86050841D01*
X116637105Y-86110024D01*
X116789162Y-86125000D01*
X116789171Y-86125000D01*
X116839999Y-86130006D01*
X116890827Y-86125000D01*
X119065077Y-86125000D01*
X119050150Y-86129528D01*
X118896614Y-86211595D01*
X118770614Y-86315000D01*
X116780143Y-86315000D01*
X116623574Y-86250147D01*
X116346335Y-86195000D01*
X116063665Y-86195000D01*
X115786426Y-86250147D01*
X115525273Y-86358320D01*
X115290241Y-86515363D01*
X115090363Y-86715241D01*
X114933320Y-86950273D01*
X114825147Y-87211426D01*
X114770000Y-87488665D01*
X114770000Y-87771335D01*
X114825147Y-88048574D01*
X114933320Y-88309727D01*
X115090363Y-88544759D01*
X115290241Y-88744637D01*
X115522759Y-88900000D01*
X115290241Y-89055363D01*
X115090363Y-89255241D01*
X114933320Y-89490273D01*
X114825147Y-89751426D01*
X114770000Y-90028665D01*
X114770000Y-90311335D01*
X114825147Y-90588574D01*
X114933320Y-90849727D01*
X115090363Y-91084759D01*
X115290241Y-91284637D01*
X115522759Y-91440000D01*
X115290241Y-91595363D01*
X115090363Y-91795241D01*
X114933320Y-92030273D01*
X114825147Y-92291426D01*
X114770000Y-92568665D01*
X114770000Y-92851335D01*
X114825147Y-93128574D01*
X114933320Y-93389727D01*
X115090363Y-93624759D01*
X115290241Y-93824637D01*
X115525273Y-93981680D01*
X115535865Y-93986067D01*
X115349869Y-94097615D01*
X115141481Y-94286586D01*
X114973963Y-94512580D01*
X114853754Y-94766913D01*
X114813096Y-94900961D01*
X114935085Y-95123000D01*
X116078000Y-95123000D01*
X116078000Y-95103000D01*
X116332000Y-95103000D01*
X116332000Y-95123000D01*
X117474915Y-95123000D01*
X117596904Y-94900961D01*
X117556246Y-94766913D01*
X117436037Y-94512580D01*
X117268519Y-94286586D01*
X117060131Y-94097615D01*
X116874135Y-93986067D01*
X116884727Y-93981680D01*
X117119759Y-93824637D01*
X117199396Y-93745000D01*
X117681290Y-93745000D01*
X122422197Y-98485908D01*
X122454604Y-98525396D01*
X122494092Y-98557803D01*
X122612202Y-98654734D01*
X122705793Y-98704759D01*
X122792007Y-98750841D01*
X122987105Y-98810024D01*
X123139162Y-98825000D01*
X123139164Y-98825000D01*
X123190000Y-98830007D01*
X123240835Y-98825000D01*
X123465604Y-98825000D01*
X123545241Y-98904637D01*
X123777759Y-99060000D01*
X123545241Y-99215363D01*
X123465604Y-99295000D01*
X123240827Y-99295000D01*
X123189999Y-99289994D01*
X123139171Y-99295000D01*
X123139162Y-99295000D01*
X122987105Y-99309976D01*
X122792007Y-99369159D01*
X122765424Y-99383368D01*
X122612202Y-99465266D01*
X122578216Y-99493158D01*
X122454604Y-99594604D01*
X122422197Y-99634092D01*
X121528072Y-100528218D01*
X121528072Y-99930000D01*
X121511008Y-99756746D01*
X121460472Y-99590150D01*
X121378405Y-99436614D01*
X121267962Y-99302038D01*
X121133386Y-99191595D01*
X120979850Y-99109528D01*
X120813254Y-99058992D01*
X120640000Y-99041928D01*
X119390000Y-99041928D01*
X119216746Y-99058992D01*
X119050150Y-99109528D01*
X118896614Y-99191595D01*
X118770614Y-99295000D01*
X117199396Y-99295000D01*
X117119759Y-99215363D01*
X116884727Y-99058320D01*
X116623574Y-98950147D01*
X116346335Y-98895000D01*
X116063665Y-98895000D01*
X115786426Y-98950147D01*
X115525273Y-99058320D01*
X115290241Y-99215363D01*
X115090363Y-99415241D01*
X114933320Y-99650273D01*
X114825147Y-99911426D01*
X114770000Y-100188665D01*
X114770000Y-100471335D01*
X114825147Y-100748574D01*
X114933320Y-101009727D01*
X115090363Y-101244759D01*
X115290241Y-101444637D01*
X115522759Y-101600000D01*
X115290241Y-101755363D01*
X115090363Y-101955241D01*
X114933320Y-102190273D01*
X114825147Y-102451426D01*
X114770000Y-102728665D01*
X114770000Y-103011335D01*
X114825147Y-103288574D01*
X114933320Y-103549727D01*
X115090363Y-103784759D01*
X115290241Y-103984637D01*
X115522759Y-104140000D01*
X115290241Y-104295363D01*
X115090363Y-104495241D01*
X114933320Y-104730273D01*
X114825147Y-104991426D01*
X114770000Y-105268665D01*
X114770000Y-105551335D01*
X114825147Y-105828574D01*
X114933320Y-106089727D01*
X115090363Y-106324759D01*
X115290241Y-106524637D01*
X115525273Y-106681680D01*
X115535865Y-106686067D01*
X115349869Y-106797615D01*
X115141481Y-106986586D01*
X114973963Y-107212580D01*
X114853754Y-107466913D01*
X114813096Y-107600961D01*
X114935085Y-107823000D01*
X116078000Y-107823000D01*
X116078000Y-107803000D01*
X116332000Y-107803000D01*
X116332000Y-107823000D01*
X117474915Y-107823000D01*
X117596904Y-107600961D01*
X117556246Y-107466913D01*
X117436037Y-107212580D01*
X117268519Y-106986586D01*
X117060131Y-106797615D01*
X116874135Y-106686067D01*
X116884727Y-106681680D01*
X117119759Y-106524637D01*
X117199396Y-106445000D01*
X117984172Y-106445000D01*
X118035000Y-106450006D01*
X118085828Y-106445000D01*
X118085838Y-106445000D01*
X118237895Y-106430024D01*
X118432993Y-106370841D01*
X118612797Y-106274734D01*
X118770396Y-106145396D01*
X118802807Y-106105903D01*
X120190639Y-104718072D01*
X120640000Y-104718072D01*
X120813254Y-104701008D01*
X120885001Y-104679244D01*
X120885000Y-109169172D01*
X120879994Y-109220000D01*
X120885000Y-109270828D01*
X120885000Y-109270837D01*
X120899976Y-109422894D01*
X120959159Y-109617992D01*
X121055266Y-109797797D01*
X121184604Y-109955396D01*
X121224097Y-109987807D01*
X122155001Y-110918712D01*
X122155000Y-113871289D01*
X121232969Y-114793320D01*
X121133386Y-114711595D01*
X120979850Y-114629528D01*
X120813254Y-114578992D01*
X120640000Y-114561928D01*
X119390000Y-114561928D01*
X119216746Y-114578992D01*
X119050150Y-114629528D01*
X118896614Y-114711595D01*
X118762038Y-114822038D01*
X118651595Y-114956614D01*
X118569528Y-115110150D01*
X118518992Y-115276746D01*
X118501928Y-115450000D01*
X118501928Y-115899361D01*
X117326290Y-117075000D01*
X117199396Y-117075000D01*
X117119759Y-116995363D01*
X116887241Y-116840000D01*
X117119759Y-116684637D01*
X117319637Y-116484759D01*
X117476680Y-116249727D01*
X117584853Y-115988574D01*
X117640000Y-115711335D01*
X117640000Y-115428665D01*
X117584853Y-115151426D01*
X117476680Y-114890273D01*
X117319637Y-114655241D01*
X117119759Y-114455363D01*
X116887241Y-114300000D01*
X117119759Y-114144637D01*
X117319637Y-113944759D01*
X117426384Y-113785000D01*
X118770614Y-113785000D01*
X118896614Y-113888405D01*
X119050150Y-113970472D01*
X119216746Y-114021008D01*
X119390000Y-114038072D01*
X120640000Y-114038072D01*
X120813254Y-114021008D01*
X120979850Y-113970472D01*
X121133386Y-113888405D01*
X121267962Y-113777962D01*
X121378405Y-113643386D01*
X121460472Y-113489850D01*
X121511008Y-113323254D01*
X121528072Y-113150000D01*
X121528072Y-112350000D01*
X121511008Y-112176746D01*
X121460472Y-112010150D01*
X121378405Y-111856614D01*
X121267962Y-111722038D01*
X121133386Y-111611595D01*
X120979850Y-111529528D01*
X120813254Y-111478992D01*
X120640000Y-111461928D01*
X119390000Y-111461928D01*
X119216746Y-111478992D01*
X119050150Y-111529528D01*
X118896614Y-111611595D01*
X118770614Y-111715000D01*
X116780143Y-111715000D01*
X116623574Y-111650147D01*
X116346335Y-111595000D01*
X116063665Y-111595000D01*
X115786426Y-111650147D01*
X115525273Y-111758320D01*
X115290241Y-111915363D01*
X115090363Y-112115241D01*
X114933320Y-112350273D01*
X114825147Y-112611426D01*
X114770000Y-112888665D01*
X114770000Y-113171335D01*
X114825147Y-113448574D01*
X114933320Y-113709727D01*
X115090363Y-113944759D01*
X115290241Y-114144637D01*
X115522759Y-114300000D01*
X115290241Y-114455363D01*
X115090363Y-114655241D01*
X114933320Y-114890273D01*
X114825147Y-115151426D01*
X114770000Y-115428665D01*
X114770000Y-115711335D01*
X114825147Y-115988574D01*
X114933320Y-116249727D01*
X115090363Y-116484759D01*
X115290241Y-116684637D01*
X115522759Y-116840000D01*
X115290241Y-116995363D01*
X115090363Y-117195241D01*
X114933320Y-117430273D01*
X114825147Y-117691426D01*
X114770000Y-117968665D01*
X114770000Y-118251335D01*
X114825147Y-118528574D01*
X114933320Y-118789727D01*
X115090363Y-119024759D01*
X115290241Y-119224637D01*
X115525273Y-119381680D01*
X115535865Y-119386067D01*
X115349869Y-119497615D01*
X115141481Y-119686586D01*
X114973963Y-119912580D01*
X114853754Y-120166913D01*
X114813096Y-120300961D01*
X114935085Y-120523000D01*
X116078000Y-120523000D01*
X116078000Y-120503000D01*
X116332000Y-120503000D01*
X116332000Y-120523000D01*
X117474915Y-120523000D01*
X117596904Y-120300961D01*
X117556246Y-120166913D01*
X117436037Y-119912580D01*
X117268519Y-119686586D01*
X117060131Y-119497615D01*
X116874135Y-119386067D01*
X116884727Y-119381680D01*
X117119759Y-119224637D01*
X117199396Y-119145000D01*
X117704172Y-119145000D01*
X117755000Y-119150006D01*
X117805828Y-119145000D01*
X117805838Y-119145000D01*
X117957895Y-119130024D01*
X118152993Y-119070841D01*
X118332797Y-118974734D01*
X118490396Y-118845396D01*
X118522807Y-118805903D01*
X120190639Y-117138072D01*
X120640000Y-117138072D01*
X120813254Y-117121008D01*
X120979850Y-117070472D01*
X121133386Y-116988405D01*
X121259386Y-116885000D01*
X121589172Y-116885000D01*
X121640000Y-116890006D01*
X121690828Y-116885000D01*
X121690838Y-116885000D01*
X121842895Y-116870024D01*
X122037993Y-116810841D01*
X122217797Y-116714734D01*
X122375396Y-116585396D01*
X122407807Y-116545903D01*
X123885908Y-115067803D01*
X123925396Y-115035396D01*
X123990051Y-114956614D01*
X124054734Y-114877798D01*
X124128388Y-114740000D01*
X124150841Y-114697993D01*
X124210024Y-114502895D01*
X124225000Y-114350838D01*
X124225000Y-114350829D01*
X124230006Y-114300001D01*
X124225000Y-114249173D01*
X124225000Y-110540827D01*
X124230006Y-110489999D01*
X124225000Y-110439171D01*
X124225000Y-110439162D01*
X124210024Y-110287105D01*
X124150841Y-110092007D01*
X124056714Y-109915907D01*
X124054734Y-109912202D01*
X123957803Y-109794092D01*
X123925396Y-109754604D01*
X123885908Y-109722197D01*
X122955000Y-108791290D01*
X122955000Y-107808665D01*
X123025000Y-107808665D01*
X123025000Y-108091335D01*
X123080147Y-108368574D01*
X123188320Y-108629727D01*
X123345363Y-108864759D01*
X123545241Y-109064637D01*
X123780273Y-109221680D01*
X124041426Y-109329853D01*
X124318665Y-109385000D01*
X124601335Y-109385000D01*
X124878574Y-109329853D01*
X125139727Y-109221680D01*
X125374759Y-109064637D01*
X125574637Y-108864759D01*
X125731680Y-108629727D01*
X125839853Y-108368574D01*
X125895000Y-108091335D01*
X125895000Y-107808665D01*
X125839853Y-107531426D01*
X125731680Y-107270273D01*
X125574637Y-107035241D01*
X125374759Y-106835363D01*
X125139727Y-106678320D01*
X125129135Y-106673933D01*
X125315131Y-106562385D01*
X125523519Y-106373414D01*
X125691037Y-106147420D01*
X125811246Y-105893087D01*
X125851904Y-105759039D01*
X125729915Y-105537000D01*
X124587000Y-105537000D01*
X124587000Y-105557000D01*
X124333000Y-105557000D01*
X124333000Y-105537000D01*
X123190085Y-105537000D01*
X123068096Y-105759039D01*
X123108754Y-105893087D01*
X123228963Y-106147420D01*
X123396481Y-106373414D01*
X123604869Y-106562385D01*
X123790865Y-106673933D01*
X123780273Y-106678320D01*
X123545241Y-106835363D01*
X123345363Y-107035241D01*
X123188320Y-107270273D01*
X123080147Y-107531426D01*
X123025000Y-107808665D01*
X122955000Y-107808665D01*
X122955000Y-104568710D01*
X123542157Y-103981553D01*
X123545241Y-103984637D01*
X123780273Y-104141680D01*
X123790865Y-104146067D01*
X123604869Y-104257615D01*
X123396481Y-104446586D01*
X123228963Y-104672580D01*
X123108754Y-104926913D01*
X123068096Y-105060961D01*
X123190085Y-105283000D01*
X124333000Y-105283000D01*
X124333000Y-105263000D01*
X124587000Y-105263000D01*
X124587000Y-105283000D01*
X125729915Y-105283000D01*
X125851904Y-105060961D01*
X125811246Y-104926913D01*
X125691037Y-104672580D01*
X125523519Y-104446586D01*
X125315131Y-104257615D01*
X125129135Y-104146067D01*
X125139727Y-104141680D01*
X125374759Y-103984637D01*
X125574637Y-103784759D01*
X125731680Y-103549727D01*
X125839853Y-103288574D01*
X125895000Y-103011335D01*
X125895000Y-102728665D01*
X125839853Y-102451426D01*
X125731680Y-102190273D01*
X125574637Y-101955241D01*
X125374759Y-101755363D01*
X125142241Y-101600000D01*
X125374759Y-101444637D01*
X125574637Y-101244759D01*
X125731680Y-101009727D01*
X125839853Y-100748574D01*
X125895000Y-100471335D01*
X125895000Y-100188665D01*
X125839853Y-99911426D01*
X125731680Y-99650273D01*
X125574637Y-99415241D01*
X125374759Y-99215363D01*
X125142241Y-99060000D01*
X125374759Y-98904637D01*
X125574637Y-98704759D01*
X125731680Y-98469727D01*
X125839853Y-98208574D01*
X125895000Y-97931335D01*
X125895000Y-97648665D01*
X125839853Y-97371426D01*
X125731680Y-97110273D01*
X125574637Y-96875241D01*
X125374759Y-96675363D01*
X125142241Y-96520000D01*
X125374759Y-96364637D01*
X125574637Y-96164759D01*
X125731680Y-95929727D01*
X125839853Y-95668574D01*
X125895000Y-95391335D01*
X125895000Y-95108665D01*
X125839853Y-94831426D01*
X125731680Y-94570273D01*
X125574637Y-94335241D01*
X125374759Y-94135363D01*
X125142241Y-93980000D01*
X125374759Y-93824637D01*
X125574637Y-93624759D01*
X125731680Y-93389727D01*
X125839853Y-93128574D01*
X125895000Y-92851335D01*
X125895000Y-92568665D01*
X125839853Y-92291426D01*
X125731680Y-92030273D01*
X125574637Y-91795241D01*
X125374759Y-91595363D01*
X125139727Y-91438320D01*
X124878574Y-91330147D01*
X124601335Y-91275000D01*
X124318665Y-91275000D01*
X124041426Y-91330147D01*
X123780273Y-91438320D01*
X123545241Y-91595363D01*
X123345363Y-91795241D01*
X123188320Y-92030273D01*
X123080147Y-92291426D01*
X123025000Y-92568665D01*
X123025000Y-92851335D01*
X123080147Y-93128574D01*
X123188320Y-93389727D01*
X123345363Y-93624759D01*
X123545241Y-93824637D01*
X123777759Y-93980000D01*
X123545241Y-94135363D01*
X123345363Y-94335241D01*
X123188320Y-94570273D01*
X123080147Y-94831426D01*
X123025000Y-95108665D01*
X123025000Y-95391335D01*
X123080147Y-95668574D01*
X123188320Y-95929727D01*
X123345363Y-96164759D01*
X123545241Y-96364637D01*
X123777759Y-96520000D01*
X123545241Y-96675363D01*
X123542157Y-96678447D01*
X119396210Y-92532500D01*
X120190639Y-91738072D01*
X120640000Y-91738072D01*
X120813254Y-91721008D01*
X120979850Y-91670472D01*
X121133386Y-91588405D01*
X121267962Y-91477962D01*
X121378405Y-91343386D01*
X121460472Y-91189850D01*
X121511008Y-91023254D01*
X121528072Y-90850000D01*
X121528072Y-90050000D01*
X121511008Y-89876746D01*
X121460472Y-89710150D01*
X121378405Y-89556614D01*
X121267962Y-89422038D01*
X121133386Y-89311595D01*
X120979850Y-89229528D01*
X120813254Y-89178992D01*
X120640000Y-89161928D01*
X119390000Y-89161928D01*
X119216746Y-89178992D01*
X119050150Y-89229528D01*
X118896614Y-89311595D01*
X118762038Y-89422038D01*
X118651595Y-89556614D01*
X118569528Y-89710150D01*
X118518992Y-89876746D01*
X118501928Y-90050000D01*
X118501928Y-90499361D01*
X117326290Y-91675000D01*
X117199396Y-91675000D01*
X117119759Y-91595363D01*
X116887241Y-91440000D01*
X117119759Y-91284637D01*
X117319637Y-91084759D01*
X117476680Y-90849727D01*
X117584853Y-90588574D01*
X117640000Y-90311335D01*
X117640000Y-90028665D01*
X117584853Y-89751426D01*
X117476680Y-89490273D01*
X117319637Y-89255241D01*
X117119759Y-89055363D01*
X116887241Y-88900000D01*
X117119759Y-88744637D01*
X117319637Y-88544759D01*
X117426384Y-88385000D01*
X118770614Y-88385000D01*
X118896614Y-88488405D01*
X119050150Y-88570472D01*
X119216746Y-88621008D01*
X119390000Y-88638072D01*
X120640000Y-88638072D01*
X120813254Y-88621008D01*
X120979850Y-88570472D01*
X121133386Y-88488405D01*
X121267962Y-88377962D01*
X121378405Y-88243386D01*
X121460472Y-88089850D01*
X121511008Y-87923254D01*
X121528072Y-87750000D01*
X121528072Y-86950000D01*
X121511008Y-86776746D01*
X121460472Y-86610150D01*
X121378405Y-86456614D01*
X121267962Y-86322038D01*
X121133386Y-86211595D01*
X120979850Y-86129528D01*
X120964923Y-86125000D01*
X124339878Y-86125000D01*
X124339463Y-86125506D01*
X124280498Y-86235820D01*
X124244188Y-86355518D01*
X124231928Y-86480000D01*
X124231928Y-88780000D01*
X124244188Y-88904482D01*
X124280498Y-89024180D01*
X124339463Y-89134494D01*
X124418815Y-89231185D01*
X124515506Y-89310537D01*
X124625820Y-89369502D01*
X124745518Y-89405812D01*
X124870000Y-89418072D01*
X126054362Y-89418072D01*
X128505000Y-91868711D01*
X128505001Y-101549162D01*
X128499994Y-101600000D01*
X128519977Y-101802895D01*
X128579160Y-101997993D01*
X128675266Y-102177797D01*
X128769157Y-102292203D01*
X128804605Y-102335396D01*
X128844092Y-102367802D01*
X130042197Y-103565908D01*
X130074604Y-103605396D01*
X130114092Y-103637803D01*
X130232202Y-103734734D01*
X130325793Y-103784759D01*
X130412007Y-103830841D01*
X130607105Y-103890024D01*
X130759162Y-103905000D01*
X130759171Y-103905000D01*
X130809999Y-103910006D01*
X130860827Y-103905000D01*
X131085604Y-103905000D01*
X131165241Y-103984637D01*
X131400273Y-104141680D01*
X131410865Y-104146067D01*
X131224869Y-104257615D01*
X131016481Y-104446586D01*
X130848963Y-104672580D01*
X130728754Y-104926913D01*
X130688096Y-105060961D01*
X130810085Y-105283000D01*
X131953000Y-105283000D01*
X131953000Y-105263000D01*
X132207000Y-105263000D01*
X132207000Y-105283000D01*
X133349915Y-105283000D01*
X133471904Y-105060961D01*
X133431246Y-104926913D01*
X133311037Y-104672580D01*
X133143519Y-104446586D01*
X132935131Y-104257615D01*
X132749135Y-104146067D01*
X132759727Y-104141680D01*
X132994759Y-103984637D01*
X133194637Y-103784759D01*
X133351680Y-103549727D01*
X133459853Y-103288574D01*
X133515000Y-103011335D01*
X133515000Y-102728665D01*
X133459853Y-102451426D01*
X133351680Y-102190273D01*
X133194637Y-101955241D01*
X132994759Y-101755363D01*
X132762241Y-101600000D01*
X132994759Y-101444637D01*
X133194637Y-101244759D01*
X133351680Y-101009727D01*
X133459853Y-100748574D01*
X133515000Y-100471335D01*
X133515000Y-100188665D01*
X133479256Y-100008967D01*
X135525000Y-100008967D01*
X135525000Y-100331033D01*
X135587832Y-100646912D01*
X135711082Y-100944463D01*
X135890013Y-101212252D01*
X136117748Y-101439987D01*
X136385537Y-101618918D01*
X136683088Y-101742168D01*
X136998967Y-101805000D01*
X137321033Y-101805000D01*
X137636912Y-101742168D01*
X137934463Y-101618918D01*
X138202252Y-101439987D01*
X138429987Y-101212252D01*
X138608918Y-100944463D01*
X138732168Y-100646912D01*
X138795000Y-100331033D01*
X138795000Y-100008967D01*
X138732168Y-99693088D01*
X138608918Y-99395537D01*
X138429987Y-99127748D01*
X138202252Y-98900013D01*
X137934463Y-98721082D01*
X137636912Y-98597832D01*
X137321033Y-98535000D01*
X136998967Y-98535000D01*
X136683088Y-98597832D01*
X136385537Y-98721082D01*
X136117748Y-98900013D01*
X135890013Y-99127748D01*
X135711082Y-99395537D01*
X135587832Y-99693088D01*
X135525000Y-100008967D01*
X133479256Y-100008967D01*
X133459853Y-99911426D01*
X133351680Y-99650273D01*
X133194637Y-99415241D01*
X132994759Y-99215363D01*
X132762241Y-99060000D01*
X132994759Y-98904637D01*
X133194637Y-98704759D01*
X133351680Y-98469727D01*
X133459853Y-98208574D01*
X133515000Y-97931335D01*
X133515000Y-97648665D01*
X133459853Y-97371426D01*
X133351680Y-97110273D01*
X133194637Y-96875241D01*
X132994759Y-96675363D01*
X132762241Y-96520000D01*
X132994759Y-96364637D01*
X133194637Y-96164759D01*
X133351680Y-95929727D01*
X133459853Y-95668574D01*
X133515000Y-95391335D01*
X133515000Y-95108665D01*
X133459853Y-94831426D01*
X133351680Y-94570273D01*
X133194637Y-94335241D01*
X132994759Y-94135363D01*
X132762241Y-93980000D01*
X132994759Y-93824637D01*
X133074396Y-93745000D01*
X141309172Y-93745000D01*
X141360000Y-93750006D01*
X141410828Y-93745000D01*
X141410838Y-93745000D01*
X141562895Y-93730024D01*
X141595001Y-93720285D01*
X141595001Y-94599162D01*
X141589994Y-94650000D01*
X141609977Y-94852895D01*
X141669160Y-95047993D01*
X141765266Y-95227797D01*
X141862197Y-95345907D01*
X141894605Y-95385396D01*
X141934093Y-95417803D01*
X141941928Y-95425638D01*
X141941928Y-95875000D01*
X141958992Y-96048254D01*
X142009528Y-96214850D01*
X142091595Y-96368386D01*
X142195000Y-96494387D01*
X142195001Y-97775648D01*
X142129463Y-97855506D01*
X142070498Y-97965820D01*
X142034188Y-98085518D01*
X142021928Y-98210000D01*
X142021928Y-99910000D01*
X142034188Y-100034482D01*
X142070498Y-100154180D01*
X142129463Y-100264494D01*
X142208815Y-100361185D01*
X142305506Y-100440537D01*
X142415820Y-100499502D01*
X142535518Y-100535812D01*
X142660000Y-100548072D01*
X144360000Y-100548072D01*
X144484482Y-100535812D01*
X144604180Y-100499502D01*
X144714494Y-100440537D01*
X144811185Y-100361185D01*
X144890537Y-100264494D01*
X144949502Y-100154180D01*
X144971513Y-100081620D01*
X145015000Y-100125107D01*
X145015001Y-106492546D01*
X144955820Y-106510498D01*
X144845506Y-106569463D01*
X144748815Y-106648815D01*
X144669463Y-106745506D01*
X144610498Y-106855820D01*
X144574188Y-106975518D01*
X144561928Y-107100000D01*
X144561928Y-108800000D01*
X144574188Y-108924482D01*
X144610498Y-109044180D01*
X144669463Y-109154494D01*
X144748815Y-109251185D01*
X144845506Y-109330537D01*
X144955820Y-109389502D01*
X145028380Y-109411513D01*
X144896525Y-109543368D01*
X144734010Y-109786589D01*
X144622068Y-110056842D01*
X144565000Y-110343740D01*
X144565000Y-110636260D01*
X144622068Y-110923158D01*
X144734010Y-111193411D01*
X144896525Y-111436632D01*
X145103368Y-111643475D01*
X145285534Y-111765195D01*
X145168645Y-111834822D01*
X144952412Y-112029731D01*
X144778359Y-112263080D01*
X144653175Y-112525901D01*
X144608524Y-112673110D01*
X144729845Y-112903000D01*
X145923000Y-112903000D01*
X145923000Y-112883000D01*
X146177000Y-112883000D01*
X146177000Y-112903000D01*
X147370155Y-112903000D01*
X147491476Y-112673110D01*
X147446825Y-112525901D01*
X147321641Y-112263080D01*
X147147588Y-112029731D01*
X146931355Y-111834822D01*
X146814466Y-111765195D01*
X146996632Y-111643475D01*
X147203475Y-111436632D01*
X147365990Y-111193411D01*
X147477932Y-110923158D01*
X147535000Y-110636260D01*
X147535000Y-110343740D01*
X147477932Y-110056842D01*
X147365990Y-109786589D01*
X147203475Y-109543368D01*
X147071620Y-109411513D01*
X147144180Y-109389502D01*
X147254494Y-109330537D01*
X147351185Y-109251185D01*
X147430537Y-109154494D01*
X147489502Y-109044180D01*
X147525812Y-108924482D01*
X147538072Y-108800000D01*
X147538072Y-107100000D01*
X147525812Y-106975518D01*
X147489502Y-106855820D01*
X147430537Y-106745506D01*
X147351185Y-106648815D01*
X147254494Y-106569463D01*
X147144180Y-106510498D01*
X147085000Y-106492546D01*
X147085000Y-100125107D01*
X147203475Y-100006632D01*
X147365990Y-99763411D01*
X147477932Y-99493158D01*
X147535000Y-99206260D01*
X147535000Y-98913740D01*
X147477932Y-98626842D01*
X147365990Y-98356589D01*
X147365000Y-98355107D01*
X147365000Y-96494386D01*
X147468405Y-96368386D01*
X147550472Y-96214850D01*
X147601008Y-96048254D01*
X147618072Y-95875000D01*
X147618072Y-95425638D01*
X147625903Y-95417807D01*
X147665396Y-95385396D01*
X147743942Y-95289687D01*
X147794734Y-95227798D01*
X147890840Y-95047994D01*
X147890841Y-95047993D01*
X147950024Y-94852895D01*
X147965000Y-94700838D01*
X147965000Y-94700829D01*
X147970006Y-94650001D01*
X147965000Y-94599173D01*
X147965000Y-93228072D01*
X148180000Y-93228072D01*
X148304482Y-93215812D01*
X148424180Y-93179502D01*
X148534494Y-93120537D01*
X148631185Y-93041185D01*
X148710537Y-92944494D01*
X148769502Y-92834180D01*
X148805812Y-92714482D01*
X148818072Y-92590000D01*
X148818072Y-90290000D01*
X148805812Y-90165518D01*
X148769502Y-90045820D01*
X148710537Y-89935506D01*
X148631185Y-89838815D01*
X148534494Y-89759463D01*
X148424180Y-89700498D01*
X148304482Y-89664188D01*
X148180000Y-89651928D01*
X145680000Y-89651928D01*
X145555518Y-89664188D01*
X145435820Y-89700498D01*
X145325506Y-89759463D01*
X145228815Y-89838815D01*
X145149463Y-89935506D01*
X145090498Y-90045820D01*
X145054188Y-90165518D01*
X145041928Y-90290000D01*
X145041928Y-92590000D01*
X145054188Y-92714482D01*
X145090498Y-92834180D01*
X145149463Y-92944494D01*
X145228815Y-93041185D01*
X145325506Y-93120537D01*
X145435820Y-93179502D01*
X145555518Y-93215812D01*
X145680000Y-93228072D01*
X145895001Y-93228072D01*
X145895001Y-93740375D01*
X145756746Y-93753992D01*
X145590150Y-93804528D01*
X145436614Y-93886595D01*
X145302038Y-93997038D01*
X145191595Y-94131614D01*
X145109528Y-94285150D01*
X145058992Y-94451746D01*
X145041928Y-94625000D01*
X145041928Y-95875000D01*
X145058992Y-96048254D01*
X145109528Y-96214850D01*
X145191595Y-96368386D01*
X145295000Y-96494387D01*
X145295001Y-97778480D01*
X145103368Y-97906525D01*
X144971513Y-98038380D01*
X144949502Y-97965820D01*
X144890537Y-97855506D01*
X144811185Y-97758815D01*
X144714494Y-97679463D01*
X144604180Y-97620498D01*
X144484482Y-97584188D01*
X144360000Y-97571928D01*
X144265000Y-97571928D01*
X144265000Y-96494386D01*
X144368405Y-96368386D01*
X144450472Y-96214850D01*
X144501008Y-96048254D01*
X144518072Y-95875000D01*
X144518072Y-94625000D01*
X144501008Y-94451746D01*
X144450472Y-94285150D01*
X144368405Y-94131614D01*
X144257962Y-93997038D01*
X144123386Y-93886595D01*
X143969850Y-93804528D01*
X143803254Y-93753992D01*
X143665000Y-93740375D01*
X143665000Y-93228072D01*
X143880000Y-93228072D01*
X144004482Y-93215812D01*
X144124180Y-93179502D01*
X144234494Y-93120537D01*
X144331185Y-93041185D01*
X144410537Y-92944494D01*
X144469502Y-92834180D01*
X144505812Y-92714482D01*
X144518072Y-92590000D01*
X144518072Y-90290000D01*
X144505812Y-90165518D01*
X144469502Y-90045820D01*
X144410537Y-89935506D01*
X144331185Y-89838815D01*
X144234494Y-89759463D01*
X144124180Y-89700498D01*
X144004482Y-89664188D01*
X143880000Y-89651928D01*
X141380000Y-89651928D01*
X141255518Y-89664188D01*
X141135820Y-89700498D01*
X141025506Y-89759463D01*
X140928815Y-89838815D01*
X140849463Y-89935506D01*
X140790498Y-90045820D01*
X140754188Y-90165518D01*
X140741928Y-90290000D01*
X140741928Y-91675000D01*
X137799069Y-91675000D01*
X137934463Y-91618918D01*
X138202252Y-91439987D01*
X138429987Y-91212252D01*
X138608918Y-90944463D01*
X138732168Y-90646912D01*
X138795000Y-90331033D01*
X138795000Y-90008967D01*
X138732168Y-89693088D01*
X138608918Y-89395537D01*
X138429987Y-89127748D01*
X138202252Y-88900013D01*
X137934463Y-88721082D01*
X137636912Y-88597832D01*
X137321033Y-88535000D01*
X136998967Y-88535000D01*
X136990412Y-88536702D01*
X135387807Y-86934097D01*
X135355396Y-86894604D01*
X135197797Y-86765266D01*
X135017993Y-86669159D01*
X134822895Y-86609976D01*
X134670838Y-86595000D01*
X134670828Y-86595000D01*
X134620000Y-86589994D01*
X134569172Y-86595000D01*
X132308072Y-86595000D01*
X132308072Y-86480000D01*
X132295812Y-86355518D01*
X132259502Y-86235820D01*
X132200537Y-86125506D01*
X132200122Y-86125000D01*
X134569172Y-86125000D01*
X134620000Y-86130006D01*
X134670828Y-86125000D01*
X134670838Y-86125000D01*
X134822895Y-86110024D01*
X135017993Y-86050841D01*
X135197797Y-85954734D01*
X135355396Y-85825396D01*
X135387807Y-85785903D01*
X137160000Y-84013711D01*
X137662196Y-84515907D01*
X137694604Y-84555396D01*
X137734092Y-84587803D01*
X137852202Y-84684734D01*
X137903747Y-84712285D01*
X138032007Y-84780841D01*
X138227105Y-84840024D01*
X138379162Y-84855000D01*
X138379171Y-84855000D01*
X138429999Y-84860006D01*
X138480827Y-84855000D01*
X139052555Y-84855000D01*
X139057038Y-84860462D01*
X139191613Y-84970905D01*
X139345149Y-85052972D01*
X139511745Y-85103508D01*
X139684999Y-85120572D01*
X140985001Y-85120572D01*
X141158255Y-85103508D01*
X141324851Y-85052972D01*
X141478387Y-84970905D01*
X141612962Y-84860462D01*
X141723405Y-84725887D01*
X141805472Y-84572351D01*
X141856008Y-84405755D01*
X141873072Y-84232501D01*
X141873072Y-83407499D01*
X141856008Y-83234245D01*
X141805472Y-83067649D01*
X141723405Y-82914113D01*
X141612962Y-82779538D01*
X141478387Y-82669095D01*
X141324851Y-82587028D01*
X141158255Y-82536492D01*
X140985001Y-82519428D01*
X139684999Y-82519428D01*
X139511745Y-82536492D01*
X139345149Y-82587028D01*
X139191613Y-82669095D01*
X139057038Y-82779538D01*
X139052555Y-82785000D01*
X138858711Y-82785000D01*
X138677090Y-82603379D01*
X138690537Y-82586994D01*
X138749502Y-82476680D01*
X138785812Y-82356982D01*
X138798072Y-82232500D01*
X138798072Y-81369116D01*
X138809188Y-81481982D01*
X138845498Y-81601680D01*
X138904463Y-81711994D01*
X138983815Y-81808685D01*
X139080506Y-81888037D01*
X139190820Y-81947002D01*
X139310518Y-81983312D01*
X139435000Y-81995572D01*
X140049250Y-81992500D01*
X140208000Y-81833750D01*
X140208000Y-80822000D01*
X140462000Y-80822000D01*
X140462000Y-81833750D01*
X140620750Y-81992500D01*
X141235000Y-81995572D01*
X141359482Y-81983312D01*
X141479180Y-81947002D01*
X141589494Y-81888037D01*
X141686185Y-81808685D01*
X141765537Y-81711994D01*
X141824502Y-81601680D01*
X141860812Y-81481982D01*
X141873072Y-81357500D01*
X141870000Y-80980750D01*
X141711250Y-80822000D01*
X140462000Y-80822000D01*
X140208000Y-80822000D01*
X138958750Y-80822000D01*
X138800000Y-80980750D01*
X138798072Y-81217200D01*
X138798072Y-80327500D01*
X138785812Y-80203018D01*
X138749502Y-80083320D01*
X138722338Y-80032500D01*
X138796928Y-80032500D01*
X138800000Y-80409250D01*
X138958750Y-80568000D01*
X140208000Y-80568000D01*
X140208000Y-79556250D01*
X140462000Y-79556250D01*
X140462000Y-80568000D01*
X141711250Y-80568000D01*
X141870000Y-80409250D01*
X141873072Y-80032500D01*
X141860812Y-79908018D01*
X141824502Y-79788320D01*
X141765537Y-79678006D01*
X141686185Y-79581315D01*
X141589494Y-79501963D01*
X141479180Y-79442998D01*
X141359482Y-79406688D01*
X141235000Y-79394428D01*
X140620750Y-79397500D01*
X140462000Y-79556250D01*
X140208000Y-79556250D01*
X140049250Y-79397500D01*
X139435000Y-79394428D01*
X139310518Y-79406688D01*
X139190820Y-79442998D01*
X139080506Y-79501963D01*
X138983815Y-79581315D01*
X138904463Y-79678006D01*
X138845498Y-79788320D01*
X138809188Y-79908018D01*
X138796928Y-80032500D01*
X138722338Y-80032500D01*
X138690537Y-79973006D01*
X138611185Y-79876315D01*
X138514494Y-79796963D01*
X138422781Y-79747941D01*
X138535969Y-79606923D01*
X138679571Y-79331094D01*
X138750563Y-79112980D01*
X138630594Y-78867000D01*
X137287000Y-78867000D01*
X137287000Y-78887000D01*
X137033000Y-78887000D01*
X137033000Y-78867000D01*
X135689406Y-78867000D01*
X135569437Y-79112980D01*
X135640429Y-79331094D01*
X135784031Y-79606923D01*
X135897219Y-79747941D01*
X135805506Y-79796963D01*
X135708815Y-79876315D01*
X135629463Y-79973006D01*
X135570498Y-80083320D01*
X135534188Y-80203018D01*
X135521928Y-80327500D01*
X135521928Y-82232500D01*
X135534188Y-82356982D01*
X135570498Y-82476680D01*
X135629463Y-82586994D01*
X135642910Y-82603379D01*
X134191290Y-84055000D01*
X127050835Y-84055000D01*
X127000000Y-84049993D01*
X126949164Y-84055000D01*
X126949162Y-84055000D01*
X126797105Y-84069976D01*
X126602007Y-84129159D01*
X126518309Y-84173896D01*
X126422202Y-84225266D01*
X126304092Y-84322197D01*
X126264604Y-84354604D01*
X126232197Y-84394092D01*
X126120000Y-84506289D01*
X126007807Y-84394097D01*
X125975396Y-84354604D01*
X125817797Y-84225266D01*
X125637993Y-84129159D01*
X125442895Y-84069976D01*
X125290838Y-84055000D01*
X125290828Y-84055000D01*
X125240000Y-84049994D01*
X125189172Y-84055000D01*
X117268711Y-84055000D01*
X116605000Y-83391290D01*
X116605000Y-82600827D01*
X116610006Y-82549999D01*
X116605000Y-82499171D01*
X116605000Y-82499162D01*
X116590024Y-82347105D01*
X116530841Y-82152007D01*
X116486104Y-82068309D01*
X116434734Y-81972202D01*
X116337803Y-81854092D01*
X116305396Y-81814604D01*
X116265908Y-81782197D01*
X115227807Y-80744097D01*
X115195396Y-80704604D01*
X115037797Y-80575266D01*
X114857993Y-80479159D01*
X114662895Y-80419976D01*
X114510838Y-80405000D01*
X114510828Y-80405000D01*
X114460000Y-80399994D01*
X114409172Y-80405000D01*
X113198072Y-80405000D01*
X113198072Y-79940000D01*
X113181008Y-79766746D01*
X113130472Y-79600150D01*
X113048405Y-79446614D01*
X112937962Y-79312038D01*
X112803386Y-79201595D01*
X112649850Y-79119528D01*
X112483254Y-79068992D01*
X112310000Y-79051928D01*
X111210000Y-79051928D01*
X111036746Y-79068992D01*
X110870150Y-79119528D01*
X110716614Y-79201595D01*
X110582038Y-79312038D01*
X110471595Y-79446614D01*
X110389528Y-79600150D01*
X110338992Y-79766746D01*
X110321928Y-79940000D01*
X110321928Y-80405000D01*
X105299700Y-80405000D01*
X105291008Y-80316745D01*
X105240472Y-80150149D01*
X105158405Y-79996613D01*
X105047962Y-79862038D01*
X104913387Y-79751595D01*
X104759851Y-79669528D01*
X104593255Y-79618992D01*
X104420001Y-79601928D01*
X101319999Y-79601928D01*
X101146745Y-79618992D01*
X100980149Y-79669528D01*
X100826613Y-79751595D01*
X100692038Y-79862038D01*
X100581595Y-79996613D01*
X100499528Y-80150149D01*
X100448992Y-80316745D01*
X100431928Y-80489999D01*
X100431928Y-82070001D01*
X100448992Y-82243255D01*
X100499528Y-82409851D01*
X100581595Y-82563387D01*
X100692038Y-82697962D01*
X100826613Y-82808405D01*
X100980149Y-82890472D01*
X101146745Y-82941008D01*
X101319999Y-82958072D01*
X104420001Y-82958072D01*
X104593255Y-82941008D01*
X104759851Y-82890472D01*
X104913387Y-82808405D01*
X105047962Y-82697962D01*
X105158405Y-82563387D01*
X105205649Y-82475000D01*
X110321928Y-82475000D01*
X110321928Y-82940000D01*
X110338992Y-83113254D01*
X110389528Y-83279850D01*
X110471595Y-83433386D01*
X110582038Y-83567962D01*
X110716614Y-83678405D01*
X110743919Y-83693000D01*
X97917000Y-83693000D01*
X97917000Y-78505098D01*
X118115000Y-78505098D01*
X118115000Y-78974902D01*
X118206654Y-79435679D01*
X118386440Y-79869721D01*
X118647450Y-80260349D01*
X118979651Y-80592550D01*
X119370279Y-80853560D01*
X119804321Y-81033346D01*
X120265098Y-81125000D01*
X120734902Y-81125000D01*
X121195679Y-81033346D01*
X121629721Y-80853560D01*
X122020349Y-80592550D01*
X122352550Y-80260349D01*
X122613560Y-79869721D01*
X122793346Y-79435679D01*
X122885000Y-78974902D01*
X122885000Y-78505098D01*
X122793346Y-78044321D01*
X122613560Y-77610279D01*
X122352550Y-77219651D01*
X122020349Y-76887450D01*
X121629721Y-76626440D01*
X121195679Y-76446654D01*
X120734902Y-76355000D01*
X120265098Y-76355000D01*
X119804321Y-76446654D01*
X119370279Y-76626440D01*
X118979651Y-76887450D01*
X118647450Y-77219651D01*
X118386440Y-77610279D01*
X118206654Y-78044321D01*
X118115000Y-78505098D01*
X97917000Y-78505098D01*
X97917000Y-76586710D01*
X100480252Y-76586710D01*
X100513901Y-76723663D01*
X100646731Y-77024984D01*
X100835794Y-77294602D01*
X101073824Y-77522155D01*
X101351673Y-77698898D01*
X101658664Y-77818039D01*
X101983000Y-77875000D01*
X102743000Y-77875000D01*
X102743000Y-76327000D01*
X102997000Y-76327000D01*
X102997000Y-77875000D01*
X103757000Y-77875000D01*
X104081336Y-77818039D01*
X104153584Y-77790000D01*
X110321928Y-77790000D01*
X110334188Y-77914482D01*
X110370498Y-78034180D01*
X110429463Y-78144494D01*
X110508815Y-78241185D01*
X110605506Y-78320537D01*
X110715820Y-78379502D01*
X110835518Y-78415812D01*
X110960000Y-78428072D01*
X111474250Y-78425000D01*
X111633000Y-78266250D01*
X111633000Y-76167000D01*
X111887000Y-76167000D01*
X111887000Y-78266250D01*
X112045750Y-78425000D01*
X112560000Y-78428072D01*
X112684482Y-78415812D01*
X112804180Y-78379502D01*
X112914494Y-78320537D01*
X113011185Y-78241185D01*
X113090537Y-78144494D01*
X113149502Y-78034180D01*
X113185812Y-77914482D01*
X113198072Y-77790000D01*
X113195000Y-76325750D01*
X113036250Y-76167000D01*
X111887000Y-76167000D01*
X111633000Y-76167000D01*
X110483750Y-76167000D01*
X110325000Y-76325750D01*
X110321928Y-77790000D01*
X104153584Y-77790000D01*
X104388327Y-77698898D01*
X104666176Y-77522155D01*
X104904206Y-77294602D01*
X105093269Y-77024984D01*
X105226099Y-76723663D01*
X105259748Y-76586710D01*
X105140922Y-76327000D01*
X102997000Y-76327000D01*
X102743000Y-76327000D01*
X100599078Y-76327000D01*
X100480252Y-76586710D01*
X97917000Y-76586710D01*
X97917000Y-75813290D01*
X100480252Y-75813290D01*
X100599078Y-76073000D01*
X102743000Y-76073000D01*
X102743000Y-74525000D01*
X102997000Y-74525000D01*
X102997000Y-76073000D01*
X105140922Y-76073000D01*
X105259748Y-75813290D01*
X105226099Y-75676337D01*
X105093269Y-75375016D01*
X104904206Y-75105398D01*
X104666176Y-74877845D01*
X104388327Y-74701102D01*
X104081336Y-74581961D01*
X103757000Y-74525000D01*
X102997000Y-74525000D01*
X102743000Y-74525000D01*
X101983000Y-74525000D01*
X101658664Y-74581961D01*
X101351673Y-74701102D01*
X101073824Y-74877845D01*
X100835794Y-75105398D01*
X100646731Y-75375016D01*
X100513901Y-75676337D01*
X100480252Y-75813290D01*
X97917000Y-75813290D01*
X97917000Y-73787000D01*
X110571952Y-73787000D01*
X110508815Y-73838815D01*
G37*
%TD.AperFunction*%
%TD*%
M02*
