%TF.GenerationSoftware,KiCad,Pcbnew,5.1.10-1.fc33*%
%TF.CreationDate,2021-06-13T17:02:16+02:00*%
%TF.ProjectId,power-driver,706f7765-722d-4647-9269-7665722e6b69,rev?*%
%TF.SameCoordinates,Original*%
%TF.FileFunction,Paste,Top*%
%TF.FilePolarity,Positive*%
%FSLAX46Y46*%
G04 Gerber Fmt 4.6, Leading zero omitted, Abs format (unit mm)*
G04 Created by KiCad (PCBNEW 5.1.10-1.fc33) date 2021-06-13 17:02:16*
%MOMM*%
%LPD*%
G01*
G04 APERTURE LIST*
%ADD10R,1.200000X0.900000*%
%ADD11R,2.500000X2.300000*%
G04 APERTURE END LIST*
D10*
%TO.C,D6*%
X105410000Y-118490000D03*
X105410000Y-115190000D03*
%TD*%
%TO.C,D5*%
X105410000Y-105790000D03*
X105410000Y-102490000D03*
%TD*%
%TO.C,D4*%
X105410000Y-93090000D03*
X105410000Y-89790000D03*
%TD*%
%TO.C,R8*%
G36*
G01*
X129170000Y-117465000D02*
X129170000Y-116215000D01*
G75*
G02*
X129420000Y-115965000I250000J0D01*
G01*
X130220000Y-115965000D01*
G75*
G02*
X130470000Y-116215000I0J-250000D01*
G01*
X130470000Y-117465000D01*
G75*
G02*
X130220000Y-117715000I-250000J0D01*
G01*
X129420000Y-117715000D01*
G75*
G02*
X129170000Y-117465000I0J250000D01*
G01*
G37*
G36*
G01*
X126070000Y-117465000D02*
X126070000Y-116215000D01*
G75*
G02*
X126320000Y-115965000I250000J0D01*
G01*
X127120000Y-115965000D01*
G75*
G02*
X127370000Y-116215000I0J-250000D01*
G01*
X127370000Y-117465000D01*
G75*
G02*
X127120000Y-117715000I-250000J0D01*
G01*
X126320000Y-117715000D01*
G75*
G02*
X126070000Y-117465000I0J250000D01*
G01*
G37*
%TD*%
%TO.C,R7*%
G36*
G01*
X145680000Y-95875000D02*
X145680000Y-94625000D01*
G75*
G02*
X145930000Y-94375000I250000J0D01*
G01*
X146730000Y-94375000D01*
G75*
G02*
X146980000Y-94625000I0J-250000D01*
G01*
X146980000Y-95875000D01*
G75*
G02*
X146730000Y-96125000I-250000J0D01*
G01*
X145930000Y-96125000D01*
G75*
G02*
X145680000Y-95875000I0J250000D01*
G01*
G37*
G36*
G01*
X142580000Y-95875000D02*
X142580000Y-94625000D01*
G75*
G02*
X142830000Y-94375000I250000J0D01*
G01*
X143630000Y-94375000D01*
G75*
G02*
X143880000Y-94625000I0J-250000D01*
G01*
X143880000Y-95875000D01*
G75*
G02*
X143630000Y-96125000I-250000J0D01*
G01*
X142830000Y-96125000D01*
G75*
G02*
X142580000Y-95875000I0J250000D01*
G01*
G37*
%TD*%
%TO.C,R3*%
G36*
G01*
X119390000Y-115200000D02*
X120640000Y-115200000D01*
G75*
G02*
X120890000Y-115450000I0J-250000D01*
G01*
X120890000Y-116250000D01*
G75*
G02*
X120640000Y-116500000I-250000J0D01*
G01*
X119390000Y-116500000D01*
G75*
G02*
X119140000Y-116250000I0J250000D01*
G01*
X119140000Y-115450000D01*
G75*
G02*
X119390000Y-115200000I250000J0D01*
G01*
G37*
G36*
G01*
X119390000Y-112100000D02*
X120640000Y-112100000D01*
G75*
G02*
X120890000Y-112350000I0J-250000D01*
G01*
X120890000Y-113150000D01*
G75*
G02*
X120640000Y-113400000I-250000J0D01*
G01*
X119390000Y-113400000D01*
G75*
G02*
X119140000Y-113150000I0J250000D01*
G01*
X119140000Y-112350000D01*
G75*
G02*
X119390000Y-112100000I250000J0D01*
G01*
G37*
%TD*%
%TO.C,R2*%
G36*
G01*
X119390000Y-102780000D02*
X120640000Y-102780000D01*
G75*
G02*
X120890000Y-103030000I0J-250000D01*
G01*
X120890000Y-103830000D01*
G75*
G02*
X120640000Y-104080000I-250000J0D01*
G01*
X119390000Y-104080000D01*
G75*
G02*
X119140000Y-103830000I0J250000D01*
G01*
X119140000Y-103030000D01*
G75*
G02*
X119390000Y-102780000I250000J0D01*
G01*
G37*
G36*
G01*
X119390000Y-99680000D02*
X120640000Y-99680000D01*
G75*
G02*
X120890000Y-99930000I0J-250000D01*
G01*
X120890000Y-100730000D01*
G75*
G02*
X120640000Y-100980000I-250000J0D01*
G01*
X119390000Y-100980000D01*
G75*
G02*
X119140000Y-100730000I0J250000D01*
G01*
X119140000Y-99930000D01*
G75*
G02*
X119390000Y-99680000I250000J0D01*
G01*
G37*
%TD*%
%TO.C,R1*%
G36*
G01*
X119390000Y-89800000D02*
X120640000Y-89800000D01*
G75*
G02*
X120890000Y-90050000I0J-250000D01*
G01*
X120890000Y-90850000D01*
G75*
G02*
X120640000Y-91100000I-250000J0D01*
G01*
X119390000Y-91100000D01*
G75*
G02*
X119140000Y-90850000I0J250000D01*
G01*
X119140000Y-90050000D01*
G75*
G02*
X119390000Y-89800000I250000J0D01*
G01*
G37*
G36*
G01*
X119390000Y-86700000D02*
X120640000Y-86700000D01*
G75*
G02*
X120890000Y-86950000I0J-250000D01*
G01*
X120890000Y-87750000D01*
G75*
G02*
X120640000Y-88000000I-250000J0D01*
G01*
X119390000Y-88000000D01*
G75*
G02*
X119140000Y-87750000I0J250000D01*
G01*
X119140000Y-86950000D01*
G75*
G02*
X119390000Y-86700000I250000J0D01*
G01*
G37*
%TD*%
D11*
%TO.C,D3*%
X130420000Y-113030000D03*
X126120000Y-113030000D03*
%TD*%
%TO.C,D2*%
X146930000Y-91440000D03*
X142630000Y-91440000D03*
%TD*%
%TO.C,D1*%
X126120000Y-87630000D03*
X130420000Y-87630000D03*
%TD*%
%TO.C,C4*%
G36*
G01*
X144230000Y-78170000D02*
X145330000Y-78170000D01*
G75*
G02*
X145580000Y-78420000I0J-250000D01*
G01*
X145580000Y-80920000D01*
G75*
G02*
X145330000Y-81170000I-250000J0D01*
G01*
X144230000Y-81170000D01*
G75*
G02*
X143980000Y-80920000I0J250000D01*
G01*
X143980000Y-78420000D01*
G75*
G02*
X144230000Y-78170000I250000J0D01*
G01*
G37*
G36*
G01*
X144230000Y-73770000D02*
X145330000Y-73770000D01*
G75*
G02*
X145580000Y-74020000I0J-250000D01*
G01*
X145580000Y-76520000D01*
G75*
G02*
X145330000Y-76770000I-250000J0D01*
G01*
X144230000Y-76770000D01*
G75*
G02*
X143980000Y-76520000I0J250000D01*
G01*
X143980000Y-74020000D01*
G75*
G02*
X144230000Y-73770000I250000J0D01*
G01*
G37*
%TD*%
%TO.C,C3*%
G36*
G01*
X139684999Y-76807500D02*
X140985001Y-76807500D01*
G75*
G02*
X141235000Y-77057499I0J-249999D01*
G01*
X141235000Y-77882501D01*
G75*
G02*
X140985001Y-78132500I-249999J0D01*
G01*
X139684999Y-78132500D01*
G75*
G02*
X139435000Y-77882501I0J249999D01*
G01*
X139435000Y-77057499D01*
G75*
G02*
X139684999Y-76807500I249999J0D01*
G01*
G37*
G36*
G01*
X139684999Y-73682500D02*
X140985001Y-73682500D01*
G75*
G02*
X141235000Y-73932499I0J-249999D01*
G01*
X141235000Y-74757501D01*
G75*
G02*
X140985001Y-75007500I-249999J0D01*
G01*
X139684999Y-75007500D01*
G75*
G02*
X139435000Y-74757501I0J249999D01*
G01*
X139435000Y-73932499D01*
G75*
G02*
X139684999Y-73682500I249999J0D01*
G01*
G37*
%TD*%
%TO.C,C2*%
G36*
G01*
X140985001Y-81357500D02*
X139684999Y-81357500D01*
G75*
G02*
X139435000Y-81107501I0J249999D01*
G01*
X139435000Y-80282499D01*
G75*
G02*
X139684999Y-80032500I249999J0D01*
G01*
X140985001Y-80032500D01*
G75*
G02*
X141235000Y-80282499I0J-249999D01*
G01*
X141235000Y-81107501D01*
G75*
G02*
X140985001Y-81357500I-249999J0D01*
G01*
G37*
G36*
G01*
X140985001Y-84482500D02*
X139684999Y-84482500D01*
G75*
G02*
X139435000Y-84232501I0J249999D01*
G01*
X139435000Y-83407499D01*
G75*
G02*
X139684999Y-83157500I249999J0D01*
G01*
X140985001Y-83157500D01*
G75*
G02*
X141235000Y-83407499I0J-249999D01*
G01*
X141235000Y-84232501D01*
G75*
G02*
X140985001Y-84482500I-249999J0D01*
G01*
G37*
%TD*%
%TO.C,C1*%
G36*
G01*
X112310000Y-77790000D02*
X111210000Y-77790000D01*
G75*
G02*
X110960000Y-77540000I0J250000D01*
G01*
X110960000Y-74540000D01*
G75*
G02*
X111210000Y-74290000I250000J0D01*
G01*
X112310000Y-74290000D01*
G75*
G02*
X112560000Y-74540000I0J-250000D01*
G01*
X112560000Y-77540000D01*
G75*
G02*
X112310000Y-77790000I-250000J0D01*
G01*
G37*
G36*
G01*
X112310000Y-83190000D02*
X111210000Y-83190000D01*
G75*
G02*
X110960000Y-82940000I0J250000D01*
G01*
X110960000Y-79940000D01*
G75*
G02*
X111210000Y-79690000I250000J0D01*
G01*
X112310000Y-79690000D01*
G75*
G02*
X112560000Y-79940000I0J-250000D01*
G01*
X112560000Y-82940000D01*
G75*
G02*
X112310000Y-83190000I-250000J0D01*
G01*
G37*
%TD*%
M02*
