%TF.GenerationSoftware,KiCad,Pcbnew,5.1.10-1.fc33*%
%TF.CreationDate,2021-06-13T17:02:16+02:00*%
%TF.ProjectId,power-driver,706f7765-722d-4647-9269-7665722e6b69,rev?*%
%TF.SameCoordinates,Original*%
%TF.FileFunction,Soldermask,Bot*%
%TF.FilePolarity,Negative*%
%FSLAX46Y46*%
G04 Gerber Fmt 4.6, Leading zero omitted, Abs format (unit mm)*
G04 Created by KiCad (PCBNEW 5.1.10-1.fc33) date 2021-06-13 17:02:16*
%MOMM*%
%LPD*%
G01*
G04 APERTURE LIST*
%ADD10C,6.400000*%
%ADD11O,1.700000X1.700000*%
%ADD12R,1.700000X1.700000*%
%ADD13O,2.000000X1.905000*%
%ADD14R,2.000000X1.905000*%
%ADD15O,3.500000X3.500000*%
%ADD16O,1.600000X1.600000*%
%ADD17R,1.600000X1.600000*%
%ADD18O,3.600000X2.080000*%
%ADD19C,2.000000*%
G04 APERTURE END LIST*
D10*
%TO.C,H4*%
X100330000Y-119380000D03*
%TD*%
%TO.C,C6*%
G36*
G01*
X118094999Y-120280000D02*
X119395001Y-120280000D01*
G75*
G02*
X119645000Y-120529999I0J-249999D01*
G01*
X119645000Y-121355001D01*
G75*
G02*
X119395001Y-121605000I-249999J0D01*
G01*
X118094999Y-121605000D01*
G75*
G02*
X117845000Y-121355001I0J249999D01*
G01*
X117845000Y-120529999D01*
G75*
G02*
X118094999Y-120280000I249999J0D01*
G01*
G37*
G36*
G01*
X118094999Y-117155000D02*
X119395001Y-117155000D01*
G75*
G02*
X119645000Y-117404999I0J-249999D01*
G01*
X119645000Y-118230001D01*
G75*
G02*
X119395001Y-118480000I-249999J0D01*
G01*
X118094999Y-118480000D01*
G75*
G02*
X117845000Y-118230001I0J249999D01*
G01*
X117845000Y-117404999D01*
G75*
G02*
X118094999Y-117155000I249999J0D01*
G01*
G37*
%TD*%
%TO.C,C5*%
G36*
G01*
X118094999Y-107580000D02*
X119395001Y-107580000D01*
G75*
G02*
X119645000Y-107829999I0J-249999D01*
G01*
X119645000Y-108655001D01*
G75*
G02*
X119395001Y-108905000I-249999J0D01*
G01*
X118094999Y-108905000D01*
G75*
G02*
X117845000Y-108655001I0J249999D01*
G01*
X117845000Y-107829999D01*
G75*
G02*
X118094999Y-107580000I249999J0D01*
G01*
G37*
G36*
G01*
X118094999Y-104455000D02*
X119395001Y-104455000D01*
G75*
G02*
X119645000Y-104704999I0J-249999D01*
G01*
X119645000Y-105530001D01*
G75*
G02*
X119395001Y-105780000I-249999J0D01*
G01*
X118094999Y-105780000D01*
G75*
G02*
X117845000Y-105530001I0J249999D01*
G01*
X117845000Y-104704999D01*
G75*
G02*
X118094999Y-104455000I249999J0D01*
G01*
G37*
%TD*%
%TO.C,C7*%
G36*
G01*
X118094999Y-94880000D02*
X119395001Y-94880000D01*
G75*
G02*
X119645000Y-95129999I0J-249999D01*
G01*
X119645000Y-95955001D01*
G75*
G02*
X119395001Y-96205000I-249999J0D01*
G01*
X118094999Y-96205000D01*
G75*
G02*
X117845000Y-95955001I0J249999D01*
G01*
X117845000Y-95129999D01*
G75*
G02*
X118094999Y-94880000I249999J0D01*
G01*
G37*
G36*
G01*
X118094999Y-91755000D02*
X119395001Y-91755000D01*
G75*
G02*
X119645000Y-92004999I0J-249999D01*
G01*
X119645000Y-92830001D01*
G75*
G02*
X119395001Y-93080000I-249999J0D01*
G01*
X118094999Y-93080000D01*
G75*
G02*
X117845000Y-92830001I0J249999D01*
G01*
X117845000Y-92004999D01*
G75*
G02*
X118094999Y-91755000I249999J0D01*
G01*
G37*
%TD*%
%TO.C,H3*%
X138430000Y-119380000D03*
%TD*%
%TO.C,H2*%
X146050000Y-85090000D03*
%TD*%
%TO.C,H1*%
X100330000Y-88900000D03*
%TD*%
D11*
%TO.C,JP2*%
X129540000Y-120650000D03*
D12*
X127000000Y-120650000D03*
%TD*%
D11*
%TO.C,JP1*%
X146050000Y-99060000D03*
D12*
X143510000Y-99060000D03*
%TD*%
D11*
%TO.C,J3*%
X146050000Y-115570000D03*
X146050000Y-113030000D03*
X146050000Y-110490000D03*
D12*
X146050000Y-107950000D03*
%TD*%
D11*
%TO.C,J2*%
X99060000Y-110490000D03*
X99060000Y-107950000D03*
X99060000Y-105410000D03*
X99060000Y-102870000D03*
X99060000Y-100330000D03*
D12*
X99060000Y-97790000D03*
%TD*%
D13*
%TO.C,U1*%
X137160000Y-76200000D03*
X137160000Y-78740000D03*
D14*
X137160000Y-81280000D03*
D15*
X120500000Y-78740000D03*
%TD*%
D16*
%TO.C,U5*%
X124460000Y-107950000D03*
X132080000Y-92710000D03*
X124460000Y-105410000D03*
X132080000Y-95250000D03*
X124460000Y-102870000D03*
X132080000Y-97790000D03*
X124460000Y-100330000D03*
X132080000Y-100330000D03*
X124460000Y-97790000D03*
X132080000Y-102870000D03*
X124460000Y-95250000D03*
X132080000Y-105410000D03*
X124460000Y-92710000D03*
D17*
X132080000Y-107950000D03*
%TD*%
D16*
%TO.C,U4*%
X116205000Y-113030000D03*
X108585000Y-120650000D03*
X116205000Y-115570000D03*
X108585000Y-118110000D03*
X116205000Y-118110000D03*
X108585000Y-115570000D03*
X116205000Y-120650000D03*
D17*
X108585000Y-113030000D03*
%TD*%
D16*
%TO.C,U3*%
X116205000Y-100330000D03*
X108585000Y-107950000D03*
X116205000Y-102870000D03*
X108585000Y-105410000D03*
X116205000Y-105410000D03*
X108585000Y-102870000D03*
X116205000Y-107950000D03*
D17*
X108585000Y-100330000D03*
%TD*%
D16*
%TO.C,U2*%
X116205000Y-87630000D03*
X108585000Y-95250000D03*
X116205000Y-90170000D03*
X108585000Y-92710000D03*
X116205000Y-92710000D03*
X108585000Y-90170000D03*
X116205000Y-95250000D03*
D17*
X108585000Y-87630000D03*
%TD*%
D18*
%TO.C,J1*%
X102870000Y-76200000D03*
G36*
G01*
X104420001Y-82320000D02*
X101319999Y-82320000D01*
G75*
G02*
X101070000Y-82070001I0J249999D01*
G01*
X101070000Y-80489999D01*
G75*
G02*
X101319999Y-80240000I249999J0D01*
G01*
X104420001Y-80240000D01*
G75*
G02*
X104670000Y-80489999I0J-249999D01*
G01*
X104670000Y-82070001D01*
G75*
G02*
X104420001Y-82320000I-249999J0D01*
G01*
G37*
%TD*%
D19*
%TO.C,C10*%
X137160000Y-100170000D03*
X137160000Y-90170000D03*
%TD*%
%TO.C,C9*%
G36*
G01*
X133969999Y-105332500D02*
X135270001Y-105332500D01*
G75*
G02*
X135520000Y-105582499I0J-249999D01*
G01*
X135520000Y-106407501D01*
G75*
G02*
X135270001Y-106657500I-249999J0D01*
G01*
X133969999Y-106657500D01*
G75*
G02*
X133720000Y-106407501I0J249999D01*
G01*
X133720000Y-105582499D01*
G75*
G02*
X133969999Y-105332500I249999J0D01*
G01*
G37*
G36*
G01*
X133969999Y-102207500D02*
X135270001Y-102207500D01*
G75*
G02*
X135520000Y-102457499I0J-249999D01*
G01*
X135520000Y-103282501D01*
G75*
G02*
X135270001Y-103532500I-249999J0D01*
G01*
X133969999Y-103532500D01*
G75*
G02*
X133720000Y-103282501I0J249999D01*
G01*
X133720000Y-102457499D01*
G75*
G02*
X133969999Y-102207500I249999J0D01*
G01*
G37*
%TD*%
%TO.C,C8*%
G36*
G01*
X127650001Y-99430000D02*
X126349999Y-99430000D01*
G75*
G02*
X126100000Y-99180001I0J249999D01*
G01*
X126100000Y-98354999D01*
G75*
G02*
X126349999Y-98105000I249999J0D01*
G01*
X127650001Y-98105000D01*
G75*
G02*
X127900000Y-98354999I0J-249999D01*
G01*
X127900000Y-99180001D01*
G75*
G02*
X127650001Y-99430000I-249999J0D01*
G01*
G37*
G36*
G01*
X127650001Y-102555000D02*
X126349999Y-102555000D01*
G75*
G02*
X126100000Y-102305001I0J249999D01*
G01*
X126100000Y-101479999D01*
G75*
G02*
X126349999Y-101230000I249999J0D01*
G01*
X127650001Y-101230000D01*
G75*
G02*
X127900000Y-101479999I0J-249999D01*
G01*
X127900000Y-102305001D01*
G75*
G02*
X127650001Y-102555000I-249999J0D01*
G01*
G37*
%TD*%
M02*
